<svg width="182" height="45" viewBox="0 0 182 45" fill="none" xmlns="http://www.w3.org/2000/svg">
<path d="M0.597568 35L9.14739 22.3132L0.965303 9.99406H8.98651L13.1695 17.2568L17.2605 9.99406H25.0519L16.8238 22.1982L25.3737 35H17.2146L12.8937 27.4844L8.54982 35H0.597568ZM40.7174 22.8188C40.3037 23.0793 39.8823 23.2938 39.4533 23.4623C39.0396 23.6156 38.465 23.7611 37.7295 23.899L36.2586 24.1748C34.8796 24.42 33.8913 24.7188 33.2938 25.0712C32.2825 25.6687 31.7768 26.5957 31.7768 27.8522C31.7768 28.9707 32.0833 29.7828 32.6962 30.2884C33.3244 30.7787 34.0828 31.0239 34.9715 31.0239C36.3812 31.0239 37.6759 30.6102 38.8557 29.7828C40.0509 28.9554 40.6714 27.4461 40.7174 25.255V22.8188ZM36.7413 19.762C37.9517 19.6088 38.8174 19.4173 39.3384 19.1874C40.273 18.789 40.7404 18.1685 40.7404 17.3258C40.7404 16.2992 40.3803 15.5944 39.6602 15.2113C38.9553 14.8129 37.9134 14.6137 36.5344 14.6137C34.9869 14.6137 33.8913 14.9968 33.2478 15.7629C32.7881 16.3298 32.4817 17.0959 32.3284 18.0612H26.008C26.1459 15.8702 26.7588 14.0698 27.8467 12.6601C29.5781 10.4537 32.5506 9.35053 36.7642 9.35053C39.5069 9.35053 41.9432 9.89447 44.073 10.9823C46.2028 12.0702 47.2677 14.1234 47.2677 17.1419V28.6336C47.2677 29.4304 47.283 30.3957 47.3136 31.5295C47.3596 32.3876 47.4898 32.9698 47.7043 33.2762C47.9189 33.5827 48.2406 33.8355 48.6696 34.0347V35H41.5448C41.3456 34.4944 41.2077 34.0194 41.1311 33.575C41.0545 33.1307 40.9932 32.625 40.9472 32.0581C40.0432 33.0388 39.0013 33.8738 37.8215 34.5633C36.4118 35.3754 34.8183 35.7814 33.0409 35.7814C30.7732 35.7814 28.8963 35.1379 27.41 33.8508C25.9391 32.5484 25.2036 30.7098 25.2036 28.3348C25.2036 25.255 26.3911 23.0256 28.766 21.6466C30.0684 20.8959 31.9837 20.3596 34.5119 20.0378L36.7413 19.762ZM64.3581 9.35053C64.4807 9.35053 64.5803 9.35819 64.6569 9.37351C64.7488 9.37351 64.9404 9.38117 65.2315 9.39649V16.1076C64.8178 16.0617 64.45 16.031 64.1283 16.0157C63.8065 16.0004 63.546 15.9927 63.3468 15.9927C60.7114 15.9927 58.9417 16.8508 58.0377 18.5669C57.532 19.5322 57.2792 21.0184 57.2792 23.0256V35H50.683V9.9481H56.9345V14.3149C57.9457 12.6448 58.8268 11.5033 59.5776 10.8904C60.8033 9.86382 62.3969 9.35053 64.3581 9.35053ZM80.5522 22.8188C80.1385 23.0793 79.7172 23.2938 79.2881 23.4623C78.8744 23.6156 78.2998 23.7611 77.5644 23.899L76.0934 24.1748C74.7144 24.42 73.7261 24.7188 73.1286 25.0712C72.1173 25.6687 71.6117 26.5957 71.6117 27.8522C71.6117 28.9707 71.9181 29.7828 72.531 30.2884C73.1592 30.7787 73.9177 31.0239 74.8064 31.0239C76.216 31.0239 77.5107 30.6102 78.6906 29.7828C79.8857 28.9554 80.5062 27.4461 80.5522 25.255V22.8188ZM76.5761 19.762C77.7865 19.6088 78.6523 19.4173 79.1732 19.1874C80.1079 18.789 80.5752 18.1685 80.5752 17.3258C80.5752 16.2992 80.2151 15.5944 79.495 15.2113C78.7902 14.8129 77.7482 14.6137 76.3692 14.6137C74.8217 14.6137 73.7261 14.9968 73.0826 15.7629C72.6229 16.3298 72.3165 17.0959 72.1633 18.0612H65.8428C65.9807 15.8702 66.5936 14.0698 67.6815 12.6601C69.4129 10.4537 72.3854 9.35053 76.5991 9.35053C79.3418 9.35053 81.778 9.89447 83.9078 10.9823C86.0376 12.0702 87.1025 14.1234 87.1025 17.1419V28.6336C87.1025 29.4304 87.1178 30.3957 87.1484 31.5295C87.1944 32.3876 87.3247 32.9698 87.5392 33.2762C87.7537 33.5827 88.0754 33.8355 88.5045 34.0347V35H81.3796C81.1804 34.4944 81.0425 34.0194 80.9659 33.575C80.8893 33.1307 80.828 32.625 80.782 32.0581C79.878 33.0388 78.8361 33.8738 77.6563 34.5633C76.2467 35.3754 74.6531 35.7814 72.8758 35.7814C70.6081 35.7814 68.7311 35.1379 67.2448 33.8508C65.7739 32.5484 65.0384 30.7098 65.0384 28.3348C65.0384 25.255 66.2259 23.0256 68.6008 21.6466C69.9032 20.8959 71.8185 20.3596 74.3467 20.0378L76.5761 19.762Z" fill="#1A237E"/>
<path d="M107.847 22.474C107.847 20.5434 107.403 18.835 106.514 17.3488C105.641 15.8625 104.216 15.1194 102.239 15.1194C99.8644 15.1194 98.2326 16.2455 97.3439 18.4979C96.8842 19.6931 96.6544 21.21 96.6544 23.0486C96.6544 25.9599 97.4282 28.0054 98.9757 29.1852C99.895 29.8747 100.983 30.2195 102.239 30.2195C104.063 30.2195 105.449 29.5146 106.399 28.105C107.365 26.6953 107.847 24.8184 107.847 22.474ZM104.124 9.39649C107.051 9.39649 109.525 10.4767 111.548 12.6372C113.585 14.7976 114.604 17.9693 114.604 22.1523C114.604 26.5651 113.608 29.9283 111.617 32.242C109.64 34.5557 107.089 35.7125 103.963 35.7125C101.971 35.7125 100.316 35.2145 98.9987 34.2186C98.2785 33.667 97.5737 32.8625 96.8842 31.8053V44.8599H90.4029V9.9481H96.6774V13.6484C97.3822 12.5605 98.133 11.7025 98.9297 11.0743C100.385 9.95576 102.117 9.39649 104.124 9.39649ZM130.615 9.35053C130.737 9.35053 130.837 9.35819 130.913 9.37351C131.005 9.37351 131.197 9.38117 131.488 9.39649V16.1076C131.074 16.0617 130.707 16.031 130.385 16.0157C130.063 16.0004 129.803 15.9927 129.603 15.9927C126.968 15.9927 125.198 16.8508 124.294 18.5669C123.789 19.5322 123.536 21.0184 123.536 23.0256V35H116.94V9.9481H123.191V14.3149C124.202 12.6448 125.083 11.5033 125.834 10.8904C127.06 9.86382 128.653 9.35053 130.615 9.35053ZM139.73 6.96025H133.088V0.91562H139.73V6.96025ZM133.088 9.9481H139.73V35H133.088V9.9481ZM157.625 9.35053C160.214 9.35053 162.329 10.0324 163.968 11.396C165.623 12.7444 166.45 14.9891 166.45 18.1302V35H159.739V19.762C159.739 18.4443 159.563 17.433 159.211 16.7282C158.567 15.4411 157.341 14.7976 155.533 14.7976C153.312 14.7976 151.787 15.7399 150.96 17.6246C150.531 18.6205 150.316 19.8922 150.316 21.4398V35H143.789V9.99406H150.109V13.6484C150.952 12.3614 151.749 11.4344 152.499 10.8674C153.848 9.85616 155.556 9.35053 157.625 9.35053ZM167.59 14.8436V10.1779H171.084V3.19098H177.565V10.1779H181.633V14.8436H177.565V28.082C177.565 29.1086 177.695 29.7521 177.956 30.0126C178.216 30.2578 179.013 30.3803 180.346 30.3803C180.545 30.3803 180.752 30.3803 180.967 30.3803C181.197 30.365 181.419 30.3497 181.633 30.3344V35.2298L178.53 35.3448C175.435 35.452 173.321 34.9157 172.187 33.7359C171.452 32.9851 171.084 31.8283 171.084 30.2654V14.8436H167.59Z" fill="#D32F2F"/>
</svg>
