<svg width="20" height="20" viewBox="0 0 20 20" fill="none" xmlns="http://www.w3.org/2000/svg">
<path d="M19 9.99791C19.003 11.7847 18.4715 13.5315 17.474 15.0139C16.6514 16.2409 15.5391 17.2462 14.2355 17.9411C12.9319 18.636 11.4772 18.9989 10 18.9979C8.52279 18.9989 7.06808 18.636 5.76451 17.9411C4.46093 17.2462 3.34865 16.2409 2.526 15.0139C1.74273 13.8463 1.2439 12.5115 1.06951 11.1164C0.895109 9.72124 1.05 8.30467 1.52175 6.9802C1.9935 5.65573 2.769 4.46021 3.78607 3.48947C4.80314 2.51873 6.0335 1.79978 7.37851 1.39025C8.72352 0.980724 10.1458 0.892009 11.5312 1.13122C12.9167 1.37043 14.2269 1.93091 15.3567 2.76773C16.4865 3.60455 17.4046 4.69444 18.0373 5.95002C18.67 7.20559 18.9997 8.59194 19 9.99791Z" stroke="#6C757D" stroke-width="1.5"/>
<path d="M11.25 6.99792C11.25 7.68792 10.69 8.24792 10 8.24792V9.74792C10.7294 9.74792 11.4288 9.45819 11.9446 8.94247C12.4603 8.42674 12.75 7.72727 12.75 6.99792H11.25ZM10 8.24792C9.31002 8.24792 8.75002 7.68792 8.75002 6.99792H7.25002C7.25002 7.72727 7.53975 8.42674 8.05547 8.94247C8.5712 9.45819 9.27067 9.74792 10 9.74792V8.24792ZM8.75002 6.99792C8.75002 6.30792 9.31002 5.74792 10 5.74792V4.24792C9.27067 4.24792 8.5712 4.53766 8.05547 5.05338C7.53975 5.56911 7.25002 6.26858 7.25002 6.99792H8.75002ZM10 5.74792C10.69 5.74792 11.25 6.30792 11.25 6.99792H12.75C12.75 6.26858 12.4603 5.56911 11.9446 5.05338C11.4288 4.53766 10.7294 4.24792 10 4.24792V5.74792ZM3.16602 15.8539L2.44702 15.6399L2.33002 16.0319L2.59702 16.3419L3.16602 15.8539ZM16.834 15.8539L17.404 16.3429L17.67 16.0329L17.553 15.6399L16.834 15.8539ZM7.00002 13.7479H13V12.2479H7.00002V13.7479ZM7.00002 12.2479C5.97712 12.248 4.98153 12.5781 4.16125 13.1892C3.34096 13.8003 2.73977 14.6598 2.44702 15.6399L3.88502 16.0679C4.08555 15.3976 4.49695 14.8098 5.05812 14.3918C5.61929 13.9739 6.30031 13.7481 7.00002 13.7479V12.2479ZM10 18.2479C8.80943 18.2493 7.63273 17.9923 6.5511 17.4948C5.46947 16.9972 4.50868 16.2709 3.73502 15.3659L2.59702 16.3419C3.51148 17.4109 4.64686 18.2699 5.92491 18.8577C7.20295 19.4455 8.59327 19.7493 10 19.7479V18.2479ZM13 13.7479C14.47 13.7479 15.715 14.7259 16.115 16.0679L17.553 15.6399C17.2603 14.6598 16.6591 13.8003 15.8388 13.1892C15.0185 12.5781 14.0229 12.248 13 12.2479V13.7479ZM16.265 15.3659C15.4914 16.2709 14.5306 16.9972 13.4489 17.4948C12.3673 17.9923 11.1906 18.2493 10 18.2479V19.7479C11.4068 19.7493 12.7971 19.4455 14.0751 18.8577C15.3532 18.2699 16.4896 17.4119 17.404 16.3429L16.265 15.3659Z" fill="#6C757D"/>
</svg>
