<svg width="21" height="15" viewBox="0 0 21 15" fill="none" xmlns="http://www.w3.org/2000/svg">
<path d="M20.1551 14.0172H0.844843C0.753388 14.0172 0.665682 13.9809 0.601014 13.9162C0.536345 13.8516 0.50001 13.7639 0.5 13.6724V1.25863C0.50001 1.16718 0.536345 1.07947 0.601014 1.0148C0.665682 0.950133 0.753388 0.913798 0.844843 0.913788H20.1552C20.2466 0.913798 20.3343 0.950133 20.399 1.0148C20.4637 1.07947 20.5 1.16718 20.5 1.25863V13.6724C20.5 13.7639 20.4636 13.8516 20.399 13.9162C20.3343 13.9809 20.2466 14.0172 20.1551 14.0172Z" fill="#41479B"/>
<path d="M10.1552 0.913849H9.55617L6.36203 3.00658V0.913849H4.63789V3.00658L1.44375 0.913849H0.844844C0.753392 0.913849 0.665686 0.950175 0.601016 1.01484C0.536347 1.0795 0.50001 1.1672 0.5 1.25865V1.53217L3.24043 3.3276H0.5V5.05174H3.24043L0.5 6.84721V7.12073C0.50001 7.21218 0.536345 7.29989 0.601014 7.36455C0.665682 7.42922 0.753389 7.46556 0.844844 7.46557H1.44383L4.63797 5.37283V7.46557H6.36211V5.37283L9.55621 7.46557H10.1552C10.2467 7.46556 10.3344 7.42922 10.399 7.36455C10.4637 7.29989 10.5 7.21218 10.5 7.12073V6.84721L7.75961 5.05178H10.5V3.32764H7.75957L10.5 1.53221V1.25869C10.5 1.16723 10.4637 1.07952 10.399 1.01485C10.3343 0.950181 10.2466 0.913849 10.1552 0.913849Z" fill="#F5F5F5"/>
<path d="M10.5 3.67248H6.01723V0.913849H4.98277V3.67248H0.5V4.70694H4.98277V7.46557H6.01723V4.70694H10.5V3.67248Z" fill="#FF4B55"/>
<path d="M4.29309 3.32764L0.664336 0.97213C0.567773 1.03322 0.5 1.13592 0.5 1.25865V1.27654L3.65973 3.32764H4.29309ZM6.99543 3.32764L10.4475 1.08678C10.3875 0.985255 10.2817 0.913849 10.1552 0.913849H10.0806L6.36207 3.32764H6.99543ZM3.99508 5.05178L0.54957 7.28834C0.608984 7.39233 0.716484 7.46557 0.844844 7.46557H0.909883L4.62848 5.05178H3.99508ZM10.4945 7.1478L7.26539 5.05178H6.63203L10.299 7.43205C10.4088 7.38108 10.4842 7.27424 10.4945 7.1478Z" fill="#FF4B55"/>
<path d="M5.60436 9.3456L5.86463 10.2049L6.69873 9.87263C6.7699 9.84427 6.83459 9.92545 6.79115 9.98849L6.28162 10.7277L7.06139 11.1727C7.12791 11.2106 7.10482 11.3118 7.02842 11.3172L6.13275 11.3797L6.27107 12.2668C6.28287 12.3425 6.18936 12.3876 6.13756 12.3311L5.53021 11.6699L4.92287 12.3311C4.87107 12.3875 4.77756 12.3425 4.78936 12.2668L4.92768 11.3797L4.03201 11.3172C3.9556 11.3118 3.93252 11.2106 3.99904 11.1727L4.77881 10.7277L4.26928 9.98849C4.22584 9.92545 4.29053 9.84427 4.3617 9.87263L5.1958 10.2049L5.45607 9.3456C5.47838 9.27228 5.58217 9.27228 5.60436 9.3456ZM15.8625 3.23619L15.9896 3.65591L16.3971 3.49365C16.4318 3.47982 16.4634 3.51943 16.4422 3.55025L16.1933 3.91138L16.5742 4.12876C16.6067 4.14728 16.5954 4.19673 16.5581 4.19931L16.1206 4.22986L16.1881 4.66318C16.1939 4.70017 16.1482 4.72216 16.1229 4.69458L15.8262 4.37158L15.5295 4.69458C15.5042 4.72212 15.4585 4.70013 15.4643 4.66318L15.5318 4.22986L15.0943 4.19931C15.057 4.19673 15.0457 4.14728 15.0782 4.12876L15.4591 3.91138L15.2102 3.55025C15.189 3.51943 15.2206 3.47982 15.2553 3.49365L15.6628 3.65591L15.7899 3.23619C15.8009 3.20036 15.8517 3.20036 15.8625 3.23619ZM13.0274 6.45791L13.1546 6.87763L13.562 6.71537C13.5967 6.70154 13.6284 6.74115 13.6071 6.77197L13.3583 7.1331L13.7392 7.35048C13.7717 7.369 13.7604 7.41845 13.723 7.42103L13.2855 7.45158L13.3531 7.8849C13.3589 7.92189 13.3131 7.94388 13.2878 7.9163L12.9912 7.5933L12.6945 7.9163C12.6692 7.94384 12.6235 7.92185 12.6292 7.8849L12.6968 7.45158L12.2593 7.42103C12.2219 7.41845 12.2106 7.369 12.2431 7.35048L12.624 7.1331L12.3752 6.77197C12.3539 6.74115 12.3856 6.70154 12.4203 6.71537L12.8277 6.87763L12.9549 6.45791C12.9659 6.42209 13.0166 6.42209 13.0274 6.45791ZM18.5447 5.07857L18.6718 5.4983L19.0792 5.33603C19.114 5.3222 19.1456 5.36181 19.1244 5.39263L18.8755 5.75376L19.2564 5.97115C19.2889 5.98966 19.2776 6.03912 19.2403 6.04169L18.8028 6.07224L18.8703 6.50556C18.8761 6.54255 18.8304 6.56455 18.8051 6.53697L18.5084 6.21396L18.2117 6.53697C18.1864 6.56451 18.1408 6.54251 18.1465 6.50556L18.214 6.07224L17.7765 6.04169C17.7392 6.03912 17.7279 5.98966 17.7604 5.97115L18.1413 5.75376L17.8924 5.39263C17.8712 5.36181 17.9028 5.3222 17.9376 5.33603L18.345 5.4983L18.4721 5.07857C18.4831 5.04275 18.5338 5.04275 18.5447 5.07857ZM15.8625 10.5958L15.9896 11.0156L16.3971 10.8533C16.4318 10.8394 16.4634 10.879 16.4422 10.9099L16.1933 11.271L16.5742 11.4884C16.6067 11.5069 16.5954 11.5563 16.5581 11.5589L16.1206 11.5895L16.1881 12.0228C16.1939 12.0598 16.1482 12.0818 16.1229 12.0542L15.8262 11.7312L15.5295 12.0542C15.5042 12.0817 15.4585 12.0597 15.4643 12.0228L15.5318 11.5895L15.0943 11.5589C15.057 11.5563 15.0457 11.5069 15.0782 11.4884L15.4591 11.271L15.2102 10.9099C15.189 10.879 15.2206 10.8394 15.2553 10.8533L15.6628 11.0156L15.7899 10.5958C15.8009 10.56 15.8517 10.56 15.8625 10.5958ZM16.8462 7.21212L16.7441 7.51822L16.4215 7.52072C16.3797 7.52107 16.3624 7.57435 16.396 7.59916L16.6555 7.79084L16.5582 8.09845C16.5456 8.1383 16.591 8.17123 16.6249 8.14693L16.8874 7.95931L17.1499 8.14693C17.1839 8.17123 17.2292 8.13826 17.2166 8.09845L17.1193 7.79084L17.3788 7.59916C17.4124 7.57431 17.3951 7.52107 17.3533 7.52072L17.0307 7.51822L16.9287 7.21212C16.9154 7.17248 16.8594 7.17248 16.8462 7.21212Z" fill="#F5F5F5"/>
</svg>
