<svg width="23" height="20" viewBox="0 0 23 20" fill="none" xmlns="http://www.w3.org/2000/svg">
<path d="M8.59998 6.60001H4.59998V8.60001H18.6V6.60001H14.4C14.4 6.60001 15.9 5.40001 16.2 3.80001C16.6 2.10001 14.8 -0.599991 11.6 1.60001C8.19998 -0.799991 6.19998 1.80001 6.59998 3.60001C6.99998 5.30001 8.59998 6.60001 8.59998 6.60001ZM10.6 3.60001H12.6C12.4 1.60001 15.9 2.1 14.4 4.7C14.4 4.7 14.1 5.20001 12.6 6.60001H10.7C8.99997 5.20001 8.69997 4.60001 8.69997 4.60001C6.89997 1.90001 10.8 1.80001 10.6 3.60001Z" fill="#7C7C7C"/>
<path d="M18.6 2.60001V4.60001H20.6V10.6H2.59998V4.60001H4.59998V2.60001H0.599976V19.6H22.6V2.60001H18.6ZM20.6 17.6H2.59998V12.6H20.6V17.6Z" fill="#7C7C7C"/>
</svg>
