<svg width="22" height="21" viewBox="0 0 22 21" fill="none" xmlns="http://www.w3.org/2000/svg">
<path d="M10.8 8.29999C11.3 8.29999 11.6 8.70001 11.6 9.10001C11.6 9.50001 11.2 9.89999 10.8 9.89999C10.4 9.89999 9.99998 9.50001 9.99998 9.10001C9.99998 8.70001 10.3 8.29999 10.8 8.29999ZM13.6 9.10001C13.6 9.60001 14 9.89999 14.4 9.89999C14.8 9.89999 15.2 9.50001 15.2 9.10001C15.2 8.60001 14.8 8.29999 14.4 8.29999C14 8.29999 13.6 8.70001 13.6 9.10001ZM6.19998 9.10001C6.19998 9.60001 6.59998 9.89999 6.99998 9.89999C7.39998 9.89999 7.79998 9.50001 7.79998 9.10001C7.79998 8.60001 7.39998 8.29999 6.99998 8.29999C6.59998 8.29999 6.19998 8.70001 6.19998 9.10001ZM20.6 16.8C21.6 17.8 21.6 19.3 20.6 20.3C20.1 20.8 19.5 21 18.9 21C18.3 21 17.6 20.8 17.2 20.3L12.7 15.8C12.6 15.7 12.5 15.6 12.5 15.5L11.5 12.3C11.4 11.9 11.6 11.4 12 11.3C12.1 11.3 12.3 11.3 12.5 11.3L15.8 12.2C15.9 12.2 16.1 12.3 16.2 12.4L20.6 16.8ZM13.9 14.8L16.9 17.8L18.1 16.6L15.1 13.6L13.4 13.1L13.9 14.8ZM19.4 18L19.2 17.8L18 19L18.2 19.2C18.5 19.5 19 19.6 19.4 19.3C19.8 19 19.8 18.4 19.4 18ZM11.2 17C9.79998 17.1 8.29998 16.8 6.99998 16.3C6.79998 16.2 6.59998 16.2 6.39998 16.3L2.69998 17.9L3.99998 14.9C4.09998 14.6 4.09998 14.3 3.89998 14C2.69998 12.7 2.09998 11 2.09998 9.29999C2.09998 5.09999 6.09998 1.60001 11 1.60001C15.9 1.60001 19.9 5.09999 19.9 9.29999C19.9 10.3 19.7 11.3 19.2 12.3C19 12.7 19.2 13.2 19.6 13.4C20 13.6 20.5 13.4 20.7 13C21.3 11.8 21.6 10.5 21.6 9.29999C21.6 4.09999 16.9 0 11.1 0C5.29998 0 0.599976 4.19999 0.599976 9.29999C0.599976 11.2 1.29998 13.1 2.49998 14.7L0.699978 19.1C0.499978 19.5 0.699976 20 1.09998 20.2C1.29998 20.3 1.49998 20.3 1.69998 20.2L6.99998 18C8.49998 18.5 9.99998 18.8 11.6 18.7C12.1 18.7 12.4 18.3 12.4 17.9C12.4 17.5 11.8 17 11.2 17C11.3 17 11.3 17 11.2 17Z" fill="#7C7C7C"/>
</svg>
