<svg width="23" height="23" viewBox="0 0 23 23" fill="none" xmlns="http://www.w3.org/2000/svg">
<path d="M16.6 0.600006C16.4 0.500006 15.5 0.500006 15.6 1.10001C15.6 1.60001 15.6 2.60001 15.6 2.60001H8.59998L1.09998 0.699997C0.799976 0.599997 0.599976 0.900006 0.599976 1.10001V20.1C0.599976 20.3 0.699979 20.5 0.899979 20.5L8.59998 22.5H22.2C22.4 22.5 22.6 22.3 22.6 22.1V3.60001L16.6 0.600006ZM8.59998 20.6L2.59998 18.6V3.60001L8.59998 4.60001V20.6ZM16.6 2.60001L18.6 3.60001H16.6V2.60001ZM20.6 20.6H10.6V4.60001H20.6V20.6Z" fill="#7C7C7C"/>
</svg>
