<svg width="25" height="17" viewBox="0 0 25 17" fill="none" xmlns="http://www.w3.org/2000/svg">
<path d="M24.1 16.1H1.10001C0.900014 16.1 0.700012 15.9 0.700012 15.7V0.800003C0.700012 0.600003 0.900014 0.400002 1.10001 0.400002H24.2C24.4 0.400002 24.6 0.600003 24.6 0.800003V15.6C24.5 15.9 24.4 16.1 24.1 16.1Z" fill="#F5F5F5"/>
<path d="M6 0.400002H19.2V16.1H6V0.400002Z" fill="#F5F5F5"/>
<path d="M1.10001 0.5C0.900014 0.5 0.700012 0.700002 0.700012 0.900002V15.7C0.700012 15.9 0.900014 16.1 1.10001 16.1H6.00002V0.5H1.10001ZM24.1 0.5H19.2V16.1H24.1C24.3 16.1 24.5 15.9 24.5 15.7V0.900002C24.6 0.600002 24.4 0.5 24.1 0.5ZM15.1 10.1L17.5 8.7L16.9 8.4C16.7 8.3 16.7 8.2 16.7 8L16.9 6.6L15.9 6.9C15.7 7 15.5 6.8 15.4 6.6L15.3 6.2L14.3 7.3C14.2 7.5 13.9 7.3 13.9 7.1L14.3 4.7L13.7 4.9C13.5 5 13.3 4.9 13.2 4.7L12.5 3.4L11.8 4.7C11.7 4.9 11.5 5 11.3 4.9L10.7 4.7L11.1 7.1C11.1 7.3 10.9 7.4 10.7 7.3L9.70001 6.2L9.60001 6.6C9.60001 6.8 9.30001 7 9.10001 6.9L8.10001 6.6L8.30002 8C8.30002 8.2 8.20001 8.3 8.10001 8.4L7.50002 8.7L9.90002 10.1C10.2 10.2 10.3 10.6 10.2 10.8L10 11.4L12.1 11.2C12.2 11.2 12.3 11.3 12.3 11.4L12.2 13.6H12.6L12.5 11.4C12.5 11.3 12.6 11.2 12.7 11.2L14.8 11.4L14.6 10.8C14.8 10.5 14.9 10.2 15.1 10.1Z" fill="#FF4B55"/>
</svg>
