<?xml version="1.0" encoding="utf-8"?>
<!-- Generator: Adobe Illustrator 27.7.0, SVG Export Plug-In . SVG Version: 6.00 Build 0)  -->
<svg version="1.1" id="Layer_1" xmlns="http://www.w3.org/2000/svg" xmlns:xlink="http://www.w3.org/1999/xlink" x="0px" y="0px"
	 width="76px" height="219.2px" viewBox="0 0 76 219.2" style="enable-background:new 0 0 76 219.2;" xml:space="preserve">
<style type="text/css">
	.st0{fill:#7D74B6;}
	.st1{fill:#9F99CB;}
	.st2{fill:#C6C1E0;}
	.st3{fill:#D9D6EB;}
	.st4{fill:#8982BD;}
	.st5{fill:#C5C2E1;}
	.st6{fill:none;stroke:#8982BD;stroke-width:0.3;}
	.st7{fill:#C6C1E0;stroke:#8982BD;stroke-width:0.5;}
	.st8{fill:#938DC4;}
</style>
<g>
	<path class="st0" d="M26.5,30.1c0,0.5-0.2,0.9-0.5,1.2c-0.3,0.3-0.7,0.5-1.1,0.5h-13c-0.3,0-0.7-0.1-0.9-0.3
		c-0.3-0.2-0.5-0.5-0.6-0.9c0-0.2,0-0.3,0-0.5c0-0.2,0-0.5,0.1-0.7c0.1-0.2,0.2-0.4,0.3-0.6c0.1-0.2,0.3-0.3,0.5-0.4
		c0.2-0.1,0.4-0.1,0.6-0.1h13c0.2,0,0.4,0,0.6,0.1c0.2,0.1,0.4,0.2,0.5,0.4c0.1,0.2,0.3,0.4,0.3,0.6C26.5,29.7,26.5,29.9,26.5,30.1z
		"/>
	<path class="st1" d="M74.2,45.7H56.4v-22h12.7c0.4,0,0.8,0.1,1.2,0.3c0.3,0.2,0.6,0.5,0.8,0.9L76,37.1c0.1,0.2,0.1,0.5,0,0.7v5.9
		c0,0.5-0.2,1-0.5,1.3C75.1,45.4,74.7,45.6,74.2,45.7z"/>
	<path class="st2" d="M71.8,45.7H55.3v-22h11.9c0.4,0,0.8,0.1,1.1,0.3c0.3,0.2,0.6,0.5,0.7,0.9l4.7,12.1c0,0.2,0,0.5,0,0.7v5.9
		c0,0.3,0,0.5-0.1,0.8c-0.1,0.2-0.2,0.5-0.4,0.6c-0.2,0.2-0.4,0.3-0.6,0.4C72.3,45.6,72.1,45.7,71.8,45.7z"/>
	<path class="st1" d="M55.3,16v29.7H19.1c-0.2,0-0.5,0-0.7-0.1c-0.2-0.1-0.4-0.2-0.6-0.3c-0.2-0.1-0.3-0.3-0.4-0.5
		c-0.1-0.2-0.1-0.4-0.1-0.6V16c0-0.4,0.2-0.8,0.5-1.1c0.3-0.3,0.8-0.5,1.3-0.5h34.4c0.5,0,0.9,0.2,1.3,0.5
		C55.1,15.2,55.3,15.6,55.3,16z"/>
	<path class="st2" d="M51.8,16v29.7H19.1c-0.2,0-0.5,0-0.7-0.1c-0.2-0.1-0.4-0.2-0.6-0.3c-0.2-0.1-0.3-0.3-0.4-0.5
		c-0.1-0.2-0.1-0.4-0.1-0.6V16c0-0.4,0.2-0.8,0.5-1.1c0.3-0.3,0.8-0.5,1.3-0.5h31.1c0.5,0,0.9,0.2,1.2,0.5
		C51.6,15.3,51.8,15.6,51.8,16z"/>
	<path class="st1" d="M70.1,32.9c0,0.1,0,0.2,0,0.4c0,0.1-0.1,0.2-0.1,0.3c-0.1,0.1-0.2,0.2-0.3,0.2c-0.1,0.1-0.2,0.1-0.3,0.1h-9.2
		c-0.1,0-0.2,0-0.3-0.1c-0.1,0-0.2-0.1-0.3-0.2c-0.1-0.1-0.1-0.2-0.2-0.3c0-0.1-0.1-0.2,0-0.3v-6.1c0-0.1,0-0.2,0-0.3
		c0-0.1,0.1-0.2,0.2-0.3c0.1-0.1,0.2-0.1,0.3-0.2c0.1,0,0.2-0.1,0.3-0.1h7.7c0.2,0,0.3,0.1,0.5,0.2c0.1,0.1,0.2,0.3,0.3,0.4
		L70.1,32.9z"/>
	<path class="st3" d="M68.2,33.9h-8c-0.1,0-0.2,0-0.3-0.1c-0.1,0-0.2-0.1-0.3-0.2c-0.1-0.1-0.1-0.2-0.2-0.3c0-0.1-0.1-0.2,0-0.3
		v-6.1c0-0.1,0-0.2,0-0.3c0-0.1,0.1-0.2,0.2-0.3c0.1-0.1,0.2-0.1,0.3-0.2c0.1,0,0.2-0.1,0.3-0.1h6.5c0.2,0,0.3,0.1,0.5,0.2
		c0.1,0.1,0.2,0.3,0.3,0.4l1.5,6.2c0,0.1,0,0.2,0,0.4c0,0.1-0.1,0.2-0.2,0.3c-0.1,0.1-0.2,0.2-0.3,0.2
		C68.5,33.9,68.3,33.9,68.2,33.9z"/>
	<path class="st4" d="M64.9,51.3c3.3,0,6-2.7,6-6c0-3.3-2.7-6-6-6c-3.3,0-6,2.7-6,6C58.9,48.6,61.6,51.3,64.9,51.3z"/>
	<path class="st2" d="M64.9,48.6c1.8,0,3.3-1.5,3.3-3.3c0-1.8-1.5-3.3-3.3-3.3c-1.8,0-3.3,1.5-3.3,3.3
		C61.6,47.1,63.1,48.6,64.9,48.6z"/>
	<path class="st4" d="M26.4,51.3c3.3,0,6-2.7,6-6c0-3.3-2.7-6-6-6c-3.3,0-6,2.7-6,6C20.4,48.6,23.1,51.3,26.4,51.3z"/>
	<path class="st2" d="M26.4,48.6c1.8,0,3.3-1.5,3.3-3.3c0-1.8-1.5-3.3-3.3-3.3c-1.8,0-3.3,1.5-3.3,3.3
		C23.1,47.1,24.6,48.6,26.4,48.6z"/>
	<path class="st1" d="M12.5,9l-2.7,2.1L8.5,9.5c0,0,0-0.1,0-0.1s0-0.1,0-0.1L11,7.4h0.2L12.5,9z"/>
	<path class="st0" d="M11.8,7c0,0.1,0,0.2-0.1,0.3c-0.1,0.1-0.1,0.2-0.2,0.3L8.7,9.8C8.6,9.9,8.5,9.9,8.3,9.9c-0.1,0-0.3,0-0.4-0.1
		C7.8,9.8,7.7,9.7,7.7,9.6C7.6,9.4,7.6,9.3,7.6,9.2c0-0.1,0-0.2,0.1-0.3c0-0.1,0.1-0.2,0.2-0.3l2.7-2.1c0.1-0.1,0.1-0.1,0.2-0.2
		c0.1,0,0.2-0.1,0.3-0.1c0.1,0,0.2,0,0.3,0.1c0.1,0,0.2,0.1,0.2,0.2C11.7,6.7,11.8,6.9,11.8,7z"/>
	<path class="st1" d="M21.1,9l2.8,3L25,9.5c0,0,0-0.1,0-0.1s0-0.1,0-0.1l-2.6-1.9h-0.2L21.1,9z"/>
	<path class="st0" d="M26.1,9.2c0,0.2-0.1,0.3-0.2,0.5c-0.1,0.1-0.3,0.2-0.5,0.2c-0.2,0-0.4-0.1-0.5-0.2l-0.2-0.1l-2.6-2
		c-0.1-0.1-0.2-0.2-0.2-0.3c-0.1-0.1-0.1-0.2-0.1-0.3c-0.1-0.1-0.1-0.3,0-0.4c0.1-0.1,0.1-0.1,0.2-0.2c0.1,0,0.2-0.1,0.3-0.1
		c0.1,0,0.2,0,0.3,0.1c0.1,0,0.2,0.1,0.2,0.2l2.6,2l0.2,0.2c0.1,0,0.2,0.1,0.3,0.2C26,9,26,9.1,26.1,9.2z"/>
	<path class="st5" d="M25.8,9c0,0.2,0,0.3,0,0.5c-0.1,0.1-0.3,0.2-0.5,0.2c-0.2,0-0.4-0.1-0.5-0.2l-2.6-2c-0.1-0.1-0.2-0.2-0.2-0.3
		c-0.1-0.1-0.1-0.2-0.1-0.3c-0.1-0.1-0.1-0.3,0-0.4c0.1-0.1,0.1-0.1,0.2-0.2c0.1,0,0.2-0.1,0.3-0.1c0.1,0,0.2,0,0.3,0.1
		c0.1,0,0.2,0.1,0.2,0.2l2.6,2c0.1,0.1,0.2,0.2,0.2,0.3C25.7,8.8,25.7,8.9,25.8,9z"/>
	<path class="st1" d="M18.3,7.9h-2.8V6.3H18L18.3,7.9z"/>
	<path class="st0" d="M18.9,6c0,0.2-0.1,0.3-0.2,0.4c-0.1,0.1-0.3,0.2-0.4,0.2h-2.9c-0.2,0-0.3-0.1-0.4-0.2
		c-0.1-0.1-0.2-0.3-0.2-0.4c0-0.2,0.1-0.3,0.2-0.4c0.1-0.1,0.2-0.2,0.4-0.2h2.9c0.1,0,0.2,0,0.2,0c0.1,0,0.1,0.1,0.2,0.1
		c0.1,0.1,0.1,0.1,0.1,0.2C18.9,5.8,18.9,5.9,18.9,6z"/>
	<path class="st5" d="M11.6,7.2c0,0.1,0,0.3,0,0.4s-0.1,0.3-0.3,0.3L8.6,10c-0.1,0.1-0.2,0.1-0.4,0.1c-0.1,0-0.3,0-0.4-0.1
		C7.8,10,7.7,9.9,7.6,9.8C7.5,9.6,7.5,9.5,7.5,9.4c0-0.1,0-0.2,0.1-0.3c0-0.1,0.1-0.2,0.2-0.3l2.7-2.1c0.1-0.1,0.3-0.2,0.5-0.2
		c0.2,0,0.3,0.1,0.5,0.2C11.5,6.9,11.6,7,11.6,7.2z"/>
	<path class="st5" d="M18.6,6c0,0.2-0.1,0.3-0.2,0.4c-0.1,0.1-0.3,0.2-0.4,0.2h-2.6c-0.2,0-0.3-0.1-0.4-0.2
		c-0.1-0.1-0.2-0.3-0.2-0.4c0-0.2,0.1-0.3,0.2-0.4c0.1-0.1,0.2-0.2,0.4-0.2H18c0.1,0,0.2,0,0.2,0s0.1,0.1,0.2,0.1
		c0.1,0.1,0.1,0.1,0.1,0.2C18.6,5.8,18.6,5.9,18.6,6z"/>
	<path class="st6" d="M23.9,16.6L23.9,16.6L23.9,16.6c0,0.2,0,0.3,0,0.5l0,0l0,0c-0.1,1.5-0.7,2.9-1.6,4.1l-0.6,0.6
		c-1.2,1.1-2.7,1.7-4.3,1.8h-1h0l0,0c-0.3,0-0.5,0-0.8,0l0,0h0h-0.3c-1.2-0.3-2.3-0.8-3.2-1.6c-0.2-0.2-0.3-0.5-0.5-0.7l0,0l0,0
		c-1-1.2-1.6-2.6-1.7-4.2v-0.8c0.1-1.6,0.7-3,1.8-4.2c0.2-0.2,0.4-0.3,0.7-0.5l0,0l0,0c0.9-0.8,2-1.4,3.2-1.6h0.7h0.9
		c0.7,0,1.4,0.2,2,0.5l0,0l0,0c0.8,0.2,1.5,0.6,2.2,1.2l0,0l0,0c0.2,0.2,0.5,0.4,0.7,0.6l0,0l0,0c1,1.1,1.7,2.6,1.8,4.1l0,0l0,0
		C23.9,16.3,23.9,16.5,23.9,16.6z"/>
	<circle class="st7" cx="16.6" cy="16.3" r="8.3"/>
	<path class="st0" d="M12.7,18.5c0.2-0.1,0.3-0.2,0.2-0.2c0.5-0.4,0.9-0.7,1.2-1c0.3-0.3,0.5-0.5,0.7-0.8c0.2-0.3,0.3-0.6,0.3-0.8
		c0-0.2,0-0.4-0.1-0.5S14.7,15,14.5,15s-0.3,0.1-0.5,0.2c-0.1,0.1-0.2,0.3-0.2,0.6h-1.3c0-0.4,0.1-0.8,0.3-1.1
		c0.2-0.3,0.4-0.5,0.7-0.6c0.3-0.1,0.6-0.2,1-0.2c0.6,0,1.1,0.2,1.4,0.5c0.3,0.3,0.5,0.7,0.5,1.2c0,0.5-0.2,1-0.6,1.5
		c-0.4,0.5-0.8,0.9-1.4,1.4h2.1v1.1h-3.8V18.5z M17.1,18.6v-1l2.4-3.4h1.5v3.4h0.6v1.1h-0.6v1h-1.3v-1H17.1z M19.7,15.5l-1.3,1.9
		h1.3V15.5z"/>
	<path class="st0" d="M22.7,39.3c0,0.2,0,0.4-0.1,0.6c-0.1,0.2-0.2,0.4-0.4,0.5c-0.2,0.2-0.4,0.3-0.6,0.4c-0.2,0.1-0.5,0.1-0.8,0.1
		H4.2c-0.4,0-0.8-0.1-1.2-0.3c-0.3-0.2-0.6-0.5-0.7-0.8c0-0.2,0-0.3,0-0.5c0-0.4,0.2-0.8,0.6-1.1c0.4-0.3,0.8-0.5,1.3-0.5h16.5
		c0.5,0,1,0.2,1.4,0.5C22.5,38.4,22.7,38.8,22.7,39.3z"/>
	<path class="st1" d="M20.4,39.1c0,0.2,0,0.5-0.1,0.7c-0.1,0.2-0.2,0.4-0.4,0.6c-0.2,0.2-0.4,0.3-0.7,0.4c-0.3,0.1-0.5,0.1-0.8,0.1
		H1.9c-0.4,0-0.8-0.1-1.2-0.3c-0.3-0.2-0.6-0.5-0.7-0.8c0-0.2,0-0.3,0-0.5c0-0.4,0.2-0.9,0.6-1.2C1,37.8,1.5,37.6,2,37.6h16.4
		c0.5,0,1,0.1,1.3,0.4C20.1,38.3,20.4,38.7,20.4,39.1z"/>
	<path class="st0" d="M34.5,34.7c0,0.2,0,0.5-0.1,0.7c-0.1,0.2-0.2,0.4-0.4,0.6c-0.2,0.2-0.4,0.3-0.6,0.4c-0.2,0.1-0.5,0.1-0.7,0.1
		H17.8c-0.4,0-0.7-0.1-1-0.3c-0.3-0.2-0.5-0.5-0.6-0.9c0-0.2,0-0.4,0-0.5c0-0.5,0.2-0.9,0.5-1.2c0.3-0.3,0.8-0.5,1.3-0.5h14.9
		c0.5,0,0.9,0.2,1.2,0.5C34.4,33.9,34.5,34.3,34.5,34.7z"/>
	<path class="st1" d="M32.2,34.7c0,0.5-0.2,0.9-0.5,1.2c-0.3,0.3-0.8,0.5-1.3,0.5H15.5c-0.4,0-0.7-0.1-1-0.3
		c-0.3-0.2-0.5-0.5-0.6-0.9c0-0.2,0-0.4,0-0.5c0-0.5,0.2-0.9,0.5-1.2c0.3-0.3,0.8-0.5,1.3-0.5h14.9c0.5,0,0.9,0.2,1.2,0.6
		C32.1,33.9,32.2,34.3,32.2,34.7z"/>
	<path class="st1" d="M24.2,30.1c0,0.5-0.2,0.9-0.5,1.2c-0.3,0.3-0.7,0.5-1.1,0.5H9.6c-0.3,0-0.7-0.1-0.9-0.3
		c-0.3-0.2-0.5-0.5-0.6-0.9c0-0.2,0-0.3,0-0.5c0-0.5,0.2-0.9,0.5-1.2c0.3-0.3,0.7-0.5,1.1-0.5h13c0.2,0,0.4,0,0.6,0.1
		c0.2,0.1,0.4,0.2,0.5,0.4s0.3,0.4,0.3,0.6C24.1,29.7,24.2,29.9,24.2,30.1z"/>
</g>
<g>
	<path class="st8" d="M51.6,105.1v22.5c0,1-0.8,1.8-1.9,1.8H26c-1.1,0-1.9-0.8-1.9-1.8v-22.5c0-1,0.8-1.8,1.9-1.8h23.7
		C50.9,103.3,51.6,104.1,51.6,105.1z"/>
	<path class="st2" d="M48.6,105v22.6c0,1-0.9,1.8-2,1.8H26c-1.1,0-2-0.8-2-1.8V105c0-1,0.9-1.8,2-1.8h20.6
		C47.7,103.2,48.6,104,48.6,105z"/>
	<path class="st8" d="M38.6,103.2v26.2H37h-1.5v-26.2H38.6z"/>
	<path class="st8" d="M48.8,117.4H24v-1.8v-1.8h24.8V117.4z"/>
	<path class="st8" d="M53.4,105.4v8.1c0,0.4-0.1,0.8-0.3,1.1c-0.2,0.3-0.5,0.5-0.8,0.5H52c-0.3-0.1-0.5-0.3-0.6-0.6
		c-0.2-0.3-0.2-0.6-0.2-1v-7.8l-4.8-12.3c-0.1-0.4-0.2-0.8-0.1-1.2c0.1-0.4,0.3-0.7,0.6-0.9h0.2c0.3-0.1,0.5-0.1,0.8,0.1
		s0.4,0.4,0.5,0.8l4.9,12.6C53.4,105,53.4,105.2,53.4,105.4z"/>
	<path class="st2" d="M52.9,105.4v8.1c0,0.3-0.1,0.7-0.2,0.9c-0.2,0.3-0.4,0.5-0.7,0.6c-0.3-0.1-0.5-0.3-0.7-0.6
		c-0.2-0.3-0.3-0.6-0.2-1v-7.8l-4.2-11.2c-0.1-0.4-0.2-0.8-0.1-1.2c0.1-0.4,0.3-0.7,0.7-0.9h0.2c0.4,0.1,0.6,0.4,0.8,0.8l4.3,11.5
		C52.9,105,52.9,105.2,52.9,105.4z"/>
	<path class="st8" d="M22.4,115.1c0.2,0,0.4,0,0.6-0.1c0.2-0.1,0.4-0.2,0.5-0.3c0.1-0.1,0.3-0.3,0.3-0.5c0.1-0.2,0.1-0.4,0.1-0.6
		v-7.3l5.7-12.8c0.2-0.4,0.2-0.8,0.1-1.1c-0.1-0.4-0.4-0.7-0.7-0.9c-0.2-0.1-0.3-0.1-0.5-0.1c-0.2,0-0.4,0-0.5,0.1
		c-0.2,0.1-0.3,0.2-0.5,0.3c-0.1,0.1-0.2,0.3-0.3,0.5l-6,13.2c0,0.2,0,0.4,0,0.6v7.6c0,0.4,0.1,0.7,0.4,1
		C21.7,114.8,22.1,115,22.4,115.1z"/>
	<path class="st2" d="M22.1,115c0.4,0,0.7-0.2,1-0.4c0.3-0.3,0.4-0.6,0.4-1l0.1-7.3l5.7-12.7c0.2-0.3,0.2-0.7,0.1-1.1
		c-0.1-0.4-0.3-0.7-0.6-0.9c-0.2-0.1-0.3-0.2-0.5-0.2c-0.2,0-0.4,0-0.5,0.1c-0.2,0.1-0.3,0.2-0.5,0.3c-0.1,0.1-0.2,0.3-0.3,0.5
		l-5.8,13.1c-0.1,0.2-0.1,0.4,0,0.6l-0.1,7.6c0,0.4,0.1,0.7,0.3,1C21.5,114.7,21.8,114.9,22.1,115z"/>
	<path class="st0" d="M67.9,73.4h-9.1c-0.1,0-0.2,0.1-0.3,0.1c-0.1,0.1-0.1,0.2-0.1,0.4c0,0.1,0,0.3,0.1,0.4
		c0.1,0.1,0.2,0.1,0.3,0.1H63v4.4c0,0.1,0,0.2,0.1,0.3c0.1,0.1,0.1,0.1,0.2,0.2c0.1,0,0.1-0.1,0.2-0.2c0-0.1,0.1-0.2,0.1-0.3v-4.4
		h4.3c0.1,0,0.2-0.1,0.3-0.1c0.1-0.1,0.1-0.2,0.1-0.3c0-0.1,0-0.2-0.1-0.3C68,73.5,68,73.4,67.9,73.4L67.9,73.4z"/>
	<path class="st8" d="M65.8,79.9v3.5h-5v-3.5c0-0.5,0.1-0.9,0.4-1.3c0.3-0.3,0.6-0.5,1-0.5h2.4c0.3,0.1,0.6,0.3,0.9,0.6
		C65.7,79,65.8,79.5,65.8,79.9z"/>
	<path class="st2" d="M65.1,79.9v3.5h-4.2v-3.5c0-0.5,0.1-0.9,0.4-1.3c0.3-0.3,0.6-0.5,1-0.5h1.6c0.3,0.1,0.6,0.3,0.9,0.6
		C64.9,79,65.1,79.5,65.1,79.9z"/>
	<path class="st0" d="M17.5,73.4H8.1c-0.1,0-0.2,0.1-0.3,0.1c-0.1,0.1-0.1,0.2-0.1,0.3c0,0.1,0,0.2,0.1,0.3C8,74.3,8,74.4,8.1,74.4
		h4.3v4.4c0,0.1,0,0.2,0.1,0.3s0.2,0.1,0.3,0.1c0.1,0,0.2-0.1,0.2-0.2c0.1-0.1,0.1-0.2,0.1-0.3v-4.4h4.4c0.1,0,0.2-0.1,0.3-0.1
		c0.1-0.1,0.1-0.2,0.1-0.3c0-0.1,0-0.2-0.1-0.3S17.6,73.4,17.5,73.4L17.5,73.4z"/>
	<path class="st8" d="M15.4,79.9v3.5h-5.2v-3.5c0-0.2,0-0.5,0.1-0.7c0.1-0.2,0.2-0.4,0.3-0.6c0.1-0.2,0.3-0.3,0.4-0.4
		c0.2-0.1,0.3-0.1,0.5-0.1H14c0.2,0,0.4,0,0.6,0.1s0.3,0.2,0.5,0.4c0.1,0.2,0.2,0.4,0.3,0.6C15.4,79.4,15.4,79.7,15.4,79.9z"/>
	<path class="st2" d="M14.8,79.9v3.5h-4.6v-3.5c0-0.2,0-0.5,0.1-0.7c0.1-0.2,0.2-0.4,0.3-0.6c0.1-0.2,0.3-0.3,0.4-0.4
		c0.2-0.1,0.3-0.1,0.5-0.1h1.8c0.4,0,0.7,0.2,1,0.5C14.6,79,14.8,79.4,14.8,79.9z"/>
	<path class="st8" d="M67.4,83.7c0,0.7-0.3,1.3-0.7,1.7c-0.4,0.4-0.9,0.6-1.4,0.6h-2.8l-15.3,8.7l-3-5.8h0.5l16.4-7.1h4.1
		c0.4,0,0,0,0.5,0c0.5,0,1.3,0.9,1.4,1.4C67.3,83.3,67.4,83.5,67.4,83.7z"/>
	<path class="st8" d="M31.8,88.8L29,94.7L13.7,86H11c-0.3,0-0.5,0-0.8-0.1c-0.2-0.1-0.5-0.3-0.7-0.5c-0.2-0.2-0.4-0.5-0.5-0.8
		c-0.1-0.3-0.2-0.6-0.2-1c0-0.2,0-0.4,0.1-0.5c0.2-0.5,0.5-0.9,0.8-1.2s0.8-0.4,1.2-0.4h4.6l15.6,7.2L31.8,88.8z"/>
	<path class="st2" d="M67.3,83.1c-0.2,0.5-0.5,0.9-0.8,1.2c-0.4,0.3-0.8,0.4-1.2,0.4h-2.7l-15.3,8.7l-3-4.6l16.4-7.3h4.6
		c0.4,0,0.8,0.1,1.2,0.4C66.8,82.2,67.1,82.6,67.3,83.1z"/>
	<path class="st2" d="M31.9,88.9L29,93.3l-15.3-8.7H11c-0.4,0-0.8-0.1-1.2-0.3C9.5,84,9.2,83.6,9,83.1c0.2-0.5,0.5-0.9,0.8-1.2
		s0.8-0.4,1.2-0.4h4.6L31.9,88.9z"/>
	<path class="st8" d="M44.7,88.9H32.4c0-1.6,0.4-3.1,1.2-4.2c0.4-0.5,0.9-1,1.4-1.3c0.5-0.3,1.1-0.5,1.7-0.5h3.6
		c0.6,0,1.2,0.2,1.7,0.5c0.5,0.3,1,0.7,1.4,1.3c0.4,0.6,0.7,1.2,1,1.9C44.6,87.3,44.7,88.1,44.7,88.9z"/>
	<path class="st2" d="M43.8,88.9H31.4c0-1.6,0.5-3.1,1.4-4.2c0.4-0.5,1-1,1.6-1.3c0.6-0.3,1.2-0.5,1.9-0.5h2.5
		c0.7,0,1.3,0.1,1.9,0.4c0.6,0.3,1.2,0.7,1.6,1.3c0.5,0.6,0.8,1.2,1.1,1.9C43.7,87.3,43.8,88.1,43.8,88.9z"/>
	<path class="st8" d="M49.9,89.6v4.5c0,0.7,0,0.7-0.5,0.7c-0.5,0-1.1,0-1.7,0H26.5c-0.3,0-0.2,0-0.7,0c-0.5,0-1,0-1,0
		s-0.5,0-0.5-0.7v-4.5c0-0.7,0-0.7,0.5-0.7c0.5,0,1.1,0,1.7,0h21.1c0.6,0,1.2,0,1.7,0C49.9,88.9,49.9,88.9,49.9,89.6z"/>
</g>
<g>
	<path class="st8" d="M70.9,158.5v47.2c-0.1,1-0.5,2-1.2,2.7c-0.7,0.7-1.7,1.1-2.7,1H17.3c-0.5,0-1-0.1-1.5-0.2
		c-0.5-0.2-0.9-0.4-1.3-0.8c-0.4-0.3-0.7-0.8-0.9-1.2c-0.2-0.5-0.3-1-0.4-1.5v-47.2c0-0.5,0.1-1,0.3-1.5c0.2-0.5,0.5-0.9,0.9-1.3
		c0.4-0.4,0.8-0.6,1.3-0.8c0.5-0.2,1-0.3,1.5-0.2h49.6c1,0,2,0.3,2.8,1.1C70.5,156.5,70.9,157.5,70.9,158.5z"/>
	<path class="st2" d="M66.1,158.5v47.2c-0.1,1.1-0.6,2-1.4,2.8c-0.8,0.7-1.9,1.1-3,1H17.7c-0.5,0-1.1-0.1-1.6-0.2s-1-0.4-1.4-0.8
		c-0.4-0.4-0.7-0.8-1-1.2c-0.2-0.5-0.4-1-0.4-1.5v-47.2c0-0.5,0.1-1,0.4-1.5c0.2-0.5,0.6-0.9,1-1.3c0.4-0.4,0.9-0.6,1.4-0.8
		c0.5-0.2,1.1-0.3,1.6-0.2h44.1c0.6,0,1.1,0.1,1.6,0.2c0.5,0.2,1,0.5,1.4,0.8c0.4,0.4,0.7,0.8,1,1.3C66,157.5,66.1,158,66.1,158.5z"
		/>
	<path class="st8" d="M30.4,164.2v2.3h-4.7v2.4h3.5v2.2h-3.5v4.7h-2.8v-11.6H30.4z M37.4,175.8l-2.4-4.4h-0.7v4.4h-2.8v-11.6h4.7
		c0.9,0,1.7,0.2,2.3,0.5c0.6,0.3,1.1,0.8,1.4,1.3c0.3,0.5,0.5,1.2,0.5,1.8c0,0.8-0.2,1.5-0.7,2.1c-0.4,0.6-1.1,1-1.9,1.3l2.7,4.6
		H37.4z M34.3,169.4h1.7c0.5,0,0.9-0.1,1.2-0.4c0.3-0.3,0.4-0.6,0.4-1.1c0-0.4-0.1-0.8-0.4-1c-0.3-0.3-0.6-0.4-1.2-0.4h-1.7V169.4z
		 M44.8,166.5v2.3h3.8v2.2h-3.8v2.5H49v2.3h-7.1v-11.6H49v2.3H44.8z M53.3,166.5v2.3h3.8v2.2h-3.8v2.5h4.3v2.3h-7.1v-11.6h7.1v2.3
		H53.3z"/>
	<path class="st8" d="M44.5,154.7v8.7L41,160l-3.7,3.4v-8.7H44.5z"/>
	<g>
		<path class="st0" d="M17.1,177.6c-2.8,0-5.4,1.2-7.4,3.2c-2,2.1-3.1,4.9-3.1,7.8c0,2.1,0.5,4.1,1.6,5.9l7.4,12.7v2.8h1.6l8.9-15.7
			c0.3-0.4,0.4-0.8,0.6-1.2c0.6-1.4,0.9-2.8,0.9-4.3c0-1.5-0.3-2.9-0.8-4.3c-0.5-1.4-1.3-2.6-2.3-3.7c-1-1-2.2-1.9-3.4-2.4
			C19.9,177.9,18.5,177.6,17.1,177.6z M17.1,193.7c-1,0-2-0.3-2.8-0.9c-0.8-0.6-1.5-1.4-1.8-2.4c-0.4-1-0.5-2-0.3-3.1
			c0.2-1,0.7-2,1.4-2.7c0.7-0.7,1.6-1.3,2.6-1.5c1-0.2,2-0.1,2.9,0.3c0.9,0.4,1.7,1.1,2.2,2c0.6,0.9,0.8,1.9,0.8,3
			c0,1.4-0.6,2.7-1.5,3.7c-0.9,1-2.2,1.5-3.5,1.5V193.7z"/>
		<path class="st1" d="M15.5,177.6c-1.9,0-3.7,0.5-5.3,1.5c-1.6,1-2.9,2.4-3.8,4.2C5.5,185.1,5,187,5.1,189c0.1,2,0.6,3.9,1.6,5.6
			l9.1,15.4l8.8-15.7c0.3-0.4,0.5-0.8,0.6-1.2c0.6-1.4,0.9-2.8,0.9-4.3c0-1.5-0.3-2.9-0.8-4.3c-0.5-1.4-1.3-2.6-2.3-3.6
			c-1-1-2.1-1.9-3.4-2.4C18.3,177.9,16.9,177.6,15.5,177.6z M15.5,193.7c-1,0-2-0.3-2.8-0.9c-0.8-0.6-1.5-1.4-1.9-2.4
			c-0.4-1-0.5-2-0.3-3.1c0.2-1,0.7-2,1.4-2.7c0.7-0.8,1.6-1.3,2.6-1.5c1-0.2,2-0.1,2.9,0.3c0.9,0.4,1.7,1.1,2.3,2
			c0.6,0.9,0.8,1.9,0.8,3c0,1.4-0.6,2.7-1.5,3.7c-0.9,1-2.2,1.5-3.5,1.5V193.7z"/>
	</g>
</g>
</svg>
