<?xml version="1.0" encoding="utf-8"?>
<!-- Generator: Adobe Illustrator 17.0.0, SVG Export Plug-In . SVG Version: 6.00 Build 0)  -->
<!DOCTYPE svg PUBLIC "-//W3C//DTD SVG 1.1//EN" "http://www.w3.org/Graphics/SVG/1.1/DTD/svg11.dtd">
<svg version="1.1" id="Layer_1" xmlns="http://www.w3.org/2000/svg" xmlns:xlink="http://www.w3.org/1999/xlink" x="0px" y="0px"
	 width="1441px" height="64px" viewBox="0 0 1441 64" enable-background="new 0 0 1441 64" xml:space="preserve">
<g opacity="0.15">
	<path fill="#BABABA" d="M350.027,64V38.748h12.139V20h14.901v19.072h3.678v-8.404h10.304v8.296h14.53V54.91h9.566v-6.035
		l12.324-7.219v7.112h7.36V28.296h15.264V64H350.027z"/>
	<path fill="#BABABA" d="M250.46,64V38.748h12.139V20H277.5v19.072h3.678v-8.404h10.304v8.296h14.53V54.91h9.566v-6.035
		l12.324-7.219v7.112h7.36V28.296h15.268V64H250.46z"/>
	<path fill="#BABABA" d="M150.893,64V38.748h12.142V20h14.898v19.072h3.678v-8.404h10.303v8.296h14.531V54.91h9.565v-6.035
		l12.325-7.219v7.112h7.359V28.296h15.269V64H150.893z"/>
	<path fill="#BABABA" d="M449.701,38.748V64h65.118v-9.09h-9.566V38.963h-14.53v-8.296h-10.304v8.404h-3.678V20h-14.897v18.748
		H449.701z"/>
	<path fill="#BABABA" d="M579.457,64V38.748H591.6V20h14.897v19.072h3.682v-8.404h10.3v8.296h14.53V54.91h9.566v-6.035l12.328-7.219
		v7.112h7.356V28.296h15.268V64H579.457z"/>
	<path fill="#BABABA" d="M1001.58,64V38.748h12.13V20h14.91v19.072h3.67v-8.404h10.31v8.296h14.53V54.91h9.56v-6.035l12.33-7.219
		v7.112h7.36V28.296h15.26V64H1001.58z"/>
	<path fill="#BABABA" d="M898.373,64V38.748h12.139V20h14.901v19.072h3.678v-8.404h10.304v8.296h14.53V54.91h9.566v-6.035
		l12.324-7.219v7.112h7.36V28.296h15.264V64H898.373z"/>
	<path fill="#BABABA" d="M779.093,64V38.748h12.139V20h14.901v19.072h3.678v-8.404h10.303v8.296h14.531V54.91h9.566v-6.035
		l12.324-7.219v7.112h7.36V28.296h15.268V64H779.093z"/>
	<path fill="#BABABA" d="M679.525,64V38.748h12.143V20h14.897v19.072h3.678v-8.404h10.304v8.296h14.53V54.91h9.566v-6.035
		l12.324-7.219v7.112h7.36V28.296h15.268V64H679.525z"/>
	<path fill="#BABABA" d="M1101.25,64V38.748h12.14V20h14.9v19.072h3.68v-8.404h10.3v8.296h14.53V54.91h9.57v-6.035l12.32-7.219
		v7.112h7.36V28.296h15.27V64H1101.25z"/>
	<path fill="#BABABA" d="M1201.02,64V38.748h12.15V20h14.89v19.072h3.69v-8.404h10.3v8.296h14.53V54.91h9.56v-6.035l12.33-7.219
		v7.112h7.36V28.296h15.26V64H1201.02z"/>
</g>
<g opacity="0.7">
	<path fill="#EBEBEB" d="M1301.85,62.253c-0.18-0.189-0.28-0.433-0.29-0.691c-0.02-0.257,0.06-0.511,0.21-0.718
		c0.16-0.207,0.38-0.353,0.63-0.413c0.25-0.06,0.51-0.031,0.74,0.083c-0.06-0.194-0.06-0.4-0.01-0.596
		c0.05-0.196,0.15-0.374,0.3-0.516c0.3-0.261,0.85-0.222,1.04,0.133c-0.05-0.224-0.03-0.458,0.04-0.674
		c0.08-0.216,0.22-0.404,0.4-0.544c0.19-0.129,0.42-0.182,0.65-0.15c0.22,0.033,0.43,0.149,0.57,0.327c0-0.532,0.03-1.12,0.37-1.535
		s1.13-0.475,1.35,0.014c0.1-0.244,0.27-0.45,0.5-0.594c0.22-0.143,0.48-0.217,0.74-0.211c0.27,0.006,0.52,0.09,0.74,0.243
		c0.21,0.153,0.38,0.367,0.47,0.615c0.24-0.259,0.54-0.448,0.88-0.548c0.34-0.1,0.69-0.107,1.03-0.021
		c0.34,0.087,0.65,0.264,0.9,0.513s0.42,0.561,0.51,0.902c0.03,0.138,0.08,0.31,0.22,0.335c0.07,0.004,0.13-0.009,0.19-0.037
		c0.41-0.122,0.86,0.124,1.1,0.475c0.22,0.369,0.36,0.778,0.41,1.204c0.47-0.417,1.36-0.048,1.41,0.583
		c0.31-0.216,0.71-0.44,1.03-0.257c0.14,0.08,0.24,0.223,0.38,0.312c0.13,0.089,0.35,0.092,0.42-0.059
		c0.21,0.322,0.34,0.685,0.38,1.064c0.19-0.146,0.42-0.232,0.66-0.25c0.24-0.018,0.48,0.035,0.68,0.151
		c0.21,0.116,0.38,0.291,0.5,0.503c0.11,0.212,0.15,0.452,0.13,0.691L1301.85,62.253z"/>
	<path fill="#EBEBEB" d="M1312.18,48.993c0.35-0.608,0.5-1.388,0.19-2.026c-0.3-0.638-1.13-1.026-1.76-0.709
		c0.16-1.84,0.03-3.695-0.39-5.495c-0.23-0.985-0.58-2.012-1.38-2.632c-1.21-0.947-3.14-0.532-4.12,0.658
		c-0.99,1.189-1.14,2.909-0.73,4.398c-1.08-0.301-2.39-0.25-3.14,0.583c-0.86,0.946-0.65,2.419-0.38,3.671
		c0.23,1.064,0.53,2.225,1.41,2.836c-1.08,0.124-2.38,0.418-2.71,1.461c-0.19,0.592,0.02,1.241,0.37,1.773
		c1.13,1.721,3.42,2.224,5.48,2.276h1.01c0.57,0.057,1.14-0.177,1.65-0.392c0.52-0.215,1.09-0.392,1.63-0.601
		c0.85-0.328,1.76-0.775,2.16-1.645c0.43-0.924,0.14-2.196-0.77-2.65C1311.27,50.067,1311.82,49.601,1312.18,48.993z"/>
	<path fill="#F8F5FF" d="M1306.56,62.213V47.64c0-0.613-0.95-0.613-0.95,0v14.572C1305.61,62.826,1306.56,62.828,1306.56,62.213z"/>
	<path fill="#F8F5FF" d="M1306.64,52.299c0.52-0.238,0.98-0.587,1.35-1.022c0.36-0.435,0.64-0.945,0.79-1.495
		c0.02-0.119,0-0.243-0.06-0.347c-0.06-0.104-0.16-0.18-0.28-0.212c-0.12-0.032-0.24-0.018-0.35,0.039s-0.19,0.153-0.23,0.269
		c-0.03,0.117-0.07,0.23-0.11,0.354s0.04-0.097,0,0c-0.01,0.03-0.03,0.06-0.04,0.09c-0.02,0.03-0.05,0.099-0.08,0.149
		c-0.05,0.107-0.12,0.21-0.19,0.31l-0.05,0.082c-0.02,0.021-0.07,0.113,0,0c-0.04,0.05-0.08,0.097-0.12,0.14
		c-0.08,0.092-0.16,0.179-0.25,0.262l-0.14,0.12c-0.02,0.024-0.05,0.045-0.08,0.062c0.05-0.023,0.06-0.043,0,0
		c-0.2,0.147-0.41,0.272-0.64,0.372c-0.11,0.063-0.19,0.167-0.22,0.29c-0.03,0.122-0.02,0.253,0.05,0.363
		c0.06,0.107,0.16,0.185,0.29,0.218c0.12,0.033,0.24,0.018,0.36-0.041V52.299z"/>
	<path fill="#F8F5FF" d="M1305.94,53.554c-0.29-0.067-0.56-0.135-0.84-0.225l-0.17-0.066l-0.1-0.039l-0.03-0.011
		c-0.13-0.059-0.25-0.127-0.37-0.204c-0.02-0.016-0.05-0.035-0.07-0.053c-0.03-0.018-0.03-0.02,0,0
		c-0.05-0.041-0.1-0.082-0.15-0.124c-0.04-0.043-0.08-0.09-0.13-0.136c0-0.011-0.07-0.092-0.03-0.039
		c0.04,0.053-0.03-0.042-0.03-0.042c-0.03-0.051-0.07-0.104-0.09-0.16c-0.02-0.021-0.03-0.044-0.04-0.066
		c-0.05-0.108,0.03,0.09-0.01-0.023c-0.01-0.053-0.03-0.105-0.04-0.158c-0.01-0.029-0.02-0.06-0.02-0.09v0.053v-0.074
		c0-0.065-0.01-0.13-0.03-0.191s-0.06-0.117-0.1-0.165c-0.04-0.047-0.1-0.085-0.16-0.111c-0.06-0.026-0.12-0.039-0.19-0.039
		c-0.06,0-0.12,0.013-0.18,0.039c-0.06,0.026-0.12,0.064-0.16,0.111c-0.05,0.047-0.08,0.103-0.1,0.165s-0.03,0.126-0.03,0.191
		c0.03,0.333,0.13,0.656,0.3,0.944c0.17,0.288,0.41,0.534,0.68,0.72c0.53,0.39,1.2,0.553,1.83,0.709
		c0.12,0.027,0.24,0.007,0.35-0.056c0.1-0.063,0.18-0.164,0.21-0.282c0.03-0.118,0.02-0.244-0.04-0.352
		c-0.06-0.108-0.15-0.189-0.27-0.228L1305.94,53.554z"/>
	<path fill="#EBEBEB" d="M1326.08,46.628c-0.07-0.739-0.82-1.429-1.59-1.262c-0.42,0.092-0.95,0.381-1.21,0.058
		c0.83-0.783,1.69-1.595,2.16-2.609c0.47-1.014,0.48-2.304-0.3-3.127c-0.78-0.822-2.43-0.865-3.03,0.089
		c0.47-1.851,0.47-3.794-0.02-5.642c-0.25-0.92-0.64-1.847-1.39-2.482c-0.75-0.635-1.93-0.886-2.8-0.395
		c-0.47,0.306-0.84,0.747-1.06,1.266c-0.81,1.684-0.78,3.602-0.65,5.44c-0.59-0.745-1.97-0.532-2.55,0.232s-0.53,1.801-0.22,2.685
		c0.3,0.884,0.83,1.688,1.15,2.57c-0.48-0.484-1.43-0.25-1.83,0.303c-0.39,0.553-0.37,1.278-0.25,1.932
		c0.31,1.638,1.14,3.132,2.36,4.265c-0.57-0.532-1.62-0.298-2.12,0.298c-0.49,0.596-0.56,1.418-0.48,2.164
		c0.33,2.909,2.43,5.69,7.39,5.436c1.93-0.22,3.82-1.241,4.71-2.866c0.88-1.625,0.54-3.843-1-4.942c0.58-0.51,1.25-0.916,1.81-1.445
		C1325.72,48.069,1326.15,47.366,1326.08,46.628z"/>
	<path fill="#F8F5FF" d="M1319.09,62.541V40.008c0-0.613-0.95-0.613-0.95,0v22.533C1318.14,63.152,1319.09,63.154,1319.09,62.541z"
		/>
	<path fill="#F8F5FF" d="M1318.97,48.762c0.87-0.306,1.65-0.822,2.27-1.502c0.63-0.68,1.08-1.503,1.31-2.398
		c0.02-0.061,0.03-0.126,0.02-0.19c0-0.064-0.02-0.127-0.05-0.184s-0.08-0.107-0.13-0.147c-0.05-0.04-0.1-0.07-0.17-0.087
		c-0.06-0.017-0.12-0.021-0.19-0.013c-0.06,0.009-0.12,0.03-0.18,0.063c-0.05,0.033-0.1,0.077-0.14,0.13
		c-0.03,0.052-0.06,0.112-0.08,0.175c-0.18,0.737-0.54,1.417-1.05,1.978c-0.13,0.142-0.27,0.277-0.42,0.404
		c-0.13,0.124-0.28,0.237-0.44,0.339c-0.31,0.212-0.65,0.383-1,0.51c-0.12,0.036-0.22,0.117-0.29,0.226
		c-0.06,0.109-0.07,0.238-0.04,0.359c0.03,0.121,0.11,0.224,0.22,0.287s0.24,0.079,0.36,0.046V48.762z"/>
	<path fill="#F8F5FF" d="M1318.25,52.486c-0.65-0.097-1.13-0.624-1.44-1.184c-0.33-0.58-0.47-1.244-0.42-1.907
		c0-0.126-0.05-0.246-0.14-0.335c-0.08-0.089-0.2-0.139-0.33-0.14c-0.12,0.002-0.24,0.053-0.33,0.142
		c-0.09,0.089-0.14,0.208-0.14,0.333c-0.06,0.852,0.14,1.701,0.57,2.437c0.42,0.723,1.11,1.445,1.97,1.572
		c0.12,0.03,0.25,0.012,0.36-0.05c0.11-0.062,0.19-0.162,0.23-0.282c0.03-0.122,0.01-0.252-0.05-0.361
		C1318.47,52.602,1318.37,52.521,1318.25,52.486z"/>
	<path fill="#F8F5FF" d="M1318.91,42.975c-0.21-0.173-0.41-0.359-0.6-0.556c-0.1-0.101-0.19-0.206-0.28-0.314l-0.13-0.154
		c-0.02-0.023-0.06-0.082-0.02-0.027l-0.07-0.09c-0.16-0.221-0.31-0.453-0.44-0.693c-0.06-0.117-0.12-0.234-0.18-0.354
		c-0.03-0.067-0.06-0.135-0.09-0.202c-0.01-0.034-0.02-0.057,0-0.011c-0.01-0.041-0.03-0.082-0.05-0.124
		c-0.03-0.12-0.11-0.221-0.22-0.283c-0.11-0.062-0.24-0.079-0.36-0.049c-0.22,0.073-0.43,0.337-0.33,0.585
		c0.44,1.149,1.17,2.163,2.12,2.946c0.09,0.086,0.21,0.134,0.33,0.134c0.13,0,0.25-0.048,0.34-0.134c0.16-0.177,0.2-0.505,0-0.674
		H1318.91z"/>
</g>
<g opacity="0.7">
	<path fill="#EBEBEB" d="M521.389,62.253c-0.175-0.189-0.278-0.433-0.292-0.691c-0.014-0.257,0.063-0.511,0.216-0.718
		c0.154-0.207,0.374-0.353,0.624-0.413c0.25-0.06,0.512-0.031,0.743,0.083c-0.057-0.194-0.06-0.4-0.009-0.596
		c0.051-0.196,0.153-0.374,0.297-0.516c0.305-0.261,0.851-0.222,1.041,0.133c-0.049-0.224-0.033-0.458,0.046-0.674
		c0.078-0.216,0.216-0.404,0.397-0.544c0.189-0.129,0.42-0.182,0.646-0.15c0.226,0.033,0.432,0.149,0.576,0.327
		c0-0.532,0.03-1.12,0.371-1.535s1.121-0.475,1.342,0.014c0.104-0.244,0.279-0.45,0.501-0.594c0.222-0.143,0.482-0.217,0.746-0.211
		c0.264,0.006,0.52,0.09,0.736,0.243s0.381,0.367,0.475,0.615c0.237-0.259,0.54-0.448,0.875-0.548
		c0.336-0.1,0.693-0.107,1.032-0.021c0.34,0.087,0.65,0.264,0.897,0.513s0.423,0.561,0.508,0.902
		c0.036,0.138,0.083,0.31,0.223,0.335c0.067,0.004,0.135-0.009,0.196-0.037c0.408-0.122,0.853,0.124,1.096,0.475
		c0.217,0.369,0.356,0.778,0.406,1.204c0.475-0.417,1.367-0.048,1.413,0.583c0.307-0.216,0.706-0.44,1.033-0.257
		c0.141,0.08,0.238,0.223,0.374,0.312c0.136,0.089,0.353,0.092,0.424-0.059c0.205,0.322,0.336,0.685,0.383,1.064
		c0.19-0.146,0.418-0.232,0.656-0.25c0.238-0.018,0.476,0.035,0.685,0.151c0.209,0.116,0.379,0.291,0.49,0.503
		c0.111,0.212,0.159,0.452,0.136,0.691L521.389,62.253z"/>
	<path fill="#EBEBEB" d="M531.72,48.993c0.353-0.608,0.496-1.388,0.193-2.026c-0.304-0.638-1.13-1.026-1.766-0.709
		c0.164-1.84,0.034-3.695-0.383-5.495c-0.23-0.985-0.585-2.012-1.381-2.632c-1.216-0.947-3.141-0.532-4.126,0.658
		c-0.986,1.189-1.137,2.909-0.722,4.398c-1.083-0.301-2.391-0.25-3.149,0.583c-0.859,0.946-0.644,2.419-0.374,3.671
		c0.23,1.064,0.53,2.225,1.413,2.836c-1.085,0.124-2.384,0.418-2.718,1.461c-0.189,0.592,0.025,1.241,0.369,1.773
		c1.139,1.721,3.426,2.224,5.483,2.276h1.017c0.57,0.057,1.133-0.177,1.647-0.392c0.514-0.215,1.086-0.392,1.624-0.601
		c0.852-0.328,1.766-0.775,2.163-1.645c0.429-0.924,0.142-2.196-0.766-2.65C530.811,50.067,531.362,49.601,531.72,48.993z"/>
	<path fill="#F8F5FF" d="M526.105,62.213V47.64c0-0.613-0.951-0.613-0.951,0v14.572C525.154,62.826,526.105,62.828,526.105,62.213z"
		/>
	<path fill="#F8F5FF" d="M526.18,52.299c0.517-0.238,0.977-0.587,1.346-1.022c0.37-0.435,0.641-0.945,0.794-1.495
		c0.025-0.119,0.004-0.243-0.059-0.347s-0.163-0.18-0.28-0.212s-0.242-0.018-0.349,0.039s-0.188,0.153-0.227,0.269
		c-0.033,0.117-0.072,0.23-0.114,0.354c-0.043,0.124,0.044-0.097,0,0c-0.015,0.03-0.027,0.06-0.043,0.09
		c-0.016,0.03-0.048,0.099-0.074,0.149c-0.057,0.107-0.12,0.21-0.189,0.31l-0.056,0.082c-0.016,0.021-0.068,0.113,0,0
		c-0.035,0.05-0.074,0.097-0.117,0.14c-0.08,0.092-0.164,0.179-0.252,0.262l-0.136,0.12c-0.024,0.024-0.05,0.045-0.078,0.062
		c0.046-0.023,0.056-0.043,0,0c-0.2,0.147-0.416,0.272-0.643,0.372c-0.109,0.063-0.189,0.167-0.222,0.29
		c-0.034,0.122-0.017,0.253,0.046,0.363c0.065,0.107,0.169,0.185,0.289,0.218c0.121,0.033,0.25,0.018,0.36-0.041L526.18,52.299z"/>
	<path fill="#F8F5FF" d="M525.476,53.554c-0.281-0.067-0.559-0.135-0.833-0.225l-0.177-0.066l-0.099-0.039l-0.024-0.011
		c-0.128-0.059-0.25-0.127-0.368-0.204c-0.026-0.016-0.051-0.035-0.077-0.053c-0.027-0.018-0.023-0.02,0,0
		c-0.05-0.041-0.097-0.082-0.143-0.124c-0.046-0.043-0.089-0.09-0.129-0.136c0-0.011-0.076-0.092-0.036-0.039
		c0.041,0.053-0.028-0.042-0.028-0.042c-0.035-0.051-0.067-0.104-0.095-0.16c-0.012-0.021-0.023-0.044-0.034-0.066
		c-0.054-0.108,0.029,0.09-0.008-0.023c-0.018-0.053-0.036-0.105-0.048-0.158c-0.009-0.029-0.015-0.06-0.018-0.09v0.053v-0.074
		c0.004-0.065-0.005-0.13-0.027-0.191c-0.022-0.061-0.057-0.117-0.101-0.165c-0.044-0.047-0.098-0.085-0.157-0.111
		c-0.06-0.026-0.124-0.039-0.189-0.039s-0.129,0.013-0.188,0.039c-0.06,0.026-0.113,0.064-0.158,0.111
		c-0.044,0.047-0.079,0.103-0.101,0.165c-0.022,0.061-0.031,0.126-0.027,0.191c0.03,0.333,0.134,0.656,0.304,0.944
		c0.17,0.288,0.402,0.534,0.68,0.72c0.529,0.39,1.197,0.553,1.825,0.709c0.119,0.027,0.244,0.007,0.349-0.056
		c0.104-0.063,0.181-0.164,0.213-0.282c0.033-0.118,0.019-0.244-0.039-0.352c-0.058-0.108-0.154-0.189-0.27-0.228L525.476,53.554z"
		/>
	<path fill="#EBEBEB" d="M545.621,46.628c-0.069-0.739-0.823-1.429-1.589-1.262c-0.424,0.092-0.952,0.381-1.215,0.058
		c0.837-0.783,1.691-1.595,2.163-2.609c0.471-1.014,0.477-2.304-0.3-3.127c-0.777-0.822-2.432-0.865-3.034,0.089
		c0.477-1.851,0.47-3.794-0.019-5.642c-0.246-0.92-0.636-1.847-1.384-2.482c-0.749-0.635-1.934-0.886-2.799-0.395
		c-0.472,0.306-0.841,0.747-1.059,1.266c-0.811,1.684-0.783,3.602-0.652,5.44c-0.595-0.745-1.97-0.532-2.553,0.232
		s-0.53,1.801-0.223,2.685c0.308,0.884,0.836,1.688,1.153,2.57c-0.483-0.484-1.428-0.25-1.825,0.303
		c-0.398,0.553-0.376,1.278-0.256,1.932c0.316,1.638,1.145,3.132,2.366,4.265c-0.578-0.532-1.623-0.298-2.119,0.298
		s-0.569,1.418-0.484,2.164c0.328,2.909,2.428,5.69,7.384,5.436c1.932-0.22,3.823-1.241,4.711-2.866
		c0.888-1.625,0.547-3.843-0.996-4.942c0.576-0.51,1.254-0.916,1.81-1.445C545.257,48.069,545.69,47.366,545.621,46.628z"/>
	<path fill="#F8F5FF" d="M538.627,62.541V40.008c0-0.613-0.949-0.613-0.949,0v22.533C537.678,63.152,538.627,63.154,538.627,62.541z
		"/>
	<path fill="#F8F5FF" d="M538.51,48.762c0.869-0.306,1.65-0.822,2.274-1.502c0.625-0.68,1.073-1.503,1.306-2.398
		c0.021-0.061,0.028-0.126,0.022-0.19c-0.005-0.064-0.024-0.127-0.054-0.184c-0.031-0.057-0.072-0.107-0.122-0.147
		c-0.051-0.04-0.108-0.07-0.17-0.087c-0.062-0.017-0.127-0.021-0.191-0.013c-0.064,0.009-0.125,0.03-0.18,0.063
		c-0.055,0.033-0.103,0.077-0.141,0.13c-0.037,0.052-0.064,0.112-0.078,0.175c-0.185,0.737-0.549,1.417-1.06,1.978
		c-0.129,0.142-0.267,0.277-0.411,0.404c-0.138,0.124-0.286,0.237-0.441,0.339c-0.313,0.212-0.651,0.383-1.007,0.51
		c-0.119,0.036-0.22,0.117-0.282,0.226c-0.062,0.109-0.079,0.238-0.048,0.359c0.034,0.121,0.114,0.224,0.223,0.287
		c0.109,0.062,0.238,0.079,0.36,0.046V48.762z"/>
	<path fill="#F8F5FF" d="M537.787,52.486c-0.65-0.097-1.123-0.624-1.439-1.184c-0.326-0.58-0.47-1.244-0.413-1.907
		c-0.001-0.126-0.051-0.246-0.14-0.335c-0.088-0.089-0.208-0.139-0.333-0.14c-0.125,0.002-0.245,0.053-0.333,0.142
		c-0.089,0.089-0.14,0.208-0.142,0.333c-0.059,0.852,0.14,1.701,0.57,2.437c0.422,0.723,1.118,1.445,1.978,1.572
		c0.121,0.03,0.248,0.012,0.357-0.05c0.109-0.062,0.19-0.162,0.227-0.282c0.032-0.122,0.015-0.252-0.047-0.361
		C538.01,52.602,537.908,52.521,537.787,52.486z"/>
	<path fill="#F8F5FF" d="M538.455,42.975c-0.212-0.173-0.414-0.359-0.604-0.556c-0.097-0.101-0.192-0.206-0.282-0.314l-0.127-0.154
		c-0.018-0.023-0.06-0.082-0.021-0.027l-0.066-0.09c-0.162-0.221-0.31-0.453-0.443-0.693c-0.065-0.117-0.125-0.234-0.176-0.354
		c-0.032-0.067-0.062-0.135-0.092-0.202c-0.016-0.034-0.025-0.057,0-0.011c-0.018-0.041-0.034-0.082-0.05-0.124
		c-0.036-0.12-0.117-0.221-0.226-0.283c-0.109-0.062-0.237-0.079-0.358-0.049c-0.223,0.073-0.429,0.337-0.33,0.585
		c0.442,1.149,1.172,2.163,2.118,2.946c0.091,0.086,0.211,0.134,0.336,0.134s0.245-0.048,0.335-0.134
		c0.159-0.177,0.207-0.505,0-0.674H538.455z"/>
</g>
<path opacity="0.1" fill="#888383" enable-background="new    " d="M135.785,12.223c-0.774,0-1.533,0.199-2.201,0.576
	c-0.344-0.97-1.045-1.785-1.968-2.289c-0.924-0.505-2.007-0.665-3.045-0.451c-0.374-1.438-1.232-2.716-2.439-3.631
	c-1.208-0.915-2.696-1.416-4.23-1.425c-1.535-0.008-3.029,0.477-4.246,1.379c-1.218,0.902-2.091,2.17-2.482,3.604
	c-0.136,0-0.271-0.021-0.412-0.021c-1.017,0.001-2.016,0.262-2.895,0.756c-0.788-0.473-1.693-0.734-2.62-0.755
	c-0.928-0.021-1.844,0.198-2.655,0.634c-0.81,0.436-1.485,1.075-1.954,1.848c-0.469,0.773-0.715,1.654-0.713,2.551H139.9
	c-0.31-0.814-0.871-1.517-1.606-2.013C137.558,12.491,136.682,12.224,135.785,12.223z"/>
<path fill="#E3E3E3" d="M155.714,19h-22.81c-0.001-0.541,0.125-1.075,0.369-1.556c0.244-0.481,0.599-0.894,1.033-1.205
	c0.434-0.311,0.936-0.51,1.462-0.58s1.061-0.01,1.56,0.176c0.493-0.454,1.098-0.762,1.75-0.891c0.653-0.129,1.327-0.074,1.951,0.16
	c0.374-0.449,0.899-0.739,1.473-0.812c0.573-0.073,1.152,0.075,1.624,0.416c0.424-0.632,1.021-1.124,1.716-1.414
	c0.696-0.29,1.459-0.367,2.196-0.22c0.738,0.147,1.417,0.511,1.954,1.047c0.537,0.536,0.908,1.22,1.069,1.969
	c0.435-0.485,1.022-0.801,1.66-0.892c0.638-0.092,1.288,0.045,1.838,0.388c0.55,0.343,0.966,0.87,1.177,1.492
	c0.21,0.622,0.203,1.298-0.022,1.915V19z"/>
</svg>
