<svg width="20" height="18" viewBox="0 0 20 18" fill="none" xmlns="http://www.w3.org/2000/svg">
<path d="M18.752 13.2321C20.6847 10.5205 20.3893 6.80543 17.7495 4.38547C16.5434 3.2798 15.0057 2.59148 13.3448 2.39926C13.3344 2.38634 13.3236 2.37385 13.3122 2.36184C11.8673 0.860859 9.79133 0 7.61672 0C3.47848 0 0 3.08332 0 7.03125C0 8.41543 0.429961 9.74234 1.24672 10.8883L0.105742 14.4706C0.0706615 14.5807 0.068922 14.6987 0.100743 14.8098C0.132563 14.9209 0.196522 15.0201 0.284576 15.0949C0.37263 15.1697 0.480845 15.2169 0.595611 15.2303C0.710377 15.2438 0.826568 15.2231 0.92957 15.1707L4.39937 13.4064C5.11195 13.7132 5.86758 13.9145 6.65008 14.0061C8.15953 15.5935 10.2467 16.4062 12.382 16.4062C13.492 16.4062 14.598 16.18 15.5992 15.7501L19.0692 17.5145C19.1514 17.5563 19.2423 17.5781 19.3346 17.5781C19.73 17.5781 20.0135 17.1928 19.893 16.8143L18.752 13.2321ZM4.63586 12.2274C4.5549 12.1889 4.4662 12.1696 4.37659 12.1708C4.28697 12.172 4.19883 12.1937 4.11894 12.2344L1.64758 13.491L2.45461 10.9572C2.48355 10.8663 2.48989 10.7698 2.47305 10.6759C2.45622 10.5821 2.41673 10.4937 2.35801 10.4186C1.58199 9.42523 1.1718 8.25394 1.1718 7.03125C1.1718 3.80039 4.06297 1.17187 7.61672 1.17187C9.04781 1.17187 10.4255 1.60543 11.543 2.38617C7.77945 2.76461 4.76531 5.70422 4.76531 9.375C4.76531 10.5167 5.05797 11.6159 5.60973 12.6006C5.276 12.5014 4.95042 12.3766 4.63586 12.2274ZM15.8798 14.5781C15.7999 14.5375 15.7118 14.5157 15.6222 14.5145C15.5325 14.5133 15.4438 14.5327 15.3629 14.5711C14.4494 15.005 13.4187 15.2344 12.382 15.2344C8.82828 15.2344 5.93711 12.6059 5.93711 9.375C5.93711 6.14414 8.82828 3.51562 12.382 3.51562C15.9358 3.51562 18.827 6.14414 18.827 9.375C18.827 10.5977 18.4168 11.769 17.6407 12.7623C17.582 12.8374 17.5425 12.9258 17.5257 13.0196C17.5089 13.1135 17.5152 13.21 17.5441 13.3009L18.3511 15.8347L15.8798 14.5781Z" fill="#6C757D"/>
<path d="M9.99939 9.96094C10.323 9.96094 10.5853 9.6986 10.5853 9.375C10.5853 9.0514 10.323 8.78906 9.99939 8.78906C9.67579 8.78906 9.41345 9.0514 9.41345 9.375C9.41345 9.6986 9.67579 9.96094 9.99939 9.96094Z" fill="#6C757D"/>
<path d="M12.343 9.96094C12.6666 9.96094 12.929 9.6986 12.929 9.375C12.929 9.0514 12.6666 8.78906 12.343 8.78906C12.0194 8.78906 11.7571 9.0514 11.7571 9.375C11.7571 9.6986 12.0194 9.96094 12.343 9.96094Z" fill="#6C757D"/>
<path d="M14.6866 9.96094C15.0102 9.96094 15.2725 9.6986 15.2725 9.375C15.2725 9.0514 15.0102 8.78906 14.6866 8.78906C14.363 8.78906 14.1006 9.0514 14.1006 9.375C14.1006 9.6986 14.363 9.96094 14.6866 9.96094Z" fill="#6C757D"/>
</svg>
