<svg xmlns="http://www.w3.org/2000/svg" width="1145" height="227" viewBox="15.5 0 1145 227"><path fill="#EAFBFC" d="M368.037 60.168h22.756v22.793h-22.756V60.168zM874.351 4h44.157v44.229h-44.157V4z"/><ellipse fill="#EAFBFC" cx="582.997" cy="51.35" rx="25.329" ry="25.371"/><path fill="#D1D1D1" d="M742.339 165.596h-8.111V87.032h51.663v11.001l-2.42-2.424H742.34v69.987h-.001zm-7.259-.854h6.405V94.755h42.337l1.214 1.216v-8.084H735.08v76.855z"/><path fill="#D1D1D1" d="M793.148 173.32h-51.663V94.755h42.587v9.09h9.075v69.475h.001zm-50.809-.855h49.957v-67.766h-9.075v-9.09H742.34v76.856h-.001z"/><path fill="#D1D1D1" d="M792.722 104.699h-9.075l-.426-.427v-9.09l.728-.302 9.075 9.09-.302.729zm-8.649-.854h7.619l-7.619-7.631v7.631zm-34.223 27.267h35.842v.854H749.85v-.854zm-.453-13.633h35.842v.854h-35.842v-.854zm.453 27.266h24.499v.854H749.85v-.854zm-176.873-32.818h-45.702V85.223h45.702v26.704zm-44.749-.954h43.798V86.177h-43.798v24.796z"/><path fill="#D1D1D1" d="M608.206 144.961l-36.181-33.302V85.495l36.181-34.281v93.747zm-35.229-33.721l34.276 31.549v-89.36l-34.276 32.477v25.334zm-23.803 18.807h-11.425v-19.074h11.425v19.074zm-10.473-.954h9.521v-17.166h-9.521v17.166z"/><path fill="#D1D1D1" d="M607.73 113.834h-.476v-28.61h.476c4.987 0 9.045 6.417 9.045 14.305s-4.058 14.305-9.045 14.305zm.476-27.634v26.657c4.242-.408 7.617-6.231 7.617-13.329 0-7.097-3.375-12.92-7.617-13.328zm-245.832 29.439a8.496 8.496 0 0 1-2.96-.53c-6.331-2.357-22.698-9.482-37.893-24.701-15.322-15.348-21.9-31.32-24.017-37.475a8.61 8.61 0 0 1 .174-6.077l3.873-9.423a8.64 8.64 0 0 1 3.514-4.091l5.153-3.097a8.543 8.543 0 0 1 10.465 1.29l3.081 3.087a8.579 8.579 0 0 1 1.288 10.482l-2.752 4.593a7.595 7.595 0 0 0-.775 6.035c1.443 4.9 5.011 14.268 12.69 21.96 7.838 7.85 17.371 11.412 22.357 12.836 1.79.511 3.71.325 5.408-.526l5.86-2.935a8.545 8.545 0 0 1 9.888 1.607l2.567 2.571a8.579 8.579 0 0 1 1.288 10.482l-3.258 5.44a8.57 8.57 0 0 1-3.515 3.26l-8.597 4.306a8.583 8.583 0 0 1-3.839.906zm-47.748-85.625a7.56 7.56 0 0 0-3.897 1.084l-5.153 3.097a7.634 7.634 0 0 0-3.106 3.616l-3.873 9.423a7.614 7.614 0 0 0-.153 5.374c2.095 6.09 8.604 21.894 23.78 37.095 15.057 15.081 31.266 22.138 37.537 24.472a7.578 7.578 0 0 0 6.009-.332l8.597-4.306a7.566 7.566 0 0 0 3.107-2.882l3.258-5.44a7.583 7.583 0 0 0-1.139-9.266l-2.567-2.571a7.556 7.556 0 0 0-8.742-1.421l-5.86 2.935c-1.92.962-4.095 1.174-6.125.593-5.078-1.451-14.79-5.081-22.787-13.09-7.835-7.848-11.47-17.391-12.94-22.381a8.604 8.604 0 0 1 .876-6.829l2.752-4.593a7.583 7.583 0 0 0-1.139-9.266l-3.081-3.087a7.555 7.555 0 0 0-5.354-2.225z"/><path fill="#D1D1D1" d="M350.434 73.856l-4.178-7.014c-3.718 0-6.742-3.873-6.742-8.633V34.884c0-4.761 3.024-8.634 6.742-8.634h29.562c3.718 0 6.742 3.873 6.742 8.634v23.324c0 4.76-3.024 8.633-6.742 8.633h-21.52l-3.864 7.015zm-4.178-46.611c-3.17 0-5.749 3.427-5.749 7.639v23.324c0 4.212 2.579 7.639 5.749 7.639h.604l3.545 6.004 3.307-6.004h22.107c3.17 0 5.749-3.427 5.749-7.639V34.884c0-4.212-2.579-7.639-5.749-7.639h-29.563z"/><path fill="#D1D1D1" d="M361.572 50.027a2.667 2.667 0 0 1 0-5.334 2.668 2.668 0 0 1 0 5.334zm0-4.339a1.673 1.673 0 0 0 0 3.344c.92 0 1.67-.75 1.67-1.672s-.75-1.672-1.67-1.672zm-7.04 4.339a2.668 2.668 0 0 1 0-5.334 2.667 2.667 0 0 1 0 5.334zm0-4.339a1.673 1.673 0 0 0 0 3.344 1.673 1.673 0 0 0 0-3.344zm13.539 4.339a2.668 2.668 0 0 1 0-5.334 2.667 2.667 0 0 1 0 5.334zm0-4.339a1.673 1.673 0 0 0 0 3.344 1.673 1.673 0 0 0 0-3.344zm214.756 226.537h-35.59a4.674 4.674 0 0 1-4.665-4.672v-58.492a4.673 4.673 0 0 1 4.665-4.672h35.59a4.674 4.674 0 0 1 4.665 4.672v58.492a4.674 4.674 0 0 1-4.665 4.672zm-35.59-67.144a3.982 3.982 0 0 0-3.974 3.98v58.492a3.981 3.981 0 0 0 3.974 3.98h35.59a3.982 3.982 0 0 0 3.974-3.98v-58.492a3.981 3.981 0 0 0-3.974-3.98h-35.59z"/><path fill="#D1D1D1" d="M571.318 257.46c-1.841 0-3.508-.447-3.613-.476l-.079-.032c-.162-.091-4.019-2.387-8.82-15.633-4.773-13.172-5.163-18.35-5.177-18.564l-.004-.068.022-.065c.073-.22 1.835-5.406 5.127-5.772 3.165-.353 5.601.674 5.703.718l.143.061 2.19 6.58-4.206 4.212c-.029.62-.041 3.749 2.063 9.77 2.097 6.001 4.203 8.048 4.634 8.421h4.929l3.636 7.283-.098.163c-.044.074-1.123 1.839-3.616 2.909-.859.37-1.87.493-2.834.493zm-3.385-1.132c.435.111 3.808.922 5.946.004 1.868-.802 2.882-2.047 3.192-2.477l-3.269-6.55h-4.735l-.09-.065c-.103-.073-2.536-1.874-4.963-8.82-2.417-6.917-2.105-10.059-2.09-10.189l.013-.121 4.081-4.088-1.954-5.873c-.55-.204-2.652-.898-5.214-.611-2.673.297-4.314 4.648-4.525 5.238.062.651.688 6.044 5.132 18.307 4.482 12.366 8.099 14.998 8.476 15.245zm24.742-37.057h-5.529v-.692h4.838v-6.144h-4.838v-.692h5.529v7.528z"/><path fill="#D1D1D1" d="M592.675 226.193h-5.529v-.692h4.838v-6.143h-4.838v-.693h5.529v7.528z"/><path fill="#D1D1D1" d="M592.675 233.115h-5.529v-.692h4.838v-6.143h-4.838v-.693h5.529v7.528z"/><path fill="#D1D1D1" d="M592.675 240.037h-5.529v-.692h4.838v-6.143h-4.838v-.693h5.529v7.528z"/><path fill="#D1D1D1" d="M592.675 246.959h-5.529v-.692h4.838v-6.143h-4.838v-.692h5.529v7.527zM1000.684 99.514h-110.85V21.366h110.849l.001 78.148zm-110.077-.774h109.305v-76.6H890.607v76.6z"/><path fill="#D1D1D1" d="M889.834 36.454h110.077v.774H889.834v-.774zm101.58-3.869a3.483 3.483 0 0 1 0-6.964 3.483 3.483 0 0 1 0 6.964zm0-6.19a2.71 2.71 0 0 0 0 5.416 2.71 2.71 0 0 0 0-5.416zm-8.497 6.19a3.483 3.483 0 0 1 0-6.964 3.483 3.483 0 0 1 0 6.964zm0-6.19a2.71 2.71 0 0 0 0 5.416 2.71 2.71 0 0 0 0-5.416zm-8.497 6.19a3.483 3.483 0 0 1 0-6.964 3.483 3.483 0 0 1 0 6.964zm0-6.19a2.71 2.71 0 0 0 0 5.416 2.71 2.71 0 0 0 0-5.416zm8.072 64.768l-14.476-14.5-7.886 7.006-5.621-32.84 31.85 8.444-7.115 6.945L993.7 79.936l-11.208 11.227zm-14.444-15.562l14.444 14.468 10.101-10.118-14.464-13.725 6.714-6.554-29.369-7.787 5.182 30.282 7.392-6.566zM266.891 210.4H214.29c-4.19 0-8.155-1.828-10.879-5.017a14.346 14.346 0 0 1-3.269-11.541l5.753-36.883.816.128-5.753 36.883c-.61 3.907.513 7.87 3.08 10.875a13.466 13.466 0 0 0 10.251 4.727h52.601c3.948 0 7.685-1.723 10.251-4.727a13.512 13.512 0 0 0 3.08-10.875l-5.753-36.883.816-.128 5.753 36.883a14.346 14.346 0 0 1-3.269 11.541 14.28 14.28 0 0 1-10.877 5.017z"/><path fill="#D1D1D1" d="M179.123 163.764a3.84 3.84 0 0 1-2.423-.86 3.871 3.871 0 0 1-1.425-2.608l-.958-8.888c-.002-3.666 8.792-10.835 20.454-16.719 8.583-4.33 25.948-11.594 45.82-11.594 20.367 0 37.433 6.771 45.793 10.807 12.227 5.903 20.442 12.874 20.442 17.346l-.002.041-.9 9.078a3.714 3.714 0 0 1-4.055 3.317l-18.118-1.804a3.65 3.65 0 0 1-2.491-1.329 3.69 3.69 0 0 1-.82-2.724l.942-9.5.014.002c-1.702-7.916-27.491-13.648-40.805-13.648-13.307 0-39.32 7.321-40.824 13.895l.016.071.959 8.896a3.848 3.848 0 0 1-.837 2.852 3.83 3.83 0 0 1-2.605 1.419l-17.753 1.928a4.284 4.284 0 0 1-.424.022zm61.468-39.842c-33.745 0-65.45 21.296-65.45 27.441l.956 8.843c.088.811.487 1.54 1.122 2.053.629.51 1.435.747 2.24.659l17.755-1.928a3.016 3.016 0 0 0 2.049-1.116c.51-.63.747-1.437.658-2.243l-.912-8.462-.133.022.04-.556c1.202-7.635 29.384-14.782 41.676-14.782 11.751 0 40.915 5.228 41.705 14.92l.041.507-.216-.027-.858 8.656a2.867 2.867 0 0 0 2.557 3.147l.013.001 18.119 1.804a2.88 2.88 0 0 0 3.151-2.576l.898-9.056c-.028-4.034-8.42-11.002-19.975-16.58-8.298-4.007-25.233-10.727-45.436-10.727z"/><path fill="#D1D1D1" d="M199.695 149.162h-.826c0-.224.016-.394.051-.553l.807.179a1.74 1.74 0 0 0-.032.374zm82.618 0h-.826c0-.106-.008-.22-.015-.326l.824-.061c.009.127.017.261.017.387zm-41.559 43.166c-9.42 0-17.084-7.676-17.084-17.112 0-9.435 7.664-17.112 17.084-17.112s17.084 7.676 17.084 17.112c0 9.435-7.664 17.112-17.084 17.112zm0-33.525c-9.036 0-16.387 7.363-16.387 16.413s7.351 16.413 16.387 16.413 16.387-7.363 16.387-16.413-7.351-16.413-16.387-16.413zm-103.931-10.744c-5.452 0-9.888-4.443-9.888-9.904s4.436-9.904 9.888-9.904 9.888 4.443 9.888 9.904-4.436 9.904-9.888 9.904zm0-18.994c-5.004 0-9.075 4.078-9.075 9.09s4.071 9.09 9.075 9.09 9.075-4.078 9.075-9.09-4.071-9.09-9.075-9.09zm252.209 65.148c-7.245 0-13.139-5.904-13.139-13.16s5.894-13.16 13.139-13.16 13.139 5.904 13.139 13.16-5.894 13.16-13.139 13.16zm0-25.506c-6.797 0-12.326 5.538-12.326 12.346s5.529 12.346 12.326 12.346 12.326-5.538 12.326-12.346-5.53-12.346-12.326-12.346zm103.755-18.995c-8.141 0-14.764-6.634-14.764-14.788s6.623-14.788 14.764-14.788 14.764 6.634 14.764 14.788-6.623 14.788-14.764 14.788zm0-28.762c-7.693 0-13.951 6.269-13.951 13.974s6.259 13.974 13.951 13.974 13.951-6.269 13.951-13.974-6.258-13.974-13.951-13.974zm197.893 97.117c-12.249 0-22.214-9.981-22.214-22.25s9.965-22.25 22.214-22.25 22.214 9.981 22.214 22.25-9.965 22.25-22.214 22.25zm0-43.687c-11.801 0-21.401 9.616-21.401 21.436s9.601 21.436 21.401 21.436c11.801 0 21.401-9.616 21.401-21.436s-9.6-21.436-21.401-21.436zm227.963 26.617c-4.705 0-8.533-3.834-8.533-8.547s3.828-8.547 8.533-8.547 8.533 3.834 8.533 8.547c0 4.712-3.828 8.547-8.533 8.547zm0-16.281c-4.257 0-7.721 3.469-7.721 7.733 0 4.264 3.464 7.733 7.721 7.733s7.721-3.469 7.721-7.733c0-4.264-3.464-7.733-7.721-7.733zm142.223 2.171c-8.44 0-15.306-6.877-15.306-15.331s6.866-15.331 15.306-15.331 15.306 6.877 15.306 15.331-6.866 15.331-15.306 15.331zm0-29.848c-7.992 0-14.493 6.512-14.493 14.517s6.502 14.517 14.493 14.517 14.493-6.512 14.493-14.517-6.501-14.517-14.493-14.517zm27.767 88.458h-21.943v-21.979h21.943v21.979zm-21.13-.814h20.318v-20.351h-20.318v20.351zm-85.605-104.468h-22.214v-22.25h22.214v22.25zm-21.401-.814h20.589v-20.622h-20.589v20.622zm-148.724 84.931h-15.17v-15.195h15.17v15.195zm-14.358-.814h13.545v-13.567h-13.545v13.567zm-208.323-40.701h-17.609V165.18h17.609v17.637zm-16.796-.814h15.983v-16.009h-15.983v16.009zm-95.899 54.811h-14.9V221.89h14.9v14.924zM462.311 236h13.274v-13.296h-13.274V236zm-113.237-6.241h-23.568v-23.607h23.568v23.607zm-22.756-.814h21.943v-21.979h-21.943v21.979zm-214.824-17.391h-14.9V196.63h14.9v14.924zm-14.087-.814h13.274v-13.296H97.407v13.296zM839.405 54.742h-18.692V36.019h18.692v18.723zm-17.88-.814h17.067V36.833h-17.067v17.095zm274.694 13.024h-26.006V40.903h26.006v26.049zm-25.194-.814h24.381V41.717h-24.381v24.421zM455.809 51.757h-23.027V28.692h23.027v23.065zm-22.214-.814h21.401V29.506h-21.401v21.437zm-192.34 14.924h-29.799V36.019h29.799v29.848zm-28.986-.814h28.174v-28.22h-28.174v28.22zm437.505 30.119c-5.079 0-9.211-4.139-9.211-9.226s4.132-9.226 9.211-9.226 9.211 4.139 9.211 9.226-4.132 9.226-9.211 9.226zm0-17.637c-4.631 0-8.398 3.774-8.398 8.412s3.767 8.412 8.398 8.412 8.398-3.774 8.398-8.412c0-4.639-3.767-8.412-8.398-8.412zm494.394 53.726c-5.676 0-10.294-4.626-10.294-10.311 0-5.686 4.618-10.311 10.294-10.311s10.294 4.626 10.294 10.311-4.618 10.311-10.294 10.311zm0-19.808c-5.228 0-9.481 4.26-9.481 9.497s4.253 9.497 9.481 9.497 9.482-4.26 9.482-9.497-4.254-9.497-9.482-9.497zM41.167 125.639l-9.995-4.932-9.995 4.932 1.594-11.045L15 106.597l10.98-1.895 5.192-9.874 5.192 9.874 10.98 1.895-7.771 7.997 1.594 11.045zm-9.995-5.839l8.97 4.426-1.431-9.912 6.974-7.177-9.854-1.7-4.659-8.861-4.659 8.861-9.854 1.7 6.974 7.177-1.431 9.912 8.97-4.426zm481.996-46.037l-6.023-2.972-6.023 2.972.961-6.656-4.683-4.819 6.617-1.142 3.129-5.95 3.129 5.95 6.617 1.142-4.683 4.819.959 6.656zm-6.023-3.879l4.998 2.466-.797-5.523 3.886-3.999-5.491-.947-2.596-4.938-2.596 4.938-5.491.947 3.886 3.999-.797 5.523 4.998-2.466zm223.171-17.439l-8.076-3.985-8.076 3.985 1.288-8.925-6.28-6.462 8.873-1.531 4.195-7.979 4.195 7.979 8.873 1.531-6.28 6.462 1.288 8.925zm-8.076-4.893l7.051 3.48-1.125-7.792 5.483-5.642-7.746-1.337-3.663-6.966-3.663 6.966-7.746 1.337 5.483 5.642-1.125 7.792 7.051-3.48zm146.079 150.291l-9.816-4.844-9.816 4.844 1.566-10.848-7.633-7.855 10.784-1.86 5.099-9.698 5.099 9.698 10.784 1.86-7.633 7.855 1.566 10.848zm-9.816-5.752l8.792 4.338-1.402-9.715 6.836-7.035-9.658-1.666-4.567-8.685-4.567 8.685-9.658 1.666 6.836 7.035-1.402 9.715 8.79-4.338zm297.341 14.821l-6.258-3.088-6.259 3.088.998-6.916-4.866-5.008 6.876-1.186 3.251-6.183 3.251 6.183 6.876 1.186-4.866 5.008.997 6.916zm-6.258-3.996l5.234 2.582-.835-5.783 4.069-4.188-5.749-.992-2.719-5.17-2.719 5.17-5.749.992 4.069 4.188-.835 5.783 5.234-2.582z"/><path fill="#D6F6FA" d="M146.063 182.165l22.778 7.234c-3.492 12.719-9.299 22.167-17.421 28.34-8.123 6.175-18.426 9.261-30.913 9.261-15.45 0-28.149-5.286-38.095-15.859-9.948-10.573-14.921-25.028-14.921-43.365 0-19.397 5-34.461 15-45.193s23.147-16.098 39.445-16.098c14.232 0 25.794 4.213 34.683 12.64 5.29 4.982 9.258 12.137 11.905 21.464l-23.254 5.565c-1.376-6.042-4.246-10.811-8.611-14.309-4.365-3.498-9.67-5.247-15.913-5.247-8.625 0-15.623 3.1-20.992 9.301-5.371 6.201-8.056 16.244-8.056 30.129 0 14.734 2.645 25.227 7.937 31.48 5.29 6.254 12.169 9.38 20.635 9.38 6.243 0 11.613-1.987 16.111-5.962 4.496-3.975 7.724-10.228 9.682-18.761zm38.175-14.708c0-11.871 1.772-21.834 5.317-29.89 2.645-5.935 6.256-11.261 10.833-15.979 4.576-4.716 9.59-8.214 15.04-10.493 7.248-3.073 15.608-4.611 25.079-4.611 17.143 0 30.86 5.326 41.151 15.979 10.29 10.652 15.437 25.466 15.437 44.438 0 18.814-5.107 33.535-15.318 44.16C271.565 221.687 257.914 227 240.824 227c-17.302 0-31.059-5.286-41.27-15.859-10.21-10.574-15.316-25.134-15.316-43.684zm24.207-.795c0 13.196 3.042 23.2 9.127 30.01 6.084 6.811 13.81 10.215 23.175 10.215s17.05-3.379 23.056-10.136c6.005-6.757 9.008-16.893 9.008-30.407 0-13.355-2.924-23.318-8.77-29.89-5.847-6.571-13.611-9.857-23.294-9.857s-17.488 3.326-23.413 9.977c-5.927 6.65-8.889 16.681-8.889 30.088zm107.222 60.004V110.125h22.857l47.619 77.826v-77.826h21.826v116.541h-23.572l-46.905-75.998v75.998h-21.825zm143.334 0V129.84h-34.524v-19.715h92.461v19.715h-34.445v96.826h-23.492zm165.954 0h-25.556l-10.159-26.472h-46.508l-9.603 26.472h-24.921l45.318-116.541h24.841l46.588 116.541zm-43.254-46.108l-16.032-43.246-15.714 43.246h31.746zm130.159 1.607l22.778 7.234c-3.492 12.719-9.299 22.167-17.421 28.34-8.122 6.175-18.426 9.261-30.913 9.261-15.45 0-28.149-5.286-38.095-15.859-9.948-10.573-14.921-25.028-14.921-43.365 0-19.397 5-34.461 15-45.193s23.147-16.098 39.445-16.098c14.232 0 25.794 4.213 34.683 12.64 5.29 4.982 9.258 12.137 11.905 21.464l-23.254 5.565c-1.376-6.042-4.246-10.811-8.611-14.309s-9.67-5.247-15.913-5.247c-8.625 0-15.623 3.1-20.992 9.301-5.371 6.201-8.056 16.244-8.056 30.129 0 14.734 2.645 25.227 7.937 31.48 5.29 6.254 12.169 9.38 20.635 9.38 6.243 0 11.613-1.987 16.111-5.962 4.496-3.975 7.724-10.228 9.682-18.761zm69.127 44.501V129.84h-34.524v-19.715h92.461v19.715h-34.445v96.826h-23.492zm118.096-118.275h23.492v63.12c0 10.016.29 16.509.873 19.476 1.004 4.77 3.399 8.599 7.183 11.487 3.782 2.889 8.955 4.333 15.516 4.333 6.667 0 11.693-1.364 15.079-4.094 3.385-2.729 5.423-6.081 6.111-10.056.687-3.975 1.032-10.573 1.032-19.794v-64.471h23.492v61.212c0 13.991-.635 23.876-1.905 29.652-1.27 5.777-3.611 10.652-7.024 14.627-3.413 3.975-7.976 7.142-13.691 9.5-5.714 2.358-13.175 3.538-22.381 3.538-11.111 0-19.538-1.286-25.278-3.856-5.742-2.57-10.278-5.909-13.611-10.016-3.333-4.106-5.53-8.413-6.587-12.918-1.535-6.678-2.302-16.535-2.302-29.572v-62.168h.001zm111.588 78.621l22.857-2.226c1.375 7.685 4.167 13.329 8.373 16.933 4.206 3.605 9.881 5.406 17.024 5.406 7.566 0 13.266-1.602 17.103-4.809 3.835-3.206 5.754-6.956 5.754-11.249 0-2.755-.807-5.1-2.421-7.035-1.615-1.934-4.432-3.617-8.452-5.048-2.752-.954-9.022-2.649-18.81-5.088-12.593-3.126-21.429-6.968-26.508-11.527-7.143-6.412-10.714-14.23-10.714-23.451 0-5.935 1.679-11.487 5.04-16.654 3.359-5.167 8.201-9.102 14.524-11.805 6.322-2.703 13.955-4.054 22.897-4.054 14.603 0 25.595 3.207 32.976 9.619 7.381 6.413 11.256 14.972 11.627 25.677l-23.492 1.033c-1.006-5.988-3.162-10.295-6.468-12.918-3.307-2.623-8.268-3.935-14.881-3.935-6.825 0-12.17 1.405-16.032 4.213-2.488 1.802-3.73 4.213-3.73 7.234 0 2.756 1.163 5.115 3.492 7.075 2.963 2.492 10.159 5.088 21.587 7.791 11.429 2.703 19.881 5.499 25.357 8.387 5.476 2.889 9.762 6.837 12.857 11.845 3.095 5.008 4.643 11.196 4.643 18.562 0 6.678-1.853 12.932-5.556 18.761-3.704 5.83-8.942 10.163-15.714 12.998-6.773 2.835-15.212 4.253-25.318 4.253-14.71 0-26.006-3.405-33.889-10.215-7.883-6.811-12.592-16.735-14.126-29.773z"/></svg>