<svg xmlns="http://www.w3.org/2000/svg" width="124" height="68"><path fill="#FFF" d="M0 0h123.995v68.006H0z"/><path fill="#BD0034" d="M83.024 24.588l40.971-21.566V0h-2.824L74.456 24.588zM81.09 44.782l42.905 22.576v-4.512L89.662 44.782zM0 5.176l36.703 19.412h8.576L0 .661zM43.334 44.782L0 67.613v.394h7.828l44.085-23.225z"/><path fill="#1A237B" d="M115.509 0H72.095v22.861zM52.927 0H9.687l43.24 22.861zM123.995 24.588V8.986l-29.45 15.602zM123.995 60.217V44.782h-29.45zM12.141 68.007h40.786V46.516zM72.095 68.007h40.918L72.095 46.516zM0 44.782v16.13l30.475-16.13zM0 24.588h30.475L0 8.434z"/><path fill="#BD0034" d="M56.763 0v28.628H0v12.124h56.763v27.255H68.26V40.752h55.735V28.628H68.26V0z"/></svg>