<svg xmlns="http://www.w3.org/2000/svg" width="124" height="68"><path fill="#EA0020" d="M43.374-.013H124V68H43.374z"/><path fill="#2A680B" d="M.002-.013h43.372V68H.002z"/><path fill="#FCFF2C" d="M57.501 44.544c-5.455-.149-30.484-14.857-30.653-17.198l1.375-2.165c2.489 3.396 28.073 17.693 30.587 17.184l-1.309 2.179z"/><path fill="#FCFF2C" d="M27.935 24.879c-.494 1.245 6.538 5.333 14.981 10.161 8.453 4.841 15.73 7.827 16.278 7.403.025-.057.263-.434.239-.434-.097.149-.35.187-.733.085-2.287-.618-8.232-3.189-15.605-7.4-7.374-4.203-13.789-8.081-14.785-9.73a1.019 1.019 0 0 1-.108-.481h-.021l-.21.349-.036.054v-.007zm29.697 19.735c-.09.155-.26.169-.586.132-2.049-.215-8.24-3.053-15.575-7.176-8.529-4.808-15.572-9.187-14.806-10.333l.203-.346.047.01c-.693 1.94 13.901 9.794 14.756 10.29 8.453 4.927 15.561 7.804 16.192 7.054l-.231.369z"/><path d="M57.295 44.808c-.072 0-.155-.007-.256-.014-2.082-.217-8.349-3.107-15.593-7.189-9.676-5.451-14.543-8.736-14.876-10.035a.462.462 0 0 1 .047-.363l.203-.339v.108l-.108.285c-.054.078-.068.169-.04.292.328 1.268 5.177 4.536 14.829 9.974 7.23 4.076 13.483 6.955 15.554 7.165.303.031.462.024.537-.101l.133-.227a.632.632 0 0 1-.27.044c-1.717 0-8.104-2.68-15.802-7.176-.087-.044-.285-.155-.582-.319-9.434-5.225-14.219-8.542-14.237-9.859.199.865 2.403 3.188 14.284 9.775.303.166.505.276.585.326 7.688 4.478 14.049 7.155 15.752 7.155.184 0 .317-.037.368-.092l-.007.007a.11.11 0 0 1-.032.101l-.105.316c-.087.147-.247.166-.384.166zm1.707-2.279c-1.262 0-8.176-2.898-16.114-7.444-9.095-5.205-15.484-8.985-15.001-10.219l.246-.41a.054.054 0 0 1 .014.027l-.141.37c-.512 1.303 7.688 6.005 14.93 10.15 7.931 4.54 14.81 7.427 16.067 7.427.101 0 .141-.017.155-.031.044-.081.094-.165.141-.238-.119.05-.346.05-.61-.021-2.508-.682-8.678-3.44-15.623-7.403-6.724-3.833-13.743-8-14.803-9.751a1.072 1.072 0 0 1-.115-.505c.104.169.148.356.21.458 1.058 1.745 8.447 6.109 14.763 9.714 6.938 3.962 13.097 6.721 15.593 7.388.335.098.585.071.675-.061.108.031.108.037-.101.384-.108.148-.18.165-.286.165z"/><path fill="#FCFF2C" d="M43.395 28.765c5.466-.04 12.209-.699 16.089-2.158l-.836-1.279c-2.291 1.197-9.071 1.978-15.294 2.097-7.36-.057-12.549-.705-15.156-2.355l-.79 1.364c4.784 1.907 9.683 2.31 15.987 2.331z"/><path fill="#FCFF2C" d="M59.713 26.637c-.137.2-2.667 1.021-6.393 1.628-2.526.367-5.827.672-9.944.675-3.908.007-7.1-.258-9.518-.566-3.907-.578-5.931-1.38-6.682-1.666.072-.129.119-.227.191-.342 2.148.794 4.179 1.282 6.556 1.628 2.395.306 5.552.571 9.45.571a70.615 70.615 0 0 0 9.861-.692c3.821-.584 5.917-1.322 6.205-1.676l.274.44zm-.736-1.295c-.415.312-2.475.998-6.112 1.547a69.934 69.934 0 0 1-9.446.625c-3.738.004-6.794-.231-9.122-.556-3.688-.448-5.654-1.265-6.365-1.509.079-.112.144-.217.224-.343.548.265 2.446.991 6.188 1.487 2.291.306 5.358.535 9.075.532a69.39 69.39 0 0 0 9.377-.625c3.651-.478 5.618-1.354 5.916-1.574l.265.416z"/><path d="M43.257 28.988c-3.298 0-6.462-.19-9.405-.566-3.803-.564-5.852-1.347-6.624-1.641l-.025-.217.119-.224c2.122.743 4.142 1.249 6.61 1.605 2.959.38 6.112.571 9.38.571a71.636 71.636 0 0 0 9.915-.689c3.781-.578 5.887-1.313 6.174-1.659l.357.448c-.162.282-2.785 1.106-6.426 1.696-3.103.451-6.451.679-9.954.679h-.121v-.003zM27.35 26.403l-.126.326c.815.252 2.85 1.038 6.65 1.594 2.93.373 6.091.567 9.384.567v.05l.119-.05c3.496-.004 6.84-.228 9.936-.676 3.828-.621 6.245-1.442 6.357-1.605l-.27-.39c-.199.339-2.137 1.085-6.152 1.699a70.927 70.927 0 0 1-9.875.693c-3.337 0-6.498-.19-9.464-.574-2.474-.354-4.494-.864-6.559-1.634zm16.009 1.155c-3.302 0-6.441-.19-9.064-.549-3.261-.4-5.163-1.079-6.072-1.408l-.296-.105.126-.312c.011-.031.101-.118.126-.118.321.153 2.14.943 6.17 1.483 1.811.238 4.842.528 9.009.528a69.538 69.538 0 0 0 9.424-.628c3.489-.455 5.549-1.303 5.898-1.561l.339.428c-.415.366-2.428 1.069-6.145 1.622-3.142.427-6.144.621-9.457.621h-.061v-.001h.003zm-15.226-2.407l-.143.319.274.037c.905.33 2.792 1.005 6.048 1.405 2.616.36 5.747.553 9.048.553v.047l.061-.047c3.305-.007 6.299-.203 9.439-.628 3.695-.553 5.694-1.235 6.087-1.537l-.278-.353c-.191.215-2.089 1.106-5.862 1.598a69.214 69.214 0 0 1-9.384.625c-4.228 0-7.27-.288-9.089-.532-4.047-.537-5.88-1.331-6.201-1.487z"/><path fill="#FCFF2C" d="M25.459 34.959c3.355 1.699 10.824 2.562 17.884 2.619 6.437.01 14.81-.933 17.946-2.501l-.09-1.703c-.978 1.445-9.958 2.822-17.921 2.768-7.967-.054-15.37-1.211-17.834-2.714l.015 1.531z"/><path fill="#FCFF2C" d="M61.46 34.718v.403c-.465.525-3.424 1.33-7.13 1.893-2.81.407-6.487.716-11.066.716-4.347 0-7.818-.295-10.506-.679-4.257-.586-6.97-1.608-7.519-1.91v-.471c1.649 1.025 6.087 1.771 7.577 2.008 2.678.38 6.119.675 10.448.675 4.561 0 8.207-.309 11.008-.709 2.656-.362 6.445-1.301 7.188-1.926zm0-1.451v.41c-.465.532-3.42 1.33-7.13 1.893-2.81.407-6.487.719-11.066.719-4.347 0-7.811-.295-10.506-.686-4.25-.587-6.97-1.601-7.519-1.91l.007-.471c1.642 1.028 6.08 1.775 7.57 2.008 2.678.387 6.119.675 10.448.675 4.561 0 8.207-.302 11.008-.709 2.663-.362 6.452-1.299 7.188-1.929z"/><path d="M43.264 37.775c-3.86 0-7.389-.227-10.513-.682-4.067-.556-6.877-1.544-7.538-1.914l-.029-.509c1.728.984 6.277 1.747 7.639 1.954 3.092.448 6.606.676 10.441.676 4.045 0 7.742-.241 11.001-.705 2.645-.363 6.419-1.292 7.163-1.917l.086.444c-.497.581-3.514 1.388-7.177 1.937-3.283.479-7.006.716-11.073.716zm-18.05-3.067l.079.434c.39.19 3.024 1.249 7.468 1.859 3.118.448 6.65.679 10.503.679 4.059 0 7.782-.238 11.059-.712 3.572-.542 6.624-1.351 7.1-1.876l-.014-.373c-.668.661-4.474 1.608-7.13 1.964-3.261.478-6.97.709-11.015.709-3.842 0-7.356-.22-10.452-.672-1.75-.267-5.985-.997-7.598-2.012zm18.05 1.63c-3.846 0-7.378-.231-10.513-.689-4.081-.556-6.884-1.551-7.538-1.914l-.021-.512c1.721.988 6.27 1.751 7.631 1.957 3.107.445 6.621.679 10.441.679 4.059 0 7.753-.241 11.001-.709 2.645-.363 6.419-1.292 7.163-1.913l.086.441c-.494.578-3.514 1.387-7.17 1.94-3.279.474-7.006.72-11.08.72zm-18.05-3.074l.079.431c.382.19 3.002 1.249 7.476 1.863 3.125.448 6.66.676 10.495.676 4.074 0 7.796-.238 11.059-.706 3.586-.549 6.639-1.354 7.1-1.883l-.014-.377c-.672.676-4.482 1.622-7.13 1.975-3.246.474-6.956.712-11.015.712-3.828 0-7.346-.227-10.452-.676-1.75-.272-5.985-1.005-7.598-2.015z"/><path fill="#FCFF2C" d="M43.334 44.256c-7.728-.044-14.349-1.985-15.752-2.297l1.021 1.497c2.468.981 8.933 2.435 14.799 2.273 5.877-.155 11.008-.591 14.627-2.246l1.039-1.558c-2.465 1.089-10.85 2.319-15.734 2.331z"/><path fill="#FCFF2C" d="M58.421 43.132c-.155.224-.313.438-.465.651-1.707.563-4.401 1.16-5.534 1.33-2.312.458-5.895.78-9.086.783-6.844-.092-12.451-1.354-15.085-2.422l-.214-.349.032-.05.36.129c4.694 1.581 9.958 2.209 14.945 2.324 3.168.014 6.335-.342 8.908-.78 3.932-.74 5.523-1.299 6.008-1.547l.131-.069zm.905-1.403c.007 0 .007.007.007.007-.115.187-.232.374-.35.556-.909.306-3.381.988-6.985 1.466-2.377.299-3.853.601-8.579.685-8.858-.215-14.591-1.846-15.954-2.245l-.203-.37c5.138 1.265 10.376 2.145 16.156 2.239 4.325-.092 6.163-.394 8.522-.693 4.204-.618 6.324-1.265 6.956-1.452-.007-.014-.021-.028-.021-.037l.451-.156z"/><path d="M43.337 45.946c-6.978-.092-12.498-1.368-15.107-2.432l-.239-.367c.014-.017.072-.118.094-.118l.368.136c4.179 1.408 9.203 2.191 14.923 2.313h.003c3.583 0 6.801-.417 8.89-.776 4.394-.821 5.704-1.388 6-1.544a.264.264 0 0 1 .094-.027l.011-.024.047.027-.007.007c.021.007.054.007.047.017-.155.221-.306.441-.465.655-1.714.578-4.394 1.167-5.56 1.351-2.446.472-6.014.778-9.099.782zm-15.284-2.827l.242.326c2.781 1.124 8.526 2.32 15.049 2.409 3.023 0 6.668-.313 9.071-.783 1.173-.179 3.842-.773 5.524-1.326.097-.153.217-.313.332-.475-.393.179-1.79.74-5.975 1.527-2.099.356-5.329.78-8.774.78-5.873-.132-10.906-.916-15.107-2.324l-.362-.134zm15.366 1.367c-7.876-.19-13.386-1.49-15.965-2.245l-.239-.387c5.935 1.375 11.07 2.079 16.203 2.165 3.835-.082 5.732-.33 7.735-.591l.779-.098c4.03-.59 6.166-1.221 6.862-1.425l.515-.224-.018.034-.404.217c-.761.265-2.905.895-6.945 1.486l-.768.101c-2.01.265-3.914.512-7.757.594-5.141-.081-10.286-.797-16.171-2.239l.263.302c2.544.736 8.043 2.025 15.907 2.219 4.019-.075 5.661-.299 7.559-.553l1.007-.129c3.218-.428 5.772-1.056 6.985-1.466l.324-.522-.274.59c-1.238.434-3.799 1.063-7.014 1.487l-1.014.132c-1.901.26-3.544.481-7.57.552z"/><path fill="#FCFF2C" d="M43.337 18.872c8.883 0 16.052 6.795 16.052 15.148s-7.17 15.098-16.052 15.098c-8.872 0-16.063-6.765-16.063-15.124 0-8.351 7.192-15.122 16.063-15.122zm0-1.496c9.723 0 17.657 7.467 17.657 16.618 0 9.154-7.934 16.621-17.657 16.621S25.69 43.147 25.69 33.994c0-9.152 7.923-16.618 17.647-16.618z"/><path fill="#FCFF2C" d="M43.352 17.179c9.854 0 17.892 7.563 17.892 16.834 0 9.275-8.039 16.837-17.892 16.837-9.85 0-17.892-7.563-17.892-16.837-.001-9.272 8.041-16.834 17.892-16.834zm0 .369c9.598 0 17.502 7.409 17.502 16.464 0 9.062-7.913 16.467-17.502 16.467-9.594 0-17.498-7.405-17.498-16.467-.001-9.054 7.904-16.464 17.498-16.464z"/><path d="M43.352 50.902c-9.893 0-17.943-7.572-17.943-16.886s8.05-16.888 17.943-16.888c9.897 0 17.943 7.576 17.943 16.889s-8.047 16.885-17.943 16.885zm0-33.676c-9.839 0-17.841 7.532-17.841 16.79s8.003 16.786 17.841 16.786c9.836 0 17.841-7.528 17.841-16.786 0-9.259-8.007-16.79-17.841-16.79zm0 33.303c-9.679 0-17.554-7.406-17.554-16.512 0-9.109 7.872-16.52 17.554-16.52 9.676 0 17.55 7.41 17.55 16.52-.002 9.106-7.874 16.512-17.55 16.512zm0-32.93c-9.619 0-17.444 7.362-17.444 16.417 0 9.048 7.825 16.413 17.444 16.413 9.616 0 17.441-7.365 17.441-16.413-.002-9.054-7.826-16.417-17.441-16.417z"/><path fill="#FCFF2C" d="M43.374 18.576c8.983 0 16.384 6.942 16.384 15.427 0 8.478-7.399 15.423-16.384 15.423-8.987 0-16.391-6.945-16.391-15.423-.001-8.485 7.402-15.427 16.391-15.427zm0 .37c8.763 0 15.995 6.772 15.995 15.057 0 8.281-7.23 15.044-15.995 15.044-8.778 0-15.998-6.762-15.998-15.044-.001-8.284 7.219-15.057 15.998-15.057z"/><path d="M43.374 49.473c-9.068 0-16.446-6.942-16.446-15.471 0-8.537 7.378-15.475 16.446-15.475 9.064 0 16.434 6.938 16.434 15.475-.002 8.53-7.373 15.471-16.434 15.471zm0-30.849c-9.009 0-16.34 6.898-16.34 15.379 0 8.478 7.331 15.371 16.34 15.371 9.001 0 16.329-6.894 16.329-15.371 0-8.482-7.329-15.379-16.329-15.379zm0 30.476c-8.85 0-16.052-6.775-16.052-15.098 0-8.329 7.201-15.105 16.052-15.105 8.846 0 16.038 6.775 16.038 15.105C59.41 42.325 52.22 49.1 43.374 49.1zm0-30.107c-8.793 0-15.954 6.735-15.954 15.01 0 8.268 7.163 15.001 15.954 15.001 8.785 0 15.939-6.735 15.939-15.001-.001-8.274-7.154-15.01-15.939-15.01z"/><path fill="#FCFF2C" d="M42.626 17.097h1.563v33.875h-1.563z"/><path fill="none" d="M42.828 17.114h1.09-1.09zM42.828 50.942h1.097-1.097z"/><path fill="#FCFF2C" d="M43.939 16.913h.386v34.226h-.386V16.913zm-1.533 0h.397l.007 34.226h-.404V16.913z"/><path d="M44.325 51.187h-.386l-.054-34.272.44-.044.054 34.269c0 .007-.007.017-.021.031a.04.04 0 0 1-.033.016zm-.054-34.274l-.332.051.051 34.175.281-.044V16.913zM42.81 51.187h-.404l-.044-34.272.44-.044.061 34.269c0 .007-.014.017-.022.031-.013.009-.02.016-.031.016zm-.058-34.274l-.346.051.054 34.175.292-.044V16.913z"/><path fill="#FCFF2C" d="M25.398 33.297c2.247-1.943 10.521-3.206 17.866-3.172 7.346.034 16.042 1.452 17.936 3.135l.014 1.445c-1.588-1.398-8.338-3.074-17.936-3.094-9.601-.017-16.564 1.703-17.881 3.131l.001-1.445z"/><path d="M25.445 34.614l-.104-1.248c0-.057.104-.057.104 0v1.248zM61.307 34.671l-.107-1.255c0-.05.108-.05.108 0v1.255h-.001z"/><path fill="#FCFF2C" d="M43.359 31.408c4.221-.004 8.327.38 11.582.971 3.352.635 5.708 1.422 6.52 2.313v.438c-.975-1.103-4.15-1.914-6.599-2.374-3.222-.594-7.292-.978-11.503-.967-4.435.007-8.558.4-11.74.981-2.551.481-5.949 1.432-6.386 2.362v-.455c.239-.645 2.767-1.615 6.324-2.28 3.211-.593 7.342-.982 11.802-.989zm.007-1.443c4.221-.007 8.32.38 11.574.974 3.352.635 5.708 1.422 6.52 2.303v.438c-.967-1.103-4.15-1.91-6.592-2.371-3.228-.594-7.299-.974-11.502-.963-4.442.007-8.547.403-11.729.981-2.453.441-6 1.429-6.404 2.355v-.451c.246-.639 2.821-1.645 6.331-2.28 3.204-.592 7.343-.975 11.802-.986z"/><path d="M25.232 35.18l-.004-.007c-.021 0-.043-.024-.043-.044v-.455c.253-.715 2.93-1.686 6.369-2.331 3.424-.628 7.613-.984 11.805-.988 4.074 0 8.154.349 11.589.974 3.503.662 5.776 1.466 6.552 2.324l.014.474c-1.126-1.136-4.651-1.947-6.668-2.327-3.384-.625-7.414-.964-11.35-.964-4.282.01-8.446.356-11.863.981-2.781.522-5.956 1.473-6.345 2.331-.009.019-.027.032-.056.032zm18.127-3.44c4.074 0 8.115.339 11.513.963 2.024.38 5.574 1.2 6.628 2.392l-.09-.403c-.761-.818-3.002-1.612-6.484-2.266-3.427-.625-7.5-.971-11.477-.971-4.275.007-8.464.36-11.878.987-3.813.716-6.08 1.689-6.277 2.249v.262c.75-.96 4.264-1.846 6.317-2.233 3.427-.624 7.595-.973 11.748-.98zM25.24 33.732h-.007c-.025-.003-.047-.02-.047-.047v-.455c.26-.723 3.002-1.714 6.372-2.334 3.406-.628 7.595-.971 11.809-.981 4.096 0 8.165.346 11.586.971 3.5.658 5.772 1.466 6.556 2.331l.007.464c-1.122-1.133-4.644-1.944-6.66-2.327-3.399-.618-7.443-.963-11.398-.963-4.217.007-8.37.36-11.805.984-2.821.509-6.011 1.49-6.357 2.327-.017.019-.035.03-.056.03zm18.126-3.433c4.052 0 8.108.336 11.506.963 2.031.383 5.586 1.2 6.628 2.385l-.09-.403c-.761-.811-3.002-1.601-6.484-2.259-3.406-.628-7.471-.974-11.43-.974-4.336.011-8.519.356-11.917.981-3.67.675-6.08 1.679-6.284 2.252v.262c.722-.929 4.114-1.825 6.338-2.226 3.437-.629 7.605-.978 11.733-.981z"/><path fill="#FCFF2C" d="M43.28 22.6c6.653-.033 12.458.882 15.118 2.158l.971 1.577c-2.312-1.174-8.572-2.388-16.085-2.209-6.112.037-12.653.635-15.932 2.277l1.158-1.819c2.693-1.312 9.036-1.98 14.77-1.984z"/><path fill="none" d="M58.562 25.012l.657 1.002-.657-1.002z"/><path fill="#FCFF2C" d="M43.366 23.903c3.792-.014 7.461.198 10.38.689 2.721.471 5.311 1.188 5.687 1.57l.281.478c-.901-.549-3.143-1.17-6.025-1.683-2.894-.512-6.556-.682-10.33-.672-4.29-.01-7.624.197-10.478.669-3.023.532-5.123 1.296-5.64 1.652l.285-.506c1-.485 2.595-1.062 5.286-1.516 2.948-.505 6.318-.661 10.554-.681zm-.007-1.442c3.636-.014 7.226.179 10.026.655 2.205.4 4.387 1.035 5.178 1.594l.429.624c-.722-.743-3.409-1.452-5.779-1.846-2.77-.451-6.216-.632-9.854-.658-3.814.011-7.335.231-10.077.696-2.602.468-4.286 1.018-4.997 1.452l.368-.522c.982-.488 2.573-.936 4.575-1.303 2.752-.468 6.295-.682 10.131-.692z"/><path d="M59.713 26.688s-.018-.003-.025-.01c-.884-.535-3.071-1.15-6.008-1.673-2.512-.444-5.87-.675-9.987-.675l-.335.003-.39-.003c-4.11 0-7.313.215-10.081.672-3.013.525-5.091 1.282-5.615 1.642l.206-.566c1.379-.669 3.118-1.167 5.318-1.54 2.674-.458 5.736-.662 10.567-.685h.225c3.99 0 7.508.234 10.17.689 2.767.485 5.329 1.195 5.704 1.591l.299.481a.065.065 0 0 1-.007.064.08.08 0 0 1-.041.01zm-16.124-2.741h-.225c-4.821.031-7.872.228-10.549.682-2.191.377-3.918.868-5.268 1.516l-.253.485c.443-.434 2.548-1.191 5.57-1.724 2.778-.451 5.986-.669 10.102-.669H43.691c4.117 0 7.483.224 10.009.669 2.77.498 4.889 1.073 5.869 1.594l-.184-.319c-.353-.359-2.941-1.079-5.651-1.544-2.651-.448-6.161-.69-10.145-.69zm15.402 1.442c-.021 0-.025-.011-.04-.017-.74-.773-3.561-1.469-5.754-1.835-2.523-.414-5.744-.625-9.839-.662-3.968.014-7.443.255-10.063.7-2.316.417-4.182.956-4.986 1.449l.299-.594c1-.505 2.58-.947 4.604-1.322 2.602-.444 6.116-.689 10.146-.696h.295c3.832 0 7.202.228 9.734.655 2.37.431 4.456 1.075 5.213 1.605l.433.642a.047.047 0 0 1-.014.064c-.01.004-.017.011-.028.011zM43.359 22.78c4.103.031 7.327.245 9.861.662 1.995.329 4.514.943 5.534 1.642l-.232-.346c-.733-.505-2.799-1.15-5.152-1.577-2.522-.424-5.884-.651-9.716-.651h-.295c-4.03.01-7.53.248-10.128.692-2.006.37-3.59.818-4.554 1.292l-.353.516c.744-.563 2.624-1.106 4.95-1.527 2.627-.458 6.108-.696 10.085-.703z"/><path fill="#FCFF2C" d="M52.253 41.019c-3.29-.586-6.592-.669-8.893-.642-11.095.118-14.68 2.145-15.121 2.755l-.829-1.272c2.828-1.927 8.868-3.006 16.009-2.898 3.71.057 6.909.292 9.601.776l-.767 1.281z"/><path fill="none" d="M27.595 42.037l.544.882-.544-.882z"/><path fill="#FCFF2C" d="M43.291 40.195c3.092.047 6.116.169 9.045.679l-.21.353c-2.721-.471-5.615-.651-8.821-.635-4.099-.033-8.239.33-11.841 1.299-1.144.298-3.031.987-3.218 1.554l-.207-.326c.061-.333 1.198-1.032 3.33-1.598 4.123-1.11 7.988-1.296 11.922-1.326zm.135-1.46c3.204.057 6.506.193 9.712.797l-.217.363c-2.897-.542-5.668-.719-9.468-.776-4.113.01-8.471.282-12.429 1.368-1.28.356-3.492 1.113-3.561 1.709l-.21-.356c.047-.546 1.955-1.252 3.677-1.728 3.994-1.091 8.362-1.366 12.496-1.377z"/><path d="M28.244 43.493a.055.055 0 0 1-.04-.017l-.214-.336c.061-.403 1.266-1.106 3.363-1.662 3.943-1.066 7.628-1.299 11.935-1.33 2.93.044 6.055.153 9.053.679l-.176.42c-2.515-.403-5.264-.611-8.465-.611l-.397.004-.469-.004c-4.34 0-8.161.434-11.366 1.303-1.212.319-2.995 1.002-3.175 1.523-.011.017-.025.031-.043.031h-.006zm15.047-3.244c-4.3.024-7.97.258-11.91 1.319-2.155.574-3.239 1.265-3.294 1.557l.151.224c.371-.639 2.417-1.296 3.211-1.506 3.208-.858 7.035-1.303 11.387-1.303l.469.004.397-.004c3.201 0 5.96.215 8.428.642l.159-.333c-2.955-.455-6.077-.56-8.998-.6zM27.465 42.24a.056.056 0 0 1-.047-.024l-.21-.346c.054-.746 2.853-1.567 3.71-1.802 3.406-.933 7.385-1.368 12.508-1.384 3.146.061 6.498.203 9.726.804l-.187.427c-3.132-.549-6.065-.703-9.511-.753-5.094.01-9.038.438-12.415 1.365-1.656.461-3.46 1.17-3.529 1.669 0 .02-.018.037-.04.044h-.005zm15.961-3.46c-5.116.014-9.082.451-12.48 1.38-2.176.594-3.604 1.261-3.644 1.683l.144.234c.357-.736 3.222-1.547 3.557-1.635 3.392-.929 7.342-1.361 12.451-1.372 3.453.054 6.394.204 9.479.78l.166-.339c-3.189-.538-6.526-.67-9.673-.731z"/><path d="M40.114 39.758a.206.206 0 0 1 .058-.125c.029-.037.068-.054.123-.054.025 0 .054 0 .076.014.021.01.04.031.047.05.014.024.014.054.014.085a.188.188 0 0 1-.029.088.256.256 0 0 1-.054.061.19.19 0 0 1-.09.02.142.142 0 0 1-.079-.007.161.161 0 0 1-.051-.054c-.015-.028-.015-.052-.015-.078zm.047-.004c0 .037.004.064.025.088.014.021.047.028.072.024.036-.004.069-.014.09-.041.022-.02.029-.054.036-.098a.088.088 0 0 0-.007-.061c-.007-.024-.018-.033-.029-.037-.021-.007-.04-.017-.061-.017-.033.01-.061.017-.086.037-.013.026-.036.055-.04.105zm.423.051l.04-.011c0 .014.011.028.018.037.007.007.022.01.04.01a.084.084 0 0 0 .04-.017.071.071 0 0 0 .022-.017c0-.017 0-.024-.007-.028-.014-.01-.025-.01-.04-.014-.032-.003-.054-.01-.061-.01-.011-.007-.025-.017-.025-.024-.007-.007-.007-.017-.007-.031s.007-.021.014-.028c.007-.011.011-.014.018-.021a.052.052 0 0 1 .029-.014c.014-.01.025-.01.032-.01.025 0 .04 0 .054.01.014 0 .022.014.022.021.007.003.007.017.014.028l-.043.014c0-.014 0-.021-.007-.028-.014-.011-.025-.011-.04-.011s-.032.011-.04.011c-.007.007-.014.014-.014.02v.007c.007.014.014.017.022.017 0 0 .014.007.032.007.025.007.047.01.061.014.007.011.014.017.021.024v.031a.091.091 0 0 1-.014.041.276.276 0 0 1-.036.027.216.216 0 0 1-.051.007c-.036.003-.054 0-.069-.014a.08.08 0 0 1-.025-.048zm.407-.035l.04.01a.1.1 0 0 1-.04.054c-.021.017-.04.02-.072.02a.081.081 0 0 1-.079-.024c-.018-.024-.018-.047-.018-.092a.118.118 0 0 1 .044-.085c.021-.024.047-.033.083-.033.029 0 .054.007.076.021.014.024.022.054.014.092v.003l-.173.017c0 .017 0 .04.014.054.007.014.029.017.047.014.014 0 .025 0 .036-.007.007-.009.021-.023.028-.044zm-.118-.05l.13-.003c0-.021-.004-.034-.011-.04-.007-.021-.029-.021-.05-.021-.014 0-.032.007-.04.021-.015.005-.029.027-.029.043zm.198.142h.032c0 .01.007.02.014.027a.092.092 0 0 0 .04.007c.014 0 .032-.007.043-.01.014-.01.014-.02.021-.033 0-.011.007-.021.011-.047a.105.105 0 0 1-.069.031c-.032.003-.061-.011-.068-.031a.114.114 0 0 1-.025-.078.228.228 0 0 1 .025-.061c.007-.024.021-.033.043-.044a.084.084 0 0 1 .051-.02c.032-.004.05.01.065.031l.007-.031h.032l-.025.201a.18.18 0 0 1-.014.075c-.014.014-.025.027-.039.033a.17.17 0 0 1-.065.017c-.025 0-.047 0-.065-.017-.014-.014-.029-.024-.021-.047h.007v-.003zm.047-.142c0 .031 0 .05.014.064.007.017.018.021.04.021.018 0 .029-.011.05-.024.011-.014.018-.04.025-.061 0-.037 0-.054-.014-.064-.011-.014-.025-.024-.043-.024s-.032.01-.044.024a.146.146 0 0 0-.028.064zm.205.105l.033-.231h.036v.037c0-.011.022-.021.029-.031a.096.096 0 0 1 .043-.01c.014 0 .036.003.043.007.011.004.011.024.018.034.029-.034.047-.04.079-.04.018 0 .04.003.054.01.004.02.011.031.004.064l-.018.153h-.04l.018-.142v-.033c0-.01 0-.01-.014-.014l-.011-.007c-.025 0-.032.007-.051.011a.161.161 0 0 0-.029.057l-.011.132h-.043l.021-.146c0-.014 0-.033-.007-.044 0 0-.014-.004-.025-.004-.007 0-.021.004-.032.004-.007.01-.022.017-.029.031 0 .014-.007.02-.014.047l-.011.115h-.043zm.553-.091l.04.003a.087.087 0 0 1-.047.054.102.102 0 0 1-.069.024c-.032 0-.054-.01-.069-.031-.021-.017-.029-.047-.029-.081a.18.18 0 0 1 .051-.092c.014-.02.047-.033.083-.033.032 0 .054.014.072.024.022.027.025.054.022.088 0 0 0 .007-.007.014h-.169c0 .024 0 .047.007.061.007.007.029.02.047.017.015 0 .029-.01.04-.014.006-.007.021-.017.028-.034zm-.119-.059h.133c0-.021-.007-.044-.014-.044-.007-.011-.029-.031-.047-.031-.014 0-.033.02-.047.027-.014.004-.021.027-.025.048zm.197.13l.033-.228h.039v.023c.011-.021.04-.027.072-.027.014-.011.032 0 .047.003.007 0 .015.014.015.014.003.003.011.02.011.031v.033l-.018.139-.04.007.018-.139v-.033c-.007-.007-.011-.017-.018-.027 0 0-.014-.004-.029-.004-.014 0-.025.004-.047.024-.011.011-.018.028-.025.057l-.014.126-.044.001zm.351-.044v.033h-.036c-.011.007-.018 0-.025-.003-.014-.004-.014-.011-.021-.021 0 0 0-.017.007-.044l.022-.132h-.036l.007-.02h.029l.014-.061.04-.024-.014.085.04-.011v.031h-.04l-.022.132c-.003.014-.003.024-.003.024 0 .007.003.007.003.007l.007.003a.262.262 0 0 0 .028.001zm.04-.083c.007-.047.018-.078.047-.088.021-.028.05-.034.076-.034.032 0 .054.007.072.034.022.01.029.04.022.085a.11.11 0 0 1-.025.064.3.3 0 0 1-.04.04.19.19 0 0 1-.069.014.117.117 0 0 1-.072-.027c-.011-.015-.025-.046-.011-.088zm.04 0a.086.086 0 0 0 .007.061c.011.017.021.024.043.024.018 0 .032-.007.054-.024a.182.182 0 0 0 .032-.064c0-.033 0-.047-.007-.064-.015-.017-.032-.02-.054-.02a.078.078 0 0 0-.054.02.116.116 0 0 0-.021.067zm.505.038l.04.003a.173.173 0 0 1-.054.05c-.011.014-.032.021-.065.021a.088.088 0 0 1-.079-.031c-.011-.021-.018-.044-.011-.085.007-.044.018-.075.047-.085a.097.097 0 0 1 .083-.041.09.09 0 0 1 .072.041c.014.01.014.04.014.085l-.007.007h-.169c-.007.027 0 .044.011.057.007.017.029.021.047.021a.097.097 0 0 0 .04-.01.114.114 0 0 1 .031-.033zm-.123-.062h.13c0-.024 0-.033-.007-.054a.091.091 0 0 0-.047-.01.118.118 0 0 0-.05.01c-.016.021-.023.031-.026.054zm.194.126l.051-.316h.04l-.051.316h-.04zm.145-.267l.014-.047h.04l-.014.047h-.04zm-.047.267l.043-.231h.04l-.04.231h-.043zm.101 0l.043-.231h.036l-.007.041a.07.07 0 0 1 .032-.034c.014-.007.025-.014.047-.014.014 0 .025.007.04.014.007.007.014.02.022.034.014-.034.047-.047.076-.047.021 0 .04.007.047.02.014.014.014.031.014.064l-.029.153h-.04l.029-.149V39.6l-.007-.01c-.014-.011-.022-.014-.036-.014-.011 0-.032.014-.04.017-.011.007-.014.033-.022.054l-.029.132h-.032l.022-.149c.007-.011.007-.034 0-.037-.007-.003-.014-.017-.036-.017-.007 0-.018.004-.032.014-.007.003-.014.007-.018.031a.11.11 0 0 0-.021.044l-.014.115h-.045zm.429-.267l.007-.047h.036l-.007.047h-.036zm-.047.267l.04-.231h.036l-.036.231h-.04zm.097-.01l.04-.221h.039l-.007.031a.103.103 0 0 1 .083-.037c.007 0 .022.007.036.007.007.007.018.014.018.027.007.004.007.014.007.021v.044l-.032.139h-.032l.018-.139c.007-.014.007-.031.007-.04 0 0-.007-.01-.014-.01a.058.058 0 0 0-.011-.014c-.032 0-.044.014-.058.017-.014.007-.029.033-.032.061l-.021.115-.041-.001zm.401-.012c-.014.01-.025.014-.036.024-.022.004-.032.007-.047.007a.085.085 0 0 1-.061-.021c-.011-.01-.011-.031-.011-.047 0-.011.004-.017.011-.031a.078.078 0 0 0 .029-.024c.014 0 .018-.003.032-.01h.033c.032-.007.058-.014.072-.014 0-.01.007-.01.007-.01 0-.011 0-.031-.007-.037-.007-.003-.029-.014-.04-.014-.018 0-.032.011-.043.011-.007.003-.021.01-.029.037l-.032-.007c0-.024.014-.031.022-.044.004-.003.018-.014.04-.02.018-.007.036-.007.047-.007.029 0 .044 0 .051.007a.687.687 0 0 1 .025.017c.007.007.007.02.014.024 0 .014-.007.024-.007.034l-.007.057c-.014.037-.014.061-.014.068v.027h-.04c-.009-.015-.009-.017-.009-.027zm.015-.083c-.014 0-.032.007-.065.007-.011 0-.026 0-.033.007-.014 0-.014.007-.018.014 0 0-.007.014-.007.017 0 .007 0 .017.007.031a.069.069 0 0 0 .032.007c.011 0 .032 0 .043-.007.007-.011.018-.017.025-.031.007-.003.014-.017.014-.037v-.007h.002zm.231.109l.007-.027c-.014.024-.04.033-.069.031-.018 0-.036-.003-.05-.017-.011-.007-.018-.02-.025-.044v-.061c.007-.024.014-.037.022-.064l.043-.037c.018-.014.032-.014.051-.014.021 0 .029 0 .043.007.011.007.011.02.018.024l.025-.111.036.003-.061.312h-.04v-.002zm-.098-.109c-.007.02 0 .044.004.061.014.014.025.021.04.021.022 0 .032-.007.054-.021a.136.136 0 0 0 .025-.061c.007-.033.007-.054-.004-.075-.014-.01-.022-.021-.043-.021-.018 0-.032.011-.047.021-.011.02-.025.031-.029.064v.011zm.212-.01a.115.115 0 0 1 .051-.088.119.119 0 0 1 .079-.027c.032 0 .058.014.068.041.014.01.022.04.014.085a.184.184 0 0 1-.025.061.072.072 0 0 1-.043.034.12.12 0 0 1-.061.021c-.04-.004-.054-.021-.072-.033-.018-.022-.018-.055-.011-.094zm.037.01c-.007.02 0 .044.007.061.011.014.025.021.047.021a.093.093 0 0 0 .054-.021c.011-.017.025-.033.032-.061a.127.127 0 0 0-.007-.075c-.014-.01-.025-.01-.047-.01-.022-.011-.032 0-.054.01a.2.2 0 0 0-.032.075zm.325.119l.046-.231h.029v.033l.021-.021c.011-.014.025-.02.025-.02.021.007.032.007.047.02l-.018.033a.05.05 0 0 0-.014-.014c-.029 0-.036.004-.04.014 0 0-.014.01-.021.021-.007.01-.007.024-.014.044l-.015.118h-.046v.003zm.321-.067l.047.007a.119.119 0 0 1-.054.05c-.014.017-.04.021-.068.021a.081.081 0 0 1-.069-.037c-.022-.017-.022-.047-.014-.085.007-.04.029-.061.047-.088a.14.14 0 0 1 .086-.031c.032 0 .058.014.072.031a.121.121 0 0 1 .007.094v.007l-.18-.007c0 .031 0 .047.014.061.014.014.022.02.043.02a.112.112 0 0 0 .043-.01c0 .001.018-.02.026-.033zm-.112-.066l.13.003c0-.024 0-.033-.004-.044-.014-.02-.029-.027-.047-.027-.014 0-.036.003-.047.017a.124.124 0 0 0-.032.051zm.191.066h.04c0 .014 0 .031.014.037.007.007.018.007.036.007.014 0 .036 0 .04-.004.014-.007.014-.014.022-.027 0-.007 0-.014-.007-.02-.007 0-.018-.003-.04-.017a.12.12 0 0 1-.051-.021c-.014 0-.022-.007-.025-.017v-.033c0-.004.003-.021.011-.031.007-.007.014-.01.014-.01.018-.014.029-.014.036-.014.014-.003.021-.003.036-.003.018 0 .032.003.044.003.014.014.021.017.029.021.007.014.007.031.007.034l-.04.01c0-.01 0-.021-.007-.031-.014-.01-.021-.014-.032-.014-.021 0-.036.004-.043.014-.011.01-.018.01-.018.021-.003 0 0 .01 0 .01.007.007.007.014.018.014 0 0 .007.007.029.01a.178.178 0 0 0 .058.017l.021.021v.033c0 .017-.014.028-.021.034-.004.014-.018.024-.04.033-.011.004-.025.004-.047.004-.029 0-.051-.007-.061-.021-.016-.017-.023-.029-.023-.06zm.207.168l.061-.319.04.004-.004.031a.045.045 0 0 1 .032-.02.058.058 0 0 1 .04-.014c.022 0 .032.014.054.017.014.007.021.027.025.047v.061c-.004.017-.018.037-.032.061-.014.017-.025.031-.047.04a.09.09 0 0 1-.054.014c-.007-.004-.018-.004-.032-.01-.007-.004-.022-.014-.022-.024l-.025.111-.036.001zm.074-.199a.1.1 0 0 0 .007.068c.007.007.025.02.04.02.022 0 .033-.004.047-.017a.152.152 0 0 0 .032-.071c.007-.02 0-.047-.007-.064-.004-.011-.018-.021-.032-.021-.018 0-.033.01-.054.021a.139.139 0 0 0-.033.064zm.369.055l.032.007c-.011.024-.018.044-.043.051-.018.014-.04.017-.065.017-.04-.003-.068-.01-.079-.031-.014-.024-.021-.054-.014-.092.014-.037.025-.071.054-.082.025-.027.054-.031.086-.031.029 0 .051.007.061.037.022.014.022.047.014.081v.011l-.176-.003c0 .02 0 .044.014.054.011.017.018.024.047.024.011 0 .018 0 .032-.01.019-.014.026-.016.037-.033zm-.115-.069l.13.007c0-.014 0-.034-.014-.047-.003-.01-.018-.021-.036-.021-.022 0-.032.007-.054.011a.09.09 0 0 0-.026.05zm.248-.125l.007-.044h.04l-.011.044h-.036zm-.058.268l.051-.231.036.003-.047.234-.04-.006zm.188-.024v.034c-.011.003-.018.003-.018.003-.025-.003-.029-.003-.043-.007-.007-.009-.014-.013-.014-.023 0 0 0-.021.007-.044l.025-.132h-.025l.007-.034.022.004.014-.057.047-.024-.022.082h.043l-.007.031h-.036l-.032.135V39.796a.022.022 0 0 0 .014.007l.018-.002zm.188.014c-.022.007-.036.021-.051.024-.014.003-.029.003-.047.003a.078.078 0 0 1-.054-.02c-.007-.014-.014-.028-.007-.051 0-.007.007-.014.014-.031.007-.004.011-.014.026-.014.007-.007.021-.01.032-.017h.029c.036-.007.058-.007.076-.014v-.014-.027c-.014-.014-.025-.014-.047-.024-.022 0-.029.01-.036.01-.014.014-.021.024-.032.037l-.036-.003a.181.181 0 0 1 .021-.044c.014-.004.025-.011.047-.021.014 0 .029-.01.051-.01.018 0 .032.01.047.02.007 0 .018.007.025.011 0 .01.007.024.007.033 0 0-.007.014-.007.031l-.014.054c-.004.033-.011.057-.011.064 0 .007.007.021.007.027h-.04v-.024zm.003-.088c-.004.007-.032.01-.061.01-.014.004-.029.004-.029.014a.046.046 0 0 0-.025.007c0 .007-.007.01-.007.01 0 .017 0 .027.007.037.007.004.014.01.032.01.014 0 .029-.007.036-.01a.05.05 0 0 0 .036-.024.07.07 0 0 0 .011-.04v-.014zm.213.01c.014-.04.032-.071.061-.088.025-.017.051-.021.079-.021s.058.004.068.033c.014.02.022.047.014.078-.007.031-.021.054-.025.075-.014.017-.036.027-.054.037-.018.01-.032.01-.051.01-.032 0-.061-.01-.079-.031a.131.131 0 0 1-.013-.093zm.047.003c-.007.031-.007.054.007.068.007.014.018.024.04.027.018 0 .04-.011.051-.027a.141.141 0 0 0 .04-.057.1.1 0 0 0-.007-.068c-.014-.017-.025-.027-.043-.027-.021 0-.04.01-.054.024-.016.009-.027.029-.034.06zm.304.211l.072-.309h.032l-.007.033a.084.084 0 0 1 .036-.027c.011-.007.025-.007.043-.007s.032.007.047.021c.003.014.018.02.018.04a.09.09 0 0 1 0 .061c0 .024-.015.044-.026.061-.014.024-.025.037-.043.044a.157.157 0 0 1-.061.014.056.056 0 0 1-.029-.014c-.011-.007-.011-.014-.018-.017l-.032.101-.032-.001zm.078-.193c-.007.031-.007.051.004.064.007.02.021.027.036.031.018 0 .04-.011.054-.021.018-.017.022-.037.029-.068.007-.031.007-.054 0-.068-.007-.014-.025-.02-.036-.02a.101.101 0 0 0-.054.014.128.128 0 0 0-.033.068zm.184.128l.058-.231h.029l-.007.034c.014-.014.025-.024.032-.024.014-.01.021-.01.032-.01.014 0 .018.01.032.021l-.018.028c-.007-.007-.014-.007-.014-.007-.018 0-.032 0-.04.007 0 0-.018.014-.018.017-.007.017-.015.031-.015.047l-.032.118-.04-.003v.002l.001.001zm.164-.106a.157.157 0 0 1 .054-.098c.029-.007.054-.017.079-.017.036 0 .051.014.072.037.014.017.018.05.014.085-.014.031-.021.054-.036.068-.007.017-.029.031-.044.037-.018.003-.04.01-.058.01-.036-.007-.061-.014-.076-.033a.123.123 0 0 1-.005-.089zm.039 0c-.007.028-.007.054.007.072.007.01.021.017.04.017.022.003.04 0 .054-.017a.122.122 0 0 0 .036-.065v-.068a.06.06 0 0 0-.051-.024c-.018 0-.04.007-.05.024-.022.008-.029.035-.036.061zm.253-.138l.021-.047h.032l-.007.047h-.046zm-.124.352l.007-.031c.007 0 .014.004.014.004.014 0 .022-.004.029-.007 0-.01.004-.017.011-.04l.054-.238h.04l-.054.245c-.007.024-.011.047-.025.054-.014.014-.025.02-.047.017-.015 0-.022 0-.029-.004zm.34-.142l.04.003c-.004.028-.025.04-.047.047a.108.108 0 0 1-.072.024c-.029-.007-.058-.017-.072-.037-.011-.021-.018-.047-.011-.085.011-.04.025-.068.054-.085a.09.09 0 0 1 .083-.031c.032 0 .061.014.065.031.022.02.022.05.007.094v.007l-.169-.007c0 .024 0 .04.014.054 0 .017.014.024.036.024.018.003.032 0 .04-.007.014-.001.025-.015.032-.032zm-.108-.072l.13.007c0-.021 0-.031-.014-.047-.007-.014-.022-.02-.04-.02-.022 0-.04.007-.047.017-.022.014-.029.024-.029.043zM48.009 39.862l.032.004a.102.102 0 0 1-.04.061.172.172 0 0 1-.072.017c-.036 0-.061-.014-.076-.04-.011-.014-.011-.047-.004-.081.004-.028.011-.051.032-.064.007-.021.018-.031.04-.037a.12.12 0 0 1 .061-.017.16.16 0 0 1 .058.024.074.074 0 0 1 .022.057l-.04.003a.041.041 0 0 0-.014-.033c-.007-.014-.022-.017-.032-.017a.068.068 0 0 0-.054.021c-.014.01-.021.033-.032.064-.007.031-.007.05 0 .068.011.014.025.021.047.021.011 0 .025-.007.04-.014.01-.007.025-.016.032-.037zm.144.058v.033h-.029a.095.095 0 0 1-.04-.007s-.011-.01-.011-.017c0-.01 0-.027.007-.044l.032-.129-.029-.004.007-.033.029.007.011-.061.047-.017-.018.078h.04l-.007.033-.04-.003-.032.132v.028s.004.004.011.004h.022zm.047-.072c.007-.044.025-.078.051-.092a.1.1 0 0 1 .079-.021c.032 0 .061.014.076.034a.113.113 0 0 1 .004.092c-.004.027-.018.047-.025.064-.014.017-.032.024-.054.034a.176.176 0 0 1-.061.014.136.136 0 0 1-.069-.04c-.015-.017-.022-.047-.001-.085zm.04.004c-.014.031-.014.043 0 .064a.07.07 0 0 0 .043.027c.014 0 .032-.01.054-.024a.128.128 0 0 0 .032-.065.062.062 0 0 0 0-.061c-.014-.024-.025-.027-.047-.027-.018 0-.04.004-.054.017a.088.088 0 0 0-.028.069zm.459.146l.014-.024a.118.118 0 0 1-.076.027.123.123 0 0 1-.051-.017c-.011-.01-.018-.031-.025-.04a.086.086 0 0 1 .007-.061c0-.028.014-.047.018-.064.014-.017.036-.033.051-.047.014-.004.036-.004.051-.004.018 0 .032.004.04.004.011.014.011.024.025.033l.022-.115h.04l-.076.312-.04-.004zm-.099-.115c0 .021 0 .051.007.061.007.021.029.031.036.031a.07.07 0 0 0 .047-.024c.022-.007.029-.031.036-.057a.209.209 0 0 0 0-.071c-.007-.014-.022-.021-.04-.021-.022-.007-.036.004-.047.014-.017.015-.024.036-.039.067zm.375.068l.04.01c-.018.021-.025.037-.054.05-.025.014-.043.014-.072.014-.029-.007-.05-.014-.068-.041a.168.168 0 0 1-.007-.088.171.171 0 0 1 .058-.081.088.088 0 0 1 .079-.027c.04.004.054.017.065.037.022.028.022.057.014.092l-.007.01-.169-.024c-.007.031-.007.047.007.064.011.014.022.024.036.024.022 0 .032 0 .04-.007.013-.003.024-.017.038-.033zm-.115-.068l.13.007v-.04c-.007-.017-.029-.027-.047-.031a.072.072 0 0 0-.047.017c-.022.005-.025.026-.036.047zm.566.071l.036.021a.144.144 0 0 1-.065.071.187.187 0 0 1-.094.021c-.029-.004-.058-.011-.076-.031a.176.176 0 0 1-.036-.061c0-.031 0-.057.007-.085a.147.147 0 0 1 .047-.085.11.11 0 0 1 .065-.047.11.11 0 0 1 .079-.017c.036 0 .061.017.072.031a.114.114 0 0 1 .032.078l-.043.004c0-.028-.007-.044-.022-.051-.011-.017-.025-.021-.047-.031-.025 0-.047.01-.065.017a.137.137 0 0 0-.051.047c-.007.017-.022.033-.022.057-.004.024-.011.05-.004.068 0 .021.004.037.018.05.018.007.032.021.051.021a.175.175 0 0 0 .069-.017.229.229 0 0 0 .049-.061zm.077.009a.155.155 0 0 1 .061-.092.224.224 0 0 1 .079-.017c.033.007.051.017.069.04.014.021.014.047 0 .085a.207.207 0 0 1-.029.068c-.014.017-.026.027-.047.031-.014.014-.04.014-.061.014-.032-.007-.058-.017-.065-.037a.104.104 0 0 1-.007-.092zm.04 0c-.007.031-.007.054 0 .068.007.017.025.027.04.031.029 0 .04-.003.054-.021.025-.01.032-.031.047-.061.004-.031 0-.051-.007-.064-.007-.021-.018-.027-.04-.027a.109.109 0 0 0-.054.014.104.104 0 0 0-.04.06zm.183.144l.094-.313h.04l-.086.313h-.048zm.253.021l.011-.028c-.025.024-.058.028-.086.028a.168.168 0 0 1-.04-.007c-.004-.01-.011-.014-.014-.027v-.027c0-.007 0-.021.004-.033l.04-.139.04.003-.04.122c0 .017-.007.037-.007.044 0 .007.007.017.007.017.004.014.018.014.018.014.022.007.032 0 .04 0 .014-.007.029-.014.036-.024l.018-.037.032-.129.043.007-.068.224-.034-.008zm.086.012l.065-.224.04.004-.014.031c.014-.007.025-.017.04-.021s.029-.01.047-.004c.014 0 .025.004.029.011.014.007.014.017.021.037.018-.031.054-.04.079-.037.029.007.04.01.047.027.007.014.007.031.007.054l-.047.159-.04-.007.04-.139c.007-.017.007-.031.007-.037l-.007-.014c-.007-.007-.014-.007-.014-.007-.025-.007-.04 0-.058.007-.014.01-.021.027-.029.05l-.036.129-.032-.004.04-.146c.007-.02.007-.031 0-.037-.007-.01-.014-.021-.032-.024a.05.05 0 0 0-.029.01c-.014.003-.018.014-.025.024-.014.007-.014.027-.022.047l-.033.115-.044-.004zm.408.052l-.032-.004.083-.306.047.003-.04.105c.025-.017.054-.024.072-.017.014 0 .029.003.04.01.014.007.021.014.025.027 0 .014.007.024.007.037 0 .017-.007.031-.007.044a.177.177 0 0 1-.058.092.145.145 0 0 1-.079.024c-.029 0-.043-.021-.051-.044l-.007.029zm.029-.116c-.004.031-.007.047-.004.061.004.024.018.031.04.033.018.007.032-.003.047-.014a.122.122 0 0 0 .04-.064c.011-.027.011-.051 0-.061 0-.021-.014-.031-.032-.034a.068.068 0 0 0-.051.021.093.093 0 0 0-.04.058zm.332.139c-.018.004-.032.014-.047.021-.011.003-.032.003-.047.003-.025-.003-.04-.021-.054-.031a.045.045 0 0 1-.004-.047c.004-.014.004-.024.018-.033 0 0 .014-.014.029-.017.004-.004.018-.004.025-.011h.04c.032 0 .061 0 .072-.007v-.014a.026.026 0 0 0 0-.031c-.004-.007-.018-.017-.04-.017-.018 0-.032 0-.04.003a.118.118 0 0 0-.032.031l-.033-.007c.007-.017.011-.027.025-.033.014-.014.029-.017.04-.024.022-.004.04-.004.061-.004.014.004.025.014.04.017.011.004.018.017.018.017.007.01.007.017.007.031 0 .007 0 .017-.007.031l-.011.054a.33.33 0 0 0-.021.068v.034l-.04-.01.001-.024zm.021-.091c-.014.003-.04.003-.069.003-.011 0-.025 0-.032.007-.007.004-.014.007-.021.014-.004 0-.004.01-.004.01-.007.014-.007.028 0 .031.004.007.018.021.033.021.014 0 .025 0 .039-.014a.038.038 0 0 0 .032-.017c.007-.01.014-.024.022-.04v-.015zm.062.132l.076-.224.032.003-.007.031c.029-.021.054-.031.087-.024.003 0 .018.004.032.014.007.007.018.014.018.021v.031c0 .007 0 .021-.011.034l-.04.142h-.04l.043-.142c0-.017.007-.028.007-.034-.007-.014-.007-.014-.011-.027l-.015-.004a.106.106 0 0 0-.05.004.091.091 0 0 0-.04.057l-.04.129-.041-.011zm.267-.078a.185.185 0 0 1 .058-.092c.029-.01.061-.014.079-.01a.11.11 0 0 1 .072.037c.014.028.014.054 0 .094a.137.137 0 0 1-.032.064c-.022.017-.032.021-.054.031-.014.011-.036.011-.058.011a.12.12 0 0 1-.065-.044c-.014-.02-.014-.054 0-.091zm.04.007c-.007.031-.007.054 0 .064 0 .021.018.024.039.033.022 0 .032 0 .051-.017.022-.017.025-.031.04-.064.014-.031.014-.054 0-.068-.007-.014-.018-.027-.04-.027-.018 0-.029 0-.051.017-.021.005-.032.031-.039.062z"/><path fill="#EA0020" d="M52.152 41.277c-.022 0-.026-.004-.04-.014-.043-.017-.058-.061-.036-.105l.982-1.631c.025-.037.068-.054.108-.027.047.02.061.075.032.101l-.975 1.631c-.01.032-.046.045-.071.045z"/><path fill="#FCFF2C" d="M28.357 24.565c5.495-.071 30.877 14.595 30.956 17.296l-1.573 2.273c-.715-3.138-26.472-17.408-30.722-17.139l1.339-2.43z"/><path d="M57.901 44.025l1.248-1.994c.018-.024.051-.031.068-.017.022.017.032.04.014.064l-1.33 1.947zM27.119 26.882l1.144-2.213c.014-.024.047-.031.076-.017.025.007.032.037.018.061l-1.238 2.169z"/><path fill="#FCFF2C" d="M26.86 26.902c1.021-.648 8.518 2.497 16.358 6.952 7.836 4.461 15.305 9.503 14.633 10.45l-.221.326-.105.081c.022-.017.134-.146-.011-.492-.332-1.038-5.64-5.021-14.435-10.019-8.58-4.814-15.723-7.718-16.446-6.887l.227-.411zm32.604 15.129c.647-1.204-6.306-6.13-14.926-10.928-8.825-4.705-15.178-7.478-16.336-6.646l-.267.434c0 .024.014-.024.065-.068.214-.169.563-.162.719-.162 2.002.024 7.71 2.5 15.727 6.823 3.51 1.927 14.828 8.756 14.788 10.68 0 .159.007.193-.054.281l.284-.414z"/><path d="M57.56 44.741l-.051-.064c-.014 0-.021-.003-.014-.01 0 0 .112-.105-.025-.438-.343-1.059-5.949-5.178-14.417-9.991-7.252-4.065-13.945-7.019-15.925-7.019-.232 0-.382.044-.451.122l.007-.021c.007-.024.007-.047.022-.068l.108-.37c.123-.078.27-.108.469-.108 1.995 0 9.016 3.088 15.961 7.036 7.05 4.017 14.356 8.831 14.687 10.246.025.108.014.204-.036.272l-.224.333c-.011.007-.04.017-.065.031-.021.031-.04.051-.04.051h-.006v-.002zM27.126 27.122c1.995 0 8.713 2.955 15.979 7.036 8.605 4.889 14.104 8.936 14.461 10.038a.868.868 0 0 1 .072.33l.166-.255c.04-.047.047-.108.025-.194-.321-1.378-7.778-6.281-14.631-10.189-6.938-3.932-13.934-7.023-15.918-7.023-.184 0-.306.024-.393.075l-.13.252c.07-.052.204-.07.369-.07zm32.079 15.322s-.011 0-.025-.01v-.004l-.018-.057c.007 0 .007-.007.007-.007l-.032.047.032-.047c.011-.027.011-.061.011-.149.04-1.968-11.495-8.902-14.759-10.694-7.985-4.305-13.707-6.789-15.702-6.816-.203.004-.498.004-.679.153h-.014c.199-.241.49-.241.661-.251 2.049.031 7.782 2.518 15.785 6.83 2.312 1.265 14.865 8.628 14.81 10.724v.033l.137-.198c.6-1.099-5.953-5.873-14.909-10.861-9.478-5.048-15.24-7.388-16.279-6.653l-.217.38c-.043.01-.134.044-.134.028l.274-.464c.155-.122.371-.169.668-.169 2.471 0 9.926 3.692 15.741 6.795 7.786 4.335 15.662 9.658 14.948 10.989l-.26.377a.053.053 0 0 1-.046.024z"/><path fill="#FFF" d="M32.632 35.872c0 2.762 1.205 5.266 3.16 7.091a10.969 10.969 0 0 0 7.552 2.992c2.958 0 5.647-1.13 7.595-2.959 1.945-1.818 3.15-4.342 3.15-7.118V22.41l-21.457-.02v13.482z"/><path d="M43.345 46.013a11.075 11.075 0 0 1-7.599-3.006c-2.045-1.921-3.172-4.455-3.172-7.136V22.389l21.515-.031.065 13.52c0 2.7-1.133 5.242-3.175 7.158-2.043 1.918-4.759 2.977-7.634 2.977zM54.03 22.41l-21.399.034.065 13.428c0 2.653 1.115 5.164 3.139 7.057a10.926 10.926 0 0 0 7.508 2.966c2.846 0 5.527-1.042 7.552-2.935 2.02-1.896 3.135-4.411 3.135-7.08V22.41z"/><path fill="#EA0020" d="M33.043 35.889v.011c0 2.643 1.159 5.052 3.023 6.802 1.869 1.747 4.453 2.839 7.27 2.839 2.828 0 5.401-1.082 7.259-2.829 1.865-1.741 3.023-4.149 3.023-6.806V22.841H33.046l-.003 13.048zm16.438-9.137v8.312l-.007.875c0 .231-.011.495-.043.719-.162 1.316-.808 2.467-1.76 3.352a6.322 6.322 0 0 1-4.336 1.689 6.26 6.26 0 0 1-4.311-1.717c-1.144-1.073-1.811-2.548-1.811-4.072v-9.187l12.268.029z"/><path d="M43.337 45.589c-2.749 0-5.336-1.018-7.306-2.853-1.963-1.842-3.042-4.277-3.042-6.836L33 22.842l20.619-.044.047 13.109c0 2.575-1.079 5-3.031 6.839-1.954 1.831-4.545 2.843-7.298 2.843zm10.235-22.748l-20.525.04.04 13.007c0 2.551 1.068 4.953 3.009 6.782 1.952 1.825 4.521 2.826 7.241 2.826 2.728 0 5.3-1.002 7.234-2.816 1.937-1.822 3.002-4.224 3.002-6.775V22.841h-.001zM43.334 41.745a6.348 6.348 0 0 1-4.343-1.728c-1.166-1.089-1.833-2.582-1.833-4.105v-9.227l12.324.024.047 8.357-.004.879c0 .227-.014.498-.051.722-.155 1.275-.768 2.439-1.768 3.379-1.166 1.098-2.721 1.699-4.372 1.699zm-6.083-14.972l.007 9.14c0 1.5.654 2.975 1.797 4.041a6.238 6.238 0 0 0 4.278 1.706c1.624 0 3.154-.594 4.308-1.676.982-.926 1.587-2.073 1.75-3.329.029-.22.04-.488.04-.712l.007-9.191-12.187.021z"/><path fill="#1A0095" d="M42.037 34.404c0 .377.152.722.397.971.25.252.592.407.959.407.379 0 .715-.155.956-.403.249-.248.404-.594.404-.974V32.58l-2.71-.004-.006 1.828z"/><path fill="#FFF" d="M44.163 33.023c-.148 0-.274.112-.274.255 0 .132.126.248.274.248.144 0 .267-.115.267-.248a.262.262 0 0 0-.267-.255zM43.408 33.698a.265.265 0 0 0-.267.258c0 .135.115.248.267.248.155 0 .271-.112.271-.248s-.116-.258-.271-.258zM44.163 34.404c-.148 0-.278.122-.278.258 0 .139.13.252.278.252.144 0 .267-.112.267-.252a.269.269 0 0 0-.267-.258zM42.691 34.414c-.144 0-.263.111-.263.248 0 .139.119.252.263.252.151 0 .27-.112.27-.252 0-.137-.119-.248-.27-.248zM42.691 33.023c-.151 0-.27.108-.27.245 0 .143.119.255.27.255s.27-.111.27-.255c0-.137-.119-.245-.27-.245z"/><path fill="#1A0095" d="M42.026 38.789c0 .373.148.722.4.971.239.251.581.4.952.4.379 0 .715-.149.959-.4.249-.248.393-.586.393-.967v-1.829l-2.706-.007.002 1.832z"/><path fill="#FFF" d="M44.149 37.41c-.144 0-.263.112-.263.248a.26.26 0 0 0 .263.255c.145 0 .271-.112.271-.255-.002-.137-.127-.248-.271-.248zM43.395 38.087c-.151 0-.267.108-.267.252 0 .136.115.248.267.248.148 0 .263-.111.263-.248a.254.254 0 0 0-.263-.252zM44.149 38.793c-.144 0-.27.111-.27.255 0 .136.126.248.27.248.145 0 .263-.111.263-.248a.26.26 0 0 0-.263-.255zM42.677 38.793a.262.262 0 0 0-.263.255c0 .136.123.255.263.255.151 0 .274-.118.274-.255 0-.139-.123-.255-.274-.255zM42.677 37.405c-.148 0-.27.115-.27.248 0 .146.123.259.27.259.144 0 .274-.112.274-.259 0-.132-.13-.248-.274-.248z"/><path fill="#1A0095" d="M38.279 34.414c0 .373.158.722.4.967.246.255.588.404.956.404.375 0 .715-.146.952-.4.252-.248.404-.594.404-.963V32.59l-2.706-.003-.006 1.827z"/><path fill="#FFF" d="M40.404 33.029a.263.263 0 0 0-.267.255.26.26 0 0 0 .267.252c.144 0 .274-.111.274-.252 0-.136-.131-.255-.274-.255zM39.649 33.711c-.144 0-.267.108-.267.248s.123.251.267.251c.148 0 .27-.111.27-.251.002-.139-.122-.248-.27-.248zM40.404 34.421c-.148 0-.267.111-.267.251 0 .136.119.248.267.248.144 0 .267-.111.267-.248 0-.14-.124-.251-.267-.251zM38.935 34.421a.259.259 0 0 0-.267.251c0 .136.116.255.267.255.148 0 .27-.118.27-.255.001-.136-.122-.251-.27-.251zM38.928 33.029a.26.26 0 0 0-.26.251c0 .143.116.255.26.255.155 0 .27-.111.27-.255.001-.132-.115-.251-.27-.251z"/><path fill="#1A0095" d="M45.791 34.414c0 .373.148.722.393.967.253.255.593.404.959.404.375 0 .711-.149.956-.404.252-.245.4-.59.4-.967v-1.828h-2.706l-.011 1.828h.009z"/><path fill="#FFF" d="M47.915 33.029c-.159 0-.274.108-.274.251s.115.255.274.255a.255.255 0 0 0 .263-.255c.001-.142-.115-.251-.263-.251zM47.158 33.708c-.144 0-.271.111-.271.252 0 .139.126.251.271.251.144 0 .274-.111.274-.251-.001-.14-.13-.252-.274-.252zM47.908 34.414a.26.26 0 0 0-.267.258c0 .136.115.248.267.248.148 0 .271-.111.271-.248a.265.265 0 0 0-.271-.258zM46.447 34.421c-.151 0-.27.111-.27.251 0 .136.119.248.27.248.144 0 .263-.111.263-.248a.257.257 0 0 0-.263-.251zM46.443 33.029c-.148 0-.274.108-.274.251 0 .136.126.255.274.255a.263.263 0 0 0 .267-.255c0-.142-.119-.251-.267-.251z"/><path fill="#1A0095" d="M42.037 29.989a1.369 1.369 0 0 0 1.356 1.363c.379 0 .715-.153.956-.403.243-.248.404-.591.404-.96v-1.835h-2.717l.001 1.835z"/><path fill="#FFF" d="M44.163 28.595c-.148 0-.274.115-.274.258 0 .136.126.245.274.245.144 0 .267-.108.267-.245a.265.265 0 0 0-.267-.258zM43.408 29.281c-.151 0-.267.111-.267.248a.26.26 0 0 0 .267.255.258.258 0 0 0 .263-.255c.002-.137-.115-.248-.263-.248zM44.156 29.989c-.141 0-.271.108-.271.245 0 .142.13.258.271.258.151 0 .274-.115.274-.258 0-.137-.123-.245-.274-.245zM42.691 29.989c-.144 0-.263.111-.263.245 0 .149.119.258.263.258.151 0 .27-.108.27-.258 0-.133-.119-.245-.27-.245zM42.691 28.595c-.151 0-.27.111-.27.258 0 .136.119.245.27.245s.27-.108.27-.245a.26.26 0 0 0-.27-.258z"/><path fill="#FCFF2C" d="M34.371 26.25c.025-.941.733-1.16.733-1.167.011 0 .772.237.772 1.17l-1.505-.003z"/><path fill="#FCFF2C" d="M33.758 25.104l-.123 1.079h.75c.007-.892.718-1.045.729-1.032.022-.007.726.193.747 1.032h.75l-.144-1.089-2.709.01z"/><path d="M36.658 26.227h-.797c-.069-.851-.747-1.035-.747-1.042 0 .007-.679.129-.682.998l-.797.037.076-1.127 2.756-.037.191 1.171zm-1.62-1.103l-1.28.021-.079 1.038.708-.04c-.038-.73.454-.958.651-1.019zm.145-.004c.177.064.704.319.726 1.063l.65-.037-.13-1.045-1.246.019z"/><path fill="#FCFF2C" d="M33.587 26.183h3.056c.068 0 .119.068.119.139 0 .068-.051.132-.119.132h-3.056c-.068 0-.119-.064-.119-.132.001-.072.051-.139.119-.139z"/><path d="M36.644 26.495h-3.056a.169.169 0 0 1-.169-.172.17.17 0 0 1 .169-.176h3.056a.174.174 0 0 1 0 .348zm-3.057-.268v.177h3.056c.04 0 .076-.031.076-.082l-3.132-.095z"/><path fill="#FCFF2C" d="M34.699 26.183c0-.566.404-.726.404-.726s.425.165.425.726h-.829z"/><path d="M35.576 26.22h-.877c-.043-.625.371-.794.393-.804.05.01.483.183.483.766l.001.038zm-.484-.723c.011.007-.346.155-.346.686l.747-.04c-.026-.493-.39-.642-.401-.646z"/><path fill="#FCFF2C" d="M33.65 24.656h2.937c.058 0 .112.054.112.122a.116.116 0 0 1-.112.115H33.65a.116.116 0 0 1-.115-.115.117.117 0 0 1 .115-.122z"/><path d="M36.586 24.932h-2.937c-.09 0-.162-.064-.162-.153 0-.094.072-.159.162-.159h2.937c.086 0 .155.064.155.159a.152.152 0 0 1-.155.153zM33.65 24.7v.149h2.937c.04 0 .065-.034.065-.071L33.65 24.7z"/><path fill="#FCFF2C" d="M33.711 24.893h2.806c.061 0 .108.054.108.122s-.047.122-.108.122h-2.806c-.061 0-.104-.054-.104-.122-.002-.067.043-.122.104-.122z"/><path d="M36.517 25.181h-2.806c-.083 0-.151-.078-.151-.166 0-.092.069-.165.151-.165h2.806c.086 0 .155.075.155.165 0 .089-.068.166-.155.166zm-2.806-.249v.162h2.806c.032 0 .061-.037.061-.078l-2.867-.084z"/><path fill="#FCFF2C" d="M34.616 23.095h.224v.149h.162v-.149h.228v.149h.162v-.149h.225v.342c0 .051-.047.088-.101.088h-.797c-.047 0-.101-.044-.101-.092l-.002-.338z"/><path d="M35.514 23.564h-.833l-.112-.129v-.339l.27-.047.043.198.119-.047-.047-.101.274-.047.047.198.115-.047-.047-.101.271-.047.047.434-.147.075zm-.713-.469l-.184.04.047.299.851.092.061-.088v-.342l-.184.04.047.108-.21.044-.047-.193-.18.04.047.108-.21.044-.038-.192z"/><path fill="#FCFF2C" d="M35.454 23.553l.053 1.1h-.79l.061-1.106z"/><path d="M35.55 24.69h-.833l.014-1.143.722-.037.097 1.18zm-.143-1.137l-.628.033-.011 1.066.686-.044-.047-1.055z"/><path fill="#FCFF2C" d="M35.584 23.632h.217v.146h.158v-.149h.225v.149h.159v-.149h.217v.339c0 .05-.04.094-.097.094h-.775c-.054 0-.101-.044-.101-.094l-.003-.336z"/><path d="M36.46 24.099h-.822l-.101-.132v-.336l.263-.044.047.19.112-.04-.043-.108.267-.044.047.193.112-.04-.044-.108.26-.044.047.428-.145.085zm-.707-.467l-.169.044.047.292.829.093.058-.094v-.339l-.176.044.04.105-.199.044-.047-.193-.177.044.041.106-.199.044-.048-.19z"/><path fill="#FCFF2C" d="M36.421 24.062l.025.591h-.747l.022-.591z"/><path d="M36.492 24.69h-.793l-.021-.639.743-.04.071.679zm-.118-.628l-.653.037.025.553.654-.044-.026-.546z"/><path fill="#FCFF2C" d="M33.664 23.632h.221v.149h.159v-.153l.224.004v.149h.159v-.153h.224v.339c0 .057-.046.094-.108.094h-.775c-.047 0-.101-.044-.101-.094l-.003-.335z"/><path d="M34.541 24.099h-.822l-.097-.132v-.336l.263-.044.047.193.112-.04-.047-.112.27-.04.044.193.115-.04-.047-.112.27-.044.04.428-.148.086zm-.704-.464l-.173.04.04.292.837.094.061-.094v-.339l-.177.044.047.108-.207.044-.047-.193-.176.04.043.108-.203.044-.045-.188z"/><path fill="#FCFF2C" d="M34.501 24.062l.021.591h-.735l.018-.591z"/><path d="M34.576 24.696h-.789l-.029-.645.743-.04.075.685zm-.118-.634l-.654.037.022.553.657-.033-.025-.557zM35.038 23.903c-.007-.108.155-.115.148 0v.258h-.148v-.258zM35.998 24.276c0-.101.151-.101.144 0v.2h-.144v-.2z"/><path d="M34.072 24.276c0-.098.155-.101.155 0v.208h-.155v-.208z"/><path fill="#FCFF2C" d="M42.875 23.095h.228v.149h.155v-.149h.232v.149h.166v-.149h.225v.342c0 .051-.047.088-.097.088h-.804c-.05 0-.104-.04-.104-.088v-.342h-.001z"/><path d="M43.781 23.567h-.844l-.108-.129v-.342l.274-.047.044.198.112-.044-.047-.105.278-.047.047.198.119-.044-.047-.105.27-.047.047.434-.145.08zm-.729-.472l-.177.04.047.302.858.088.051-.088v-.342l-.177.04.04.108-.207.044-.047-.193-.184.04.047.108-.203.044-.048-.191z"/><path fill="#FCFF2C" d="M43.713 23.553l.046 1.1h-.772l.054-1.1z"/><path d="M43.803 24.69h-.815l.007-1.143.719-.031.089 1.174zm-.137-1.137l-.625.041-.014 1.059.686-.044-.047-1.056z"/><path fill="#FCFF2C" d="M43.846 23.632h.21v.146h.162v-.149h.221v.149h.155v-.149h.228v.339a.09.09 0 0 1-.094.094h-.782a.097.097 0 0 1-.097-.094l-.003-.336z"/><path d="M44.722 24.099h-.826l-.101-.132v-.336l.26-.044.047.193.116-.04-.043-.112.263-.044.047.198.108-.04-.044-.113.271-.044.043.428-.141.086zm-.708-.467l-.169.044.04.292.837.094.058-.094v-.339l-.187.044.047.108-.203.044-.044-.198-.176.044.043.108-.207.044-.039-.191z"/><path fill="#FCFF2C" d="M44.683 24.062l.025.591h-.751l.021-.591z"/><path d="M43.917 24.696l.022-.645.743-.04.072.642-.837.043zm.715-.634l-.654.037.025.509h.704l-.075-.546z"/><path fill="#FCFF2C" d="M41.929 23.635h.217v.146h.159v-.149h.217v.149h.155v-.149h.232l-.004.346c0 .047-.04.085-.094.085h-.782c-.051 0-.097-.044-.097-.094l-.003-.334z"/><path d="M42.81 24.099h-.826l-.101-.132v-.333l.263-.047.036.193.123-.04-.047-.108.263-.044.047.193.108-.04-.043-.108.27-.044.047.424-.14.086zm-.711-.464l-.169.04.047.292.833.094.047-.085v-.346l-.18.044.051.105-.207.044-.047-.193-.169.044.047.106-.207.044-.046-.189z"/><path fill="#FCFF2C" d="M42.767 24.062l.018.591h-.748l.022-.591z"/><path d="M42.828 24.696h-.79l-.018-.635.746-.044.062.679zm-.108-.634l-.653.037.018.553.654-.033-.019-.557z"/><path fill="#FCFF2C" d="M42.633 26.25c.018-.936.726-1.16.733-1.167.007 0 .761.245.761 1.177l-1.494-.01z"/><path fill="#FCFF2C" d="M42.019 25.104l-.126 1.079h.75c.007-.892.715-1.038.733-1.032.018 0 .725.193.743 1.032h.743l-.13-1.089-2.713.01z"/><path d="M44.917 26.227h-.797c-.065-.855-.743-1.035-.746-1.042.004.007-.675.132-.69.998l-.793.044.086-1.127 2.756-.044.184 1.171zm-1.626-1.103l-1.269.027-.087 1.032.704-.04c-.034-.723.456-.952.652-1.019zm.15-.004c.184.071.708.319.73 1.063l.65-.037-.134-1.045-1.246.019z"/><path fill="#FCFF2C" d="M41.84 26.183h3.067c.065 0 .115.068.115.139 0 .075-.051.132-.115.132H41.84c-.058 0-.108-.057-.108-.132 0-.072.05-.139.108-.139z"/><path d="M44.906 26.499H41.84c-.083 0-.155-.078-.155-.177 0-.101.072-.176.155-.176h3.067c.087 0 .162.075.162.176-.001.098-.076.177-.163.177zm-3.066-.272v.187h3.067c.04 0 .072-.04.072-.092l-3.139-.095z"/><path fill="#FCFF2C" d="M42.961 26.183c0-.566.404-.726.404-.726s.426.169.429.726h-.833z"/><path d="M43.839 26.227h-.877c-.046-.628.371-.801.39-.807.043.007.487.183.487.764v.043zm-.487-.73c.014.007-.343.155-.343.686l.74-.037c-.022-.492-.383-.642-.397-.649z"/><path fill="#FCFF2C" d="M41.915 24.656h2.93c.061 0 .112.054.112.122a.114.114 0 0 1-.112.115h-2.93a.115.115 0 0 1-.119-.115.12.12 0 0 1 .119-.122z"/><path d="M44.846 24.938h-2.937a.157.157 0 0 1-.155-.159c0-.094.069-.159.155-.159h2.937c.087 0 .159.064.159.159a.163.163 0 0 1-.159.159zm-2.937-.238v.153h2.937c.032 0 .069-.033.069-.075l-3.006-.078z"/><path fill="#FCFF2C" d="M41.976 24.893h2.803c.058 0 .105.054.105.125 0 .065-.047.118-.105.118h-2.803a.119.119 0 0 1-.115-.118c.001-.07.054-.125.115-.125z"/><path d="M44.78 25.181h-2.803a.168.168 0 0 1-.162-.162c0-.092.076-.165.162-.165h2.803c.083 0 .152.075.152.165-.001.085-.068.162-.152.162zm-2.804-.243v.155h2.803c.036 0 .058-.031.058-.075l-2.861-.08zM43.305 23.903c-.014-.108.151-.108.151 0v.262h-.151v-.262zM44.261 24.276c0-.098.144-.101.144 0v.208h-.144v-.208zM42.338 24.279c0-.101.151-.104.144 0v.204h-.144v-.204z"/><path fill="#FCFF2C" d="M51.047 23.102h.225v.146h.158v-.149h.232v.149h.155v-.149h.225v.342c0 .054-.04.085-.094.085h-.797c-.051 0-.101-.037-.101-.085l-.003-.339z"/><path d="M51.945 23.571h-.84L51 23.442v-.339l.271-.047.036.193.123-.037-.043-.111.274-.044.047.193.108-.037-.047-.111.271-.044.047.427-.142.086zm-.721-.469l-.177.037.043.302.855.085.054-.085v-.342l-.184.04.047.108-.203.047-.047-.197-.184.04.044.108-.203.047-.045-.19z"/><path fill="#FCFF2C" d="M51.884 23.553l.05 1.103-.779-.003.047-1.1z"/><path d="M51.981 24.7l-.826-.004v-1.143l.73-.037.096 1.184zm-.144-1.147l-.635.047v1.056l.683-.037-.048-1.066z"/><path fill="#FCFF2C" d="M52.006 23.642h.224v.146h.152v-.153h.224v.153h.159v-.153h.224v.342c0 .057-.047.088-.09.088h-.786c-.051 0-.097-.04-.097-.088l-.01-.335z"/><path d="M52.898 24.11h-.829l-.101-.132v-.336l.263-.047.04.194.112-.047-.047-.105.27-.047.047.201.112-.047-.04-.105.263-.047.047.431-.137.087zm-.714-.468l-.176.037.047.299.844.088.043-.088v-.342l-.176.04.047.111-.207.037-.047-.19-.176.04.047.111-.199.037-.047-.18z"/><path fill="#FCFF2C" d="M52.85 24.066l.025.59h-.75l.019-.59z"/><path d="M52.916 24.7h-.79l-.018-.639.743-.044.065.683zm-.112-.634l-.653.044.021.546.65-.037-.018-.553z"/><path fill="#FCFF2C" d="M50.094 23.642h.214v.146h.166v-.146h.214v.146h.169v-.146h.217v.336c0 .057-.047.094-.101.094h-.775c-.054 0-.101-.047-.101-.094l-.003-.336z"/><path d="M50.97 24.11h-.822l-.098-.132v-.336l.256-.044.047.19.119-.044-.047-.101.26-.047.047.194.123-.044-.047-.101.263-.047.043.424-.144.088zm-.702-.468l-.173.041.047.295.829.094.054-.094v-.336l-.169.037.043.108-.214.04-.043-.187-.169.037.036.108-.203.04-.038-.183z"/><path fill="#FCFF2C" d="M50.931 24.073l.029.587h-.749l.025-.587z"/><path d="M51.008 24.7h-.797l-.029-.635.75-.047.076.682zm-.12-.627l-.654.037.022.549.65-.04-.018-.546z"/><path fill="#FCFF2C" d="M50.795 26.254c.029-.936.737-1.16.737-1.16.007-.004.764.238.764 1.17l-1.501-.01z"/><path fill="#FCFF2C" d="M50.181 25.104l-.116 1.086h.743c.007-.891.722-1.038.737-1.038.022 0 .722.196.74 1.038h.75l-.13-1.086h-2.724z"/><path d="M53.089 26.227h-.804c-.061-.844-.74-1.035-.74-1.035s-.683.129-.69.998l-.79.037.076-1.124 2.763-.04.185 1.164zm-1.627-1.097l-1.28.021-.072 1.038.701-.044c-.031-.725.46-.954.651-1.015zm.144-.006c.184.068.711.323.722 1.059l.654-.033-.123-1.045-1.253.019z"/><path fill="#FCFF2C" d="M50.011 26.19h3.063c.065 0 .119.061.119.136 0 .075-.054.132-.119.132h-3.063c-.069 0-.116-.057-.116-.132.001-.076.048-.136.116-.136z"/><path d="M53.075 26.502h-3.063c-.094 0-.159-.082-.159-.177 0-.098.065-.176.159-.176h3.063c.09 0 .166.078.166.176 0 .095-.076.177-.166.177zm-3.064-.272v.19h3.063c.036 0 .072-.047.072-.094l-3.135-.096z"/><path fill="#FCFF2C" d="M51.123 26.183c.007-.556.408-.722.408-.716 0 0 .429.159.436.716h-.844z"/><path d="M52.006 26.227h-.884c-.04-.625.375-.801.397-.801.054 0 .487.183.487.764v.037zm-.486-.723c.011.01-.343.162-.35.679l.743-.033c-.022-.489-.383-.643-.393-.646z"/><path fill="#FCFF2C" d="M50.08 24.66h2.937c.058 0 .108.057.108.125 0 .064-.05.115-.108.115H50.08a.116.116 0 0 1-.115-.115c0-.068.053-.125.115-.125z"/><path d="M53.017 24.941H50.08a.162.162 0 0 1-.162-.155c0-.088.072-.165.162-.165h2.937c.083 0 .148.071.148.165a.15.15 0 0 1-.148.155zm-2.937-.238v.155h2.937c.032 0 .065-.031.065-.075l-3.002-.08z"/><path fill="#FCFF2C" d="M50.134 24.901h2.813c.054 0 .108.054.108.118 0 .071-.054.118-.108.118h-2.813c-.054 0-.105-.047-.105-.118 0-.064.051-.118.105-.118z"/><path d="M52.949 25.181h-2.813c-.083 0-.148-.078-.148-.162 0-.092.065-.159.148-.159h2.813c.086 0 .151.068.151.159 0 .085-.065.162-.151.162zm-2.815-.24v.153h2.813c.032 0 .061-.031.061-.075l-2.874-.078zM51.462 23.903c0-.104.162-.104.162 0v.269h-.162v-.269zM52.421 24.286c0-.105.159-.108.151 0v.197h-.151v-.197zM50.498 24.286c0-.105.159-.105.159 0v.201h-.159v-.201z"/><path fill="#FCFF2C" d="M34.631 30.97h.21v.153h.162v-.155h.235v.155h.155v-.155h.232v.343c0 .05-.047.085-.108.085h-.797a.088.088 0 0 1-.086-.085l-.003-.341z"/><path d="M35.514 31.434h-.833l-.101-.125v-.339l.26-.044.043.198.119-.041-.04-.115.274-.04.04.198.115-.041-.04-.115.27-.04.04.424-.147.08zm-.713-.464l-.169.037.04.302.844.085.061-.085v-.343l-.184.041.047.115-.203.033-.05-.191-.184.041.047.115-.21.033-.039-.183z"/><path fill="#FCFF2C" d="M35.454 31.425l.056 1.1-.779-.004.047-1.096h.683z"/><path d="M35.554 32.565l-.822-.004v-1.136l.722-.04.1 1.18zm-.14-1.14l-.636.04v1.059l.69-.037-.054-1.062z"/><path fill="#FCFF2C" d="M35.591 31.502h.21v.153h.158v-.153h.225v.153h.159v-.153h.224v.346c0 .051-.047.082-.097.082h-.779c-.051 0-.097-.037-.097-.082l-.003-.346z"/><path d="M36.467 31.971h-.818l-.105-.122v-.346l.256-.037.047.19.112-.044-.04-.108.263-.04.047.193.112-.044-.036-.108.26-.04.04.424-.138.082zm-.707-.469l-.169.04.04.306.836.082.058-.082v-.346l-.184.04.04.112-.199.04-.04-.193-.184.04.047.112-.206.04-.039-.191z"/><path fill="#FCFF2C" d="M36.428 31.93l.025.595h-.754l.022-.595z"/><path d="M36.492 32.561h-.793l-.014-.632.743-.04.064.672zm-.111-.631l-.661.04.025.553.661-.037-.025-.556z"/><path fill="#FCFF2C" d="M33.671 31.513h.214v.142h.166v-.153h.217v.153h.159v-.153h.224v.346c0 .051-.046.085-.101.085h-.775c-.054 0-.101-.041-.101-.085l-.003-.335z"/><path d="M34.555 31.978h-.822l-.097-.129v-.336l.249-.047.047.19.119-.037-.047-.115.263-.037.044.19.123-.037-.047-.115.263-.037.04.424-.135.086zm-.71-.465l-.173.031.039.306.844.085.054-.085v-.346l-.176.04.04.112-.206.044-.04-.198-.177.04.036.112-.203.044-.038-.185z"/><path fill="#FCFF2C" d="M34.508 31.933l.029.595h-.75l.018-.595z"/><path d="M34.576 32.565h-.789l-.022-.635.744-.037.067.672zm-.104-.632l-.668.043.029.549.654-.037-.015-.555z"/><path fill="#FCFF2C" d="M34.371 34.126c.025-.941.733-1.163.733-1.163.011-.004.772.238.772 1.17l-1.505-.007z"/><path fill="#FCFF2C" d="M33.765 32.978l-.123 1.082h.743c.011-.892.718-1.042.737-1.039.021 0 .718.194.74 1.039h.75l-.13-1.089-2.717.007z"/><path d="M36.665 34.098h-.804c-.061-.855-.74-1.038-.747-1.038 0 0-.679.132-.682 1.002l-.79.037.076-1.127 2.763-.044.184 1.17zm-1.627-1.103l-1.273.024-.086 1.045.708-.05c-.031-.727.454-.954.651-1.019zm.145 0c.177.064.711.313.726 1.059l.65-.037-.124-1.042-1.252.02z"/><path fill="#FCFF2C" d="M33.587 34.061h3.063c.061 0 .116.061.116.132 0 .075-.054.136-.116.136h-3.063c-.068 0-.119-.061-.119-.136.001-.071.051-.132.119-.132z"/><path d="M36.651 34.369h-3.063c-.086 0-.166-.078-.166-.176 0-.094.079-.177.166-.177h3.063c.09 0 .166.081.166.177a.17.17 0 0 1-.166.176zm-3.064-.271v.183h3.063c.04 0 .072-.037.072-.088l-3.135-.095z"/><path fill="#FCFF2C" d="M34.699 34.054c0-.559.415-.726.415-.726s.422.172.429.726h-.844z"/><path d="M35.591 34.098h-.892c-.036-.625.371-.807.415-.807.032.007.469.183.469.77l.008.037zm-.495-.722c.007.007-.35.166-.35.679l.754-.037c-.029-.48-.379-.636-.404-.642z"/><path fill="#FCFF2C" d="M33.653 32.528h2.937c.061 0 .108.057.108.118 0 .071-.047.122-.108.122h-2.937c-.065 0-.112-.051-.112-.122-.001-.06.046-.118.112-.118z"/><path d="M36.589 32.812h-2.937c-.094 0-.159-.075-.159-.166 0-.088.065-.159.159-.159h2.937c.087 0 .152.071.152.159.001.088-.065.166-.152.166zm-2.936-.241v.149h2.937c.036 0 .069-.031.069-.075l-3.006-.074z"/><path fill="#FCFF2C" d="M33.718 32.768h2.799c.061 0 .112.057.112.122a.116.116 0 0 1-.112.118h-2.799c-.065 0-.112-.05-.112-.118-.001-.064.047-.122.112-.122z"/><path d="M36.517 33.053h-2.799a.165.165 0 0 1-.159-.162c0-.088.076-.169.159-.169h2.799c.086 0 .159.082.159.169a.163.163 0 0 1-.159.162zm-2.799-.241v.153h2.799c.04 0 .069-.033.069-.075l-2.868-.078zM35.042 31.775c-.004-.108.159-.108.159 0v.258h-.159v-.258zM35.998 32.154c0-.104.151-.104.151 0v.2h-.151v-.2zM34.079 32.154c0-.104.148-.104.148 0v.2h-.148v-.2z"/><path fill="#FCFF2C" d="M50.57 39.278l.151.149-.111.105.111.098.112-.098.159.149-.104.105.112.108.108-.104.169.153-.26.241c-.047.033-.104.031-.137 0l-.57-.535a.095.095 0 0 1-.004-.136l.256-.234h.008v-.001z"/><path d="M50.952 40.249l-.104-.04-.592-.559.014-.159.26-.241.224.149-.112.159.112.044.054-.098.217.153-.112.162.119.05.043-.108.232.149-.355.339zm-.421-.94l-.191.234.614.665.032-.061.256-.238-.166-.088-.043.104-.176-.108.112-.162-.158-.098-.054.108-.177-.108.108-.159-.157-.089z"/><path fill="#FCFF2C" d="M50.809 40.157l-.783.808-.552-.517.866-.744z"/><path d="M50.026 41.029l-.582-.553.862-.8.534.451-.814.902zm.282-1.292l-.804.74.515.431.757-.78-.468-.391z"/><path fill="#FCFF2C" d="M50.841 40.3l.151.146-.104.101.104.105.115-.108.162.146-.116.111.116.105.108-.105.158.149-.252.238c-.043.037-.101.031-.141-.004l-.548-.519c-.04-.031-.04-.092-.011-.129l.258-.236z"/><path d="M51.217 41.256l-.108-.04-.577-.549.025-.159.253-.238.217.142-.112.165.112.047.05-.108.228.149-.119.166.119.044.043-.105.228.149-.359.337zm-.408-.93l-.184.241.592.648.025-.057.263-.237-.158-.088-.043.108-.181-.108.116-.166-.162-.092-.05.108-.169-.105.112-.165-.161-.087z"/><path fill="#FCFF2C" d="M51.108 41.158l-.421.434-.524-.495.455-.408z"/><path d="M50.687 41.65l-.563-.522.462-.467.559.467-.458.522zm-.101-.926l-.389.403.49.403.389-.403-.49-.403z"/><path fill="#FCFF2C" d="M49.481 39.021l.155.142-.108.111.108.105.119-.105.155.143-.112.108.112.105.116-.112.155.155-.256.241c-.04.033-.097.027-.137 0l-.545-.525a.081.081 0 0 1-.007-.125l.245-.243z"/><path d="M49.86 39.981l-.101-.037-.552-.539-.007-.172.256-.241.214.146-.104.169.104.044.051-.105.224.143-.115.169.115.04.047-.105.228.149-.36.339zm-.404-.93l-.188.245.592.648.032-.054.256-.248-.159-.092-.047.115-.177-.108.112-.169-.158-.082-.051.101-.173-.105.116-.165-.155-.086z"/><path fill="#FCFF2C" d="M49.759 39.886l-.425.434-.527-.498.454-.404z"/><path d="M49.334 40.378l-.559-.522.462-.471.552.471-.455.522zm-.105-.93l-.397.407.501.403.386-.403-.49-.407z"/><path fill="#FCFF2C" d="M48.024 41.342c.715-.651 1.382-.333 1.389-.333.007.003.361.679-.339 1.344l-1.05-1.011z"/><path fill="#FCFF2C" d="M48.449 40.124l-.901.689.526.495c.679-.628 1.291-.265 1.306-.245.011.007.36.618-.26 1.221l.53.502.722-.862-1.923-1.8z"/><path d="M49.658 42.848l-.569-.532c.596-.639.256-1.218.256-1.231-.007 0-.177-.098-.433-.098-.274 0-.555.115-.804.346l-.589-.488.905-.75 1.98 1.802-.746.951zm-.213-1.761c.029.068.072.179.083.323.022.224-.033.567-.375.905l.498.41.69-.831-.896-.807zm-1.029-.933l-.844.689.534.431c.332-.4.993-.397 1.227-.285l-.917-.835z"/><path fill="#FCFF2C" d="M47.515 40.778l2.161 2.036c.043.04.036.118-.014.169-.05.054-.144.057-.188.021l-2.165-2.039c-.047-.044-.04-.122.022-.172a.132.132 0 0 1 .184-.015z"/><path d="M49.55 43.075l-.105-.044-2.169-2.035c-.058-.064-.051-.162.018-.231l.137-.061 2.273 2.079c.069.054.054.162-.011.227l-.143.065zm-2.208-2.144l2.209 2.097.079-.068-2.151-2.148-.169.153.032-.034z"/><path fill="#FCFF2C" d="M48.299 41.511c.429-.394.836-.238.836-.234 0 0 .177.397-.239.79l-.597-.556z"/><path d="M48.896 42.128l-.628-.586c.458-.535.873-.309.88-.309.043.031.203.461-.221.865l-.031.03zm.033-.837a.851.851 0 0 0-.593.252l.552.467c.332-.336.225-.665.207-.715-.007.012-.066-.004-.166-.004z"/><path fill="#FCFF2C" d="M48.706 39.737l2.075 1.951c.047.04.043.118-.004.162-.054.044-.133.044-.173.011l-2.074-1.957c-.047-.037-.04-.108.007-.153a.137.137 0 0 1 .177-.014h-.008z"/><path d="M50.683 41.931l-.112-.04-2.074-1.957a.151.151 0 0 1 .004-.215l.239-.017 2.078 1.957c.051.05.047.165-.007.215l-.128.057zm-2.01-2.163l-.112.108 2.122 2.008.058-.064-2.068-2.052z"/><path fill="#FCFF2C" d="M48.568 39.944l1.988 1.87c.04.04.036.111-.014.155-.047.051-.13.051-.162.014l-1.988-1.87c-.04-.037-.036-.104.014-.153.05-.044.122-.058.162-.016z"/><path d="M50.448 42.05l-.108-.041-1.984-1.863c-.058-.061-.051-.155.014-.217l.232-.014 1.984 1.866c.058.054.058.155-.007.217l-.131.052zm-1.905-2.073l-.119.101 2.024 1.93.061-.061-1.966-1.97zM50.265 40.107c.069-.081.184.021.101.101l-.191.187-.108-.105.198-.183zM50.65 41.009c.079-.078.184.027.105.098l-.144.146-.112-.101.151-.143zM49.287 39.727c.079-.071.187.031.112.105l-.151.142-.112-.101.151-.146z"/><path fill="#FCFF2C" d="M51.04 30.97h.217v.153h.158v-.153h.232v.153h.159v-.153h.232v.342c0 .047-.051.092-.101.092h-.797a.099.099 0 0 1-.097-.094l-.003-.34z"/><path d="M51.934 31.438h-.844l-.097-.129v-.339l.263-.044.047.198.112-.044-.047-.108.278-.044.047.198.112-.044-.051-.108.281-.044.043.428-.144.08zm-.724-.468l-.169.044.036.295.858.094.05-.092v-.341l-.18.04.043.112-.203.037-.047-.19-.184.04.047.112-.206.037-.045-.188z"/><path fill="#FCFF2C" d="M51.869 31.434l.051 1.094-.775-.003.046-1.1z"/><path d="M51.966 32.565h-.822v-1.139l.718-.04.104 1.179zm-.143-1.131l-.632.031v1.059l.686-.037-.054-1.053z"/><path fill="#FCFF2C" d="M51.999 31.513h.221v.142h.148v-.153h.225v.153h.166v-.153h.217v.346c0 .051-.047.085-.09.085h-.782c-.054 0-.101-.041-.101-.085l-.004-.335z"/><path d="M52.883 31.978h-.829l-.101-.129v-.336l.267-.047.047.19.101-.044-.04-.108.263-.04.051.193.115-.044-.054-.108.27-.04.047.427-.137.086zm-.71-.465l-.173.034.04.302.844.085.043-.085v-.346l-.169.04.04.112-.207.044-.043-.198-.181.04.047.112-.196.044-.045-.184z"/><path fill="#FCFF2C" d="M52.836 31.933l.021.595h-.746l.019-.595z"/><path d="M52.905 32.565h-.793l-.025-.635.75-.04.068.675zm-.115-.632l-.661.043.029.549.654-.041-.022-.551z"/><path fill="#FCFF2C" d="M50.083 31.513h.21v.142h.166v-.153h.217v.153h.166v-.153h.221v.346c0 .051-.043.085-.101.085h-.779c-.051 0-.097-.033-.097-.085l-.003-.335z"/><path d="M50.96 31.978h-.826l-.097-.129v-.336l.256-.047.047.19.119-.044-.047-.108.263-.04.047.193.119-.044-.047-.108.267-.04.043.427-.144.086zm-.702-.465l-.173.033.04.302.837.085.058-.085v-.346l-.176.04.047.112-.214.044-.04-.198-.177.04.04.112-.207.044-.035-.183z"/><path fill="#FCFF2C" d="M50.917 31.933l.028.595h-.75l.023-.595z"/><path d="M50.149 32.571l.025-.642.743-.037.076.632-.844.047zm.724-.638l-.658.043.025.509h.704l-.071-.552z"/><path fill="#FCFF2C" d="M50.787 34.126c.022-.941.733-1.16.733-1.16.003-.003.764.234.764 1.167l-1.497-.007z"/><path fill="#FCFF2C" d="M50.174 32.978l-.123 1.082h.743c.014-.892.726-1.042.737-1.039.021 0 .722.201.74 1.039h.75l-.131-1.086-2.716.004z"/><path d="M53.075 34.098h-.804c-.058-.855-.74-1.032-.74-1.038 0 .007-.675.132-.69 1.002l-.79.037.072-1.123 2.76-.044.192 1.166zm-1.62-1.099l-1.28.024-.079 1.042.701-.047c-.028-.731.452-.958.658-1.019zm.151-.004c.199.071.697.346.711 1.066l.65-.041-.123-1.042-1.238.017z"/><path fill="#FCFF2C" d="M49.997 34.065h3.063c.065 0 .119.061.119.136 0 .068-.054.129-.119.129h-3.063c-.061 0-.119-.061-.119-.129 0-.075.057-.136.119-.136z"/><path d="M53.06 34.369h-3.063c-.086 0-.162-.078-.162-.169 0-.101.076-.179.162-.179h3.063c.094 0 .166.078.166.179a.168.168 0 0 1-.166.169zm-3.063-.261v.172h3.063c.04 0 .079-.037.079-.081l-3.142-.091z"/><path fill="#FCFF2C" d="M51.108 34.061c0-.566.415-.723.415-.723s.422.162.429.723h-.844z"/><path d="M51.999 34.098h-.891c-.036-.628.375-.801.397-.807.054.007.487.183.494.77v.037zm-.494-.722c.015.007-.35.159-.35.686l.743-.044c-.014-.487-.378-.642-.393-.642z"/><path fill="#FCFF2C" d="M50.065 32.531h2.937c.058 0 .108.054.108.115 0 .071-.051.122-.108.122h-2.937a.118.118 0 0 1-.115-.122.12.12 0 0 1 .115-.115z"/><path d="M53.002 32.812h-2.937a.169.169 0 0 1-.162-.166.16.16 0 0 1 .162-.155h2.937c.087 0 .155.068.155.155.001.088-.068.166-.155.166zm-2.937-.237v.146h2.937c.04 0 .065-.031.065-.075l-3.002-.071z"/><path fill="#FCFF2C" d="M50.123 32.768h2.81c.061 0 .108.057.108.125 0 .064-.047.118-.108.118h-2.81c-.058 0-.104-.054-.104-.118-.001-.067.046-.125.104-.125z"/><path d="M52.927 33.053h-2.803c-.086 0-.151-.071-.151-.159 0-.092.065-.172.151-.172h2.803c.09 0 .162.082.162.172a.16.16 0 0 1-.162.159zm-2.804-.241v.159h2.803c.04 0 .069-.04.069-.078l-2.872-.081zM51.455 31.775c-.007-.101.158-.108.158 0v.268h-.158v-.268zM52.414 32.154c0-.104.152-.104.152 0v.2h-.152v-.2zM50.494 32.154c0-.101.148-.104.141 0v.208h-.141v-.208z"/><path fill="#FCFF2C" d="M35.432 39.93l.158-.146.108.105.116-.108-.116-.104.162-.155.119.112.112-.112-.112-.108.155-.149.256.241c.043.04.036.092 0 .129l-.562.528c-.04.034-.108.047-.144.007l-.252-.24z"/><path d="M35.746 40.239l-.097-.044-.249-.235.155-.208.173.101.054-.104-.112-.047.166-.211.177.101.047-.104-.116-.047.159-.211.357.271-.04.162-.674.576zm-.192-.424l-.087.146.278.231.047-.064.566-.529-.256-.306-.09.149.108.047-.108.172-.177-.112-.108.153.119.047-.119.166-.173-.1z"/><path fill="#FCFF2C" d="M36.367 39.696l.858.746-.549.512-.79-.807z"/><path d="M36.676 41.019l-.822-.848.48-.505.923.743-.581.61zm-.343-1.292l-.415.451.757.716.512-.481-.854-.686z"/><path fill="#FCFF2C" d="M36.517 39.665l.155-.146.108.108.115-.108-.123-.104.166-.142.112.101.112-.101-.112-.112.159-.142.256.241c.044.033.036.092-.003.122l-.559.522c-.029.031-.094.04-.137 0l-.249-.239z"/><path d="M36.836 39.974l-.093-.04-.256-.238.151-.204.181.101.043-.101-.112-.044.155-.211.184.105.043-.105-.119-.047.166-.211.325.265-.007.166-.661.564zm-.2-.424l-.086.146.285.234.047-.061.545-.516-.249-.306-.097.142.115.047-.108.165-.184-.108-.094.153.116.044-.108.162-.182-.102z"/><path fill="#FCFF2C" d="M37.434 39.411l.456.404-.52.499-.437-.431z"/><path d="M37.362 40.371l-.458-.468.498-.522.523.403-.563.587zm.04-.929l-.436.461.397.346.494-.464-.455-.343z"/><path fill="#FCFF2C" d="M35.161 40.941l.151-.139.119.105.112-.105-.119-.111.159-.146.112.104.119-.104-.119-.101.151-.153.263.241c.04.04.032.094 0 .122l-.555.525c-.04.033-.101.037-.137.003l-.256-.241z"/><path d="M35.485 41.246l-.101-.033-.256-.238.151-.208.188.105.043-.105-.119-.044.162-.211.173.111.054-.108-.119-.047.158-.203.321.252-.007.165-.648.564zm-.205-.421l-.093.149.299.231.036-.057.555-.519-.256-.309-.094.149.112.047-.112.162-.173-.104-.094.149.108.044-.101.162-.187-.104z"/><path fill="#FCFF2C" d="M36.078 40.683l.457.404-.522.502-.429-.434z"/><path d="M36.013 41.647l-.469-.464.501-.529.527.403-.559.59zm.039-.93l-.443.464.404.346.49-.464-.451-.346z"/><path fill="#FCFF2C" d="M37.625 42.325c-.686-.679-.353-1.306-.353-1.313.007-.007.722-.339 1.422.319l-1.069.994z"/><path fill="#FCFF2C" d="M36.333 41.921l.726.848.526-.502c-.668-.635-.278-1.211-.256-1.225.004-.007.65-.339 1.298.248l.53-.505-.912-.675-1.912 1.811z"/><path d="M37.051 42.828l-.754-.879 1.92-1.87.967.675-.523.563c-.314-.221-.581-.329-.865-.329-.267 0-.44.094-.447.094.007 0-.368.546.271 1.153l-.569.593zm.192-1.738l-.884.861.701.753.494-.467c-.382-.299-.422-.648-.397-.875.021-.109.054-.207.086-.272zm.552-.19c.314 0 .603.122.865.353l.469-.488-.912-.624-.855.844c.079-.034.238-.085.433-.085z"/><path fill="#FCFF2C" d="M37.026 42.8l2.158-2.032c.054-.044.13-.037.188.011.05.054.058.129.018.176l-2.166 2.036c-.04.04-.126.037-.184-.017-.054-.055-.061-.13-.014-.174z"/><path d="M37.149 43.061l-.137-.057c-.058-.057-.079-.179-.018-.234l2.158-2.035c.162-.044.214-.021.253.02.061.057.072.176.014.234l-2.27 2.072zm2.118-2.283l-2.208 2.055-.018.139.108.04.04-.054 2.169-2.036.014-.146-.105.002z"/><path fill="#FCFF2C" d="M37.809 42.054c-.422-.397-.256-.78-.256-.78s.422-.165.844.231l-.588.549z"/><path d="M37.809 42.118l-.032-.031c-.443-.413-.267-.814-.26-.831.054-.05.451-.215.912.215l-.62.647zm-.238-.804c.014 0-.116.323.239.686l.559-.528c-.408-.271-.783-.165-.798-.158z"/><path fill="#FCFF2C" d="M35.919 41.677l2.074-1.95c.04-.044.123-.044.173.007.043.047.051.122.004.162l-2.074 1.947c-.044.047-.115.04-.166-.007-.051-.044-.054-.114-.011-.159z"/><path d="M36.023 41.915l-.13-.071-.007-.197 2.074-1.951.239.007c.061.064.065.166.007.224l-2.183 1.988zm0-.089v.044l.043-.057 2.071-1.947.029-.132-.094.003-2.122 1.971-.022.129.095-.011z"/><path fill="#FCFF2C" d="M36.142 41.806l1.981-1.87c.047-.041.123-.033.17.01.054.047.054.118.011.159l-1.984 1.87c-.036.037-.108.033-.162-.014-.048-.046-.062-.121-.016-.155z"/><path d="M36.254 42.043l-.133-.054a.152.152 0 0 1-.011-.215l1.991-1.872.225.014c.072.068.072.159.021.217l-2.093 1.91zm0-.084v.04l.036-.05 1.988-1.872.014-.129-.094.003-2.024 1.886-.018.125.098-.003zM36.333 40.195c-.079-.071.025-.179.112-.101l.191.19-.104.098-.199-.187zM37.297 39.825c-.079-.071.032-.169.105-.098l.151.142-.104.098-.152-.142zM35.937 41.104c-.076-.068.029-.172.108-.098l.151.142-.104.098-.155-.142z"/></svg>