<svg xmlns="http://www.w3.org/2000/svg" width="124" height="68"><path fill="#180087" d="M.061-.009H124V68H.061z"/><path fill="#FFF" d="M32.654 41.657l1.905 5.526 5.755-2.056-3.398 4.827 5.287 2.958-6.131.502.844 5.737-4.262-4.196-4.227 4.196.844-5.737-6.144-.502 5.3-2.958-3.411-4.827 5.77 2.056zM97.862 51.589l.916 2.629 2.74-.974-1.615 2.301 2.517 1.407-2.935.237.418 2.732-2.041-2.002-2.005 2.002.405-2.732-2.923-.237 2.518-1.407-1.616-2.301 2.741.974zM81.576 27.312l.895 2.625 2.74-.98-1.615 2.306 2.517 1.408-2.921.23.404 2.738-2.02-2.002-2.026 2.002.403-2.738-2.921-.23 2.518-1.408-1.616-2.306 2.741.98zM97.862 10.697l.916 2.629 2.74-.974-1.615 2.293 2.517 1.411-2.935.242.418 2.726-2.041-1.994-2.005 1.994.405-2.726-2.923-.242 2.518-1.411-1.616-2.293 2.741.974zM112.373 23.224l.888 2.626 2.761-.978-1.636 2.3 2.531 1.401-2.935.245.419 2.737-2.028-2.004-2.019 2.004.404-2.737-2.929-.245 2.525-1.401-1.616-2.3 2.741.978zM104.397 35.523l.714 1.64 1.867.128-1.427 1.14.439 1.72-1.593-.936-1.587.936.44-1.72-1.435-1.14 1.875-.128zM27.237-.009v10.228H.061v10.224h27.176v10.223h10.855V20.443h27.191V10.219H38.092V-.009z"/><path fill="#FFF" d="M.061-.009v3.43l57.923 27.245h7.285v-3.429L7.354-.009z"/><path fill="#FFF" d="M57.984-.009L.061 27.237v3.429h7.293L65.269 3.421v-3.43z"/><path fill="#EA0020" d="M29.401-.009V12.26H.061v6.136h29.34v12.27h6.521v-12.27h29.347V12.26H35.922V-.009z"/><path fill="#EA0020" d="M.061-.009v2.29l16.863 7.938H21.8L.061-.009zm60.346 0L38.676 10.219h4.862L65.269-.008l-4.862-.001zM21.799 20.443L.061 30.667h4.862l21.738-10.225h-4.862zm21.739 0l21.746 10.225v-2.287l-16.885-7.938h-4.861z"/></svg>