<svg xmlns="http://www.w3.org/2000/svg" width="124" height="68"><path fill="#CB001C" d="M124.041 68v-5.228H0V68"/><path fill="#FFF" d="M0 57.543h124.041v5.228H0z"/><path fill="#CB001C" d="M0 52.32h124.041v5.225H0z"/><path fill="#FFF" d="M0 47.092h124.041v5.228H0z"/><path fill="#CB001C" d="M0 41.86h124.041v5.232H0z"/><path fill="#FFF" d="M0 36.635h124.041v5.224H0z"/><path fill="#CB001C" d="M0 31.4h124.041v5.235H0z"/><path fill="#FFF" d="M0 26.176h124.041v5.225H0z"/><path fill="#CB001C" d="M0 20.932h124.041v5.228H0z"/><path fill="#FFF" d="M0 15.716h124.041v5.231H0z"/><path fill="#CB001C" d="M0 10.487h124.041v5.228H0z"/><path fill="#FFF" d="M0 5.259h124.041v5.228H0z"/><path fill="#CB001C" d="M0 0l124 .029v5.232L0 5.266z"/><path fill="#2A3560" d="M0 0l56.606.029v36.608H-.041z"/><path fill="#FFF" d="M5.078 4.063l.484 1.387h1.551l-1.255.854.476 1.384-1.256-.855-1.257.855.492-1.384-1.257-.854h1.538zM5.078 10.176l.484 1.379h1.551l-1.255.851.476 1.391-1.256-.857-1.257.857.492-1.391-1.257-.851h1.538zM5.078 16.285l.484 1.381h1.551l-1.255.854.476 1.387-1.256-.858-1.257.858.492-1.387-1.257-.854h1.538zM5.078 22.392l.484 1.386h1.551l-1.255.855.476 1.379-1.256-.85-1.257.85.492-1.379-1.257-.855h1.538zM5.078 28.501l.484 1.39h1.551l-1.255.848.476 1.383-1.256-.854-1.257.854.492-1.383-1.257-.848h1.538zM9.61 7.281l.463 1.386h1.559l-1.249.859.47 1.379-1.243-.851-1.248.851.468-1.379-1.248-.859h1.552zM9.61 13.394l.463 1.38h1.559l-1.249.858.47 1.378-1.243-.846-1.248.846.468-1.378-1.248-.858h1.552zM9.61 19.503l.463 1.384h1.559l-1.249.853.47 1.385-1.243-.855-1.248.855.468-1.385-1.248-.853h1.552zM9.61 25.615l.463 1.381h1.559l-1.249.855.47 1.38-1.243-.859-1.248.859.468-1.38-1.248-.855h1.552zM14.187 4.063l.483 1.387h1.552l-1.256.854.484 1.384-1.263-.855-1.242.855.477-1.384-1.256-.854h1.544zM14.187 10.176l.483 1.379h1.552l-1.256.851.484 1.391-1.263-.857-1.242.857.477-1.391-1.256-.851h1.544zM14.187 16.285l.483 1.381h1.552l-1.256.854.484 1.387-1.263-.858-1.242.858.477-1.387-1.256-.854h1.544zM14.187 22.392l.483 1.386h1.552l-1.256.855.484 1.379-1.263-.85-1.242.85.477-1.379-1.256-.855h1.544zM14.187 28.501l.483 1.39h1.552l-1.256.848.484 1.383-1.263-.854-1.242.854.477-1.383-1.256-.848h1.544zM18.72 7.281l.476 1.386h1.559l-1.263.859.484 1.379-1.256-.851-1.249.851.483-1.379-1.263-.859h1.553zM18.72 13.394l.476 1.38h1.559l-1.263.858.484 1.378-1.256-.846-1.249.846.483-1.378-1.263-.858h1.553zM18.72 19.503l.476 1.384h1.559l-1.263.853.484 1.385-1.256-.855-1.249.855.483-1.385-1.263-.853h1.553zM18.72 25.615l.476 1.381h1.559l-1.263.855.484 1.38-1.256-.859-1.249.859.483-1.38-1.263-.855h1.553zM23.31 4.063l.484 1.387h1.537l-1.255.854.497 1.384-1.263-.855-1.255.855.476-1.384-1.241-.854h1.544zM23.31 10.176l.484 1.379h1.537l-1.255.851.497 1.391-1.263-.857-1.255.857.476-1.391-1.241-.851h1.544zM23.31 16.285l.484 1.381h1.537l-1.255.854.497 1.387-1.263-.858-1.255.858.476-1.387-1.241-.854h1.544zM23.31 22.392l.484 1.386h1.537l-1.255.855.497 1.379-1.263-.85-1.255.85.476-1.379-1.241-.855h1.544zM23.31 28.501l.484 1.39h1.537l-1.255.848.497 1.383-1.263-.854-1.255.854.476-1.383-1.241-.848h1.544zM27.843 7.281l.477 1.386h1.544l-1.249.859.469 1.379-1.241-.851-1.249.851.47-1.379-1.249-.859h1.544zM27.843 13.394l.477 1.38h1.544l-1.249.858.469 1.378-1.241-.846-1.249.846.47-1.378-1.249-.858h1.544zM27.843 19.503l.477 1.384h1.544l-1.249.853.469 1.385-1.241-.855-1.249.855.47-1.385-1.249-.853h1.544zM27.843 25.615l.477 1.381h1.544l-1.249.855.469 1.38-1.241-.859-1.249.859.47-1.38-1.249-.855h1.544zM32.42 4.063l.483 1.387h1.545l-1.249.854.484 1.384-1.263-.855-1.243.855.47-1.384-1.249-.854h1.545zM32.42 10.176l.483 1.379h1.545l-1.249.851.484 1.391-1.263-.857-1.243.857.47-1.391-1.249-.851h1.545zM32.42 16.285l.483 1.381h1.545l-1.249.854.484 1.387-1.263-.858-1.243.858.47-1.387-1.249-.854h1.545zM32.42 22.392l.483 1.386h1.545l-1.249.855.484 1.379-1.263-.85-1.243.85.47-1.379-1.249-.855h1.545zM32.42 28.501l.483 1.39h1.545l-1.249.848.484 1.383-1.263-.854-1.243.854.47-1.383-1.249-.848h1.545zM36.951 7.281l.478 1.386h1.559l-1.256.859.477 1.379-1.258-.851-1.248.851.484-1.379-1.256-.859h1.552zM36.951 13.394l.478 1.38h1.559l-1.256.858.477 1.378-1.258-.846-1.248.846.484-1.378-1.256-.858h1.552zM36.951 19.503l.478 1.384h1.559l-1.256.853.477 1.385-1.258-.855-1.248.855.484-1.385-1.256-.853h1.552zM36.951 25.615l.478 1.381h1.559l-1.256.855.477 1.38-1.258-.859-1.248.859.484-1.38-1.256-.855h1.552zM41.543 4.063l.484 1.387h1.544l-1.249.854.47 1.384-1.249-.855-1.241.855.468-1.384-1.248-.854h1.544zM41.543 10.176l.484 1.379h1.544l-1.249.851.47 1.391-1.249-.857-1.241.857.468-1.391-1.248-.851h1.544zM41.543 16.285l.484 1.381h1.544l-1.249.854.47 1.387-1.249-.858-1.241.858.468-1.387-1.248-.854h1.544zM41.543 22.392l.484 1.386h1.544l-1.249.855.47 1.379-1.249-.85-1.241.85.468-1.379-1.248-.855h1.544zM41.543 28.501l.484 1.39h1.544l-1.249.848.47 1.383-1.249-.854-1.241.854.468-1.383-1.248-.848h1.544zM46.076 7.281l.469 1.386h1.551l-1.241.859.462 1.379-1.241-.851-1.263.851.483-1.379-1.241-.859h1.537zM46.076 13.394l.469 1.38h1.551l-1.241.858.462 1.378-1.241-.846-1.263.846.483-1.378-1.241-.858h1.537zM46.076 19.503l.469 1.384h1.551l-1.241.853.462 1.385-1.241-.855-1.263.855.483-1.385-1.241-.853h1.537zM46.076 25.615l.469 1.381h1.551l-1.241.855.462 1.38-1.241-.859-1.263.859.483-1.38-1.241-.855h1.537zM50.651 4.063l.491 1.387h1.538l-1.248.854.482 1.384-1.263-.855-1.24.855.469-1.384-1.249-.854h1.544zM50.651 10.176l.491 1.379h1.538l-1.248.851.482 1.391-1.263-.857-1.24.857.469-1.391-1.249-.851h1.544zM50.651 16.285l.491 1.381h1.538l-1.248.854.482 1.387-1.263-.858-1.24.858.469-1.387-1.249-.854h1.544zM50.651 22.392l.491 1.386h1.538l-1.248.855.482 1.379-1.263-.85-1.24.85.469-1.379-1.249-.855h1.544zM50.651 28.501l.491 1.39h1.538l-1.248.848.482 1.383-1.263-.854-1.24.854.469-1.383-1.249-.848h1.544z"/></svg>