<svg xmlns="http://www.w3.org/2000/svg" width="124" height="68"><path fill="red" d="M0 0h29.16v67.995H0zM94.793 0h29.159v67.995H94.793z"/><path fill="#FFF" d="M29.16 0h65.633v67.995H29.16z"/><path fill="red" d="M61.975 8.817l-4.298 7.857c-.488.853-1.363.775-2.237.298l-3.112-1.579 2.319 12.068c.488 2.204-1.079 2.204-1.849 1.25l-5.433-5.958-.881 3.025c-.102.399-.548.815-1.219.716l-6.868-1.415 1.805 6.426c.387 1.431.687 2.022-.39 2.4l-2.448 1.126 11.823 9.411c.467.356.705.997.536 1.575l-1.035 3.328 11.791-1.331c.361-.006.962.298.958.705l-.539 12.19h1.979l-.312-12.164c-.003-.408.541-.736.903-.731 4.071.459 7.72.87 11.791 1.331l-1.035-3.328c-.166-.579.07-1.219.536-1.575l11.823-9.411-2.449-1.126c-1.077-.378-.776-.971-.389-2.4l1.804-6.426-6.867 1.415c-.671.099-1.12-.318-1.219-.716l-.883-3.025-5.43 5.957c-.773.953-2.337.953-1.849-1.25l2.319-12.068-3.113 1.579c-.873.477-1.748.557-2.235-.298l-4.297-7.856z"/></svg>