<svg xmlns="http://www.w3.org/2000/svg" width="124" height="68"><path fill="#1A237B" d="M62.035 0v3.249L48.267 9.714h13.768v9.718H48.267l13.768 6.471V29.343h-6.55l-19.313-9.08v9.08H25.833v-9.08l-19.309 9.08H0V68h124.018V0zM0 19.432v6.458l13.738-6.458zM36.172 0v8.893L55.077 0zM25.833 0H6.932l18.901 8.893zM0 9.714h13.738L0 3.266z"/><path fill="#FFF" d="M62.01 0L41.339 9.714H36.71L57.38 0h-2.303L36.172 8.893V0h-2.071v11.661h27.934V9.714H48.267l13.768-6.465V0zM25.833 0v8.893L6.932 0H0l20.671 9.714h-4.623L0 2.181v1.085l13.738 6.448H0v1.947H27.904V0zM41.828 17.492h-7.727v11.851h2.071v-9.08l19.313 9.08H62.035v-.186l-20.696-9.725h4.619l16.077 7.557v-1.086l-13.768-6.471h13.768v-1.94H44.133zM24.798 17.492H0v1.94h13.738L0 25.89v3.253l20.671-9.711h4.618L4.212 29.343h2.312l19.309-9.08v9.08h2.071V17.492z"/><path fill="#BD0034" d="M20.671 19.432L0 29.143v.2h4.212l21.077-9.911zM0 2.181l16.048 7.533h4.623L0 0zM62.01 0h-4.63L36.71 9.714h4.629zM41.339 19.432l20.696 9.725v-2.168l-16.077-7.557z"/><path fill="#BD0034" d="M27.904 0v11.661H0v5.831H27.904v11.851h6.197V17.492h27.934V11.661H34.101V0z"/><path fill="#FFF" d="M86.09 19.845h3.362l1.05-3.011 1.04 3.011h3.359l-2.718 1.866 1.037 3.012-2.718-1.865-2.738 1.865 1.05-3.012z"/><path fill="#BD0034" d="M87.583 20.307h2.223l.696-1.991.683 1.991h2.223l-1.794 1.231.682 1.994-1.794-1.231-1.807 1.231.689-1.994z"/><path fill="#FFF" d="M72.601 32.6h3.366l1.051-3.02 1.039 3.02h3.37l-2.721 1.855 1.032 3.015-2.72-1.862-2.721 1.862 1.036-3.015z"/><path fill="#BD0034" d="M74.098 33.054h2.226l.694-1.995.685 1.995h2.238l-1.808 1.232.689 1.993-1.804-1.237-1.809 1.237.696-1.993z"/><path fill="#FFF" d="M98.124 29.438h3.003l.931-2.683.922 2.683h2.992l-2.421 1.645.931 2.686-2.424-1.651-2.432 1.651.929-2.686z"/><path fill="#BD0034" d="M99.455 29.842h1.992l.611-1.775.609 1.775h1.988l-1.609 1.099.61 1.77-1.598-1.095-1.61 1.095.616-1.77z"/><path fill="#FFF" d="M85.598 52.601h3.739l1.165-3.347 1.152 3.347H95.4l-3.028 2.073 1.151 3.347-3.021-2.068-3.027 2.068 1.151-3.347z"/><path fill="#BD0034" d="M87.259 53.113h2.475l.768-2.214.762 2.214h2.472l-1.996 1.368.766 2.221-2.004-1.374-2.002 1.374.768-2.221z"/></svg>