<svg xmlns="http://www.w3.org/2000/svg" width="124" height="68"><path fill="#D00027" d="M0 0h124.022v68.031H0z"/><path fill="#FFF" d="M36.174 17.004c9.989 0 18.094 7.613 18.094 17.005s-8.105 17.005-18.094 17.005c-9.985 0-18.079-7.613-18.079-17.005-.001-9.391 8.093-17.005 18.079-17.005"/><path fill="#D00027" d="M40.695 20.396c8.001 0 14.471 6.106 14.471 13.611 0 7.518-6.471 13.612-14.471 13.612-7.99 0-14.471-6.094-14.471-13.612 0-7.503 6.482-13.611 14.471-13.611"/><path fill="#FFF" d="M51.465 34.008l8.587 2.633 1.397-4.057z"/><path fill="#FFF" d="M51.465 34.008l8.587-2.619 1.397 4.044z"/><path fill="#FFF" d="M57.708 25.92v8.509h4.521z"/><path fill="#FFF" d="M57.708 25.92l5.311 6.881-3.649 2.497z"/><path fill="#FFF" d="M57.708 42.11l5.311-6.894-3.649-2.497z"/><path fill="#FFF" d="M57.708 42.11v-8.523h4.521z"/><path fill="#FFF" d="M67.815 29.028l-8.588 2.605 1.396 4.045z"/><path fill="#FFF" d="M67.815 29.028l-5.313 6.867-3.662-2.497z"/><path fill="#FFF" d="M67.815 39.016l-5.313-6.88-3.662 2.497z"/><path fill="#FFF" d="M67.815 39.016l-8.588-2.633 1.396-4.043z"/></svg>