<svg width="30" height="30" viewBox="0 0 30 30" fill="none" xmlns="http://www.w3.org/2000/svg">
<path d="M29.5161 0H15.9678C15.7002 0 15.4839 0.239464 15.4839 0.535714V14.4643C15.4839 14.6705 15.5908 14.8575 15.7578 14.947C15.825 14.9829 15.8966 15 15.9678 15C16.0757 15 16.1826 14.9604 16.2702 14.8827L20.9763 10.7143H29.5161C29.7837 10.7143 30 10.4748 30 10.1786V0.535714C30 0.239464 29.7837 0 29.5161 0Z" fill="#433A77"/>
<path d="M8.22581 18.2143C10.6309 18.2143 12.5807 16.0556 12.5807 13.3928C12.5807 10.73 10.6309 8.57141 8.22581 8.57141C5.8207 8.57141 3.87097 10.73 3.87097 13.3928C3.87097 16.0556 5.8207 18.2143 8.22581 18.2143Z" fill="#F1623A"/>
<path d="M14.3177 21.511C13.0858 20.9844 11.0289 20.3571 8.22581 20.3571C5.42274 20.3571 3.36581 20.9844 2.13387 21.511C0.857419 22.0564 0 23.4573 0 24.9975V29.4643C0 29.7605 0.21629 30 0.483871 30H15.9677C16.2353 30 16.4516 29.7605 16.4516 29.4643V24.9975C16.4516 23.4573 15.5942 22.0564 14.3177 21.511Z" fill="#F1623A"/>
</svg>
