<svg width="23" height="21" viewBox="0 0 23 21" fill="none" xmlns="http://www.w3.org/2000/svg">
<path d="M11.6 12.7C14.9 12.7 17.6 10.1 17.6 6.8C17.6 3.5 14.9 0.699997 11.6 0.699997C8.29998 0.699997 5.59998 3.4 5.59998 6.7C5.59998 10 8.19998 12.7 11.6 12.7ZM11.6 2.7C13.9 2.7 15.6 4.3 15.6 6.7C15.6 9.1 13.9 10.7 11.6 10.7C9.29998 10.7 7.59998 9.1 7.59998 6.7C7.59998 4.3 9.19998 2.7 11.6 2.7Z" fill="#7C7C7C"/>
<path d="M7.6 15.7H15.6V13.7H7.6C3.7 13.7 0.499999 14.2 0.599999 19.9C0.599999 20.3 0.899999 20.7 1.4 20.7H16.6V18.7H2.6C2.8 16.5 4.7 15.7 7.6 15.7Z" fill="#7C7C7C"/>
<path d="M20.6 15.7V13.7H18.6V15.7H16.6V17.7H18.6V19.7H20.6V17.7H22.6V15.7H20.6Z" fill="#7C7C7C"/>
</svg>
