<svg width="29" height="31" viewBox="0 0 29 31" fill="none" xmlns="http://www.w3.org/2000/svg">
<path d="M17.4436 10.7995C17.0075 11.4238 16.5192 11.4906 16.1826 11.2995C15.846 11.1085 15.6604 10.6591 15.9929 9.97608C16.8002 8.31486 19.5272 2.72815 20.0284 1.92487C20.4329 1.27638 21.3275 0.504744 22.2238 1.01341C22.2238 1.01341 22.2244 1.01341 22.225 1.01399C22.225 1.01399 22.2255 1.01399 22.2261 1.01456C23.1224 1.52323 22.89 2.67003 22.5206 3.33924C22.0628 4.16726 18.5039 9.28213 17.4442 10.8001L17.4436 10.7995Z" fill="#433A77"/>
<path d="M16.4696 11.9826C16.2716 11.9729 16.078 11.9153 15.9013 11.8109C15.7245 11.7065 15.5785 11.5645 15.4716 11.3945C15.0174 11.3831 14.5793 11.6027 14.2409 11.8987C13.9997 12.1098 13.7877 12.4532 13.6792 12.7566C13.5729 13.0549 13.5606 13.3767 13.4935 13.6847C13.4336 13.9579 13.2786 14.2973 12.9687 14.327C12.8876 14.335 12.8048 14.323 12.7265 14.3019C12.5782 14.2619 12.44 14.1918 12.303 14.1216C12.3986 14.3988 12.543 14.6458 12.7595 14.8421C12.9575 15.0217 13.197 15.1478 13.4487 15.2288C13.7032 15.3104 13.9712 15.3469 14.2381 15.3486C14.2778 15.3486 14.3169 15.3486 14.3567 15.3469C15.1533 15.3195 15.9303 14.9099 16.3348 14.1958C16.7757 13.4166 16.8059 12.5461 16.4696 11.9826Z" fill="#433A77"/>
<path d="M19.1644 29.5742H18.7194C18.6936 29.5458 18.1478 27.3554 17.9883 26.7727H11.011C10.8515 27.3554 10.3057 29.5458 10.2799 29.5742H9.8349C9.49896 29.5742 9.22693 29.8322 9.22693 30.1507C9.22693 30.4693 9.49896 30.7273 9.8349 30.7273H19.1644C19.5003 30.7273 19.7724 30.4693 19.7724 30.1507C19.7724 29.8322 19.5003 29.5742 19.1644 29.5742Z" fill="#F1623A"/>
<path d="M27.9084 3.92477H22.8287C22.6152 4.26564 22.2968 4.75351 21.921 5.31951H27.5523V21.3977H1.44887V5.31893H17.6225C17.8568 4.83859 18.0888 4.36634 18.3075 3.92419H1.09216C0.49127 3.92419 0 4.41438 0 5.01394V24.8041C0 25.4037 0.49127 25.8939 1.09216 25.8939H27.9078C28.5087 25.8939 29 25.4037 29 24.8041V5.01452C29 4.41496 28.5087 3.92477 27.9078 3.92477H27.9084Z" fill="#F1623A"/>
</svg>
