<svg width="30" height="25" viewBox="0 0 30 25" fill="none" xmlns="http://www.w3.org/2000/svg">
<g clip-path="url(#clip0_597_858)">
<path d="M11.7667 12.5298L23.6093 12.5278L24.2605 7.14286V5.13329L23.6093 5.37528V12.5278H24.8699V5.13329C24.8699 4.74849 24.8679 4.4351 24.8639 4.4351L24.8599 4.43113C24.8599 4.43113 24.5902 4.15939 24.2605 3.83013L21.0042 0.597033C20.6726 0.267772 20.0174 0 19.5499 0H11.3612C10.8937 0 10.5101 0.380832 10.5101 0.84497V12.5298H11.7667ZM20.4009 1.76928L22.7742 4.12567H20.4009V1.76928Z" fill="#F1623A"/>
<path d="M28.0802 5.83142H26.5719V13.7912H8.80602V5.83142H1.91982C0.863022 5.83142 0 6.68829 0 7.73756V23.0938C0 24.1411 0.86502 24.9999 1.91982 24.9999H28.0802C29.137 24.9999 30 24.1411 30 23.0938V7.73756C30 6.68829 29.135 5.83142 28.0802 5.83142ZM6.89618 21.9652C6.89618 22.5424 6.42072 23.0145 5.83938 23.0145H2.70294C2.1216 23.0145 1.64613 22.5424 1.64613 21.9652V8.71543C1.64613 8.13823 2.1216 7.66616 2.70294 7.66616H5.83938C6.42072 7.66616 6.89618 8.13823 6.89618 8.71543V21.9632V21.9652ZM15.0809 23.0363C14.2159 23.0363 13.5167 22.3401 13.5167 21.4832C13.5167 20.6263 14.2179 19.9301 15.0809 19.9301C15.9439 19.9301 16.6451 20.6263 16.6451 21.4832C16.6451 22.3401 15.9439 23.0363 15.0809 23.0363ZM20.1751 23.0363C19.3101 23.0363 18.6109 22.3401 18.6109 21.4832C18.6109 20.6263 19.3101 19.9301 20.1751 19.9301C21.0402 19.9301 21.7394 20.6263 21.7394 21.4832C21.7394 22.3401 21.0382 23.0363 20.1751 23.0363Z" fill="#433A77"/>
</g>
<defs>
<clipPath id="clip0_597_858">
<rect width="30" height="25" fill="white"/>
</clipPath>
</defs>
</svg>
