<svg viewBox="0 0 60 60" width="60px" height="60px">
    <path d="M46.915 46c.967 1.23 2.33 2 4 2 2.9 0 5-2.1 5-5 0-2.637-1.452-4.561-4-5 .703-2.197 1-4.627 1-7 0-12.655-10.258-23-23-23-5.361 0-10.634 1.964-14.764 5.391C14.097 12.512 12.409 12 10.915 12h-4c-3.164 0-6 2.445-6 5.697V21c0 .527.473 1 1 1h7c-1.142 2.724-2 6.012-2 9 0 12.654 10.258 23 23 23 6.591 0 12.606-3.255 17-8zM16.294 14.621a20.274 20.274 0 0 1 8.612-4.218c-2.197 2.285-4.042 6.152-5.009 10.985-3.779.878-8.173 2.548-10.897 5.272.352-1.582 1.212-3.255 1.915-4.661h4c1.219 0 2-.84 2-2v-2c0-1.141-.094-2.411-.621-3.378zM2.915 20v-2c0-2.285 1.803-4 4-4h4c2.285 0 4 1.803 4 4v2h-12zm16.63 3.321c-.439 2.109-.542 4.306-.63 6.679h-10c1.318-3.603 6.94-5.712 10.63-6.679zM18.915 32c0 2.549.56 4.803 1 7-6.239-1.406-10.648-3.836-11-7h10zm-10 4c2.285 2.109 6.324 4.106 10.982 4.985 1.054 4.658 2.909 8.818 5.018 11.015-7.645-1.758-13.979-8.355-16-16zm20 16c-2.988-.703-5.679-4.864-7.085-10.664 2.373.352 4.8.664 7.085.664v10zm-.142-11.982c-2.636 0-5.097-.176-7.382-.615-.439-2.285-.388-4.679-.476-7.403h8l-.142 8.018zM28.915 30h-8c.088-2.548-.052-4.921.388-7.118 2.373-.527 5.064-.794 7.612-.882v8zm0-10c-2.461.088-4.976.597-7.261 1.036 1.494-6.064 4.273-10.333 7.261-11.036v10zm25 23c0 1.65-1.35 3-3 3s-3-1.35-3-3 1.35-3 3-3c1.725 0 3 1.35 3 3zm-13-13c0-2.548-.718-4.921-1.158-7.118 6.239 1.406 10.806 4.042 11.158 7.118h-10zm10 2c-1.318 3.603-7.309 6.033-11 7 .439-2.109 1-4.627 1-7h10zm-.788-6.394c-2.285-2.109-6.064-3.779-10.721-4.658-1.055-4.657-2.812-8.349-4.921-10.546 7.645 1.759 13.709 7.646 15.642 15.204zM30.915 10c2.988.703 5.152 4.797 6.558 10.597-2.109-.264-4.097-.597-6.558-.597V10zm0 12s3.174-.018 7.085.53c.439 2.285.915 4.833.915 7.47h-8v-8zm0 10h8c-.088 2.549-.56 4.803-1 7-2.285.44-4.364.824-7 1v-8zm0 20V42c2.461-.088 4.449-.576 6.733-1.015-1.406 5.976-3.657 10.312-6.733 11.015zm14.994-7.324c-3.076 3.427-7.031 5.888-11.425 6.854 2.285-2.285 4.042-6.151 5.097-10.985 3.779-.879 8.609-2.821 11.333-5.545-.176.879-.876 2.03-1.139 2.909-2.373.527-3.861 2.542-3.861 5.091.001.527-.18 1.236-.005 1.676zM8.915 11c2.75 0 5-2.25 5-5s-2.25-5-5-5-5 2.25-5 5 2.25 5 5 5zm0-8c1.65 0 3 1.35 3 3s-1.35 3-3 3-3-1.35-3-3 1.35-3 3-3zm44 46h-4c-3.252 0-6 1.836-6 5v4c0 .527.473 1 1 1h14.121c.527 0 .879-.352.879-.879V54.43c0-3.164-2.836-5.43-6-5.43zm4 8h-12v-3c0-2.285 1.803-3 4-3h4c2.285 0 4 .803 4 3v3z" fill="#FFF"></path>
</svg>