<svg xmlns="http://www.w3.org/2000/svg" width="116" height="39"><ellipse fill="#FFF" cx="19.362" cy="19.569" rx="16.07" ry="16.096"/><path fill="#4285F4" d="M.892 19.569c0 10.219 8.267 18.5 18.47 18.5v-4.628c-7.644 0-13.839-6.205-13.839-13.862"/><path fill="#DB4437" d="M5.512 19.569c0-7.656 6.195-13.862 13.839-13.862V1.069C9.149 1.069.881 9.35.881 19.569"/><path fill="#F4B400" d="M37.821 19.569c0-10.219-8.267-18.5-18.47-18.5v4.628c7.644 0 13.839 6.205 13.839 13.862"/><path fill="#0F9D58" d="M33.201 19.569c0 7.656-6.195 13.862-13.839 13.862v4.628c10.202 0 18.47-8.281 18.47-18.5M9.91 17.239l9.505 9.509 18.48-23.275-2.189-2.087-16.735 16.838-6.481-3.886z"/><g opacity=".24"><path fill="#1D1D1B" d="M34.036 8.333l-3.003 3.78-11.618 14.635 5.519 5.507 3.447 3.442a18.497 18.497 0 0 0 9.441-16.139 18.441 18.441 0 0 0-3.786-11.225z"/></g><g><path fill="#4285F4" d="M48.375 9.295v1.391h3.319c-.102.78-.361 1.351-.757 1.753-.485.486-1.242 1.018-2.563 1.018-2.044 0-3.641-1.651-3.641-3.698s1.598-3.698 3.641-3.698c1.101 0 1.908.435 2.501.995l.977-.978c-.824-.803-1.931-1.414-3.478-1.414-2.8 0-5.154 2.284-5.154 5.089s2.354 5.089 5.154 5.089c1.513 0 2.653-.498 3.545-1.425.915-.916 1.202-2.211 1.202-3.251 0-.322-.023-.622-.073-.871h-4.673z"/><path fill="#EA4335" d="M57.272 8.164c-1.812 0-3.291 1.38-3.291 3.285 0 1.889 1.479 3.285 3.291 3.285s3.291-1.391 3.291-3.285c0-1.905-1.479-3.285-3.291-3.285zm0 5.276c-.994 0-1.852-.82-1.852-1.99 0-1.182.858-1.99 1.852-1.99s1.852.809 1.852 1.99c-.001 1.17-.859 1.99-1.852 1.99z"/><path fill="#4285F4" d="M73.406 8.899h-.051c-.322-.385-.943-.735-1.728-.735-1.637 0-3.065 1.431-3.065 3.285 0 1.843 1.428 3.285 3.065 3.285.785 0 1.406-.351 1.728-.746h.051v.458c0 1.255-.672 1.928-1.75 1.928-.881 0-1.428-.633-1.654-1.171l-1.253.52c.361.871 1.315 1.939 2.907 1.939 1.688 0 3.116-.995 3.116-3.421V8.334h-1.366v.565zm-1.654 4.541c-.994 0-1.75-.848-1.75-1.99 0-1.159.757-1.99 1.75-1.99.982 0 1.75.848 1.75 2.002.005 1.147-.768 1.978-1.75 1.978z"/><path fill="#FBBC05" d="M64.61 8.164c-1.812 0-3.291 1.38-3.291 3.285 0 1.889 1.479 3.285 3.291 3.285 1.812 0 3.291-1.391 3.291-3.285.001-1.905-1.478-3.285-3.291-3.285zm0 5.276c-.994 0-1.852-.82-1.852-1.99 0-1.182.858-1.99 1.852-1.99.994 0 1.852.809 1.852 1.99 0 1.17-.858 1.99-1.852 1.99z"/><path fill="#34A853" d="M75.901 4.8h1.417v9.935h-1.417V4.8z"/><path fill="#EA4335" d="M81.693 13.44c-.734 0-1.253-.334-1.592-.995l4.386-1.815-.147-.373c-.271-.735-1.106-2.092-2.806-2.092-1.688 0-3.094 1.329-3.094 3.285 0 1.843 1.389 3.285 3.252 3.285 1.502 0 2.371-.922 2.732-1.453l-1.118-.746c-.371.542-.879.904-1.613.904zm-.102-4.043c.581 0 1.078.3 1.242.724l-2.964 1.227c0-1.38.977-1.951 1.722-1.951z"/></g><g><path fill-rule="evenodd" clip-rule="evenodd" fill="#9B9B9B" d="M43.032 20.67h2.598v7.368h.954V20.67h2.598v-.849h-6.149v.849zm8.988 1.422c-.322.217-.597.526-.825.927h-.045l-.107-1.141h-.769v6.159h.931v-3.305c0-.603.177-1.107.53-1.512.353-.405.779-.607 1.276-.607.194 0 .419.028.673.084l.129-.865a3.638 3.638 0 0 0-.735-.067c-.383.001-.737.11-1.058.327zm7.092 3.024c0 .798-.149 1.373-.446 1.725-.297.352-.768.528-1.411.528-.486 0-.844-.124-1.072-.371-.228-.247-.342-.622-.342-1.124v-3.996h-.943v4.029c0 .783.186 1.353.558 1.708.372.356.932.534 1.68.534.434 0 .82-.081 1.159-.242.339-.161.603-.393.794-.697h.05l.135.826h.769v-6.159h-.931v3.239zm5.01-.579c-.531-.198-.89-.35-1.077-.455a1.237 1.237 0 0 1-.407-.332.7.7 0 0 1-.126-.422c0-.243.112-.435.337-.573.224-.139.557-.208.999-.208.501 0 1.06.127 1.678.382l.331-.759a4.896 4.896 0 0 0-1.941-.405c-.711 0-1.27.145-1.678.436-.408.29-.612.687-.612 1.189 0 .281.059.523.177.725.118.202.297.383.539.542.241.159.648.346 1.22.559.602.232 1.007.434 1.215.604.208.171.311.376.311.615 0 .318-.131.555-.393.711-.262.156-.636.233-1.122.233a3.97 3.97 0 0 1-.979-.129 4.57 4.57 0 0 1-.951-.354v.865c.456.259 1.092.388 1.908.388.771 0 1.369-.155 1.795-.466.426-.311.64-.753.64-1.326 0-.408-.128-.747-.384-1.017-.258-.269-.751-.537-1.48-.803zm5.364 2.843c-.307 0-.548-.099-.724-.298-.176-.199-.264-.483-.264-.854v-3.625h1.784v-.725h-1.784v-1.427h-.538l-.393 1.315-.881.388v.45h.881v3.664c0 1.255.595 1.883 1.784 1.883.157 0 .334-.016.53-.048s.345-.072.446-.121v-.714c-.09.026-.211.052-.365.076a3.072 3.072 0 0 1-.476.036zm4.427-5.614c-.823 0-1.478.292-1.966.877-.488.584-.732 1.373-.732 2.366 0 .985.263 1.755.788 2.31.525.555 1.243.832 2.152.832.415 0 .77-.031 1.063-.093.294-.062.605-.164.934-.306v-.832a4.952 4.952 0 0 1-1.964.416c-.628 0-1.116-.187-1.462-.562-.346-.375-.528-.924-.547-1.647h4.236v-.59c0-.832-.224-1.501-.673-2.009-.449-.508-1.059-.762-1.829-.762zm-1.712 2.602c.052-.569.225-1.015.519-1.338.294-.322.687-.483 1.181-.483.486 0 .86.156 1.122.469.262.313.393.763.393 1.352h-3.215zm9.937-2.568l.022.433.039.444h-.073c-.445-.607-1.085-.91-1.919-.91-.8 0-1.425.281-1.874.843-.449.562-.673 1.351-.673 2.366 0 1.015.223 1.798.67 2.349.447.551 1.073.826 1.877.826.857 0 1.5-.313 1.93-.938h.051l.123.826h.757v-8.745h-.931V21.8zm0 3.372c0 .772-.143 1.331-.429 1.678-.286.347-.747.52-1.383.52-.557 0-.98-.2-1.268-.601-.288-.401-.432-.995-.432-1.781 0-.776.145-1.376.435-1.801.29-.425.708-.638 1.254-.638.636 0 1.099.186 1.389.559.29.373.435.996.435 1.869v.195zm8.399-1.681c-.513-.184-.893-.351-1.142-.503-.249-.152-.426-.318-.53-.5-.105-.182-.157-.415-.157-.7 0-.386.142-.687.426-.905.284-.217.679-.326 1.184-.326.64 0 1.298.142 1.975.427l.297-.832a5.547 5.547 0 0 0-2.25-.45c-.782 0-1.41.187-1.885.562-.475.375-.713.879-.713 1.512 0 .603.164 1.092.491 1.467.327.375.872.699 1.635.972.546.195.953.369 1.22.523.267.154.458.321.572.503.114.182.171.415.171.7 0 .431-.161.767-.483 1.009-.322.242-.8.362-1.436.362-.389 0-.782-.041-1.178-.124a5.92 5.92 0 0 1-1.1-.337v.922c.524.251 1.272.377 2.244.377.898 0 1.608-.202 2.132-.607.524-.405.786-.968.786-1.692 0-.562-.162-1.019-.485-1.371-.322-.352-.914-.681-1.774-.989zm5.785 3.889c-.307 0-.548-.099-.724-.298-.176-.199-.264-.483-.264-.854v-3.625h1.784v-.725h-1.784v-1.427h-.539l-.393 1.315-.881.388v.45h.881v3.664c0 1.255.595 1.883 1.784 1.883.157 0 .334-.016.53-.048s.345-.072.446-.121v-.714c-.09.026-.211.052-.365.076a3.05 3.05 0 0 1-.475.036zm4.567-5.614c-.89 0-1.586.28-2.087.84-.501.56-.752 1.342-.752 2.346 0 .648.116 1.214.348 1.697.232.483.561.854.987 1.113.426.259.914.388 1.464.388.89 0 1.588-.282 2.093-.846.505-.564.757-1.348.757-2.352 0-.978-.253-1.753-.76-2.327-.507-.572-1.19-.859-2.05-.859zm1.371 4.988c-.316.41-.779.615-1.389.615s-1.072-.206-1.386-.618c-.314-.412-.471-1.012-.471-1.798 0-.794.155-1.392.466-1.793.31-.401.771-.601 1.38-.601.617 0 1.084.203 1.4.61.316.407.474 1.001.474 1.784 0 .79-.158 1.391-.474 1.801zm4.817-4.662c-.322.217-.597.526-.825.927h-.045l-.107-1.141h-.769v6.159h.931v-3.305c0-.603.177-1.107.53-1.512.354-.405.779-.607 1.276-.607.194 0 .419.028.673.084l.129-.865a3.638 3.638 0 0 0-.735-.067c-.383.001-.736.11-1.058.327zm7.805 2.445c0-.832-.224-1.501-.673-2.009-.449-.508-1.059-.761-1.829-.761-.823 0-1.478.292-1.967.877-.488.584-.732 1.373-.732 2.366 0 .985.263 1.755.788 2.31.526.555 1.243.832 2.152.832.415 0 .77-.031 1.063-.093s.605-.164.934-.306v-.833a4.952 4.952 0 0 1-1.964.416c-.628 0-1.116-.187-1.462-.562-.346-.375-.528-.924-.547-1.647h4.236v-.59zm-4.214-.169c.052-.569.225-1.015.519-1.338.294-.322.687-.483 1.181-.483.486 0 .86.156 1.122.469.262.313.393.763.393 1.352h-3.215z"/></g></svg>