<?xml version="1.0" encoding="utf-8"?>
<!-- Generator: Adobe Illustrator 27.5.0, SVG Export Plug-In . SVG Version: 6.00 Build 0)  -->
<svg version="1.1" id="Layer_1" xmlns="http://www.w3.org/2000/svg" xmlns:xlink="http://www.w3.org/1999/xlink" x="0px" y="0px"
	 width="101px" height="345px" viewBox="0 0 101 345" style="enable-background:new 0 0 101 345;" xml:space="preserve">
<style type="text/css">
	.st0{fill:#7C7C7C;}
	.st1{fill:#41479B;}
	.st2{fill:#F5F5F5;}
	.st3{fill:#FF4B55;}
	.st4{fill:#FAB446;}
	.st5{fill:#73AF00;}
	.st6{fill:#4E4E4E;}
	.st7{fill:#FFFFFF;}
	.st8{fill:#BD0034;}
	.st9{fill:none;}
	.st10{fill:#7C7C7C;stroke:#7C7C7C;stroke-width:0.5;}
</style>
<path class="st0" d="M20.3,116.2l-2.7-3c1-1.2,1.5-2.6,1.5-4.2c0-3.6-2.8-6.5-6.2-6.5s-6.2,2.9-6.2,6.5s2.8,6.5,6.2,6.5
	c1.3,0,2.5-0.4,3.6-1.2l2.7,3c0.3,0.3,0.8,0.3,1.1,0.1l0,0l0,0C20.6,117.1,20.6,116.6,20.3,116.2z M12.8,113.9
	c-2.5,0-4.6-2.1-4.6-4.8c0-2.6,2.1-4.8,4.6-4.8s4.6,2.1,4.6,4.8C17.4,111.7,15.3,113.9,12.8,113.9z"/>
<path class="st1" d="M100.1,16.3h-23c-0.2,0-0.4-0.2-0.4-0.4l0,0V1.1c0-0.2,0.2-0.4,0.4-0.4h23.1c0.2,0,0.4,0.2,0.4,0.4v14.8
	C100.6,16.1,100.4,16.3,100.1,16.3L100.1,16.3z"/>
<path class="st2" d="M100.6,1.1c0-0.2-0.2-0.4-0.4-0.4l0,0h-1.8l-7.6,5v-5h-4.1v5l-7.6-5h-1.8c-0.2,0-0.4,0.2-0.4,0.4l0,0v1.1
	l6.5,4.3h-6.5v4.1h6.5l-6.5,4.3V16c0,0.2,0.2,0.4,0.4,0.4h1.8l7.6-5v5h4.1v-5l7.6,5h1.8c0.2,0,0.4-0.2,0.4-0.4l0,0v-1.1L94,10.5h6.5
	V6.4H94l6.5-4.3C100.6,2.1,100.6,1.1,100.6,1.1z"/>
<g>
	<path class="st3" d="M100.6,7.2H89.9V0.6h-2.5v6.6H76.7v2.5h10.7v6.6h2.5V9.7h10.7C100.6,9.7,100.6,7.2,100.6,7.2z"/>
	<path class="st3" d="M85,10.5l-8.3,5.4c0,0.2,0.2,0.4,0.4,0.4h0.6l8.9-5.8C86.6,10.5,85,10.5,85,10.5z M92.8,10.5h-1.5l8.9,5.8
		c0.2,0,0.4-0.2,0.4-0.4v-0.3L92.8,10.5z M76.7,1.5l7.5,4.9h1.5l-8.8-5.7c-0.1,0.1-0.2,0.2-0.2,0.4C76.7,1.1,76.7,1.5,76.7,1.5z
		 M92.2,6.4l8.4-5.4c0-0.2-0.2-0.3-0.4-0.3h-0.6l-8.9,5.8L92.2,6.4L92.2,6.4z"/>
</g>
<path class="st1" d="M100.1,40.9h-23c-0.2,0-0.4-0.2-0.4-0.4l0,0V25.6c0-0.2,0.2-0.4,0.4-0.4h23c0.2,0,0.4,0.2,0.4,0.4v14.8
	C100.5,40.7,100.4,40.9,100.1,40.9L100.1,40.9z"/>
<path class="st2" d="M88.2,25.2h-0.7l-3.8,2.5v-2.5h-2.1v2.5l-3.8-2.5h-0.7c-0.2,0-0.4,0.2-0.4,0.4l0,0V26l3.3,2.1h-3.3v2.1H80
	l-3.3,2.1v0.3c0,0.2,0.2,0.4,0.4,0.4h0.7l3.8-2.5V33h2.1v-2.5l3.8,2.5h0.7c0.2,0,0.4-0.2,0.4-0.4l0,0v-0.3l-3.3-2.1h3.3v-2.1h-3.3
	l3.3-2.1v-0.3C88.6,25.4,88.4,25.2,88.2,25.2L88.2,25.2z"/>
<g>
	<path class="st3" d="M88.6,28.5h-5.3v-3.3H82v3.3h-5.3v1.2H82V33h1.2v-3.3h5.3C88.6,29.8,88.6,28.5,88.6,28.5z"/>
	<path class="st3" d="M81.2,28.1l-4.3-2.8c-0.1,0.1-0.2,0.2-0.2,0.3l0,0l3.8,2.4C80.5,28.1,81.2,28.1,81.2,28.1z M84.4,28.1l4.1-2.7
		c-0.1-0.1-0.2-0.2-0.3-0.2h-0.1l-4.4,2.9C83.7,28.1,84.4,28.1,84.4,28.1z M80.9,30.2l-4.1,2.7c0,0.1,0.2,0.1,0.3,0.1h0.1l4.4-2.9
		h-0.7C80.9,30.1,80.9,30.2,80.9,30.2z M88.6,32.7l-3.8-2.5H84l4.4,2.8C88.5,32.9,88.6,32.8,88.6,32.7z"/>
</g>
<path class="st2" d="M82.8,35.3l0.3,1l1-0.4c0,0,0.1,0,0.1,0.1l0,0v0.1L83.6,37l0.9,0.5c0.1,0,0.1,0.2,0,0.2l-1.1,0.1l0.2,1.1
	c0,0.1-0.1,0.1-0.2,0.1l-0.7-0.8L82,38.8h-0.1v-0.1l0.2-1.1L81,37.5c-0.1,0-0.1-0.1,0-0.2l0.9-0.5L81.2,36v-0.1h0.1l1,0.4l0.3-1
	C82.6,35.2,82.7,35.2,82.8,35.3L82.8,35.3C82.8,35.2,82.8,35.3,82.8,35.3z M95,28l0.2,0.5l0.5-0.2c0,0,0.1,0,0.1,0.1l-0.3,0.4
	l0.5,0.3v0.1h-0.5l0.1,0.5c0,0,0,0.1-0.1,0L95,29.3l-0.4,0.4h-0.1l0.1-0.5h-0.5l0,0l0,0l0.5-0.3l-0.3-0.4c0,0,0,0,0-0.1l0,0l0,0
	l0.5,0.2L95,28C94.9,28,95,28,95,28L95,28z M91.6,31.8l0.2,0.5l0.5-0.2c0,0,0.1,0,0.1,0.1L92,32.6l0.5,0.3V33H92l0.1,0.5
	c0,0,0,0.1-0.1,0l-0.4-0.4l-0.4,0.4h-0.1l0.1-0.5h-0.5l0,0l0,0l0.5-0.3l-0.3-0.4c0,0,0,0,0-0.1l0,0l0,0l0.5,0.2L91.6,31.8L91.6,31.8
	L91.6,31.8z M98.2,30.2l0.2,0.5l0.5-0.2c0,0,0.1,0,0.1,0.1L98.6,31l0.5,0.3v0.1h-0.5l0.1,0.5c0,0,0,0.1-0.1,0l-0.4-0.4l-0.4,0.4
	h-0.1l0.1-0.5h-0.5l0,0l0,0l0.5-0.3l-0.3-0.4c0,0,0,0,0-0.1l0,0l0,0l0.5,0.2L98.2,30.2C98.1,30.2,98.2,30.2,98.2,30.2L98.2,30.2
	L98.2,30.2z M95,36.8l0.2,0.5l0.5-0.2c0,0,0.1,0,0.1,0.1l-0.3,0.4l0.5,0.3V38h-0.5l0.1,0.5c0,0,0,0.1-0.1,0L95,38.1l-0.4,0.4h-0.1
	l0.1-0.5h-0.5l0,0l0,0l0.5-0.3l-0.3-0.4c0,0,0,0,0-0.1l0,0l0,0l0.5,0.2L95,36.8C94.9,36.7,95,36.7,95,36.8L95,36.8z M96.2,32.7
	l-0.1,0.4h-0.4c-0.1,0-0.1,0.1,0,0.1l0.3,0.2l-0.1,0.4v0.1l0,0l0,0l0.3-0.2l0.3,0.2h0.1l0,0l0,0l-0.1-0.4l0.3-0.2c0,0,0.1,0,0.1-0.1
	s0-0.1-0.1-0.1l0,0h-0.4L96.2,32.7C96.3,32.7,96.2,32.7,96.2,32.7z M100.1,90.5h-23c-0.2,0-0.4-0.2-0.4-0.4l0,0V75.3
	c0-0.2,0.2-0.4,0.4-0.4h23c0.2,0,0.4,0.2,0.4,0.4v14.8C100.5,90.3,100.3,90.5,100.1,90.5L100.1,90.5z"/>
<path class="st3" d="M100.5,76.1H76.7v-0.8c0-0.2,0.2-0.4,0.4-0.4h23c0.2,0,0.4,0.2,0.4,0.4C100.5,75.3,100.5,76.1,100.5,76.1z
	 M76.7,79.7h23.8v1.2H76.7V79.7z M76.7,77.3h23.8v1.2H76.7V77.3z M100.5,83.3H77.1c-0.2,0-0.4-0.2-0.4-0.4l0,0v-0.8h23.8V83.3z
	 M76.7,86.9h23.8v1.2H76.7V86.9z M100.1,90.5h-23c-0.2,0-0.4-0.2-0.4-0.4l0,0v-0.8h23.8v0.8C100.5,90.3,100.3,90.5,100.1,90.5
	L100.1,90.5z M76.7,84.5h23.8v1.2H76.7V84.5z"/>
<path class="st1" d="M87.4,74.9H77.1c-0.2,0-0.4,0.2-0.4,0.4l0,0v7.6c0,0.2,0.2,0.4,0.4,0.4h10.3c0.2,0,0.4-0.2,0.4-0.4l0,0v-7.6
	C87.8,75.1,87.6,74.9,87.4,74.9L87.4,74.9z"/>
<path class="st2" d="M77.9,75.9l0.1,0.3h0.3c0,0,0.1,0,0,0.1L78,76.4l0.1,0.3c0,0,0,0.1-0.1,0l-0.2-0.2l-0.2,0.2h-0.1l0.1-0.3
	l-0.2-0.2c0,0,0,0,0-0.1l0,0h0.3L77.9,75.9C77.8,75.8,77.8,75.8,77.9,75.9z M77.9,77.3l0.1,0.3h0.3c0,0,0.1,0,0,0.1L78,77.8l0.1,0.3
	c0,0,0,0.1-0.1,0L77.8,78l-0.2,0.2h-0.1l0.1-0.3l-0.2-0.2c0,0,0,0,0-0.1l0,0h0.3L77.9,77.3C77.8,77.3,77.8,77.3,77.9,77.3z
	 M77.9,78.7L78,79h0.3c0,0,0.1,0,0,0.1L78,79.2l0.1,0.3c0,0,0,0.1-0.1,0l-0.2-0.2l-0.2,0.2h-0.1l0.1-0.3L77.4,79c0,0,0,0,0-0.1l0,0
	h0.3L77.9,78.7C77.8,78.7,77.8,78.7,77.9,78.7z M77.9,80.1l0.1,0.3h0.3c0,0,0.1,0,0,0.1L78,80.7l0.1,0.3c0,0,0,0.1-0.1,0l-0.2-0.2
	L77.6,81h-0.1l0.1-0.3l-0.2-0.2c0,0,0,0,0-0.1l0,0h0.3L77.9,80.1C77.8,80.1,77.8,80.1,77.9,80.1z M77.9,81.6l0.1,0.3h0.3
	c0,0,0.1,0,0,0.1L78,82.1l0.1,0.3c0,0,0,0.1-0.1,0l-0.2-0.2l-0.2,0.2h-0.1l0.1-0.3l-0.2-0.2c0,0,0,0,0-0.1l0,0h0.3L77.9,81.6
	C77.8,81.5,77.8,81.5,77.9,81.6z M79,76.6l0.1,0.3h0.3c0,0,0.1,0,0,0.1l-0.2,0.2l0.1,0.3c0,0,0,0.1-0.1,0L79,77.3l-0.2,0.2h-0.1
	l0.1-0.3L78.6,77c0,0,0,0,0-0.1l0,0h0.3L79,76.6C78.9,76.5,78.9,76.5,79,76.6z M79,78l0.1,0.3h0.3c0,0,0.1,0,0,0.1l-0.2,0.2l0.1,0.3
	c0,0,0,0.1-0.1,0L79,78.7l-0.2,0.2h-0.1l0.1-0.3l-0.2-0.2c0,0,0,0,0-0.1l0,0h0.3L79,78C78.9,78,78.9,78,79,78z M79,79.4l0.1,0.3h0.3
	c0,0,0.1,0,0,0.1L79.2,80l0.1,0.3c0,0,0,0.1-0.1,0L79,80.1l-0.2,0.2h-0.1l0.1-0.3l-0.2-0.2c0,0,0,0,0-0.1l0,0h0.3L79,79.4
	C78.9,79.4,78.9,79.4,79,79.4z M79,80.8l0.1,0.3h0.3c0,0,0.1,0,0,0.1l-0.2,0.2l0.1,0.3c0,0,0,0.1-0.1,0L79,81.5l-0.2,0.2h-0.1
	l0.1-0.3l-0.2-0.2c0,0,0,0,0-0.1l0,0h0.3L79,80.8C78.9,80.8,78.9,80.8,79,80.8z M80.1,75.9l0.1,0.3h0.3c0,0,0.1,0,0,0.1l-0.2,0.2
	l0.1,0.3c0,0,0,0.1-0.1,0L80,76.5l-0.2,0.2h-0.1l0.1-0.3l-0.2-0.2c0,0,0,0,0-0.1l0,0h0.3L80.1,75.9C80,75.8,80.1,75.8,80.1,75.9z
	 M80.1,77.3l0.1,0.3h0.3c0,0,0.1,0,0,0.1l-0.2,0.2l0.1,0.3c0,0,0,0.1-0.1,0L80,78l-0.2,0.2h-0.1l0.1-0.3l-0.2-0.2c0,0,0,0,0-0.1l0,0
	h0.3L80.1,77.3C80,77.3,80.1,77.3,80.1,77.3z M80.1,78.7l0.1,0.3h0.3c0,0,0.1,0,0,0.1l-0.2,0.2l0.1,0.3c0,0,0,0.1-0.1,0L80,79.4
	l-0.2,0.2h-0.1l0.1-0.3l-0.2-0.2c0,0,0,0,0-0.1l0,0h0.3L80.1,78.7C80,78.7,80.1,78.7,80.1,78.7z M80.1,80.1l0.1,0.3h0.3
	c0,0,0.1,0,0,0.1l-0.2,0.2l0.1,0.3c0,0,0,0.1-0.1,0L80,80.8L79.8,81h-0.1l0.1-0.3l-0.2-0.2c0,0,0,0,0-0.1l0,0h0.3L80.1,80.1
	C80,80.1,80.1,80.1,80.1,80.1z M80.1,81.6l0.1,0.3h0.3c0,0,0.1,0,0,0.1l-0.2,0.2l0.1,0.3c0,0,0,0.1-0.1,0L80,82.2l-0.2,0.2h-0.1
	l0.1-0.3l-0.2-0.2c0,0,0,0,0-0.1l0,0h0.3L80.1,81.6C80,81.5,80.1,81.5,80.1,81.6z M81.2,76.6l0.1,0.3h0.3c0,0,0.1,0,0,0.1l-0.2,0.2
	l0.1,0.3c0,0,0,0.1-0.1,0l-0.2-0.2L81,77.5h-0.1l0.1-0.3L80.8,77c0,0,0,0,0-0.1l0,0h0.3L81.2,76.6C81.1,76.5,81.2,76.5,81.2,76.6z
	 M81.2,78l0.1,0.3h0.3c0,0,0.1,0,0,0.1l-0.2,0.2l0.1,0.3c0,0,0,0.1-0.1,0l-0.2-0.2L81,78.9h-0.1l0.1-0.3l-0.2-0.2c0,0,0,0,0-0.1l0,0
	h0.3L81.2,78C81.1,78,81.2,78,81.2,78z M81.2,79.4l0.1,0.3h0.3c0,0,0.1,0,0,0.1L81.4,80l0.1,0.3c0,0,0,0.1-0.1,0l-0.2-0.2L81,80.3
	h-0.1L81,80l-0.2-0.2c0,0,0,0,0-0.1l0,0h0.3L81.2,79.4C81.1,79.4,81.2,79.4,81.2,79.4z M81.2,80.8l0.1,0.3h0.3c0,0,0.1,0,0,0.1
	l-0.2,0.2l0.1,0.3c0,0,0,0.1-0.1,0l-0.2-0.2L81,81.7h-0.1l0.1-0.3l-0.2-0.2c0,0,0,0,0-0.1l0,0h0.3L81.2,80.8
	C81.1,80.8,81.1,80.8,81.2,80.8L81.2,80.8z M82.3,75.9l0.1,0.3h0.3c0,0,0.1,0,0,0.1l-0.2,0.2l0.1,0.3c0,0,0,0.1-0.1,0l-0.2-0.2
	L82,76.7h-0.1l0.1-0.3l-0.2-0.2c0,0,0,0,0-0.1l0,0h0.3L82.3,75.9C82.2,75.8,82.3,75.8,82.3,75.9z M82.3,77.3l0.1,0.3h0.3
	c0,0,0.1,0,0,0.1l-0.2,0.2l0.1,0.3c0,0,0,0.1-0.1,0L82.2,78L82,78.1h-0.1l0.1-0.3l-0.2-0.2c0,0,0,0,0-0.1l0,0h0.3L82.3,77.3
	C82.2,77.3,82.3,77.3,82.3,77.3z M82.3,78.7l0.1,0.3h0.3c0,0,0.1,0,0,0.1l-0.2,0.2l0.1,0.3c0,0,0,0.1-0.1,0l-0.2-0.2L82,79.5h-0.1
	l0.1-0.3L81.8,79c0,0,0,0,0-0.1l0,0h0.3L82.3,78.7C82.2,78.7,82.3,78.7,82.3,78.7z M82.3,80.1l0.1,0.3h0.3c0,0,0.1,0,0,0.1l-0.2,0.2
	l0.1,0.3c0,0,0,0.1-0.1,0l-0.2-0.2L82,81h-0.1l0.1-0.3l-0.2-0.2c0,0,0,0,0-0.1l0,0h0.3L82.3,80.1C82.2,80.1,82.3,80.1,82.3,80.1z
	 M82.3,81.6l0.1,0.3h0.3c0,0,0.1,0,0,0.1l-0.2,0.2l0.1,0.3c0,0,0,0.1-0.1,0l-0.2-0.2L82,82.4h-0.1l0.1-0.3l-0.2-0.2c0,0,0,0,0-0.1
	l0,0h0.3L82.3,81.6C82.2,81.5,82.3,81.5,82.3,81.6z M83.4,76.6l0.1,0.3h0.3c0,0,0.1,0,0,0.1l-0.2,0.2l0.1,0.3c0,0,0,0.1-0.1,0
	l-0.2-0.2l-0.2,0.2h-0.1l0.1-0.3L83,77c0,0,0,0,0-0.1l0,0h0.3L83.4,76.6C83.3,76.5,83.4,76.5,83.4,76.6z M83.4,78l0.1,0.3h0.3
	c0,0,0.1,0,0,0.1l-0.2,0.2l0.1,0.3c0,0,0,0.1-0.1,0l-0.2-0.2l-0.2,0.2h-0.1l0.1-0.3L83,78.4c0,0,0,0,0-0.1l0,0h0.3L83.4,78
	C83.3,78,83.4,78,83.4,78z M83.4,79.4l0.1,0.3h0.3c0,0,0.1,0,0,0.1L83.6,80l0.1,0.3c0,0,0,0.1-0.1,0l-0.2-0.2l-0.2,0.2h-0.1l0.1-0.3
	L83,79.8c0,0,0,0,0-0.1l0,0h0.3L83.4,79.4C83.3,79.4,83.4,79.4,83.4,79.4z M83.4,80.8l0.1,0.3h0.3c0,0,0.1,0,0,0.1l-0.2,0.2l0.1,0.3
	c0,0,0,0.1-0.1,0l-0.2-0.2l-0.2,0.2h-0.1l0.1-0.3L83,81.2c0,0,0,0,0-0.1l0,0h0.3L83.4,80.8C83.3,80.8,83.4,80.8,83.4,80.8z
	 M84.5,75.9l0.1,0.3h0.3c0,0,0.1,0,0,0.1l-0.2,0.2l0.1,0.3c0,0,0,0.1-0.1,0l-0.2-0.2l-0.2,0.2h-0.1l0.1-0.3L84,76.2c0,0,0,0,0-0.1
	l0,0h0.3L84.5,75.9C84.4,75.8,84.5,75.8,84.5,75.9z M84.5,77.3l0.1,0.3h0.3c0,0,0.1,0,0,0.1l-0.2,0.2l0.1,0.3c0,0,0,0.1-0.1,0
	L84.5,78l-0.2,0.2h-0.1l0.1-0.3L84,77.6c0,0,0,0,0-0.1l0,0h0.3L84.5,77.3C84.4,77.3,84.5,77.3,84.5,77.3z M84.5,78.7l0.1,0.3h0.3
	c0,0,0.1,0,0,0.1l-0.2,0.2l0.1,0.3c0,0,0,0.1-0.1,0l-0.2-0.2l-0.2,0.2h-0.1l0.1-0.3L84,79.1c0,0,0,0,0-0.1l0,0h0.3L84.5,78.7
	C84.4,78.7,84.5,78.7,84.5,78.7z M84.5,80.1l0.1,0.3h0.3c0,0,0.1,0,0,0.1l-0.2,0.2l0.1,0.3c0,0,0,0.1-0.1,0l-0.2-0.2L84.2,81h-0.1
	l0.1-0.3L84,80.5c0,0,0,0,0-0.1l0,0h0.3L84.5,80.1C84.4,80.1,84.5,80.1,84.5,80.1z M84.5,81.6l0.1,0.3h0.3c0,0,0.1,0,0,0.1l-0.2,0.2
	l0.1,0.3c0,0,0,0.1-0.1,0l-0.2-0.2l-0.2,0.2h-0.1l0.1-0.3L84,81.9c0,0,0,0,0-0.1l0,0h0.3L84.5,81.6C84.4,81.5,84.5,81.5,84.5,81.6z
	 M85.6,76.6l0.1,0.3H86c0,0,0.1,0,0,0.1l-0.2,0.2l0.1,0.3c0,0,0,0.1-0.1,0l-0.2-0.2l-0.2,0.2h-0.1l0.1-0.3L85.2,77c0,0,0,0,0-0.1
	l0,0h0.3L85.6,76.6C85.5,76.5,85.6,76.5,85.6,76.6z M85.6,78l0.1,0.3H86c0,0,0.1,0,0,0.1l-0.2,0.2l0.1,0.3c0,0,0,0.1-0.1,0l-0.2-0.2
	l-0.2,0.2h-0.1l0.1-0.3l-0.2-0.2c0,0,0,0,0-0.1l0,0h0.3L85.6,78C85.5,78,85.6,78,85.6,78z M85.6,79.4l0.1,0.3H86c0,0,0.1,0,0,0.1
	L85.8,80l0.1,0.3c0,0,0,0.1-0.1,0l-0.2-0.2l-0.2,0.2h-0.1l0.1-0.3l-0.2-0.2c0,0,0,0,0-0.1l0,0h0.3L85.6,79.4
	C85.5,79.4,85.6,79.4,85.6,79.4z M85.6,80.8l0.1,0.3H86c0,0,0.1,0,0,0.1l-0.2,0.2l0.1,0.3c0,0,0,0.1-0.1,0l-0.2-0.2l-0.2,0.2h-0.1
	l0.1-0.3l-0.2-0.2c0,0,0,0,0-0.1l0,0h0.3L85.6,80.8C85.5,80.8,85.6,80.8,85.6,80.8z M86.7,75.9l0.1,0.3h0.3c0,0,0.1,0,0,0.1
	l-0.2,0.2l0.1,0.3c0,0,0,0.1-0.1,0l-0.2-0.2l-0.2,0.2h-0.1l0.1-0.3l-0.2-0.2c0,0,0,0,0-0.1l0,0h0.3L86.7,75.9
	C86.7,75.8,86.7,75.8,86.7,75.9z M86.7,77.3l0.1,0.3h0.3c0,0,0.1,0,0,0.1l-0.2,0.2l0.1,0.3c0,0,0,0.1-0.1,0L86.7,78l-0.2,0.2h-0.1
	l0.1-0.3l-0.2-0.2c0,0,0,0,0-0.1l0,0h0.3L86.7,77.3L86.7,77.3z M86.7,78.7l0.1,0.3h0.3c0,0,0.1,0,0,0.1l-0.2,0.2l0.1,0.3
	c0,0,0,0.1-0.1,0l-0.2-0.2l-0.2,0.2h-0.1l0.1-0.3l-0.2-0.2c0,0,0,0,0-0.1l0,0h0.3L86.7,78.7L86.7,78.7z M86.7,80.1l0.1,0.3h0.3
	c0,0,0.1,0,0,0.1l-0.2,0.2L87,81c0,0,0,0.1-0.1,0l-0.2-0.2L86.4,81h-0.1l0.1-0.3l-0.2-0.2c0,0,0,0,0-0.1l0,0h0.3L86.7,80.1
	L86.7,80.1z M86.7,81.6l0.1,0.3h0.3c0,0,0.1,0,0,0.1l-0.2,0.2l0.1,0.3c0,0,0,0.1-0.1,0l-0.2-0.2l-0.2,0.2h-0.1l0.1-0.3L86.3,82
	c0,0,0,0,0-0.1l0,0h0.3L86.7,81.6C86.7,81.5,86.7,81.5,86.7,81.6z"/>
<g>
	<path class="st2" d="M100.1,115.1h-23c-0.2,0-0.4-0.2-0.4-0.4l0,0V99.8c0-0.2,0.2-0.4,0.4-0.4h23.1c0.2,0,0.4,0.2,0.4,0.4v14.8
		C100.5,114.9,100.4,115.1,100.1,115.1z"/>
	<path class="st2" d="M82,99.4h13.2v15.7H82V99.4z"/>
</g>
<path class="st3" d="M77.1,99.5c-0.2,0-0.4,0.2-0.4,0.4l0,0v14.8c0,0.2,0.2,0.4,0.4,0.4H82V99.5H77.1z M100.1,99.5h-4.9v15.6h4.9
	c0.2,0,0.4-0.2,0.4-0.4l0,0V99.9C100.6,99.6,100.4,99.5,100.1,99.5L100.1,99.5C100.2,99.5,100.1,99.5,100.1,99.5z M91.1,109.1
	l2.4-1.4l-0.6-0.3c-0.2-0.1-0.2-0.2-0.2-0.4l0.2-1.4l-1,0.3c-0.2,0.1-0.4-0.1-0.5-0.3l0,0l-0.1-0.4l-1,1.1c-0.1,0.2-0.4,0-0.4-0.2
	l0.4-2.4l-0.6,0.2c-0.2,0.1-0.4,0-0.5-0.2l-0.7-1.3l0,0l0,0l0,0l0,0l-0.7,1.3c-0.1,0.2-0.3,0.3-0.5,0.2l-0.6-0.2l0.4,2.4
	c0,0.2-0.2,0.3-0.4,0.2l-1-1.1l-0.1,0.4c0,0.2-0.3,0.4-0.5,0.3l0,0l-1-0.3l0.2,1.4c0,0.2-0.1,0.3-0.2,0.4l-0.6,0.3l2.4,1.4
	c0.3,0.1,0.4,0.5,0.3,0.7l-0.2,0.6l2.1-0.2c0.1,0,0.2,0.1,0.2,0.2l0,0l0,0l-0.1,2.2h0.4l-0.1-2.2c0-0.1,0.1-0.2,0.2-0.2l0,0l2.1,0.2
	l-0.2-0.6C90.8,109.5,90.9,109.2,91.1,109.1L91.1,109.1z"/>
<path class="st4" d="M100.6,128.9H76.7v-4.8c0-0.2,0.2-0.4,0.4-0.4h23.1c0.2,0,0.4,0.2,0.4,0.4C100.6,124.1,100.6,128.9,100.6,128.9
	z"/>
<path class="st5" d="M100.1,139.3h-23c-0.2,0-0.4-0.2-0.4-0.4l0,0v-4.8h23.9v4.8C100.6,139.1,100.4,139.3,100.1,139.3L100.1,139.3z"
	/>
<path class="st2" d="M76.7,128.9h23.9v5.2H76.7V128.9z"/>
<g>
	<path class="st1" d="M88.6,133.7c-1.2,0-2.2-1-2.2-2.2s1-2.2,2.2-2.2s2.2,1,2.2,2.2S89.8,133.7,88.6,133.7z M88.6,129.7
		c-1,0-1.8,0.8-1.8,1.8s0.8,1.8,1.8,1.8s1.8-0.8,1.8-1.8S89.6,129.7,88.6,129.7z"/>
	<circle class="st1" cx="88.6" cy="131.5" r="0.3"/>
	<path class="st1" d="M88.6,131.5l-0.6,0.1l-1.4-0.1v-0.1l1.4-0.1L88.6,131.5L88.6,131.5z M88.6,131.5l0.6,0.1l1.4-0.1v-0.1
		l-1.4-0.1L88.6,131.5L88.6,131.5z"/>
	<path class="st1" d="M88.6,131.5l-0.1-0.6l0.1-1.4h0.1l0.1,1.4L88.6,131.5L88.6,131.5z M88.6,131.5l-0.1,0.6l0.1,1.4h0.1l0.1-1.4
		L88.6,131.5L88.6,131.5z"/>
	<path class="st1" d="M88.6,131.5l-0.5-0.4l-0.9-1l0.1-0.1l1,0.9L88.6,131.5L88.6,131.5L88.6,131.5z"/>
	<path class="st1" d="M88.6,131.5L89,132l1,0.9l0.1-0.1l-0.9-1L88.6,131.5L88.6,131.5L88.6,131.5z"/>
	<path class="st1" d="M88.6,131.5L89,131l1-0.9l0.1,0.1l-0.9,1L88.6,131.5L88.6,131.5L88.6,131.5z"/>
	<path class="st1" d="M88.6,131.5l-0.5,0.4l-0.9,1l0.1,0.1l1-0.9L88.6,131.5L88.6,131.5L88.6,131.5z"/>
	<path class="st1" d="M88.6,131.5l-0.6,0.3l-1.3,0.5v-0.1l1.2-0.6L88.6,131.5L88.6,131.5z M88.6,131.5l0.6-0.2l1.2-0.6v-0.1
		l-1.3,0.5L88.6,131.5L88.6,131.5L88.6,131.5z"/>
	<path class="st1" d="M88.6,131.5l-0.3-0.6l-0.5-1.3h0.1l0.6,1.2L88.6,131.5L88.6,131.5z"/>
	<path class="st1" d="M88.6,131.5l0.2,0.6l0.6,1.2h0.1L89,132L88.6,131.5L88.6,131.5z"/>
	<path class="st1" d="M88.6,131.5l-0.6-0.2l-1.2-0.6v-0.1l1.3,0.5L88.6,131.5L88.6,131.5L88.6,131.5z"/>
	<path class="st1" d="M88.6,131.5l0.6,0.3l1.3,0.5v-0.1l-1.2-0.6L88.6,131.5L88.6,131.5z"/>
	<path class="st1" d="M88.6,131.5l0.2-0.6l0.6-1.2h0.1L89,131L88.6,131.5L88.6,131.5z"/>
	<path class="st1" d="M88.6,131.5l-0.3,0.6l-0.5,1.3h0.1l0.6-1.2L88.6,131.5L88.6,131.5z"/>
</g>
<circle class="st2" cx="88.6" cy="131.5" r="0.3"/>
<circle class="st1" cx="88.6" cy="131.5" r="0.2"/>
<path class="st0" d="M24.6,12.8c0-3.2-1.2-6.3-3.5-8.6c-2.2-2.3-5.3-3.6-8.5-3.5C9.4,0.7,6.4,2,4.1,4.2c-2.3,2.3-3.5,5.4-3.5,8.6
	v5.7c0,3.2,2.8,6.2,6,6.2c0.4,0,1-0.6,1-1v-10c0-0.4-0.6-1-1-1c-1.8,0-2.9,0.7-4,2v-2c0-5.9,5.6-10,10-10c9.1,0,10,9.6,10,10v2
	c-1.1-1.3-2.2-2-4-2c-0.4,0-1,0.6-1,1v10c0,0.4,0.6,1,1,1c3.2,0,6-2.6,6-5.9V13V12.8L24.6,12.8z M5.6,14.6v8c-2.1-0.3-3-1.8-3-4
	S3.4,15,5.6,14.6z M19.6,22.6v-8c2.1,0.3,3,1.8,3,4C22.6,20.9,21.7,22.3,19.6,22.6z"/>
<path class="st0" d="M49.1,88.9L49.1,88.9c-1.6,0-2.9,1.3-2.9,2.9s1.3,2.9,2.9,2.9c1.6,0,2.9-1.3,2.9-2.9
	C51.9,90.2,50.6,88.9,49.1,88.9z M49.1,93.3c-0.8,0-1.5-0.7-1.5-1.5s0.7-1.5,1.5-1.5s1.5,0.7,1.5,1.5C50.6,92.6,49.9,93.3,49.1,93.3
	z"/>
<path class="st0" d="M49.1,68.6c-4.1,0-7.5,3.4-7.5,7.5c0,1.1,0.9,2.1,2,2.1s2-0.9,2-2.1c0-1.9,1.5-3.4,3.4-3.4s3.4,1.5,3.4,3.4
	s-1.5,3.4-3.4,3.4c-1.1,0-2,0.9-2,2.1v3.6c0,1.1,0.9,2.1,2,2.1s2-0.9,2-2.1v-1.8c3.2-0.9,5.5-3.9,5.5-7.3
	C56.6,72,53.2,68.6,49.1,68.6z M49.9,82.5v2.7c0,0.5-0.3,0.9-0.8,0.9s-0.9-0.3-0.9-0.8v-0.1v-3.5c0-0.5,0.4-0.9,0.9-0.9
	c2-0.1,4.7-1.5,4.7-4.7c0-0.8-0.8-4.7-4.7-4.7c-3.3,0-4.6,3.8-4.6,4.6c0,0.5-0.4,0.9-0.9,0.8c-0.4,0-0.8-0.4-0.8-0.8l0,0
	c0-1.8,1.7-6.1,6.4-6.1c4.3,0,6.3,3.9,6.3,6.2C55.4,80.4,51,82.5,49.9,82.5z"/>
<path class="st0" d="M58.6,37.7h-18c-1.6,0-2.9,1.3-2.9,2.9v12.2c0,1.6,1.3,2.9,2.9,2.9h18c1.6,0,2.9-1.3,2.9-2.9V40.6
	C61.6,39,60.3,37.7,58.6,37.7z M58.6,54.3h-18c-0.9,0-1.6-0.7-1.6-1.6V40.6c0-0.9,0.7-1.6,1.6-1.6h18c0.9,0,1.6,0.7,1.6,1.6v12.2
	l0,0C60.2,53.6,59.5,54.3,58.6,54.3z"/>
<path class="st0" d="M52.7,46.5l5.8-5.2c0.3-0.2,0.3-0.7,0.1-0.9l0,0c-0.2-0.3-0.7-0.3-0.9,0l-8,7.2l-1.6-1.4l0,0L48,46.1l-6.4-5.7
	c-0.3-0.2-0.7-0.2-0.9,0.1s-0.2,0.7,0,0.9l0,0l5.9,5.2L40.7,52c-0.3,0.2-0.3,0.7,0,0.9l0,0c0.3,0.3,0.7,0.3,0.9,0l6-5.5l1.6,1.4
	c0.3,0.2,0.6,0.2,0.9,0l1.7-1.5l5.9,5.6c0.1,0.1,0.3,0.2,0.5,0.2c0.4,0,0.7-0.3,0.7-0.6c0-0.2-0.1-0.4-0.2-0.5L52.7,46.5z"/>
<path class="st6" d="M51.6,107.7h-1v7h1V107.7z M47.6,107.7h-1v7h1V107.7z M49.6,107.7h-1v7h1V107.7z M51.6,104.7v-2h-5v2h-3v2h1v10
	h9v-10h1v-2H51.6z M47.6,103.7h3v1h-3V103.7z M52.6,115.7h-7v-9h7V115.7z"/>
<g>
	<path class="st0" d="M8.9,157.6H1.2c-0.4,0-0.7,0.3-0.7,0.6V177c0,0.3,0.3,0.6,0.7,0.6h7.7c0.4,0,0.7-0.3,0.7-0.6v-18.8
		C9.6,157.9,9.3,157.6,8.9,157.6z M7.6,175.6h-5v-1h3v-2h-3v-1h2v-2h-2v-1h3v-2h-3v-1h2v-2h-2v-1h3v-2h-3v-1h5V175.6z"/>
	<path class="st0" d="M22.5,162.6l-4.9-5c0.2,0-5,5-5,5l0.1,1c-0.1,0.1-0.1,0.2-0.1,0.3v13c0,0.3,0.3,0.6,0.6,0.6h3.9H22
		c0.2,0,0.3-0.1,0.4-0.2c0.1-0.1,0.2-0.3,0.2-0.4v-13C22.6,163.9,22.5,162.7,22.5,162.6z M20.6,175.6h-2v-6h-2v6h-2v-10h6V175.6z
		 M14.6,163.6l3-3l3,3H14.6z"/>
</g>
<g>
	<path class="st0" d="M49.6,157.6h-13v20h18v-16L49.6,157.6z M52.6,175.6h-14v-16h8v5h6V175.6z M48.6,162.6v-3l4,3H48.6z"/>
	<rect x="40.6" y="170.6" class="st0" width="10" height="2"/>
	<rect x="40.6" y="166.6" class="st0" width="10" height="2"/>
	<rect x="40.6" y="162.6" class="st0" width="4" height="2"/>
</g>
<path class="st0" d="M84.6,157.6c-0.2-0.1-1.1-0.1-1,0.5c0,0.5,0,1.5,0,1.5h-7l-7.5-1.9c-0.3-0.1-0.5,0.2-0.5,0.4v19
	c0,0.2,0.1,0.4,0.3,0.4l7.7,2h13.6c0.2,0,0.4-0.2,0.4-0.4v-18.5L84.6,157.6z M76.6,177.6l-6-2v-15l6,1V177.6z M84.6,159.6l2,1h-2
	V159.6z M88.6,177.6h-10v-16h10V177.6z"/>
<polygon class="st0" points="75.6,164.6 71.6,163.6 71.6,165.6 75.6,166.6 "/>
<polygon class="st0" points="75.6,172.6 71.6,171.6 71.6,173.6 75.6,174.6 "/>
<polygon class="st0" points="75.6,168.6 71.6,167.6 71.6,169.6 75.6,170.6 "/>
<path class="st0" d="M86.6,163.6h-6v6h6V163.6z M84.6,167.6h-2v-2h2V167.6z"/>
<rect x="80.6" y="170.6" class="st0" width="6" height="2"/>
<rect x="80.6" y="173.6" class="st0" width="6" height="2"/>
<g>
	<path class="st0" d="M11.6,203.7c3.3,0,6-2.6,6-5.9s-2.7-6.1-6-6.1c-3.3,0-6,2.7-6,6C5.6,201,8.2,203.7,11.6,203.7z M11.6,193.7
		c2.3,0,4,1.6,4,4c0,2.4-1.7,4-4,4c-2.3,0-4-1.6-4-4C7.6,195.3,9.2,193.7,11.6,193.7z"/>
	<path class="st0" d="M7.6,206.7h8v-2h-8c-3.9,0-7.1,0.5-7,6.2c0,0.4,0.3,0.8,0.8,0.8h15.2v-2h-14C2.8,207.5,4.7,206.7,7.6,206.7z"
		/>
	<polygon class="st0" points="20.6,206.7 20.6,204.7 18.6,204.7 18.6,206.7 16.6,206.7 16.6,208.7 18.6,208.7 18.6,210.7 
		20.6,210.7 20.6,208.7 22.6,208.7 22.6,206.7 	"/>
</g>
<path class="st0" d="M53.6,191.6h-16l-3,5v15h22v-15L53.6,191.6z M44.6,193.6h2v3h-2V193.6z M44.6,198.6h2v2h-2V198.6z M38.6,193.6
	h4v3h-5.5L38.6,193.6z M46.6,209.6h-2v-2h2V209.6z M54.6,209.6h-6v-4h-6v4h-6v-11h6v4h6v-4h6V209.6z M48.6,196.6v-3h4l2,3H48.6z"/>
<path class="st0" d="M76.6,197.6h-4v2h14v-2h-4.2c0,0,1.5-1.2,1.8-2.8c0.4-1.7-1.4-4.4-4.6-2.2c-3.4-2.4-5.4,0.2-5,2
	C75,196.3,76.6,197.6,76.6,197.6z M78.6,194.6h2c-0.2-2,3.3-1.5,1.8,1.1c0,0-0.3,0.5-1.8,1.9h-1.9c-1.7-1.4-2-2-2-2
	C74.9,192.9,78.8,192.8,78.6,194.6z"/>
<path class="st0" d="M86.6,193.6v2h2v6h-18v-6h2v-2h-4v17h22v-17H86.6z M88.6,208.6h-18v-5h18V208.6z"/>
<g>
	<path class="st0" d="M58.4,127.4H41.5c-1.1,0-2,0.9-2,2v10.2c0,1.1,0.9,2,2,2h4.8l-0.9,2.7h-2.2c-0.4,0-0.7,0.3-0.6,0.7
		c0,0.3,0.3,0.6,0.6,0.6h13.6c0.4,0,0.7-0.3,0.6-0.7c0-0.3-0.3-0.6-0.6-0.6h-2.2l-0.9-2.7h4.8c1.1,0,2-0.9,2-2v-10.2
		C60.4,128.3,59.5,127.4,58.4,127.4z M46.8,144.3l0.9-2.7h4.4l0.9,2.7C53.1,144.3,46.8,144.3,46.8,144.3z M59,139.6
		c0,0.4-0.3,0.7-0.7,0.7H41.5c-0.4,0-0.7-0.3-0.7-0.7v-1.9H59V139.6z M59.1,136.3H40.9v-6.9c0-0.4,0.3-0.7,0.7-0.7h16.8
		c0.4,0,0.7,0.3,0.7,0.7V136.3z"/>
</g>
<polygon class="st0" points="14.6,228.9 3.2,228.9 7,225 6,224 0.5,229.5 6,235 7,234 3.2,230.1 14.6,230.1 14.6,228.9 "/>
<path class="st1" d="M100.2,65.9h-23c-0.2,0-0.4-0.2-0.4-0.4l0,0V50.6c0-0.2,0.2-0.4,0.4-0.4h23c0.2,0,0.4,0.2,0.4,0.4v14.8
	C100.6,65.7,100.4,65.9,100.2,65.9L100.2,65.9z"/>
<path class="st1" d="M76.7,54.7v1.5l2.6-1.5H76.7z M83.6,50.2v2l3.6-2H83.6z M81.7,50.2H78l3.6,2C81.7,52.3,81.7,50.2,81.7,50.2z
	 M76.7,52.5h2.6L76.7,51V52.5z"/>
<path class="st7" d="M88.6,50.2l-4,2.2h-0.9l4-2.2h-0.4l-3.6,2v-2h-0.4v2.7h5.4v-0.4H86l2.6-1.5V50.2L88.6,50.2z M81.7,50.2v2
	l-3.6-2H77l3.7,2.2h-0.9l-3.1-1.7V51l2.6,1.5h-2.6v0.4h5.4v-2.7H81.7z M84.7,54.2h-1.5V57h0.4v-2.1l3.7,2.1h1.3l0,0l-4-2.2h0.9
	l3.1,1.7v-0.2L86,54.7h2.6v-0.4L84.7,54.2L84.7,54.2z M81.5,54.2h-4.8v0.4h2.6l-2.6,1.5v0.7l4-2.2h0.9L77.5,57h0.4l3.7-2.1V57H82
	v-2.7C82.1,54.2,81.5,54.2,81.5,54.2z"/>
<path class="st3" d="M80.7,54.7l-4,2.2l0,0h0.8l4.1-2.3C81.6,54.7,80.7,54.7,80.7,54.7z M76.7,50.7c1,0.5,3.1,1.7,3.1,1.7h0.9
	L77,50.3C77,50.3,76.5,50.4,76.7,50.7z M88.6,50.2h-0.9l-4,2.2h0.9L88.6,50.2z M84.6,54.7l4,2.2v-0.5l-3.1-1.7H84.6z"/>
<path class="st3" d="M82.1,50.2v2.7h-5.4v1.3h5.4V57h1.2v-2.7h5.4V53h-5.4v-2.7L82.1,50.2L82.1,50.2z"/>
<path class="st7" d="M93.2,54.8h0.6l0.2-0.7l0.2,0.7h0.6l-0.5,0.4l0.2,0.7L94,55.5l-0.5,0.4l0.2-0.7C93.8,55.2,93.2,54.8,93.2,54.8z
	"/>
<path class="st3" d="M93.5,54.9H94l0.1-0.5l0.1,0.5h0.4l-0.3,0.3l0.1,0.5l-0.3-0.3l-0.3,0.3l0.1-0.5L93.5,54.9z"/>
<path class="st7" d="M90.6,57.7h0.6l0.2-0.7l0.2,0.7h0.6l-0.5,0.4l0.2,0.7l-0.5-0.4L91,58.8l0.2-0.7L90.6,57.7z"/>
<path class="st3" d="M90.9,57.8h0.4l0.1-0.5l0.1,0.5h0.4l-0.3,0.3l0.1,0.5l-0.3-0.3l-0.3,0.3l0.1-0.5L90.9,57.8L90.9,57.8z"/>
<path class="st7" d="M95.6,57h0.6l0.2-0.6l0.2,0.6h0.6l-0.5,0.4l0.2,0.6l-0.5-0.4L95.8,58l0.2-0.6L95.6,57z"/>
<path class="st3" d="M95.8,57.1h0.4l0.1-0.4l0.1,0.4h0.4l-0.3,0.3l0.1,0.4l-0.3-0.3L96,57.7l0.1-0.4L95.8,57.1z"/>
<path class="st7" d="M93.1,62.3h0.7l0.2-0.8l0.2,0.8H95l-0.6,0.5l0.2,0.8L94,63.1l-0.6,0.5l0.2-0.8L93.1,62.3z"/>
<path class="st8" d="M93.5,62.4H94l0.1-0.5l0.1,0.5h0.5l-0.4,0.3l0.1,0.5L94.1,63l-0.4,0.3l0.1-0.5L93.5,62.4z"/>
<path class="st0" d="M46,232.9L46,232.9c1.4,0,2.5-0.5,3.3-1.3c1.8-1.9,1.5-5.1,1.4-5.4c-0.1-2.3-1.3-3.4-2.2-3.9
	c-0.7-0.4-1.5-0.6-2.5-0.6l0,0c-0.5,0-1.5,0.1-2.5,0.6s-2.1,1.6-2.2,3.9c0,0.3-0.3,3.5,1.4,5.4C43.6,232.4,44.6,232.9,46,232.9
	L46,232.9z M42.9,225.9L42.9,225.9c0.1-3,2.3-2.4,3.2-2.4l0,0c1.1,0,3-0.5,3.2,2.3l0,0c0,0,0.3,2.9-1,4.3c-0.5,0.6-1.2,0.9-2.2,0.9
	l0,0c-0.9,0-1.6-0.3-2.1-0.9C42.6,228.8,42.8,225.9,42.9,225.9z M55.4,238.3L55.4,238.3v-0.1c0-0.9-0.1-2.9-2.1-3.5l0,0
	c-2.1-0.5-3.8-1.6-3.8-1.6c-0.3-0.2-0.7-0.1-0.9,0.1c-0.2,0.3-0.4,0.7-0.1,0.9c0.1,0.1,1.7,1.3,4,1.9c1.1,0.4,1,0.9,1,1.9
	c0,0.4,0.1,1.6,0,1.9c-0.7,0.4-3.1,1.1-7.5,1.1s-6.8-0.7-7.5-1.1c-0.1-0.3,0-0.6,0-1v-1c0-1-0.1-1.5,1-1.9c2.3-0.6,3.9-1.9,4-1.9
	c0.3-0.2,0.1-0.6-0.1-0.9s-0.6-0.3-0.9-0.1c0,0-1.7,1.1-3.8,1.6l0,0c-2,0.6-2,2.7-2.1,3.5v0.1l0,0c0,0.2,0,1.4,0.2,2
	c0,0.1,0.1,0.2,0.2,0.3c0.1,0.1,3.4,2.1,8.9,2.1s8.8-2,8.9-2.1c0.1-0.1,0.2-0.2,0.2-0.3C55.4,239.6,55.4,238.5,55.4,238.3z
	 M19.9,295.6l1-1.7c0.2-0.2,0.1-0.4,0-0.5l-1.6-1.2l0.3-2c0-0.2-0.1-0.4-0.3-0.5l-1.9-0.5l-0.5-1.9c0-0.2-0.3-0.3-0.5-0.3l-2,0.3
	l-1.2-1.6c-0.1-0.2-0.4-0.2-0.6-0.1l-1.7,1l-1.7-1c-0.2-0.1-0.4-0.1-0.6,0.1l-1.2,1.6l-2-0.3c-0.2,0-0.4,0.1-0.5,0.3l-0.5,1.9
	l-1.9,0.5c-0.2,0-0.3,0.3-0.3,0.5l0.3,2l-1.6,1.2c0.1,0.1,0.1,0.4,0.2,0.6l1,1.7l-1,1.7C1,297.6,1,297.8,1.2,298l1.6,1.2l-0.3,2
	c0,0.2,0.1,0.4,0.3,0.5l1.9,0.5l0.5,1.9c0,0.2,0.3,0.3,0.5,0.3l2-0.3l1.2,1.6c0.1,0.1,0.2,0.2,0.3,0.2s0.1,0,0.2-0.1l1.7-1l1.7,1
	c0.2,0.1,0.4,0.1,0.6-0.1l1.2-1.6l2,0.3c0.2,0,0.4-0.1,0.5-0.3l0.5-1.9l1.9-0.5c0.2,0,0.3-0.3,0.3-0.5l-0.3-2l1.6-1.2
	c0.2-0.1,0.2-0.4,0.1-0.6L19.9,295.6L19.9,295.6z M18.5,298.6c-0.1,0.1-0.2,0.2-0.2,0.4l0.3,1.8l-1.8,0.4c-0.2,0-0.3,0.2-0.3,0.3
	l-0.4,1.8l-1.8-0.3c-0.2,0-0.3,0-0.4,0.2l-1.1,1.5l-1.6-1c-0.1,0-0.1-0.1-0.2-0.1c-0.1,0-0.1,0-0.2,0.1l-1.6,1l-1.1-1.5
	C8,303.1,7.9,303,7.7,303l-1.8,0.3l-0.4-1.8c0-0.2-0.2-0.3-0.3-0.3l-1.8-0.4l0.3-1.8c0-0.2,0-0.3-0.2-0.4L2,297.5l1-1.6
	c0.1-0.1,0.1-0.3,0-0.4l-1-1.6l1.5-1.1c0.1-0.1,0.2-0.2,0.2-0.4l-0.3-1.8l1.8-0.4c0.2,0,0.3-0.2,0.3-0.3l0.4-1.8l1.8,0.3
	c0.2,0,0.3,0,0.4-0.2l1.1-1.5l1.6,1c0.1,0.1,0.3,0.1,0.4,0l1.6-1l1.1,1.5c0.1,0.1,0.2,0.2,0.4,0.2l1.8-0.3l0.4,1.8
	c0,0.2,0.2,0.3,0.3,0.3l1.8,0.4l-0.3,1.8c0,0.2,0,0.3,0.2,0.4l1.5,1.1l-1,1.6c-0.1,0.1-0.1,0.3,0,0.4l1,1.6L18.5,298.6z"/>
<path class="st0" d="M13.6,296.1c-0.3-0.3-0.9-0.7-1.7-1l-0.5-0.2v-2.3c0.7,0.1,1.3,0.2,2,0.5l0.5-1.2c-0.8-0.3-1.6-0.5-2.4-0.5v-1
	h-0.8v1.1c-0.8,0.1-1.4,0.3-1.8,0.7c-0.4,0.3-0.7,0.9-0.7,1.4s0.2,1,0.5,1.4s0.8,0.7,1.5,1l0.5,0.2v2.4c-0.4,0-0.9-0.1-1.3-0.2
	c-0.4-0.1-0.9-0.3-1.3-0.4v1.3c0.7,0.3,1.5,0.5,2.6,0.5v1.3h0.8v-1.4c0.8-0.1,1.5-0.3,1.9-0.7c0.4-0.4,0.7-0.9,0.7-1.5
	C14,296.9,13.9,296.5,13.6,296.1L13.6,296.1z M10.6,294.7c-0.4-0.2-0.7-0.3-0.8-0.5c-0.2-0.2-0.2-0.4-0.2-0.6s0.1-0.4,0.3-0.6
	s0.4-0.3,0.8-0.3L10.6,294.7L10.6,294.7z M11.4,298.5v-2c0.4,0.1,0.7,0.3,0.9,0.5s0.3,0.4,0.3,0.6C12.5,298,12.1,298.3,11.4,298.5z"
	/>
<g>
	<path class="st0" d="M1.4,263.9l0.5,0.8l-0.3,0.9c-0.3,1.1,0.1,2.2,1.1,2.8l0.8,0.5l0.2,0.9c0.1,0.8,0.6,1.4,1.3,1.8l-2.2,3.6
		c-0.1,0.2-0.1,0.5,0.2,0.7c0.1,0.1,0.2,0.1,0.3,0.1l2.7-0.4l1,2.5c0.1,0.2,0.4,0.4,0.6,0.3c0.1,0,0.2-0.1,0.2-0.2l3-5.2l0.2-0.1
		l0,0l0.2,0.1l3,5.2c0.1,0.2,0.4,0.3,0.7,0.2c0.1-0.1,0.2-0.1,0.2-0.2l1-2.5l2.7,0.4c0.3,0,0.5-0.1,0.6-0.4c0-0.1,0-0.2-0.1-0.3
		l-2.1-3.6c0.7-0.3,1.2-1,1.4-1.8l0.2-0.9l0.8-0.5c1-0.6,1.4-1.7,1.1-2.8l-0.3-0.9l0.5-0.8c0.6-1,0.4-2.2-0.4-3l-0.7-0.7l0.1-0.9
		c0.1-1.1-0.6-2.1-1.7-2.5l-0.9-0.3l-0.4-0.9c-0.4-0.9-1.2-1.4-2.2-1.4c-0.3,0-0.5,0.1-1.4,0.2c-0.5-0.3-1-1.1-2.2-1.1
		c-1.1,0-1.7,0.7-2.2,1.1c-0.9-0.2-1-0.2-1.4-0.2c-0.9,0-1.8,0.6-2.2,1.4l-0.4,0.9L4,256.9c-1.1,0.3-1.8,1.4-1.7,2.5l0.1,0.9
		L1.7,261C0.9,261.7,0.8,262.9,1.4,263.9z M7.4,276.8l-0.8-2c-0.1-0.2-0.3-0.3-0.5-0.3L4,274.8l1.8-3h0.8l0.6,0.7
		c0.5,0.7,1.3,1,2.1,0.9L7.4,276.8z M15.8,274.5c-0.2,0-0.4,0.1-0.5,0.3l-0.8,2l-1.9-3.3c0.8,0.1,1.6-0.3,2.1-0.9l0.6-0.7h0.8l1.8,3
		C17.9,274.8,15.8,274.5,15.8,274.5z M2.4,261.6l0.7-0.7l0,0c0.2-0.2,0.3-0.4,0.2-0.7l-0.1-1c-0.1-0.7,0.4-1.3,1-1.5l0.9-0.3
		c0.2-0.1,0.4-0.2,0.5-0.5L6,256c0.2-0.5,0.7-0.9,1.3-0.9c0.3,0,1.1,0.2,1.3,0.2l0,0c0.3,0,0.5-0.1,0.8-0.4c0.5-0.5,0.9-0.7,1.4-0.7
		c0.7,0,1.1,0.5,1.6,0.9c0.2,0.2,0.4,0.2,0.6,0.2c1-0.2,1.1-0.2,1.3-0.2c0.6,0,1.1,0.3,1.3,0.9l0.4,0.9c0.1,0.2,0.3,0.4,0.5,0.5
		l0.9,0.3c0.6,0.2,1.1,0.8,1,1.5l-0.1,1c0,0.2,0.1,0.5,0.2,0.7l0.7,0.7c0.5,0.5,0.6,1.2,0.2,1.8l-0.5,0.9c-0.1,0.2-0.2,0.5-0.1,0.7
		l0.3,1c0.2,0.6-0.1,1.3-0.6,1.7l-0.9,0.5c-0.2,0.1-0.4,0.3-0.4,0.6l-0.2,1c-0.1,0.7-0.7,1.2-1.3,1.2h-1c-0.2,0-0.5,0.1-0.6,0.3
		L14,272c-0.3,0.4-0.7,0.6-1.1,0.6c-0.2,0-0.4,0-0.6-0.1l0,0c-0.9-0.4-0.9-0.4-1.1-0.4H11c-0.2,0-0.2,0.1-1.1,0.4
		c-0.2,0.1-0.4,0.1-0.6,0.1c-0.4,0-0.9-0.2-1.1-0.6l-0.6-0.8c-0.1-0.2-0.4-0.3-0.6-0.3c-1.4-0.1-0.8,0-1.1-0.1
		c-0.6-0.1-1.1-0.6-1.2-1.2l-0.2-1c0-0.2-0.2-0.5-0.4-0.6l0,0l-0.9-0.5c-0.6-0.3-0.8-1-0.6-1.7l0.3-1c0.1-0.2,0-0.5-0.1-0.7
		l-0.5-0.9C1.8,262.8,1.9,262.1,2.4,261.6L2.4,261.6z"/>
	<path class="st0" d="M11,270.3c3.7,0,6.8-3.1,6.8-6.8s-3-6.8-6.8-6.8c-1.3,0-2.6,0.4-3.8,1.1c-0.2,0.1-0.3,0.5-0.1,0.7
		s0.4,0.3,0.7,0.1c1-0.6,2.1-1,3.2-1c3.2,0,5.8,2.6,5.8,5.9s-2.6,5.9-5.8,5.9s-5.8-2.6-5.8-5.9c0-0.8,0.2-1.6,0.4-2.1
		c0.1-0.3,0-0.5-0.3-0.6c-0.2-0.1-0.5,0-0.6,0.2c-0.3,0.6-0.5,1.6-0.5,2.5C4.2,267.2,7.2,270.3,11,270.3z"/>
	<path class="st0" d="M5.7,267.7c2.3,2.9,6.6,3.4,9.6,1.1s3.4-6.7,1.1-9.6c-0.8-1-2-1.8-3.2-2.2c-0.3-0.1-0.5,0.1-0.6,0.3
		c-0.1,0.3,0,0.5,0.3,0.6l0,0c1.1,0.4,2.1,1,2.8,1.9c2,2.5,1.6,6.2-0.9,8.2s-6.2,1.6-8.2-0.9l0,0l0,0c-2-2.5-1.6-6.2,0.9-8.2
		c0.6-0.5,1.4-0.9,1.8-1c0.3-0.1,0.4-0.3,0.3-0.6C9.5,257,9.3,256.9,9,257c-0.7,0.2-1.5,0.6-2.2,1.2C3.8,260.5,3.3,264.8,5.7,267.7z
		"/>
</g>
<path class="st0" d="M14.9,262.5l-2.9-0.1l-1-2.9l-1,2.9l-2.9,0.1l2.3,1.9l-0.8,2.9l2.4-1.7l2.4,1.7l-0.8-2.9L14.9,262.5z M11,264.7
	l-1.1,0.8l0.4-1.4l-1.1-0.9h1.4l0.5-1.4l0.5,1.4H13l-1.1,0.9l0.4,1.4L11,264.7z M51.3,262.5l-1.7-0.4l-0.6-5.6l0,0l0,0
	c0-0.2-0.1-0.3-0.2-0.4l0,0l0,0l0,0l0,0l0,0l0,0l0,0l0,0h-7.4c-0.2,0-0.4,0.2-0.4,0.4c0,0.2,0.2,0.4,0.4,0.4h6.9l0.2,9.2l0,0
	l-0.2,2.3H34l0.2-2.4h2.7c0.2,0,0.4-0.2,0.4-0.4c0-0.2-0.2-0.4-0.4-0.4h-2.6l0.5-5.1h4.3c0.2,0,0.4-0.2,0.4-0.4
	c0-0.2-0.2-0.4-0.4-0.4h-4.2l0.2-2.4h4.5c0.2,0,0.4-0.2,0.4-0.4c0-0.2-0.2-0.4-0.4-0.4h-4.9c-0.2,0-0.4,0.1-0.4,0.3l0,0l0,0l0,0l0,0
	l-0.3,2.8h-5c-0.2,0-0.4,0.2-0.4,0.4l0,0l0,0c0,0.2,0.2,0.4,0.4,0.4h5l-0.5,5.1H32c-0.2,0-0.4,0.2-0.4,0.4l0,0l0,0
	c0,0.2,0.2,0.4,0.4,0.4h1.4l-0.3,2.8l0,0l-0.4,4.3l0,0l0,0l0,0l0,0l0,0l0,0l0,0l0,0l0,0l0,0l0,0c0,0.1,0.1,0.1,0.1,0.2l0,0l0.1,0.1
	l0,0l0,0l0,0l0,0l0,0l0,0l0,0l0,0h1.8c0.2,1.5,1.5,2.7,3.1,2.7s2.9-1.2,3.1-2.7h6.6c0.2,1.5,1.5,2.7,3.1,2.7s2.9-1.2,3.1-2.7h1.8
	l0,0l0,0l0,0l0,0l0,0l0,0l0,0l0,0l0,0l0,0l0,0l0,0l0,0l0,0l0,0l0,0l0,0l0,0l0,0l0,0l0,0l0,0l0,0l0,0l0,0l0,0l0,0l0,0l0,0
	c0-0.1,0.3-2.7,0.5-4.3l0,0c0-0.5,0.1-0.9,0.1-1.1C56.7,264.9,54.3,262.5,51.3,262.5L51.3,262.5z M49.5,263.3h1.7l-0.2,2.4h-1.7
	L49.5,263.3z M38,275.3c-1.3,0-2.3-1-2.3-2.2s1-2.2,2.3-2.2s2.3,1,2.3,2.2S39.3,275.3,38,275.3z M50.8,275.3c-1.3,0-2.3-1-2.3-2.2
	s1-2.2,2.3-2.2s2.3,1,2.3,2.2S52.1,275.3,50.8,275.3z M55.3,272.7h-1.5c-0.2-1.5-1.5-2.7-3.1-2.7s-2.9,1.2-3.1,2.7H41
	c-0.2-1.5-1.5-2.7-3.1-2.7s-2.9,1.2-3.1,2.7h-1.4l0.3-3.5h14.7l0,0l0,0l0,0l0,0l0,0l0,0l0,0l0,0l0,0l0,0l0,0l0,0l0,0l0,0l0,0l0,0
	l0,0l0,0l0,0l0,0l0,0l0,0l0,0l0,0l0,0l0,0l0,0l0,0l0,0l0,0l0,0l0.2-2.3h2.1c1.3,0,1.8,0.6,2.4,1.3c0.5,0.6,1,1.2,2,1.3
	C55.6,270.4,55.5,271.5,55.3,272.7L55.3,272.7z M55.8,268.4c-0.6-0.1-1-0.5-1.4-1c-0.6-0.6-1.3-1.4-2.6-1.6l0.2-2.4
	c2.2,0.3,3.8,2.1,3.8,4.4C55.8,267.9,55.8,268.1,55.8,268.4z"/>
<path class="st9" d="M39.5,271.6c-0.8,0-1.5,0.7-1.5,1.5s0.7,1.5,1.5,1.5s1.5-0.7,1.5-1.5C41,272.3,40.3,271.6,39.5,271.6z
	 M39.5,273.8c-0.4,0-0.7-0.3-0.7-0.7c0-0.4,0.3-0.7,0.7-0.7s0.7,0.3,0.7,0.7S39.8,273.8,39.5,273.8z M52.2,271.6
	c-0.8,0-1.5,0.7-1.5,1.5s0.7,1.5,1.5,1.5s1.5-0.7,1.5-1.5C53.7,272.3,53.1,271.6,52.2,271.6z M52.2,273.8c-0.4,0-0.7-0.3-0.7-0.7
	c0-0.4,0.3-0.7,0.7-0.7s0.7,0.3,0.7,0.7S52.6,273.8,52.2,273.8z M34,262.5h-2c-0.2,0-0.4,0.2-0.4,0.4l0,0l0,0c0,0.2,0.2,0.4,0.4,0.4
	h2c0.2,0,0.4-0.2,0.4-0.4S34.2,262.5,34,262.5z"/>
<g>
	<path class="st9" d="M44.9,293.2c1.1-0.6,2.2-1.2,3.2-1.8c1.4-0.9,2.6-1.8,3.4-2.5c1-0.9,1.1-1.3,1.1-1.4c-0.1-0.1-0.8-0.1-2.3,0.4
		c-1.4,0.5-3.1,1.3-4.8,2.3c-0.4,0.2-0.9,0.5-1.3,0.8c-0.2,0.1-0.4,0.2-0.5,0.3C44.3,291.9,44.7,292.5,44.9,293.2z"/>
	<path class="st9" d="M48.4,292.2L48.4,292.2c-1.1,0.7-2.3,1.4-3.5,1.9c-1.4,0.7-2.6,1.2-3.6,1.4c-0.1,0.5-0.5,1-0.9,1.3
		s-1.4,0.3-2.2,0.3c-0.7,0-1.3,0-1.5-0.1h-0.1l0,0c-0.2-0.1-0.3-0.3-0.2-0.5c0.2-0.4,1.3-2.6,2.1-3.1c0.5-0.3,1.1-0.3,1.6-0.2
		c0.7-0.7,1.8-1.5,3-2.4l0,0c0.2-0.1,0.4-0.3,0.6-0.4c-0.4-0.9-0.2-2,0.5-2.9c0.2-0.2,0.2-0.5,0.1-0.8c-0.1-0.2-0.4-0.4-0.8-0.4l0,0
		c-4.6,0-8.6,3.7-9,8.3c-0.2,2.7,0.6,5.2,2.4,7.1c1.8,1.9,4.2,3,6.8,3c5.6,0,9.1-4.2,9.1-8.1C52.8,294.6,51.7,292.3,48.4,292.2z
		 M40.5,288.1c0.9,0,1.6,0.7,1.6,1.6s-0.7,1.6-1.6,1.6c-0.9,0-1.6-0.7-1.6-1.6C38.9,288.8,39.6,288.1,40.5,288.1z M38.5,301.7
		c-0.9,0-1.6-0.7-1.6-1.6s0.7-1.6,1.6-1.6c0.9,0,1.6,0.7,1.6,1.6S39.4,301.7,38.5,301.7z M46.8,294.5c0.2,0,0.4,0.2,0.4,0.4
		s-0.2,0.4-0.4,0.4s-0.4-0.2-0.4-0.4S46.6,294.5,46.8,294.5z M42.4,304c-0.9,0-1.6-0.7-1.6-1.6s0.7-1.6,1.6-1.6
		c0.9,0,1.6,0.7,1.6,1.6S43.3,304,42.4,304z M42.9,299.3c-0.8-0.2-1.4-0.5-1.9-1l0,0c-0.1-0.2-0.1-0.4,0-0.5l0,0
		c0.2-0.1,0.4-0.1,0.6,0c0.8,0.9,2.2,1,3.2,0.7c0.9-0.3,1.5-0.9,1.6-1.6l0,0c0-0.2,0.2-0.4,0.4-0.3c0.2,0,0.4,0.2,0.3,0.4
		c-0.2,1-1,1.9-2.2,2.2C44.3,299.4,43.6,299.5,42.9,299.3z M47.2,303.2c-0.9,0-1.6-0.7-1.6-1.6s0.7-1.6,1.6-1.6
		c0.9,0,1.6,0.7,1.6,1.6C48.7,302.5,48,303.2,47.2,303.2z M50.3,299.3c-0.9,0-1.6-0.7-1.6-1.6s0.7-1.6,1.6-1.6
		c0.9,0,1.6,0.7,1.6,1.6S51.2,299.3,50.3,299.3z"/>
	<path class="st9" d="M40.7,293.7c0.3,0.3,0.5,0.6,0.6,1c0.8-0.2,1.8-0.6,2.9-1.2c-0.2-0.7-0.6-1.3-1.1-1.8
		C42.1,292.4,41.3,293.1,40.7,293.7z"/>
	<path class="st9" d="M38.7,294.1c-0.4,0.2-1,1.3-1.5,2.2c1.1,0,2.3,0,2.7-0.2c0.3-0.2,0.6-0.5,0.6-0.9c0-0.2,0-0.5-0.2-0.7
		C40,294,39.3,293.8,38.7,294.1z"/>
	<path class="st0" d="M46.8,295.3c0.2,0,0.4-0.2,0.4-0.4s-0.2-0.4-0.4-0.4s-0.4,0.2-0.4,0.4S46.6,295.3,46.8,295.3z"/>
	<path class="st0" d="M47.2,297c0-0.2-0.1-0.4-0.3-0.4s-0.4,0.1-0.4,0.3l0,0c-0.1,0.7-0.7,1.3-1.6,1.6c-1,0.3-2.4,0.2-3.2-0.7
		c-0.1-0.2-0.4-0.2-0.6,0l0,0c-0.2,0.1-0.2,0.4,0,0.5l0,0c0.5,0.5,1.1,0.9,1.9,1c0.7,0.1,1.4,0.1,2.1-0.1
		C46.2,298.8,47,298,47.2,297z"/>
	<path class="st0" d="M52.3,293.1c-0.7-0.8-1.7-1.4-2.9-1.6c1.1-0.8,2.1-1.5,2.8-2.2c1.1-1,1.4-1.7,1.1-2.2c-0.3-0.6-1.3-0.6-3,0
		c-1.5,0.5-3.3,1.3-5.1,2.4c-0.3,0.2-0.6,0.4-0.9,0.6c-0.2-0.6-0.1-1.4,0.4-2c0.4-0.5,0.5-1.1,0.2-1.6s-0.8-0.8-1.5-0.8l0,0
		c-2.4,0-4.8,0.9-6.6,2.6c-1.9,1.7-3,4-3.2,6.4c-0.3,2.9,0.7,5.6,2.6,7.7c1.9,2.1,4.6,3.2,7.4,3.2c1.5,0,2.9-0.3,4.2-0.8
		c1.2-0.5,2.2-1.2,3.1-2.1c0.8-0.8,1.5-1.8,1.9-2.9c0.4-1,0.7-2,0.7-3.1C53.6,295.3,53.1,294,52.3,293.1z M44.3,291
		c0.4-0.3,0.9-0.5,1.3-0.8c1.7-1,3.4-1.8,4.8-2.3c1.5-0.5,2.1-0.5,2.3-0.4c0,0.1-0.1,0.5-1.1,1.4c-0.8,0.8-2,1.7-3.4,2.5
		c-1,0.7-2.1,1.3-3.2,1.8c-0.2-0.7-0.6-1.4-1.1-1.9C44,291.2,44.1,291.1,44.3,291z M44.2,293.6c-1.1,0.5-2.1,0.9-2.9,1.2
		c-0.1-0.4-0.3-0.8-0.6-1c0.6-0.6,1.5-1.3,2.5-2C43.6,292.3,44,292.9,44.2,293.6z M43.6,304.9c-2.6,0-5.1-1.1-6.8-3
		c-1.8-1.9-2.6-4.5-2.4-7.1c0.4-4.6,4.5-8.3,9-8.3l0,0c0.4,0,0.7,0.1,0.8,0.4c0.1,0.2,0.1,0.5-0.1,0.8c-0.7,0.9-0.9,2-0.5,2.9
		c-0.2,0.1-0.4,0.3-0.6,0.4l0,0c-1.3,0.8-2.3,1.7-3,2.4c-0.5-0.2-1.1-0.1-1.6,0.2c-0.8,0.5-1.9,2.7-2.1,3.1c-0.1,0.2,0,0.4,0.2,0.5
		l0,0h0.1c0.2,0,0.8,0.1,1.5,0.1c0.8,0,1.8-0.1,2.2-0.3c0.5-0.3,0.8-0.7,0.9-1.3c1-0.3,2.2-0.7,3.6-1.4c1.2-0.6,2.4-1.2,3.5-1.9l0,0
		c3.3,0.1,4.4,2.4,4.4,4.6C52.7,300.7,49.2,304.9,43.6,304.9z M40.5,295.2c0,0.4-0.2,0.7-0.6,0.9c-0.4,0.2-1.6,0.2-2.7,0.2
		c0.5-0.9,1.1-2,1.5-2.2c0.6-0.3,1.3-0.1,1.6,0.4C40.5,294.7,40.5,295,40.5,295.2z"/>
	<path class="st0" d="M40.5,291.2c0.9,0,1.6-0.7,1.6-1.6s-0.7-1.6-1.6-1.6c-0.9,0-1.6,0.7-1.6,1.6S39.6,291.2,40.5,291.2z
		 M40.5,288.8c0.4,0,0.8,0.3,0.8,0.8c0,0.4-0.4,0.8-0.8,0.8c-0.4,0-0.8-0.3-0.8-0.8C39.7,289.2,40,288.8,40.5,288.8z"/>
	<path class="st0" d="M38.5,298.6c-0.9,0-1.6,0.7-1.6,1.6s0.7,1.6,1.6,1.6c0.9,0,1.6-0.7,1.6-1.6C40.1,299.2,39.4,298.6,38.5,298.6z
		 M38.5,300.9c-0.4,0-0.8-0.3-0.8-0.8c0-0.4,0.4-0.8,0.8-0.8c0.4,0,0.8,0.3,0.8,0.8C39.3,300.5,38.9,300.9,38.5,300.9z"/>
	<path class="st0" d="M42.4,300.9c-0.9,0-1.6,0.7-1.6,1.6s0.7,1.6,1.6,1.6c0.9,0,1.6-0.7,1.6-1.6S43.3,300.9,42.4,300.9z
		 M42.4,303.2c-0.4,0-0.8-0.3-0.8-0.8c0-0.4,0.4-0.8,0.8-0.8c0.4,0,0.8,0.4,0.8,0.8C43.2,302.9,42.9,303.2,42.4,303.2z"/>
	<path class="st0" d="M47.2,300.1c-0.9,0-1.6,0.7-1.6,1.6s0.7,1.6,1.6,1.6c0.9,0,1.6-0.7,1.6-1.6C48.7,300.8,48,300.1,47.2,300.1z
		 M47.2,302.5c-0.4,0-0.8-0.3-0.8-0.8c0-0.4,0.4-0.8,0.8-0.8c0.4,0,0.8,0.4,0.8,0.8S47.6,302.5,47.2,302.5z"/>
	<path class="st0" d="M50.3,296.2c-0.9,0-1.6,0.7-1.6,1.6s0.7,1.6,1.6,1.6c0.9,0,1.6-0.7,1.6-1.6S51.2,296.2,50.3,296.2z
		 M50.3,298.6c-0.4,0-0.8-0.3-0.8-0.8c0-0.4,0.4-0.8,0.8-0.8s0.8,0.4,0.8,0.8S50.7,298.6,50.3,298.6z"/>
</g>
<path class="st0" d="M79.1,229.2l-6.9-7.1c-0.1-0.1-0.3-0.2-0.5-0.2s-0.3,0.1-0.4,0.2l-6.8,7.1c-0.2,0.2-0.2,0.4-0.1,0.6
	c0.1,0.2,0.6,0.1,0.9,0.1h5v12.4c0,0.2,0.1,0.3,0.2,0.4c0.1,0.1,0.3,0.2,0.4,0.2h1.7c0.2,0,0.3-0.1,0.4-0.2c0.1-0.1,0.2-0.3,0.2-0.4
	v-12.4h5c0.5,0,0.8,0.1,0.9-0.1C79.3,229.6,79.3,229.4,79.1,229.2z"/>
<path class="st0" d="M99.9,235.1c-0.1-0.2-0.4-0.1-0.9-0.1h-5v-12.4c0-0.2-0.1-0.3-0.2-0.4c-0.1-0.1-0.3-0.2-0.4-0.2h-1.7
	c-0.2,0-0.3,0.1-0.4,0.2c-0.1,0.1-0.2,0.3-0.2,0.4V235h-5c-0.3,0-0.8-0.1-0.9,0.1c-0.1,0.2-0.1,0.5,0.1,0.6l6.8,7.1
	c0.1,0.1,0.3,0.2,0.4,0.2c0.2,0,0.3-0.1,0.5-0.2l6.9-7.1C100,235.5,100,235.3,99.9,235.1z"/>
<g>
	<path class="st0" d="M79.5,255.6l-3-3.9c-0.2-0.3-0.5-0.5-1.3-0.5H64c-1.1,0-2,0.9-2,2v19.9c0,1.1,0.9,2,2,2h14c1.1,0,2-0.9,2-2
		v-16.5C80,255.9,79.5,255.6,79.5,255.6z M75.5,252.6l3,4H77c-1.5,0-1.5-1-1.5-1.5V252.6z M77,273.6H65c-1.4,0.1-1.5-0.4-1.5-1.5
		v-18c0-1.5,1.5-1.5,1.5-1.5h9v4c0,1.1,0.4,1.5,1.5,1.5h3v14C78.6,273.4,78.6,273.6,77,273.6z"/>
	<rect x="72.5" y="263.1" class="st0" width="3" height="1.5"/>
	<path class="st0" d="M68,264.3L68,264.3c0.4,0,0.8-0.4,0.8-0.8v-0.1c1-0.3,1.6-1.2,1.6-2.3c0-1.3-1.1-2.4-2.4-2.4
		c-0.4,0-0.8-0.4-0.8-0.8s0.4-0.8,0.8-0.8h1.6c0.4,0,0.8-0.4,0.8-0.8s-0.4-0.8-0.8-0.8h-0.8c0-0.4-0.4-0.8-0.8-0.8s-0.7,0.3-0.8,0.8
		v0.1c-1,0.3-1.6,1.2-1.6,2.3c0,1.3,1.1,2.4,2.4,2.4c0.4,0,0.8,0.4,0.8,0.8s-0.4,0.8-0.8,0.8h-1.6c-0.4,0-0.8,0.4-0.8,0.8
		s0.4,0.8,0.8,0.8h0.8C67.2,264,67.6,264.3,68,264.3z"/>
	<rect x="66.5" y="266.1" class="st0" width="9" height="1.5"/>
	<rect x="66.5" y="269.1" class="st0" width="9" height="1.5"/>
</g>
<g>
	<path class="st0" d="M99.6,293.6l-2.3-1.4l-1.3-5.7c-0.3-1.5-1.7-2.6-3.2-2.6h-6.6v-1.1c0-0.4-0.4-0.8-0.8-0.8H60.8
		c-0.4,0-0.8,0.4-0.8,0.8V302c0,0.4,0.4,0.8,0.8,0.8h2.6c0.4,1.8,2,3.2,3.9,3.2s3.5-1.4,3.9-3.2h16.1c0.4,1.8,2,3.2,3.9,3.2
		s3.5-1.4,3.9-3.2h4.1c0.4,0,0.8-0.4,0.8-0.8v-7.8C100,294,99.8,293.7,99.6,293.6z M67.3,304.5c-1.3,0-2.4-1.1-2.4-2.4
		s1.1-2.4,2.4-2.4s2.4,1.1,2.4,2.4C69.7,303.4,68.6,304.5,67.3,304.5z M84.5,298.4h-7.2c-0.4,0-0.8,0.4-0.8,0.8l0,0
		c0,0.4,0.4,0.8,0.8,0.8h7.2v1.3H71.2c-0.4-1.8-2-3.2-3.9-3.2s-3.5,1.4-3.9,3.2h-1.8v-4.2h22.9C84.5,297.1,84.5,298.4,84.5,298.4z
		 M84.5,284.8v10.7H61.6v-11.8h22.9V284.8z M92.8,285.6c0.8,0,1.5,0.5,1.7,1.3l1.2,5h-4.8v-6.4h1.9
		C92.8,285.5,92.8,285.6,92.8,285.6z M91.2,304.5c-1.3,0-2.3-1-2.4-2.3c0-0.1,0-0.2,0-0.3c0.1-1.3,1.1-2.3,2.4-2.3s2.4,1.1,2.4,2.4
		C93.6,303.4,92.5,304.5,91.2,304.5z M98.4,295h-2.3c-0.4,0-0.8,0.4-0.8,0.8v2.5c0,0.4,0.4,0.8,0.8,0.8h2.3v2.2h-3.3
		c-0.4-1.8-2-3.2-3.9-3.2s-3.5,1.4-3.9,3.2h-1.2v-15.7h3v7.2c0,0.4,0.4,0.8,0.8,0.8h6.4l2,1.2L98.4,295L98.4,295z M98.4,296.6v0.9
		h-1.5v-0.9H98.4z"/>
	<path class="st0" d="M74,300L74,300h0.7c0.4,0,0.8-0.4,0.8-0.8l0,0c0-0.4-0.4-0.8-0.8-0.8H74c-0.4,0-0.8,0.4-0.8,0.8l0,0
		C73.2,299.6,73.5,300,74,300z"/>
</g>
<path class="st0" d="M44.8,326.3c0.5,0,0.8,0.4,0.8,0.8s-0.4,0.8-0.8,0.8s-0.8-0.4-0.8-0.8S44.3,326.3,44.8,326.3z M47.6,327.1
	c0,0.5,0.4,0.8,0.8,0.8s0.8-0.4,0.8-0.8l0,0c0-0.5-0.4-0.8-0.8-0.8C48,326.3,47.6,326.7,47.6,327.1z M40.2,327.1
	c0,0.5,0.4,0.8,0.8,0.8s0.8-0.4,0.8-0.8l0,0c0-0.5-0.4-0.8-0.8-0.8C40.6,326.3,40.2,326.7,40.2,327.1z M54.6,334.8c1,1,1,2.5,0,3.5
	c-0.5,0.5-1.1,0.7-1.7,0.7s-1.3-0.2-1.7-0.7l-4.5-4.5c-0.1-0.1-0.2-0.2-0.2-0.3l-1-3.2c-0.1-0.4,0.1-0.9,0.5-1c0.1,0,0.3,0,0.5,0
	l3.3,0.9c0.1,0,0.3,0.1,0.4,0.2L54.6,334.8L54.6,334.8z M47.9,332.8l3,3l1.2-1.2l-3-3l-1.7-0.5L47.9,332.8z M53.4,336l-0.2-0.2
	L52,337l0.2,0.2c0.3,0.3,0.8,0.4,1.2,0.1S53.8,336.4,53.4,336C53.5,336,53.4,336,53.4,336L53.4,336z M45.2,335
	c-1.4,0.1-2.9-0.2-4.2-0.7c-0.2-0.1-0.4-0.1-0.6,0l-3.7,1.6l1.3-3c0.1-0.3,0.1-0.6-0.1-0.9c-1.2-1.3-1.8-3-1.8-4.7
	c0-4.2,4-7.7,8.9-7.7s8.9,3.5,8.9,7.7c0,1-0.2,2-0.7,3c-0.2,0.4,0,0.9,0.4,1.1s0.9,0,1.1-0.4c0.6-1.2,0.9-2.5,0.9-3.7
	c0-5.2-4.7-9.3-10.5-9.3s-10.5,4.2-10.5,9.3c0,1.9,0.7,3.8,1.9,5.4l-1.8,4.4c-0.2,0.4,0,0.9,0.4,1.1c0.2,0.1,0.4,0.1,0.6,0L41,336
	c1.5,0.5,3,0.8,4.6,0.7c0.5,0,0.8-0.4,0.8-0.8S45.8,335,45.2,335C45.3,335,45.3,335,45.2,335L45.2,335z"/>
<path class="st0" d="M87,328.3l1-1.7c0.2-0.2,0.1-0.4,0-0.5l-1.6-1.2l0.3-2c0-0.2-0.1-0.4-0.3-0.5l-1.9-0.5L84,320
	c0-0.2-0.3-0.3-0.5-0.3l-2,0.3l-1.2-1.6c-0.1-0.2-0.4-0.2-0.6-0.1l-1.7,1l-1.7-1c-0.2-0.1-0.4-0.1-0.6,0.1l-1.2,1.6l-2-0.3
	c-0.2,0-0.4,0.1-0.5,0.3l-0.5,1.9l-1.9,0.5c-0.2,0-0.3,0.3-0.3,0.5l0.3,2l-1.6,1.2c-0.2,0.1-0.2,0.4-0.1,0.6l1,1.7l-1,1.7
	c-0.1,0.2-0.1,0.4,0.1,0.6l1.6,1.2l-0.3,2c0,0.2,0.1,0.4,0.3,0.5l1.9,0.5l0.5,1.9c0,0.2,0.3,0.3,0.5,0.3l2-0.3l1.2,1.6
	c0.1,0.1,0.2,0.2,0.3,0.2c0.1,0,0.1,0,0.2-0.1l1.7-1l1.7,1c0.2,0.1,0.4,0.1,0.6-0.1l1.2-1.6l2,0.3c0.2,0,0.4-0.1,0.5-0.3l0.5-1.9
	l1.9-0.5c0.2,0,0.3-0.3,0.3-0.5l-0.3-2l1.6-1.2c0.2-0.1,0.2-0.4,0.1-0.6L87,328.3L87,328.3z M85.7,331.3c-0.1,0.1-0.2,0.2-0.2,0.4
	l0.3,1.8l-1.8,0.4c-0.2,0-0.3,0.2-0.3,0.3l-0.4,1.8l-1.8-0.3c-0.2,0-0.3,0-0.4,0.2l-1.1,1.5l-1.6-1c-0.1,0-0.1-0.1-0.2-0.1
	s-0.1,0-0.2,0.1l-1.6,1l-1.1-1.5c-0.1-0.1-0.2-0.2-0.4-0.2L73,336l-0.4-1.8c0-0.2-0.2-0.3-0.3-0.3l-1.8-0.4l0.3-1.8
	c0-0.2,0-0.3-0.2-0.4l-1.5-1.1l1-1.6c0.1-0.1,0.1-0.3,0-0.4l-1-1.6l1.5-1.1c0.1-0.1,0.2-0.2,0.2-0.4l-0.3-1.8l1.8-0.4
	c0.2,0,0.3-0.2,0.3-0.3l0.4-1.8l1.8,0.3c0.2,0,0.3,0,0.4-0.2l1.1-1.5l1.6,1c0.1,0.1,0.3,0.1,0.4,0l1.6-1l1.1,1.5
	c0.1,0.1,0.2,0.2,0.4,0.2l1.8-0.3l0.4,1.8c0,0.2,0.2,0.3,0.3,0.3l1.8,0.4l-0.3,1.8c0,0.2,0,0.3,0.2,0.4l1.5,1.1l-1,1.6
	c-0.1,0.1-0.1,0.3,0,0.4l1,1.6L85.7,331.3z"/>
<g>
	<path class="st0" d="M75.4,332.3v-1c0.6-0.3,1.3-0.9,1.3-1.8c0-0.2,0-0.3,0-0.5h-1.2v-1.2h1c-0.1-0.3-0.1-0.6-0.1-1
		c0-1.5,1.1-2.5,2.7-2.5c0.7,0,1.2,0.1,1.4,0.3l-0.3,1.4c-0.2-0.1-0.6-0.2-1-0.2c-0.9,0-1.1,0.6-1.1,1.1c0,0.3,0,0.6,0.1,0.9h1.6
		v1.2h-1.5c0,0.3,0,0.6-0.1,0.9s-0.3,0.6-0.6,0.9l0,0h3.2v1.5L75.4,332.3L75.4,332.3z"/>
</g>
<g transform="translate(89.904 50.815)">
	<path class="st0" d="M-76.8,31.3c-2.3,0-4.3-1.6-4.7-3.9c-0.1-0.4,0.2-0.8,0.7-0.9h0.1c0.4,0,0.7,0.3,0.8,0.7
		c0.4,1.7,2.1,2.8,3.8,2.5c1.2-0.3,2.2-1.2,2.5-2.5c0.1-0.4,0.5-0.7,0.9-0.7c0.4,0.1,0.7,0.5,0.7,0.9
		C-72.5,29.7-74.5,31.3-76.8,31.3z"/>
	<path class="st0" d="M-69.7,41.8h-14.2c-1.3,0-2.4-1.1-2.4-2.4v-0.1l0.6-13.8c0.1-1.3,1.1-2.3,2.4-2.3h12.9c1.3,0,2.3,1,2.4,2.3
		l0.6,13.8C-67.3,40.6-68.4,41.8-69.7,41.8C-69.6,41.8-69.7,41.8-69.7,41.8L-69.7,41.8z M-83.3,24.8c-0.4,0-0.8,0.4-0.8,0.8
		l-0.6,13.8c0,0.4,0.3,0.8,0.8,0.8l0,0h14.2c0.4,0,0.8-0.4,0.8-0.8l0,0l-0.6-13.8c0-0.4-0.4-0.8-0.8-0.8H-83.3z"/>
	<path class="st0" d="M-72,24h-1.6v-1.4c0-1.8-1.4-3.2-3.2-3.2c-1.8,0-3.2,1.4-3.2,3.2V24h-1.6v-1.4c0-2.7,2.1-4.8,4.8-4.8
		S-72,20-72,22.6l0,0V24z"/>
</g>
<g transform="translate(99 99)">
	<g transform="translate(58.854 58.854)">
		<path class="st0" d="M-144.3,164.1h-7.9c-0.4,0-0.7,0.3-0.7,0.7s0.3,0.7,0.7,0.7h7.9c0.4,0,0.7-0.3,0.7-0.7
			C-143.7,164.4-144,164.1-144.3,164.1z"/>
	</g>
	<g transform="translate(58.854 98.091)">
		<path class="st0" d="M-147,127.5h-5.2c-0.4,0-0.7,0.3-0.7,0.7s0.3,0.7,0.7,0.7h5.2c0.4,0,0.7-0.3,0.7-0.7S-146.6,127.5-147,127.5z
			"/>
	</g>
	<path class="st0" d="M-83.5,219h-11.8c-1.4,0-2.6,1.2-2.6,2.6v13.1c0,0.3,0.1,0.5,0.4,0.6c0.1,0,0.2,0.1,0.3,0.1
		c0.2,0,0.3-0.1,0.4-0.2l3.8-3.1h9.6c1.4,0,2.6-1.2,2.6-2.6v-7.9C-80.9,220.2-82.1,219-83.5,219z M-82.2,229.5
		c0,0.7-0.6,1.3-1.3,1.3h-9.8c-0.2,0-0.3,0.1-0.4,0.2l-2.9,2.4v-11.7c0-0.7,0.6-1.3,1.3-1.3h11.8c0.7,0,1.3,0.6,1.3,1.3V229.5z"/>
	<g transform="translate(78.473 78.473)">
		<path class="st0" d="M-158.1,145.8c-0.4,0-0.7,0.3-0.7,0.7s0.3,0.7,0.7,0.7c0.7,0,1.3,0.6,1.3,1.3v11.1l-2.2-1.8
			c-0.1-0.1-0.3-0.1-0.4-0.1h-9.2c-0.7,0-1.3-0.6-1.3-1.3v-0.7c0-0.4-0.3-0.7-0.7-0.7s-0.7,0.3-0.7,0.7v0.7c0,1.4,1.2,2.6,2.6,2.6h9
			l3.1,2.5c0.3,0.2,0.7,0.2,0.9-0.1c0.1-0.1,0.1-0.3,0.1-0.4v-12.5C-155.4,147-156.6,145.8-158.1,145.8z"/>
	</g>
</g>
<g transform="translate(109.504 68.728)">
	<path class="st0" d="M-51.4-53.5c-1.1-1.1-2.8-1.1-3.8,0l0,0l-1.3,1.3c-1.5-0.9-2.9-2-4.1-3.3c-1.2-1.2-2.3-2.6-3.3-4.1l1.3-1.3
		c1.1-1.1,1.1-2.8,0-3.8l0,0l-2.6-2.6c-0.5-0.5-1.2-0.8-1.9-0.8c-0.7,0-1.4,0.3-1.9,0.8l-1.2,1.2c-1.2,1.3-1.7,3-1.5,4.8
		c0.3,3.4,2.5,7.5,6,10.9c3.4,3.4,7.6,5.7,11,6c0.3,0,0.5,0,0.8,0c1.5,0.1,2.9-0.5,4-1.5l1.2-1.2c0.5-0.5,0.8-1.2,0.8-1.9
		s-0.3-1.4-0.8-1.9L-51.4-53.5z M-50.1-48.4l-1.2,1.2c-0.9,0.8-2.1,1.1-3.3,0.9c-2.9-0.3-6.7-2.3-9.8-5.4c-3.1-3.1-5.2-6.8-5.5-9.8
		c-0.2-1.2,0.1-2.4,0.9-3.3l1.3-1.2c0.4-0.4,0.9-0.4,1.3,0l2.6,2.6c0.4,0.4,0.4,0.9,0,1.3l-1.8,1.8c-0.3,0.3-0.4,0.7-0.1,1.1
		c1.1,1.8,2.4,3.5,3.9,5.1c1.5,1.5,3.2,2.8,5.1,3.9c0.4,0.2,0.8,0.1,1.1-0.1l1.8-1.8c0.4-0.4,0.9-0.4,1.3,0l2.6,2.6
		C-49.8-49.3-49.8-48.7-50.1-48.4L-50.1-48.4L-50.1-48.4z"/>
</g>
<g transform="translate(0.000000,512.000000) scale(0.100000,-0.100000)">
	<path class="st0" d="M113.6,4775.3c-0.9-0.1-3.6-0.4-6.1-0.7c-15.4-1.7-32.5-7.5-46.3-15.7c-17.5-10.5-31.8-24.8-42.3-42.3
		c-8.2-13.7-13.6-29.6-15.8-46.3c-0.7-5.8-0.7-23.3,0-29c3.8-29.1,16.7-53.8,38.4-74c12-11.2,26.9-19.9,43.1-25.2
		c12.8-4.3,23-5.8,37.4-5.8c10.7,0,15.4,0.4,24.8,2.3c32.2,6.6,61,27.3,78.3,56.3c8.2,13.7,13.6,29.6,15.8,46.3
		c0.7,5.8,0.7,23.3,0,29c-2.2,16.8-7.6,32.7-15.8,46.3c-10.5,17.5-24.8,31.8-42.3,42.3c-13.5,8.1-29.7,13.6-45.9,15.7
		C132.9,4775.2,116.5,4775.6,113.6,4775.3z M131.6,4761.1c27.3-2.5,53.6-16.2,71-37c22.8-27.2,30.5-62.6,21.1-96.7
		c-3.6-13.1-10-25.7-18.6-36.7c-1.6-2-2.9-3.6-3.1-3.6s-0.9,2-1.6,4.5c-4,13.3-13.2,27.6-24,37c-6.7,5.9-16,11.6-24.2,14.9l-1.9,0.7
		l1.6,1.2c2.9,2.2,10.1,9.7,11.8,12.4c6.6,10.3,9.5,21.5,8.3,32.9c-1.7,17.1-11.7,31.9-26.9,39.8c-31.5,16.4-69.6-4.3-73.2-39.8
		c-0.9-9.2,0.8-18.9,5-27.1c3.3-6.6,8.8-13.4,14.3-17.5c1.3-0.9,2.3-1.9,2.3-2s-1.5-0.8-3.4-1.6c-12.6-5.1-25.3-15-34.1-26.7
		c-5.1-6.8-10-16.3-12.4-24.3c-0.7-2.4-1.5-4.4-1.6-4.4c-0.4,0-5.7,6.9-8.4,10.9c-2.9,4.4-8.1,14.5-10.2,19.9
		c-3.6,9.3-5.9,20-6.7,31.6c-2.4,33.5,12.7,67.6,39.3,88.8C77.4,4755.3,104.6,4763.6,131.6,4761.1z M131.8,4720.9
		c12-3.4,21.4-12.8,25.1-25c1.6-5.6,1.7-13.5,0.3-19c-4.4-16.2-18.5-27.1-35.2-27.1s-30.8,10.9-35.2,27.1c-1.5,5.5-1.4,13.4,0.3,19
		c4.1,13.9,14.8,23.3,29.8,26.2C119.6,4722.5,128.4,4721.8,131.8,4720.9z M131.6,4634.2c14.5-1.9,27.3-8.3,38.4-19.4
		c8.3-8.3,13.6-16.8,16.9-27.4c1.2-3.8,3.1-12.7,2.8-12.9c0,0-1.5-1.1-3.1-2.4c-14.4-11.2-31.8-18.4-51.2-21.2
		c-5.4-0.8-21.2-0.8-26.7,0c-19.5,2.8-36.8,10-51.2,21.2c-1.7,1.3-3.1,2.4-3.1,2.4c-0.1,0,0.2,1.8,0.6,3.9
		c4.3,24.2,21.6,44.4,45,52.6C110.2,4634.8,120,4635.7,131.6,4634.2z"/>
</g>
<g>
	<path class="st10" d="M25.2,136.2l-4.1-4.5c-0.2-0.2-0.4-0.3-0.7-0.3h-3.6c0,0,0,0-0.1,0v-2.1c0-0.5-0.4-1-1-0.9H1.7
		c-0.5,0-1,0.4-1,0.9V141c0,0.5,0.4,1,1,0.9h1.6c0.1,1.2,1.2,2.1,2.4,2c1.1-0.1,2-0.9,2.1-2h10c0.1,1.2,1.2,2.1,2.4,2
		c1.1-0.1,2-0.9,2.1-2h2.2c0.5,0,1-0.4,1-0.9v-4.1C25.4,136.6,25.3,136.4,25.2,136.2z M23.7,136h-3.4c0,0-0.1,0-0.1-0.1v-1.5
		c0,0,0-0.1,0.1-0.1c0,0,0,0,0,0h1.9L23.7,136z M5.6,143c-0.7,0-1.4-0.6-1.4-1.3c0-0.7,0.6-1.3,1.4-1.3S7,141,7,141.7
		C6.9,142.4,6.3,143,5.6,143 M15.7,141h-8c-0.4-1.2-1.6-1.8-2.8-1.4c-0.7,0.2-1.2,0.7-1.4,1.4H1.7c0,0-0.1,0-0.1-0.1c0,0,0,0,0,0
		v-11.6c0,0,0-0.1,0.1-0.1c0,0,0,0,0,0h13.9c0,0,0.1,0,0.1,0.1c0,0,0,0,0,0L15.7,141L15.7,141z M20.1,143c-0.7,0-1.4-0.6-1.4-1.3
		s0.6-1.3,1.4-1.3s1.4,0.6,1.4,1.3C21.4,142.4,20.8,143,20.1,143 M24.5,141C24.5,141,24.5,141,24.5,141C24.4,141,24.4,141,24.5,141
		l-2.3,0.1c-0.4-1.2-1.6-1.8-2.8-1.4c-0.7,0.2-1.2,0.7-1.4,1.4h-1.3v-8.7c0,0,0-0.1,0.1-0.1h3.6c0,0,0,0,0,0l1,1.1h-1.1
		c-0.5,0-1,0.4-1,0.9v1.5c0,0.5,0.4,1,1,0.9h4.2l0,0L24.5,141z"/>
</g>
</svg>
