<svg width="34" height="20" viewBox="0 0 34 20" fill="none" xmlns="http://www.w3.org/2000/svg">
<g clip-path="url(#clip0_597_866)">
<path d="M17.9504 19.3841C17.4321 19.0099 16.9404 18.5885 16.481 18.1214C14.349 15.9545 13.1749 13.0846 13.1749 10.0407C13.1749 6.16914 15.0554 2.73815 17.9316 0.650757H10.2879V8.14622H3.6841V0.650757H0V19.3841H3.6841V11.8768H10.2879V19.3841H17.9504Z" fill="#F1623A"/>
<path d="M31.7756 15.9792C32.3688 16.1536 33.0301 16.2815 33.7945 16.328L33.4979 20.0001C31.4904 19.8723 29.9963 19.2448 28.7875 18.3963C27.476 19.0935 25.9932 19.477 24.4191 19.477C19.1726 19.477 14.8726 15.1073 14.8726 9.77322C14.8726 4.43914 19.1726 0.00012207 24.4305 0.00012207C29.6884 0.00012207 33.9997 4.3929 33.9997 9.77355C33.9997 12.1209 33.1669 14.2941 31.7756 15.9792ZM24.4191 15.6655C24.8639 15.6655 25.3086 15.6189 25.7193 15.5142C24.5219 14.2245 23.3925 13.1319 21.7386 13.0156L21.9325 9.78478C25.4568 10.052 26.7456 12.1671 28.5363 13.9335C29.5969 12.8643 30.2586 11.3767 30.2586 9.74977C30.2586 6.47269 27.6351 3.79971 24.4188 3.79971C21.2025 3.79971 18.602 6.47269 18.602 9.74977C18.602 13.0268 21.2138 15.6648 24.4188 15.6648L24.4191 15.6655Z" fill="#433A77"/>
</g>
<defs>
<clipPath id="clip0_597_866">
<rect width="34" height="20" fill="white"/>
</clipPath>
</defs>
</svg>
