<svg width="25" height="17" viewBox="0 0 25 17" fill="none" xmlns="http://www.w3.org/2000/svg">
<path d="M24.6 5.89999H0.700012V1.1C0.700012 0.899998 0.900014 0.699997 1.10001 0.699997H24.2C24.4 0.699997 24.6 0.899998 24.6 1.1V5.89999Z" fill="#FAB446"/>
<path d="M24.1 16.3H1.10001C0.900014 16.3 0.700012 16.1 0.700012 15.9V11.1H24.6V15.9C24.6 16.1 24.4 16.3 24.1 16.3Z" fill="#73AF00"/>
<path d="M0.700012 5.89999H24.6V11.1H0.700012V5.89999Z" fill="#F5F5F5"/>
<path d="M12.6 10.7C11.4 10.7 10.4 9.7 10.4 8.5C10.4 7.3 11.4 6.3 12.6 6.3C13.8 6.3 14.8 7.3 14.8 8.5C14.8 9.7 13.8 10.7 12.6 10.7ZM12.6 6.7C11.6 6.7 10.8 7.5 10.8 8.5C10.8 9.5 11.6 10.3 12.6 10.3C13.6 10.3 14.4 9.5 14.4 8.5C14.4 7.5 13.6 6.7 12.6 6.7Z" fill="#41479B"/>
<path d="M12.6 8.8C12.7657 8.8 12.9 8.66569 12.9 8.5C12.9 8.33431 12.7657 8.2 12.6 8.2C12.4344 8.2 12.3 8.33431 12.3 8.5C12.3 8.66569 12.4344 8.8 12.6 8.8Z" fill="#41479B"/>
<path d="M12.6 8.5L12 8.60001L10.6 8.5V8.39999L12 8.3L12.6 8.5ZM12.6 8.5L13.2 8.60001L14.6 8.5V8.39999L13.2 8.3L12.6 8.5Z" fill="#41479B"/>
<path d="M12.6 8.5L12.5 7.89999L12.6 6.5H12.7L12.8 7.89999L12.6 8.5ZM12.6 8.5L12.5 9.10001L12.6 10.5H12.7L12.8 9.10001L12.6 8.5Z" fill="#41479B"/>
<path d="M12.6 8.5L12.1 8.10001L11.2 7.10001L11.3 7L12.3 7.89999L12.6 8.5Z" fill="#41479B"/>
<path d="M12.6 8.5L13 9L14 9.89999L14.1 9.8L13.2 8.8L12.6 8.5Z" fill="#41479B"/>
<path d="M12.6 8.5L13 8L14 7.10001L14.1 7.2L13.2 8.2L12.6 8.5Z" fill="#41479B"/>
<path d="M12.6 8.5L12.1 8.89999L11.2 9.89999L11.3 10L12.3 9.10001L12.6 8.5Z" fill="#41479B"/>
<path d="M12.6 8.5L12 8.8L10.7 9.3V9.2L11.9 8.60001L12.6 8.5ZM12.6 8.5L13.2 8.3L14.4 7.7V7.60001L13.1 8.10001L12.6 8.5Z" fill="#41479B"/>
<path d="M12.6 8.5L12.3 7.89999L11.8 6.60001H11.9L12.5 7.8L12.6 8.5Z" fill="#41479B"/>
<path d="M12.6 8.5L12.8 9.10001L13.4 10.3H13.5L13 9L12.6 8.5Z" fill="#41479B"/>
<path d="M12.6 8.5L12 8.3L10.8 7.7V7.60001L12.1 8.10001L12.6 8.5Z" fill="#41479B"/>
<path d="M12.6 8.5L13.2 8.8L14.5 9.3V9.2L13.3 8.60001L12.6 8.5Z" fill="#41479B"/>
<path d="M12.6 8.5L12.8 7.89999L13.4 6.7H13.5L13 8L12.6 8.5Z" fill="#41479B"/>
<path d="M12.6 8.5L12.3 9.10001L11.8 10.4H11.9L12.5 9.2L12.6 8.5Z" fill="#41479B"/>
<path d="M12.6 8.8C12.7657 8.8 12.9 8.66569 12.9 8.5C12.9 8.33431 12.7657 8.2 12.6 8.2C12.4343 8.2 12.3 8.33431 12.3 8.5C12.3 8.66569 12.4343 8.8 12.6 8.8Z" fill="#F5F5F5"/>
<path d="M12.6 8.7C12.7105 8.7 12.8 8.61046 12.8 8.5C12.8 8.38954 12.7105 8.3 12.6 8.3C12.4896 8.3 12.4 8.38954 12.4 8.5C12.4 8.61046 12.4896 8.7 12.6 8.7Z" fill="#41479B"/>
</svg>
