<svg width="30" height="30" viewBox="0 0 30 30" fill="none" xmlns="http://www.w3.org/2000/svg">
<path d="M13.9738 4.45346C11.8069 3.9735 9.54361 4.1938 7.50996 5.08263C5.4763 5.97145 3.7773 7.48291 2.65772 9.39924C2.60551 9.48865 2.58436 9.59283 2.59759 9.69553C2.61082 9.79822 2.65768 9.89364 2.73085 9.9669L5.77772 13.0138C7.93728 9.66253 10.7196 6.75659 13.9738 4.45346Z" fill="#433A77"/>
<path d="M25.5469 16.0267C26.0268 18.1936 25.8065 20.4569 24.9177 22.4906C24.0289 24.5243 22.5174 26.2233 20.6011 27.3428C20.5117 27.395 20.4075 27.4162 20.3048 27.403C20.2021 27.3897 20.1067 27.3429 20.0334 27.2697L16.9866 24.2228C20.3378 22.0633 23.2438 19.281 25.5469 16.0267Z" fill="#433A77"/>
<path d="M7.47668 22.5238C6.86077 21.9094 6.02632 21.5643 5.15636 21.5643C4.28641 21.5643 3.45196 21.9094 2.83605 22.5238C1.32527 24.0341 0.95402 28.3719 0.937614 28.5556C0.932289 28.6203 0.940467 28.6855 0.961628 28.7468C0.982788 28.8082 1.01647 28.8645 1.06054 28.9122C1.10461 28.9599 1.15811 28.9979 1.21764 29.0238C1.27717 29.0498 1.34143 29.063 1.40636 29.0628C1.41902 29.0628 1.43215 29.0628 1.4448 29.0628C1.62855 29.0478 5.96636 28.6766 7.47668 27.1658C8.0915 26.5498 8.43681 25.7151 8.43681 24.8448C8.43681 23.9745 8.0915 23.1397 7.47668 22.5238Z" fill="#F1623A"/>
<path d="M26.7267 11.0627C28.099 8.02659 28.8912 4.76057 29.0625 1.43315C29.0662 1.36744 29.0561 1.30167 29.0328 1.24013C29.0094 1.17859 28.9734 1.12265 28.927 1.07596C28.8803 1.02924 28.8244 0.992804 28.7628 0.96899C28.7012 0.945175 28.6353 0.93451 28.5693 0.93768C25.2324 1.0929 21.9545 1.87562 18.9075 3.24487L26.7267 11.0627Z" fill="#F1623A"/>
<path d="M18.0131 3.67627C8.76466 8.30518 5.10653 17.1069 5.05966 17.2231C5.02541 17.3084 5.01698 17.4018 5.0354 17.4918C5.05381 17.5818 5.09827 17.6644 5.16325 17.7294L12.2704 24.837C12.3357 24.9024 12.4189 24.9471 12.5095 24.9653C12.6 24.9836 12.694 24.9747 12.7795 24.9397C12.8953 24.8928 21.6543 21.192 26.294 11.9553L18.0131 3.67627ZM16.4062 16.4066C15.85 16.4066 15.3062 16.2416 14.8437 15.9326C14.3812 15.6235 14.0207 15.1843 13.8078 14.6704C13.5949 14.1565 13.5392 13.591 13.6478 13.0454C13.7563 12.4998 14.0241 11.9987 14.4175 11.6053C14.8108 11.212 15.312 10.9441 15.8575 10.8356C16.4031 10.7271 16.9686 10.7828 17.4825 10.9957C17.9964 11.2085 18.4357 11.569 18.7447 12.0315C19.0538 12.4941 19.2187 13.0378 19.2187 13.5941C19.2187 14.34 18.9224 15.0554 18.395 15.5828C17.8675 16.1103 17.1521 16.4066 16.4062 16.4066Z" fill="#F1623A"/>
</svg>
