<svg width="20" height="25" viewBox="0 0 20 25" fill="none" xmlns="http://www.w3.org/2000/svg">
<path d="M10.104 14.115C7.80398 14.115 5.80399 12.515 5.40399 10.215C5.30399 9.81499 5.60398 9.41499 6.10398 9.31499H6.20399C6.60399 9.31499 6.90399 9.61499 7.00399 10.015C7.40399 11.715 9.10399 12.815 10.804 12.515C12.004 12.215 13.004 11.315 13.304 10.015C13.404 9.61499 13.804 9.31499 14.204 9.31499C14.604 9.41499 14.904 9.81499 14.904 10.215C14.404 12.515 12.404 14.115 10.104 14.115Z" fill="#ffffff"/>
<path d="M17.204 24.615H3.00401C1.70401 24.615 0.604004 23.515 0.604004 22.215V22.115L1.20401 8.31498C1.30401 7.01498 2.304 6.01498 3.604 6.01498H16.504C17.804 6.01498 18.804 7.01498 18.904 8.31498L19.504 22.115C19.604 23.415 18.504 24.615 17.204 24.615ZM3.604 7.61498C3.204 7.61498 2.80401 8.01498 2.80401 8.41498L2.20401 22.215C2.20401 22.615 2.50401 23.015 3.00401 23.015H17.204C17.604 23.015 18.004 22.615 18.004 22.215L17.404 8.41498C17.404 8.01498 17.004 7.61498 16.604 7.61498H3.604Z" fill="#ffffff"/>
<path d="M14.904 6.81499H13.304V5.41499C13.304 3.61499 11.904 2.21499 10.104 2.21499C8.30401 2.21499 6.90401 3.61499 6.90401 5.41499V6.81499H5.30402V5.41499C5.30402 2.71499 7.40401 0.61499 10.104 0.61499C12.804 0.61499 14.904 2.81499 14.904 5.41499V6.81499Z" fill="#ffffff"/>
</svg>
