<?xml version="1.0" encoding="UTF-8"?>
<svg xmlns="http://www.w3.org/2000/svg" xmlns:xlink="http://www.w3.org/1999/xlink" width="258px" height="57px" viewBox="0 0 258 57" version="1.1">
<g id="surface1">
<path style="fill-rule:nonzero;fill:rgb(100%,100%,100%);fill-opacity:1;stroke-width:1.5;stroke-linecap:butt;stroke-linejoin:miter;stroke:rgb(0%,0%,0%);stroke-opacity:1;stroke-miterlimit:10;" d="M 329.369807 1.002604 L 0.998683 1.002604 L 0.998683 76.081826 L 329.369807 76.081826 Z M 329.369807 1.002604 " transform="matrix(0.739255,0,0,0.74026,0,0)"/>
<path style=" stroke:none;fill-rule:nonzero;fill:rgb(24.705882%,24.705882%,53.72549%);fill-opacity:1;" d="M 8.140625 8.015625 L 146.75 8.015625 L 138.335938 48.996094 L 8.140625 48.996094 Z M 8.140625 8.015625 "/>
<path style=" stroke:none;fill-rule:nonzero;fill:rgb(94.509804%,38.431373%,23.137255%);fill-opacity:1;" d="M 236.191406 48.992188 L 138.179688 48.992188 L 146.59375 8.023438 L 236.199219 8.023438 L 236.199219 48.992188 Z M 236.191406 48.992188 "/>
<path style=" stroke:none;fill-rule:nonzero;fill:rgb(100%,100%,100%);fill-opacity:1;" d="M 188.109375 41.09375 L 184 41.09375 L 184.621094 38.34375 L 184.546875 38.269531 C 183.75 39.328125 182.75 40.136719 181.570312 40.730469 C 180.371094 41.304688 179.085938 41.601562 177.71875 41.601562 C 175.714844 41.601562 174.25 41.152344 173.316406 40.253906 C 172.386719 39.359375 171.921875 38.128906 171.921875 36.589844 C 171.921875 36.25 171.921875 35.867188 171.949219 35.421875 C 171.972656 34.976562 172.03125 34.585938 172.105469 34.25 L 174.753906 22.171875 L 179.128906 22.171875 L 176.59375 33.84375 C 176.511719 34.164062 176.4375 34.464844 176.378906 34.761719 C 176.3125 35.050781 176.28125 35.332031 176.28125 35.605469 C 176.28125 35.753906 176.28125 35.976562 176.304688 36.28125 C 176.3125 36.582031 176.414062 36.894531 176.59375 37.191406 C 176.769531 37.496094 177.066406 37.761719 177.480469 37.984375 C 177.886719 38.203125 178.5 38.308594 179.320312 38.308594 C 180.140625 38.308594 180.941406 38.128906 181.648438 37.78125 C 182.359375 37.433594 182.980469 36.96875 183.511719 36.414062 C 184.046875 35.851562 184.496094 35.222656 184.867188 34.53125 C 185.21875 33.835938 185.472656 33.140625 185.625 32.429688 L 187.851562 22.1875 L 192.226562 22.1875 L 188.117188 41.105469 Z M 188.109375 41.09375 "/>
<path style=" stroke:none;fill-rule:nonzero;fill:rgb(100%,100%,100%);fill-opacity:1;" d="M 194.289062 22.171875 L 210.230469 22.171875 L 209.496094 25.292969 L 196.40625 38.21875 L 207.65625 38.21875 L 206.925781 41.601562 L 189.757812 41.601562 L 190.476562 38.441406 L 203.546875 25.5625 L 193.515625 25.5625 L 194.289062 22.179688 Z M 194.289062 22.171875 "/>
<path style=" stroke:none;fill-rule:nonzero;fill:rgb(100%,100%,100%);fill-opacity:1;" d="M 213.1875 22.171875 L 228.8125 22.171875 L 228.082031 25.367188 L 215.308594 38.21875 L 226.558594 38.21875 L 225.828125 41.601562 L 208.664062 41.601562 L 209.394531 38.441406 L 222.449219 25.5625 L 212.425781 25.5625 L 213.1875 22.179688 Z M 213.1875 22.171875 "/>
<path style=" stroke:none;fill-rule:nonzero;fill:rgb(100%,100%,100%);fill-opacity:1;" d="M 151.585938 15.449219 L 163.417969 15.449219 C 165.238281 15.449219 166.6875 15.679688 167.75 16.144531 C 168.816406 16.613281 169.621094 17.160156 170.175781 17.789062 C 170.730469 18.417969 171.085938 19.097656 171.226562 19.800781 C 171.382812 20.503906 171.460938 21.097656 171.460938 21.5625 C 171.460938 22.339844 171.34375 23.082031 171.101562 23.777344 C 170.855469 24.472656 170.5 25.101562 170.050781 25.664062 C 169.585938 26.21875 169.03125 26.6875 168.378906 27.054688 C 167.730469 27.425781 167.003906 27.671875 166.207031 27.78125 L 166.207031 27.855469 C 168.949219 28.691406 170.324219 30.511719 170.324219 33.347656 C 170.324219 34.039062 170.183594 34.84375 169.902344 35.785156 C 169.628906 36.722656 169.105469 37.628906 168.34375 38.492188 C 167.589844 39.359375 166.539062 40.09375 165.1875 40.699219 C 163.847656 41.300781 162.117188 41.59375 160.011719 41.59375 L 145.890625 41.59375 Z M 151.503906 37.828125 L 158.394531 37.828125 C 158.800781 37.828125 159.375 37.820312 160.121094 37.796875 C 160.863281 37.769531 161.617188 37.648438 162.390625 37.421875 C 163.167969 37.191406 163.839844 36.789062 164.453125 36.226562 C 165.054688 35.671875 165.410156 34.851562 165.503906 33.777344 C 165.527344 33.460938 165.527344 33.074219 165.480469 32.609375 C 165.453125 32.140625 165.261719 31.691406 164.941406 31.246094 C 164.625 30.800781 164.121094 30.433594 163.449219 30.128906 C 162.777344 29.824219 161.808594 29.675781 160.582031 29.675781 L 153.3125 29.675781 L 151.511719 37.828125 Z M 154.007812 26.382812 L 161.195312 26.382812 C 162.371094 26.382812 163.324219 26.234375 164.039062 25.9375 C 164.757812 25.644531 165.304688 25.289062 165.6875 24.867188 C 166.074219 24.4375 166.332031 23.992188 166.464844 23.519531 C 166.582031 23.042969 166.648438 22.628906 166.648438 22.289062 C 166.648438 22.023438 166.605469 21.710938 166.539062 21.363281 C 166.464844 21.007812 166.289062 20.667969 166 20.34375 C 165.726562 20.015625 165.289062 19.742188 164.726562 19.519531 C 164.167969 19.296875 163.390625 19.195312 162.421875 19.195312 L 155.578125 19.195312 L 154 26.398438 Z M 154.007812 26.382812 "/>
<path style=" stroke:none;fill-rule:nonzero;fill:rgb(100%,100%,100%);fill-opacity:1;" d="M 57.09375 35.382812 C 57.019531 35.738281 56.929688 36.082031 56.839844 36.40625 C 56.753906 36.730469 56.699219 37.042969 56.699219 37.316406 C 56.699219 37.589844 56.765625 37.804688 56.886719 37.953125 C 57.011719 38.101562 57.253906 38.183594 57.609375 38.183594 C 57.867188 38.183594 58.113281 38.152344 58.363281 38.085938 C 58.621094 38.019531 58.867188 37.976562 59.117188 37.945312 L 58.4375 41.0625 C 57.890625 41.195312 57.328125 41.3125 56.78125 41.417969 C 56.21875 41.527344 55.660156 41.585938 55.082031 41.585938 C 54.351562 41.585938 53.742188 41.359375 53.261719 40.90625 C 52.789062 40.457031 52.515625 39.847656 52.480469 39.085938 C 51.613281 39.945312 50.617188 40.582031 49.464844 40.980469 C 48.304688 41.378906 47.113281 41.585938 45.921875 41.585938 C 45.117188 41.585938 44.347656 41.46875 43.617188 41.238281 C 42.882812 41.011719 42.234375 40.683594 41.664062 40.253906 C 41.101562 39.820312 40.652344 39.277344 40.328125 38.621094 C 40 37.960938 39.832031 37.199219 39.832031 36.347656 C 39.832031 35.132812 40.058594 34.117188 40.511719 33.289062 C 40.960938 32.46875 41.566406 31.792969 42.324219 31.261719 C 43.078125 30.726562 43.949219 30.34375 44.933594 30.089844 C 45.914062 29.832031 46.941406 29.667969 48.035156 29.59375 C 49.492188 29.5 50.933594 29.382812 52.332031 29.246094 C 53.109375 29.195312 53.691406 28.9375 54.054688 28.46875 C 54.410156 28.003906 54.601562 27.398438 54.601562 26.664062 C 54.601562 25.730469 54.277344 25.101562 53.617188 24.792969 C 52.960938 24.480469 52.199219 24.316406 51.3125 24.316406 C 50.105469 24.316406 49.070312 24.523438 48.199219 24.945312 C 47.328125 25.359375 46.742188 26.183594 46.441406 27.398438 L 42.367188 27.398438 C 42.597656 26.183594 42.980469 25.167969 43.527344 24.339844 C 44.089844 23.519531 44.769531 22.84375 45.558594 22.328125 C 46.367188 21.808594 47.28125 21.4375 48.296875 21.222656 C 49.316406 21.007812 50.410156 20.898438 51.5625 20.898438 C 53.328125 20.898438 54.699219 21.066406 55.703125 21.414062 C 56.695312 21.761719 57.425781 22.171875 57.890625 22.652344 C 58.355469 23.125 58.636719 23.636719 58.742188 24.148438 C 58.851562 24.664062 58.890625 25.101562 58.890625 25.457031 C 58.890625 26.324219 58.761719 27.308594 58.511719 28.410156 L 57.078125 35.363281 L 57.078125 35.382812 Z M 44.132812 35.6875 C 44.132812 36.160156 44.246094 36.570312 44.457031 36.886719 C 44.671875 37.199219 44.945312 37.449219 45.265625 37.640625 C 45.589844 37.828125 45.96875 37.96875 46.367188 38.058594 C 46.765625 38.144531 47.171875 38.199219 47.570312 38.199219 C 48.628906 38.199219 49.523438 38.027344 50.230469 37.664062 C 50.957031 37.308594 51.546875 36.828125 52.007812 36.222656 C 52.472656 35.613281 52.835938 34.894531 53.109375 34.074219 C 53.375 33.253906 53.582031 32.371094 53.738281 31.429688 L 53.664062 31.355469 C 53.359375 31.660156 52.960938 31.875 52.457031 31.992188 C 51.953125 32.128906 51.46875 32.207031 50.980469 32.269531 C 50.371094 32.320312 49.679688 32.378906 48.886719 32.414062 C 48.101562 32.46875 47.347656 32.601562 46.65625 32.816406 C 45.96875 33.03125 45.375 33.355469 44.878906 33.800781 C 44.386719 34.246094 44.132812 34.875 44.132812 35.671875 Z M 44.132812 35.6875 "/>
<path style=" stroke:none;fill-rule:nonzero;fill:rgb(100%,100%,100%);fill-opacity:1;" d="M 64.523438 22.125 L 68.574219 22.125 L 67.96875 24.945312 L 68.042969 25.019531 C 68.832031 23.949219 69.800781 23.097656 70.976562 22.496094 C 72.144531 21.898438 73.414062 21.59375 74.777344 21.59375 C 76.742188 21.59375 78.191406 22.050781 79.109375 22.992188 C 80.023438 23.925781 80.488281 25.167969 80.488281 26.761719 C 80.488281 27.117188 80.488281 27.515625 80.460938 27.960938 C 80.4375 28.410156 80.386719 28.8125 80.3125 29.160156 L 77.695312 41.582031 L 73.386719 41.582031 L 75.882812 29.582031 C 75.957031 29.253906 76.03125 28.9375 76.089844 28.648438 C 76.15625 28.34375 76.1875 28.054688 76.1875 27.78125 C 76.1875 27.632812 76.1875 27.398438 76.171875 27.085938 C 76.152344 26.773438 76.0625 26.464844 75.882812 26.136719 C 75.714844 25.828125 75.410156 25.5625 74.996094 25.332031 C 74.574219 25.109375 73.984375 24.992188 73.195312 24.992188 C 72.34375 24.992188 71.574219 25.175781 70.902344 25.539062 C 70.230469 25.902344 69.636719 26.351562 69.105469 26.878906 C 68.609375 27.382812 68.167969 28.003906 67.796875 28.738281 C 67.425781 29.476562 67.160156 30.246094 66.984375 31.054688 L 64.789062 41.585938 L 60.476562 41.585938 L 64.53125 22.132812 L 64.507812 22.132812 Z M 64.523438 22.125 "/>
<path style=" stroke:none;fill-rule:nonzero;fill:rgb(100%,100%,100%);fill-opacity:1;" d="M 85.332031 22.125 L 89.375 22.125 L 88.769531 24.945312 L 88.84375 25.019531 C 89.632812 23.949219 90.601562 23.097656 91.777344 22.496094 C 92.945312 21.898438 94.21875 21.59375 95.578125 21.59375 C 97.542969 21.59375 98.984375 22.050781 99.902344 22.992188 C 100.820312 23.925781 101.285156 25.167969 101.285156 26.761719 C 101.285156 27.117188 101.285156 27.515625 101.253906 27.960938 C 101.234375 28.410156 101.183594 28.8125 101.109375 29.160156 L 98.5 41.582031 L 94.195312 41.582031 L 96.6875 29.582031 C 96.761719 29.253906 96.835938 28.9375 96.894531 28.648438 C 96.960938 28.34375 96.992188 28.054688 96.992188 27.78125 C 96.992188 27.632812 96.992188 27.398438 96.96875 27.085938 C 96.945312 26.773438 96.855469 26.464844 96.679688 26.136719 C 96.507812 25.828125 96.207031 25.5625 95.792969 25.332031 C 95.371094 25.109375 94.78125 24.992188 93.988281 24.992188 C 93.125 24.992188 92.371094 25.175781 91.703125 25.539062 C 91.039062 25.902344 90.441406 26.351562 89.902344 26.878906 C 89.40625 27.382812 88.960938 28.003906 88.59375 28.738281 C 88.238281 29.476562 87.957031 30.246094 87.785156 31.054688 L 85.597656 41.585938 L 81.296875 41.585938 L 85.339844 22.132812 Z M 85.332031 22.125 "/>
<path style=" stroke:none;fill-rule:nonzero;fill:rgb(100%,100%,100%);fill-opacity:1;" d="M 121.421875 34.976562 C 120.714844 37.285156 119.507812 38.96875 117.828125 40.019531 C 116.152344 41.070312 114.074219 41.585938 111.597656 41.585938 C 110.3125 41.585938 109.121094 41.394531 108.035156 41.003906 C 106.941406 40.609375 106.007812 40.039062 105.21875 39.292969 C 104.425781 38.546875 103.796875 37.640625 103.363281 36.589844 C 102.910156 35.539062 102.699219 34.347656 102.699219 33 C 102.699219 31.484375 102.941406 29.996094 103.453125 28.558594 C 103.945312 27.117188 104.679688 25.820312 105.632812 24.6875 C 106.585938 23.546875 107.785156 22.628906 109.1875 21.933594 C 110.59375 21.238281 112.203125 20.882812 114.015625 20.882812 C 115.828125 20.882812 117.296875 21.179688 118.4375 21.761719 C 119.558594 22.347656 120.445312 23.089844 121.082031 23.960938 C 121.710938 24.851562 122.140625 25.828125 122.367188 26.886719 C 122.589844 27.945312 122.707031 28.964844 122.707031 29.929688 C 122.707031 30.402344 122.6875 30.847656 122.628906 31.253906 C 122.570312 31.667969 122.515625 32.03125 122.472656 32.355469 L 107.28125 32.355469 C 107.257812 32.476562 107.238281 32.59375 107.222656 32.691406 C 107.207031 32.785156 107.199219 32.898438 107.199219 32.992188 L 107.199219 33.601562 C 107.199219 34.960938 107.570312 36.074219 108.324219 36.902344 C 109.078125 37.738281 110.3125 38.160156 112.050781 38.160156 C 113.253906 38.160156 114.296875 37.886719 115.167969 37.359375 C 116.035156 36.828125 116.632812 36.027344 116.933594 34.960938 L 121.4375 34.960938 L 121.429688 34.960938 Z M 118.148438 29.507812 C 118.167969 29.386719 118.191406 29.277344 118.191406 29.179688 L 118.191406 28.277344 C 118.191406 27.117188 117.808594 26.167969 117.046875 25.421875 C 116.285156 24.671875 115.234375 24.300781 113.898438 24.300781 C 112.21875 24.300781 110.875 24.792969 109.867188 25.769531 C 108.863281 26.746094 108.144531 27.988281 107.695312 29.507812 Z M 118.148438 29.507812 "/>
<path style=" stroke:none;fill-rule:nonzero;fill:rgb(100%,100%,100%);fill-opacity:1;" d="M 126.753906 22.140625 L 130.839844 22.140625 L 130.042969 25.9375 L 130.117188 26.011719 C 130.417969 25.488281 130.796875 24.960938 131.238281 24.4375 C 131.683594 23.910156 132.164062 23.4375 132.695312 23.023438 C 133.222656 22.613281 133.796875 22.273438 134.410156 22 C 135.023438 21.742188 135.683594 21.601562 136.363281 21.601562 C 136.71875 21.601562 137.066406 21.601562 137.398438 21.621094 C 137.746094 21.628906 138.085938 21.667969 138.433594 21.71875 L 137.53125 25.820312 C 137.28125 25.769531 137.019531 25.730469 136.777344 25.714844 C 136.527344 25.695312 136.265625 25.6875 136.023438 25.6875 C 134.914062 25.6875 133.953125 25.878906 133.132812 26.265625 C 132.3125 26.664062 131.625 27.191406 131.054688 27.863281 C 130.492188 28.535156 130.027344 29.320312 129.671875 30.203125 C 129.316406 31.082031 129.042969 32.007812 128.84375 32.980469 L 127.035156 41.59375 L 122.722656 41.59375 L 126.765625 22.15625 Z M 126.753906 22.140625 "/>
<path style=" stroke:none;fill-rule:nonzero;fill:rgb(100%,100%,100%);fill-opacity:1;" d="M 21.097656 15.472656 L 32.675781 15.472656 C 34.449219 15.472656 35.867188 15.699219 36.910156 16.167969 C 37.953125 16.632812 38.746094 17.179688 39.285156 17.8125 C 39.824219 18.441406 40.171875 19.113281 40.3125 19.824219 C 40.46875 20.527344 40.539062 21.121094 40.539062 21.585938 C 40.539062 22.363281 40.421875 23.101562 40.1875 23.800781 C 39.949219 24.496094 39.601562 25.125 39.160156 25.6875 C 38.699219 26.242188 38.160156 26.707031 37.523438 27.078125 C 36.890625 27.449219 36.179688 27.691406 35.402344 27.804688 L 35.402344 27.878906 C 38.085938 28.707031 39.433594 30.535156 39.433594 33.363281 C 39.433594 34.042969 39.292969 34.859375 39.019531 35.800781 C 38.746094 36.738281 38.226562 37.640625 37.488281 38.507812 C 36.75 39.375 35.722656 40.105469 34.398438 40.707031 C 33.089844 41.304688 31.394531 41.601562 29.339844 41.601562 L 15.53125 41.601562 L 21.097656 15.484375 Z M 21.023438 37.847656 L 27.757812 37.847656 C 28.160156 37.847656 28.71875 37.84375 29.453125 37.820312 C 30.175781 37.789062 30.914062 37.671875 31.667969 37.441406 C 32.417969 37.210938 33.089844 36.8125 33.6875 36.25 C 34.273438 35.695312 34.621094 34.875 34.714844 33.800781 C 34.738281 33.480469 34.738281 33.097656 34.691406 32.628906 C 34.664062 32.164062 34.480469 31.710938 34.160156 31.269531 C 33.851562 30.824219 33.363281 30.453125 32.695312 30.152344 C 32.039062 29.847656 31.09375 29.699219 29.894531 29.699219 L 22.792969 29.699219 Z M 23.472656 26.40625 L 30.5 26.40625 C 31.648438 26.40625 32.578125 26.257812 33.289062 25.960938 C 33.992188 25.664062 34.523438 25.308594 34.898438 24.886719 C 35.277344 24.457031 35.527344 24.015625 35.660156 23.539062 C 35.78125 23.066406 35.847656 22.652344 35.847656 22.3125 C 35.847656 22.046875 35.800781 21.734375 35.734375 21.386719 C 35.660156 21.03125 35.484375 20.691406 35.203125 20.363281 C 34.929688 20.039062 34.507812 19.765625 33.960938 19.542969 C 33.40625 19.320312 32.652344 19.21875 31.707031 19.21875 L 25.015625 19.21875 L 23.480469 26.417969 Z M 23.472656 26.40625 "/>
<path style=" stroke:none;fill-rule:nonzero;fill:rgb(15.294118%,13.72549%,13.72549%);fill-opacity:1;" d="M 249.808594 6.027344 L 248.9375 6.027344 L 248.9375 1.480469 L 247.390625 1.480469 L 247.390625 0.742188 L 251.347656 0.742188 L 251.347656 1.480469 L 249.800781 1.480469 L 249.800781 6.027344 Z M 254.4375 6.027344 L 252.921875 1.613281 L 252.890625 1.613281 C 252.890625 1.710938 252.90625 1.851562 252.914062 2.019531 C 252.921875 2.191406 252.929688 2.375 252.9375 2.570312 C 252.945312 2.761719 252.949219 2.953125 252.949219 3.132812 L 252.949219 6.03125 L 252.160156 6.03125 L 252.160156 0.742188 L 253.378906 0.742188 L 254.84375 4.960938 L 254.867188 4.960938 L 256.382812 0.742188 L 257.59375 0.742188 L 257.59375 6.027344 L 256.765625 6.027344 L 256.765625 3.085938 C 256.765625 2.925781 256.765625 2.753906 256.765625 2.5625 C 256.773438 2.375 256.78125 2.199219 256.789062 2.027344 C 256.796875 1.859375 256.800781 1.726562 256.808594 1.621094 L 256.78125 1.621094 L 255.207031 6.027344 Z M 254.4375 6.027344 "/>
</g>
</svg>
