<svg width="20" height="14" viewBox="0 0 20 14" fill="none" xmlns="http://www.w3.org/2000/svg">
<path d="M19.6551 13.1035H0.344843C0.253388 13.1034 0.165682 13.0671 0.101014 13.0024C0.0363453 12.9378 1.03579e-05 12.8501 0 12.7586L0 0.344843C1.03579e-05 0.253388 0.0363453 0.165682 0.101014 0.101014C0.165682 0.0363452 0.253388 1.03579e-05 0.344843 0H19.6552C19.7466 1.03579e-05 19.8343 0.0363452 19.899 0.101014C19.9637 0.165682 20 0.253388 20 0.344843V12.7586C20 12.8501 19.9636 12.9378 19.899 13.0024C19.8343 13.0671 19.7466 13.1034 19.6551 13.1035Z" fill="#41479B"/>
<path d="M9.65516 3.05176e-05H9.05617L5.86203 2.09277V3.05176e-05H4.13789V2.09277L0.94375 3.05176e-05H0.344844C0.253392 3.0517e-05 0.165686 0.0363567 0.101016 0.101019C0.0363466 0.165681 1.03593e-05 0.253384 0 0.344835L0 0.618351L2.74043 2.41378H0V4.13792H2.74043L0 5.93339V6.20691C1.03579e-05 6.29836 0.0363453 6.38607 0.101014 6.45074C0.165682 6.5154 0.253389 6.55174 0.344844 6.55175H0.943828L4.13797 4.45902V6.55175H5.86211V4.45902L9.05621 6.55175H9.6552C9.74665 6.55174 9.83436 6.5154 9.89903 6.45074C9.96369 6.38607 10 6.29836 10 6.20691V5.93339L7.25961 4.13796H10V2.41382H7.25957L10 0.61839V0.344874C10 0.253416 9.96367 0.165704 9.899 0.101033C9.83433 0.0363622 9.74662 3.05176e-05 9.65516 3.05176e-05Z" fill="#F5F5F5"/>
<path d="M10 2.75866H5.51723V3.05176e-05H4.48277V2.75866H0V3.79312H4.48277V6.55175H5.51723V3.79312H10V2.75866Z" fill="#FF4B55"/>
<path d="M3.79309 2.41382L0.164336 0.0583116C0.0677734 0.119405 0 0.222101 0 0.344835V0.362726L3.15973 2.41382H3.79309ZM6.49543 2.41382L9.94754 0.17296C9.88754 0.0714369 9.78168 3.05176e-05 9.65516 3.05176e-05H9.58059L5.86207 2.41382H6.49543ZM3.49508 4.13796L0.0495703 6.37452C0.108984 6.47851 0.216484 6.55175 0.344844 6.55175H0.409883L4.12848 4.13796H3.49508ZM9.99453 6.23398L6.76539 4.13796H6.13203L9.79898 6.51823C9.90883 6.46726 9.98418 6.36042 9.99453 6.23398ZM15.4482 10.9312C15.4342 10.9312 15.4201 10.9268 15.4081 10.9184L15 10.6267L14.5918 10.9184C14.58 10.9268 14.5659 10.9313 14.5514 10.9312C14.5369 10.9312 14.5228 10.9265 14.5111 10.918C14.4994 10.9095 14.4906 10.8975 14.4861 10.8837C14.4816 10.8699 14.4815 10.8551 14.4859 10.8412L14.6373 10.363L14.2339 10.0654C14.2223 10.0568 14.2136 10.0448 14.2092 10.031C14.2048 10.0172 14.2048 10.0024 14.2092 9.98862C14.2137 9.97484 14.2224 9.96281 14.2341 9.95423C14.2458 9.94565 14.2598 9.94096 14.2743 9.94081L14.7759 9.93675L14.9346 9.46093C14.944 9.433 14.9704 9.41378 15.0001 9.41378C15.0297 9.41378 15.0562 9.43296 15.0656 9.46093L15.2242 9.93675L15.7258 9.94081C15.7556 9.94116 15.7817 9.96034 15.791 9.98862C15.7954 10.0024 15.7954 10.0172 15.791 10.031C15.7865 10.0448 15.7779 10.0568 15.7662 10.0654L15.3629 10.363L15.5142 10.8412C15.5185 10.8551 15.5184 10.8699 15.5139 10.8837C15.5094 10.8974 15.5006 10.9094 15.4889 10.918C15.4767 10.9268 15.4624 10.9312 15.4482 10.9312Z" fill="#FF4B55"/>
<path d="M15 9.48275L15.1742 10.0053L15.7251 10.0096L15.2819 10.3368L15.4481 10.862L15 10.5417L14.5518 10.8621L14.718 10.3369L14.2748 10.0097L14.8257 10.0054L15 9.48275ZM15 9.34482C14.971 9.34482 14.9428 9.35393 14.9193 9.37085C14.8958 9.38778 14.8783 9.41166 14.8691 9.43912L14.726 9.86818L14.2738 9.87169C14.2448 9.87188 14.2166 9.88118 14.1932 9.89828C14.1699 9.91538 14.1525 9.93941 14.1435 9.96696C14.1345 9.99451 14.1345 10.0242 14.1434 10.0518C14.1522 10.0793 14.1695 10.1034 14.1929 10.1206L14.5567 10.3893L14.4203 10.8205C14.4116 10.8481 14.4118 10.8777 14.4208 10.9052C14.4299 10.9327 14.4474 10.9566 14.4708 10.9736C14.4942 10.9906 14.5224 10.9998 14.5513 11C14.5802 11.0001 14.6085 10.9911 14.632 10.9743L15 10.7113L15.368 10.9743C15.3915 10.9911 15.4198 11.0001 15.4487 11C15.4777 10.9999 15.5058 10.9907 15.5293 10.9737C15.5527 10.9567 15.5701 10.9327 15.5792 10.9052C15.5882 10.8777 15.5884 10.8481 15.5797 10.8205L15.4433 10.3893L15.8071 10.1206C15.8304 10.1034 15.8478 10.0793 15.8566 10.0518C15.8655 10.0242 15.8654 9.99451 15.8565 9.96696C15.8475 9.93941 15.8301 9.91538 15.8067 9.89828C15.7834 9.88118 15.7552 9.87188 15.7262 9.87169L15.2739 9.86818L15.1309 9.43912C15.1217 9.41166 15.1041 9.38778 15.0806 9.37086C15.0571 9.35394 15.0289 9.34483 15 9.34482Z" fill="#F5F5F5"/>
<path d="M15.4482 5.37178C15.434 5.37178 15.4201 5.36736 15.4081 5.35896L15 5.06705L14.5918 5.359C14.5801 5.36728 14.5661 5.37175 14.5517 5.37181C14.5376 5.37181 14.5233 5.3674 14.5112 5.35865C14.4995 5.35008 14.4908 5.33808 14.4863 5.32432C14.4817 5.31056 14.4816 5.29572 14.4859 5.28189L14.6373 4.80369L14.2339 4.50568C14.2223 4.49707 14.2136 4.48503 14.2092 4.47127C14.2048 4.4575 14.2048 4.4427 14.2092 4.42892C14.2137 4.41515 14.2224 4.40313 14.2341 4.39455C14.2457 4.38597 14.2598 4.38127 14.2743 4.38111L14.7759 4.3774L14.9346 3.90158C14.944 3.87365 14.9704 3.85443 15.0001 3.85443C15.0297 3.85443 15.0562 3.87361 15.0656 3.90158L15.2242 4.3774L15.7258 4.38111C15.7555 4.38146 15.7817 4.40064 15.791 4.42892C15.7954 4.4427 15.7953 4.4575 15.7909 4.47127C15.7865 4.48503 15.7778 4.49706 15.7662 4.50568L15.3628 4.80369L15.5142 5.28189C15.5185 5.29572 15.5184 5.31056 15.5139 5.32433C15.5093 5.33809 15.5006 5.35009 15.4889 5.35865C15.4767 5.3674 15.4624 5.37178 15.4482 5.37178Z" fill="#FF4B55"/>
<path d="M15 3.92333L15.1742 4.44591L15.7251 4.45017L15.2819 4.77739L15.4481 5.30263L15 4.98228L14.5518 5.30263L14.718 4.77739L14.2748 4.45017L14.8257 4.44591L15 3.92333ZM15 3.7854C14.971 3.7854 14.9428 3.79451 14.9193 3.81143C14.8958 3.82836 14.8783 3.85224 14.8691 3.8797L14.726 4.30876L14.2738 4.31228C14.2448 4.31246 14.2166 4.32176 14.1932 4.33886C14.1699 4.35596 14.1525 4.37999 14.1435 4.40754C14.1345 4.43509 14.1345 4.46476 14.1434 4.49234C14.1522 4.51991 14.1695 4.544 14.1929 4.56118L14.5567 4.82985L14.4203 5.26106C14.4116 5.28866 14.4118 5.3183 14.4208 5.34578C14.4299 5.37327 14.4474 5.3972 14.4708 5.41421C14.4942 5.43122 14.5224 5.44043 14.5513 5.44054C14.5802 5.44066 14.6085 5.43167 14.632 5.41485L15 5.15185L15.368 5.41485C15.3915 5.43167 15.4198 5.44065 15.4487 5.44055C15.4777 5.44044 15.5058 5.43125 15.5293 5.41427C15.5527 5.39725 15.5701 5.37329 15.5792 5.3458C15.5882 5.31831 15.5884 5.28866 15.5797 5.26106L15.4433 4.82985L15.8071 4.56118C15.8549 4.52591 15.8747 4.46407 15.8563 4.40759C15.838 4.3511 15.7856 4.31271 15.7262 4.31228L15.2739 4.30876L15.1309 3.8797C15.1217 3.85224 15.1041 3.82836 15.0806 3.81144C15.0571 3.79452 15.0289 3.78541 15 3.7854Z" fill="#F5F5F5"/>
<path d="M17.862 7.09594C17.8478 7.09594 17.8339 7.09152 17.8219 7.08312L17.4138 6.79117L17.0056 7.08312C16.9939 7.0914 16.9799 7.09587 16.9656 7.09594C16.9514 7.09594 16.9371 7.09152 16.925 7.08277C16.9133 7.0742 16.9046 7.0622 16.9001 7.04844C16.8955 7.03468 16.8954 7.01985 16.8997 7.00601L17.0511 6.52781L16.6477 6.2298C16.6361 6.22119 16.6275 6.20916 16.623 6.19539C16.6186 6.18163 16.6186 6.16682 16.623 6.15304C16.6275 6.13927 16.6362 6.12725 16.6479 6.11867C16.6596 6.1101 16.6736 6.1054 16.6881 6.10523L17.1897 6.10152L17.3484 5.6257C17.3578 5.59777 17.3842 5.57855 17.4139 5.57855C17.4435 5.57855 17.47 5.59773 17.4794 5.6257L17.638 6.10152L18.1396 6.10523C18.1693 6.10558 18.1955 6.12476 18.2048 6.15304C18.2092 6.16682 18.2092 6.18162 18.2047 6.19539C18.2003 6.20915 18.1917 6.22118 18.1801 6.2298L17.7767 6.52781L17.928 7.00601C17.9323 7.01985 17.9322 7.03468 17.9277 7.04845C17.9232 7.06221 17.9144 7.07421 17.9027 7.08277C17.8909 7.09129 17.8766 7.09589 17.862 7.09594Z" fill="#FF4B55"/>
<path d="M17.4138 5.64748L17.588 6.17006L18.1389 6.17432L17.6957 6.50154L17.8619 7.02678L17.4137 6.70643L16.9655 7.02678L17.1317 6.50158L16.6886 6.17436L17.2394 6.1701L17.4138 5.64748ZM17.4138 5.50955C17.3848 5.50956 17.3566 5.51866 17.3331 5.53559C17.3096 5.55251 17.2921 5.57639 17.2829 5.60385L17.1398 6.03291L16.6875 6.03643C16.6586 6.03661 16.6304 6.04592 16.607 6.06302C16.5836 6.08012 16.5662 6.10415 16.5573 6.13169C16.5483 6.15924 16.5483 6.18891 16.5571 6.21649C16.566 6.24407 16.5833 6.26815 16.6066 6.28533L16.9705 6.554L16.8341 6.98522C16.8275 7.00588 16.826 7.0278 16.8295 7.04919C16.833 7.07057 16.8415 7.09083 16.8543 7.10831C16.8671 7.1258 16.8839 7.14002 16.9032 7.14982C16.9225 7.15963 16.9439 7.16474 16.9656 7.16475C16.9937 7.16475 17.0218 7.15615 17.0458 7.13901L17.4138 6.876L17.7817 7.13901C17.8053 7.15582 17.8335 7.16481 17.8625 7.1647C17.8914 7.1646 17.9196 7.1554 17.943 7.13842C17.9665 7.1214 17.9839 7.09744 17.993 7.06995C18.002 7.04246 18.0022 7.01282 17.9935 6.98522L17.8571 6.554L18.2209 6.28533C18.2687 6.25006 18.2885 6.18822 18.2701 6.13174C18.2518 6.07525 18.1994 6.03686 18.14 6.03643L17.6877 6.03291L17.5447 5.60385C17.5355 5.57639 17.5179 5.5525 17.4944 5.53558C17.4709 5.51866 17.4427 5.50955 17.4138 5.50955Z" fill="#F5F5F5"/>
<path d="M13.0344 7.78557C13.0202 7.78557 13.0063 7.78116 12.9943 7.77276L12.5862 7.48081L12.1781 7.77276C12.1663 7.78103 12.1523 7.78551 12.138 7.78557C12.1238 7.78557 12.1095 7.78116 12.0974 7.77241C12.0858 7.76384 12.077 7.75184 12.0725 7.73808C12.068 7.72432 12.0679 7.70948 12.0722 7.69565L12.2235 7.21745L11.8201 6.91944C11.8085 6.91082 11.7999 6.89879 11.7955 6.88503C11.791 6.87126 11.791 6.85646 11.7954 6.84268C11.7999 6.8289 11.8086 6.81688 11.8203 6.80831C11.832 6.79973 11.8461 6.79503 11.8606 6.79487L12.3622 6.79116L12.5208 6.31534C12.5302 6.28741 12.5567 6.26819 12.5863 6.26819C12.616 6.26819 12.6424 6.28737 12.6518 6.31534L12.8104 6.79116L13.312 6.79487C13.3417 6.79522 13.3679 6.8144 13.3772 6.84268C13.3816 6.85646 13.3816 6.87126 13.3771 6.88502C13.3727 6.89879 13.3641 6.91082 13.3525 6.91944L12.9491 7.21745L13.1004 7.69565C13.1048 7.70948 13.1047 7.72432 13.1001 7.73808C13.0956 7.75185 13.0869 7.76385 13.0752 7.77241C13.0633 7.78094 13.049 7.78555 13.0344 7.78557Z" fill="#FF4B55"/>
<path d="M12.5862 6.33712L12.7604 6.8597L13.3113 6.86395L12.8681 7.19118L13.0343 7.71641L12.5861 7.39606L12.138 7.71641L12.3041 7.19118L11.861 6.86395L12.4118 6.8597L12.5862 6.33712ZM12.5862 6.19919C12.5572 6.19919 12.529 6.2083 12.5055 6.22522C12.482 6.24215 12.4645 6.26603 12.4553 6.29349L12.3122 6.72255L11.86 6.72606C11.831 6.72625 11.8028 6.73555 11.7794 6.75265C11.7561 6.76975 11.7387 6.79378 11.7297 6.82133C11.7208 6.84888 11.7207 6.87854 11.7296 6.90612C11.7384 6.9337 11.7557 6.95779 11.7791 6.97497L12.1429 7.24364L12.0065 7.67485C12 7.69552 11.9984 7.71744 12.0019 7.73882C12.0054 7.76021 12.0139 7.78047 12.0268 7.79795C12.0396 7.81544 12.0563 7.82966 12.0756 7.83946C12.095 7.84927 12.1163 7.85438 12.138 7.85438C12.1661 7.85438 12.1942 7.84579 12.2182 7.82864L12.5862 7.56563L12.9541 7.82864C12.9777 7.84545 13.0059 7.85444 13.0349 7.85434C13.0638 7.85423 13.092 7.84504 13.1154 7.82806C13.1388 7.81103 13.1563 7.78708 13.1654 7.75959C13.1744 7.73209 13.1746 7.70245 13.1659 7.67485L13.0295 7.24364L13.3933 6.97497C13.4166 6.95777 13.4339 6.93369 13.4427 6.90612C13.4515 6.87855 13.4515 6.8489 13.4425 6.82138C13.4336 6.79384 13.4162 6.76982 13.3928 6.75271C13.3695 6.7356 13.3413 6.72628 13.3124 6.72606L12.8601 6.72255L12.717 6.29349C12.7079 6.26603 12.6903 6.24215 12.6668 6.22522C12.6433 6.2083 12.6151 6.19919 12.5862 6.19919Z" fill="#F5F5F5"/>
</svg>
