<svg width="28" height="20" viewBox="0 0 28 20" fill="none" xmlns="http://www.w3.org/2000/svg">
<path d="M27.6059 7.00547L25.9652 2.90391C25.8444 2.5988 25.6344 2.3372 25.3626 2.15324C25.0909 1.96928 24.77 1.8715 24.4418 1.87266H20.1562V0.703125C20.1562 0.516645 20.0822 0.337802 19.9503 0.20594C19.8184 0.0740789 19.6396 0 19.4531 0H1.64062C1.2055 0 0.788205 0.172851 0.480528 0.480528C0.172851 0.788205 0 1.2055 0 1.64062V14.7656C0 15.2007 0.172851 15.618 0.480528 15.9257C0.788205 16.2334 1.2055 16.4062 1.64062 16.4062H3.82031C3.98169 17.201 4.41286 17.9155 5.04076 18.4287C5.66865 18.9419 6.45467 19.2223 7.26562 19.2223C8.07658 19.2223 8.86259 18.9419 9.49049 18.4287C10.1184 17.9155 10.5496 17.201 10.7109 16.4062H16.9453C17.1067 17.201 17.5379 17.9155 18.1658 18.4287C18.7937 18.9419 19.5797 19.2223 20.3906 19.2223C21.2016 19.2223 21.9876 18.9419 22.6155 18.4287C23.2434 17.9155 23.6746 17.201 23.8359 16.4062H26.0156C26.4507 16.4062 26.868 16.2334 27.1757 15.9257C27.4834 15.618 27.6562 15.2007 27.6562 14.7656V7.26562C27.6561 7.1765 27.639 7.08821 27.6059 7.00547ZM20.1562 3.28125H24.443C24.4899 3.2812 24.5358 3.29526 24.5746 3.32158C24.6135 3.34791 24.6436 3.3853 24.6609 3.42891L25.9148 6.5625H20.1562V3.28125ZM1.40625 1.64062C1.40625 1.57846 1.43094 1.51885 1.4749 1.4749C1.51885 1.43094 1.57846 1.40625 1.64062 1.40625H18.75V9.375H1.40625V1.64062ZM7.26562 17.8125C6.84843 17.8125 6.4406 17.6888 6.09372 17.457C5.74683 17.2252 5.47647 16.8958 5.31682 16.5103C5.15716 16.1249 5.11539 15.7008 5.19678 15.2916C5.27817 14.8824 5.47907 14.5066 5.77407 14.2116C6.06907 13.9166 6.44493 13.7157 6.85411 13.6343C7.26328 13.5529 7.68741 13.5947 8.07285 13.7543C8.45829 13.914 8.78773 14.1843 9.01951 14.5312C9.25129 14.8781 9.375 15.2859 9.375 15.7031C9.375 16.2626 9.15276 16.7991 8.75718 17.1947C8.36159 17.5903 7.82507 17.8125 7.26562 17.8125ZM16.9453 15H10.7109C10.5496 14.2053 10.1184 13.4908 9.49049 12.9775C8.86259 12.4643 8.07658 12.184 7.26562 12.184C6.45467 12.184 5.66865 12.4643 5.04076 12.9775C4.41286 13.4908 3.98169 14.2053 3.82031 15H1.64062C1.57846 15 1.51885 14.9753 1.4749 14.9314C1.43094 14.8874 1.40625 14.8278 1.40625 14.7656V10.7812H18.75V12.5953C18.2906 12.8384 17.8906 13.18 17.5786 13.5957C17.2666 14.0115 17.0504 14.491 16.9453 15ZM20.3906 17.8125C19.9734 17.8125 19.5656 17.6888 19.2187 17.457C18.8718 17.2252 18.6015 16.8958 18.4418 16.5103C18.2822 16.1249 18.2404 15.7008 18.3218 15.2916C18.4032 14.8824 18.6041 14.5066 18.8991 14.2116C19.1941 13.9166 19.5699 13.7157 19.9791 13.6343C20.3883 13.5529 20.8124 13.5947 21.1978 13.7543C21.5833 13.914 21.9127 14.1843 22.1445 14.5312C22.3763 14.8781 22.5 15.2859 22.5 15.7031C22.5 16.2626 22.2778 16.7991 21.8822 17.1947C21.4866 17.5903 20.9501 17.8125 20.3906 17.8125ZM26.25 14.7656C26.25 14.8278 26.2253 14.8874 26.1814 14.9314C26.1374 14.9753 26.0778 15 26.0156 15H23.8359C23.6728 14.2064 23.2411 13.4934 22.6135 12.981C21.9859 12.4687 21.2008 12.1884 20.3906 12.1875C20.3121 12.1875 20.2336 12.1875 20.1562 12.1957V7.96875H26.25V14.7656Z" fill="#ffffff"/>
</svg>
