<svg width="15" height="16" viewBox="0 0 15 16" fill="none" xmlns="http://www.w3.org/2000/svg">
<path d="M14.3 14.2L11.6 11.2C12.6 10 13.1 8.6 13.1 7C13.1 3.4 10.3 0.5 6.90001 0.5C3.50001 0.5 0.700012 3.4 0.700012 7C0.700012 10.6 3.50001 13.5 6.90001 13.5C8.20001 13.5 9.40001 13.1 10.5 12.3L13.2 15.3C13.5 15.6 14 15.6 14.3 15.4C14.6 15.1 14.6 14.6 14.3 14.2ZM6.80001 11.9C4.30001 11.9 2.20001 9.8 2.20001 7.1C2.20001 4.5 4.30001 2.3 6.80001 2.3C9.30001 2.3 11.4 4.4 11.4 7.1C11.4 9.7 9.30001 11.9 6.80001 11.9Z" fill="#7C7C7C"/>
</svg>
