<svg width="25" height="17" viewBox="0 0 25 17" fill="none" xmlns="http://www.w3.org/2000/svg">
<path d="M24.1 16.3H1.10001C0.900014 16.3 0.700012 16.1 0.700012 15.9V1.1C0.700012 0.899997 0.900014 0.699997 1.10001 0.699997H24.2C24.4 0.699997 24.6 0.899997 24.6 1.1V15.9C24.6 16.1 24.4 16.3 24.1 16.3Z" fill="#41479B"/>
<path d="M24.6 1.1C24.6 0.899997 24.4 0.699997 24.2 0.699997H22.4L14.8 5.7V0.699997H10.7V5.7L3.10002 0.699997H1.30003C1.10003 0.699997 0.900024 0.899997 0.900024 1.1V2.2L7.40002 6.5H0.900024V10.6H7.40002L0.900024 14.9V16C0.900024 16.2 1.10003 16.4 1.30003 16.4H3.10002L10.7 11.4V16.4H14.8V11.4L22.4 16.4H24.2C24.4 16.4 24.6 16.2 24.6 16V14.9L18 10.5H24.5V6.4H18L24.5 2.1C24.6 2.1 24.6 1.1 24.6 1.1Z" fill="#F5F5F5"/>
<path d="M24.6 7.20001H13.9V0.600006H11.4V7.20001H0.700012V9.70001H11.4V16.3H13.9V9.70001H24.6V7.20001Z" fill="#FF4B55"/>
<path d="M9.00002 10.5L0.700012 15.9C0.700012 16.1 0.900014 16.3 1.10001 16.3H1.70001L10.6 10.5H9.00002ZM16.8 10.5H15.3L24.2 16.3C24.4 16.3 24.6 16.1 24.6 15.9V15.6L16.8 10.5ZM0.700012 1.50001L8.20001 6.40001H9.70001L0.900017 0.700012C0.800017 0.800012 0.700012 0.900012 0.700012 1.10001V1.50001ZM16.2 6.40001L24.6 1.00001C24.6 0.800012 24.4 0.700012 24.2 0.700012H23.6L14.7 6.50001L16.2 6.40001Z" fill="#FF4B55"/>
</svg>
