<svg width="25" height="17" viewBox="0 0 25 17" fill="none" xmlns="http://www.w3.org/2000/svg">
<g clip-path="url(#clip0_6_143)">
<path d="M6.80002 -38.7L7.10001 -37.7L8.10001 -38.1C8.10001 -38.1 8.20001 -38.1 8.20001 -38V-37.9L7.60001 -37L8.50002 -36.5C8.60002 -36.5 8.60002 -36.3 8.50002 -36.3L7.40002 -36.2L7.60001 -35.1C7.60001 -35 7.50002 -35 7.40002 -35L6.70001 -35.8L6.00002 -35.2H5.90002V-35.3L6.10001 -36.4L5.00002 -36.5C4.90002 -36.5 4.90002 -36.6 5.00002 -36.7L5.90002 -37.2L5.20001 -38V-38.1H5.30002L6.30002 -37.7L6.60001 -38.7C6.60001 -38.8 6.70002 -38.8 6.80002 -38.7ZM19 -46L19.2 -45.5L19.7 -45.7C19.7 -45.7 19.8 -45.7 19.8 -45.6L19.5 -45.2L20 -44.9V-44.8H19.5L19.6 -44.3C19.6 -44.3 19.6 -44.2 19.5 -44.3L19 -44.7L18.6 -44.3H18.5L18.6 -44.8H18.1L18.6 -45.1L18.3 -45.5C18.3 -45.5 18.3 -45.5 18.3 -45.6L18.8 -45.4L19 -46ZM15.6 -42.2L15.8 -41.7L16.3 -41.9C16.3 -41.9 16.4 -41.9 16.4 -41.8L16 -41.4L16.5 -41.1V-41H16L16.1 -40.5C16.1 -40.5 16.1 -40.4 16 -40.5L15.6 -40.9L15.2 -40.5H15.1L15.2 -41H14.7L15.2 -41.3L14.9 -41.7C14.9 -41.7 14.9 -41.7 14.9 -41.8L15.4 -41.6L15.6 -42.2ZM22.2 -43.8L22.4 -43.3L22.9 -43.5C22.9 -43.5 23 -43.5 23 -43.4L22.6 -43L23.1 -42.7V-42.6H22.6L22.7 -42.1C22.7 -42.1 22.7 -42 22.6 -42.1L22.2 -42.5L21.8 -42.1H21.7L21.8 -42.6H21.3L21.8 -42.9L21.5 -43.3C21.5 -43.3 21.5 -43.3 21.5 -43.4L22 -43.2L22.2 -43.8ZM19 -37.2L19.2 -36.7L19.7 -36.9C19.7 -36.9 19.8 -36.9 19.8 -36.8L19.5 -36.4L20 -36.1V-36H19.5L19.6 -35.5C19.6 -35.5 19.6 -35.4 19.5 -35.5L19 -35.9L18.6 -35.5H18.5L18.6 -36H18.1L18.6 -36.3L18.3 -36.7C18.3 -36.7 18.3 -36.7 18.3 -36.8L18.8 -36.6L19 -37.2C19 -37.3 18.9 -37.3 19 -37.2ZM20.2 -41.3L20.1 -40.9H19.7C19.6 -40.9 19.6 -40.8 19.7 -40.8L20 -40.6L19.9 -40.2V-40.1L20.2 -40.3L20.5 -40.1H20.6L20.5 -40.5L20.8 -40.7C20.8 -40.7 20.9 -40.7 20.9 -40.8C20.9 -40.9 20.9 -40.9 20.8 -40.9H20.4L20.2 -41.3ZM24.1 16.5H1.10001C0.900014 16.5 0.700012 16.3 0.700012 16.1V1.3C0.700012 1.1 0.900014 0.900002 1.10001 0.900002H24.1C24.3 0.900002 24.5 1.1 24.5 1.3V16.1C24.5 16.3 24.3 16.5 24.1 16.5Z" fill="#F5F5F5"/>
<path d="M24.5 2.09999H0.700012V1.3C0.700012 1.1 0.900014 0.899994 1.10001 0.899994H24.1C24.3 0.899994 24.5 1.1 24.5 1.3V2.09999ZM0.700012 5.69999H24.5V6.89999H0.700012V5.69999ZM0.700012 3.3H24.5V4.49999H0.700012V3.3ZM24.5 9.3H1.10001C0.900014 9.3 0.700012 9.09999 0.700012 8.89999V8.09999H24.5V9.3ZM0.700012 12.9H24.5V14.1H0.700012V12.9ZM24.1 16.5H1.10001C0.900014 16.5 0.700012 16.3 0.700012 16.1V15.3H24.5V16.1C24.5 16.3 24.3 16.5 24.1 16.5ZM0.700012 10.5H24.5V11.7H0.700012V10.5Z" fill="#FF4B55"/>
<path d="M11.4 0.899994H1.10001C0.900014 0.899994 0.700012 1.1 0.700012 1.3V8.89999C0.700012 9.09999 0.900014 9.3 1.10001 9.3H11.4C11.6 9.3 11.8 9.09999 11.8 8.89999V1.3C11.8 1.1 11.6 0.899994 11.4 0.899994Z" fill="#41479B"/>
<path d="M1.90002 1.90001L2.00002 2.20001H2.30003C2.30003 2.20001 2.40003 2.20001 2.30003 2.30001L2.00002 2.40001L2.10002 2.70001C2.10002 2.70001 2.10002 2.80001 2.00002 2.70001L1.80003 2.50001L1.60002 2.70001H1.50002L1.60002 2.40001L1.40002 2.20001C1.40002 2.20001 1.40002 2.20001 1.40002 2.10001H1.70002L1.90002 1.90001C1.80002 1.80001 1.80002 1.80001 1.90002 1.90001ZM1.90002 3.30001L2.00002 3.60001H2.30003C2.30003 3.60001 2.40003 3.60001 2.30003 3.70001L2.00002 3.80001L2.10002 4.10001C2.10002 4.10001 2.10002 4.20001 2.00002 4.10001L1.80003 4.00001L1.60002 4.20001H1.50002L1.60002 3.90001L1.40002 3.70001C1.40002 3.70001 1.40002 3.70001 1.40002 3.60001H1.70002L1.90002 3.30001C1.80002 3.30001 1.80002 3.30001 1.90002 3.30001ZM1.90002 4.70001L2.00002 5.00001H2.30003C2.30003 5.00001 2.40003 5.00001 2.30003 5.10001L2.00002 5.20001L2.10002 5.50001C2.10002 5.50001 2.10002 5.60001 2.00002 5.50001L1.80003 5.30001L1.60002 5.50001H1.50002L1.60002 5.20001L1.40002 5.00001C1.40002 5.00001 1.40002 5.00001 1.40002 4.90001H1.70002L1.90002 4.70001C1.80002 4.70001 1.80002 4.70001 1.90002 4.70001ZM1.90002 6.10001L2.00002 6.40001H2.30003C2.30003 6.40001 2.40003 6.40001 2.30003 6.50001L2.00002 6.70001L2.10002 7.00001C2.10002 7.00001 2.10002 7.10001 2.00002 7.00001L1.80003 6.80001L1.60002 7.00001H1.50002L1.60002 6.70001L1.40002 6.50001C1.40002 6.50001 1.40002 6.50001 1.40002 6.40001H1.70002L1.90002 6.10001C1.80002 6.10001 1.80002 6.10001 1.90002 6.10001ZM1.90002 7.60001L2.00002 7.90001H2.30003C2.30003 7.90001 2.40003 7.90001 2.30003 8.00001L2.00002 8.10001L2.10002 8.40001C2.10002 8.40001 2.10002 8.50001 2.00002 8.40001L1.80003 8.20001L1.60002 8.40001H1.50002L1.60002 8.10001L1.40002 7.90001C1.40002 7.90001 1.40002 7.90001 1.40002 7.80001H1.70002L1.90002 7.60001C1.80002 7.50001 1.80002 7.50001 1.90002 7.60001ZM3.00002 2.60001L3.10002 2.90001H3.40002C3.40002 2.90001 3.50002 2.90001 3.40002 3.00001L3.20002 3.20001L3.30003 3.50001C3.30003 3.50001 3.30002 3.60001 3.20002 3.50001L3.00002 3.30001L2.80003 3.50001H2.70002L2.80003 3.20001L2.60002 3.00001C2.60002 3.00001 2.60002 3.00001 2.60002 2.90001H2.90002L3.00002 2.60001C2.90002 2.50001 2.90002 2.50001 3.00002 2.60001ZM3.00002 4.00001L3.10002 4.30001H3.40002C3.40002 4.30001 3.50002 4.30001 3.40002 4.40001L3.20002 4.60001L3.30003 4.90001C3.30003 4.90001 3.30002 5.00001 3.20002 4.90001L3.00002 4.70001L2.80003 4.90001H2.70002L2.80003 4.60001L2.60002 4.40001C2.60002 4.40001 2.60002 4.40001 2.60002 4.30001H2.90002L3.00002 4.00001C2.90002 4.00001 2.90002 4.00001 3.00002 4.00001ZM3.00002 5.40001L3.10002 5.70001H3.40002C3.40002 5.70001 3.50002 5.70001 3.40002 5.80001L3.20002 6.00001L3.30003 6.30001C3.30003 6.30001 3.30002 6.40001 3.20002 6.30001L3.00002 6.10001L2.80003 6.30001H2.70002L2.80003 6.00001L2.60002 5.80001C2.60002 5.80001 2.60002 5.80001 2.60002 5.70001H2.90002L3.00002 5.40001C2.90002 5.40001 2.90002 5.40001 3.00002 5.40001ZM3.00002 6.80001L3.10002 7.10001H3.40002C3.40002 7.10001 3.50002 7.10001 3.40002 7.20001L3.20002 7.40001L3.30003 7.70001C3.30003 7.70001 3.30002 7.80001 3.20002 7.70001L3.00002 7.50001L2.80003 7.70001H2.70002L2.80003 7.40001L2.60002 7.20001C2.60002 7.20001 2.60002 7.20001 2.60002 7.10001H2.90002L3.00002 6.80001C2.90002 6.80001 2.90002 6.80001 3.00002 6.80001ZM4.10002 1.90001L4.20002 2.20001H4.50002C4.50002 2.20001 4.60002 2.20001 4.50002 2.30001L4.30003 2.50001L4.40002 2.80001C4.40002 2.80001 4.40003 2.90001 4.30003 2.80001L4.00002 2.50001L3.80003 2.70001H3.70002L3.80003 2.40001L3.60002 2.20001C3.60002 2.20001 3.60002 2.20001 3.60002 2.10001H3.90002L4.10002 1.90001C4.10002 1.80001 4.00002 1.80001 4.10002 1.90001ZM4.10002 3.30001L4.20002 3.60001H4.50002C4.50002 3.60001 4.60002 3.60001 4.50002 3.70001L4.30003 3.90001L4.40002 4.20001C4.40002 4.20001 4.40003 4.30001 4.30003 4.20001L4.00002 4.00001L3.80003 4.20001H3.70002L3.80003 3.90001L3.60002 3.70001C3.60002 3.70001 3.60002 3.70001 3.60002 3.60001H3.90002L4.10002 3.30001ZM4.10002 4.70001L4.20002 5.00001H4.50002C4.50002 5.00001 4.60002 5.00001 4.50002 5.10001L4.30003 5.30001L4.40002 5.60001C4.40002 5.60001 4.40003 5.70001 4.30003 5.60001L4.00002 5.40001L3.80003 5.60001H3.70002L3.80003 5.30001L3.60002 5.10001C3.60002 5.10001 3.60002 5.10001 3.60002 5.00001H3.90002L4.10002 4.70001ZM4.10002 6.10001L4.20002 6.40001H4.50002C4.50002 6.40001 4.60002 6.40001 4.50002 6.50001L4.30003 6.70001L4.40002 7.00001C4.40002 7.00001 4.40003 7.10001 4.30003 7.00001L4.00002 6.80001L3.80003 7.00001H3.70002L3.80003 6.70001L3.60002 6.50001C3.60002 6.50001 3.60002 6.50001 3.60002 6.40001H3.90002L4.10002 6.10001ZM4.10002 7.60001L4.20002 7.90001H4.50002C4.50002 7.90001 4.60002 7.90001 4.50002 8.00001L4.30003 8.20001L4.40002 8.50001C4.40002 8.50001 4.40003 8.60001 4.30003 8.50001L4.00002 8.20001L3.80003 8.40001H3.70002L3.80003 8.10001L3.60002 7.90001C3.60002 7.90001 3.60002 7.90001 3.60002 7.80001H3.90002L4.10002 7.60001C4.10002 7.50001 4.00002 7.50001 4.10002 7.60001ZM5.20002 2.60001L5.30003 2.90001H5.60002C5.60002 2.90001 5.70002 2.90001 5.60002 3.00001L5.40002 3.20001L5.50002 3.50001C5.50002 3.50001 5.50002 3.60001 5.40002 3.50001L5.20002 3.30001L5.00002 3.50001H4.90002L5.00002 3.20001L4.80003 3.00001C4.80003 3.00001 4.80003 3.00001 4.80003 2.90001H5.10002L5.20002 2.60001C5.20002 2.50001 5.10002 2.50001 5.20002 2.60001ZM5.20002 4.00001L5.30003 4.30001H5.60002C5.60002 4.30001 5.70002 4.30001 5.60002 4.40001L5.40002 4.60001L5.50002 4.90001C5.50002 4.90001 5.50002 5.00001 5.40002 4.90001L5.20002 4.70001L5.00002 4.90001H4.90002L5.00002 4.60001L4.80003 4.40001C4.80003 4.40001 4.80003 4.40001 4.80003 4.30001H5.10002L5.20002 4.00001ZM5.20002 5.40001L5.30003 5.70001H5.60002C5.60002 5.70001 5.70002 5.70001 5.60002 5.80001L5.40002 6.00001L5.50002 6.30001C5.50002 6.30001 5.50002 6.40001 5.40002 6.30001L5.20002 6.10001L5.00002 6.30001H4.90002L5.00002 6.00001L4.80003 5.80001C4.80003 5.80001 4.80003 5.80001 4.80003 5.70001H5.10002L5.20002 5.40001ZM5.20002 6.80001L5.30003 7.10001H5.60002C5.60002 7.10001 5.70002 7.10001 5.60002 7.20001L5.40002 7.40001L5.50002 7.70001C5.50002 7.70001 5.50002 7.80001 5.40002 7.70001L5.20002 7.50001L5.00002 7.70001H4.90002L5.00002 7.40001L4.80003 7.20001C4.80003 7.20001 4.80003 7.20001 4.80003 7.10001H5.10002L5.20002 6.80001C5.10002 6.80001 5.10002 6.80001 5.20002 6.80001ZM6.30003 1.90001L6.40002 2.20001H6.70002C6.70002 2.20001 6.80002 2.20001 6.70002 2.30001L6.50002 2.50001L6.60002 2.80001C6.60002 2.80001 6.60002 2.90001 6.50002 2.80001L6.30003 2.60001L6.00002 2.70001H5.90002L6.00002 2.40001L5.80003 2.20001C5.80003 2.20001 5.80003 2.20001 5.80003 2.10001H6.10002L6.30003 1.90001C6.30003 1.80001 6.20003 1.80001 6.30003 1.90001ZM6.30003 3.30001L6.40002 3.60001H6.70002C6.70002 3.60001 6.80002 3.60001 6.70002 3.70001L6.50002 3.90001L6.60002 4.20001C6.60002 4.20001 6.60002 4.30001 6.50002 4.20001L6.20002 4.00001L6.00002 4.10001H5.90002L6.00002 3.80001L5.80003 3.60001C5.80003 3.60001 5.80003 3.60001 5.80003 3.50001H6.10002L6.30003 3.30001ZM6.30003 4.70001L6.40002 5.00001H6.70002C6.70002 5.00001 6.80002 5.00001 6.70002 5.10001L6.50002 5.30001L6.60002 5.60001C6.60002 5.60001 6.60002 5.70001 6.50002 5.60001L6.30003 5.40001L6.00002 5.50001H5.90002L6.00002 5.20001L5.80003 5.00001C5.80003 5.00001 5.80003 5.00001 5.80003 4.90001H6.10002L6.30003 4.70001ZM6.30003 6.10001L6.40002 6.40001H6.70002C6.70002 6.40001 6.80002 6.40001 6.70002 6.50001L6.50002 6.70001L6.60002 7.00001C6.60002 7.00001 6.60002 7.10001 6.50002 7.00001L6.30003 6.80001L6.00002 7.00001H5.90002L6.00002 6.70001L5.80003 6.50001C5.80003 6.50001 5.80003 6.50001 5.80003 6.40001H6.10002L6.30003 6.10001ZM6.30003 7.60001L6.40002 7.90001H6.70002C6.70002 7.90001 6.80002 7.90001 6.70002 8.00001L6.50002 8.20001L6.60002 8.50001C6.60002 8.50001 6.60002 8.60001 6.50002 8.50001L6.30003 8.30001L6.00002 8.40001H5.90002L6.00002 8.10001L5.80003 7.90001C5.80003 7.90001 5.80003 7.90001 5.80003 7.80001H6.10002L6.30003 7.60001C6.30003 7.50001 6.20003 7.50001 6.30003 7.60001ZM7.40002 2.60001L7.50002 2.90001H7.80003C7.80003 2.90001 7.90003 2.90001 7.80003 3.00001L7.60002 3.20001L7.70002 3.50001C7.70002 3.50001 7.70002 3.60001 7.60002 3.50001L7.40002 3.30001L7.20002 3.50001H7.10002L7.20002 3.20001L7.00002 3.00001C7.00002 3.00001 7.00002 3.00001 7.00002 2.90001H7.30003L7.40002 2.60001C7.40002 2.50001 7.30002 2.50001 7.40002 2.60001ZM7.40002 4.00001L7.50002 4.30001H7.80003C7.80003 4.30001 7.90003 4.30001 7.80003 4.40001L7.60002 4.60001L7.70002 4.90001C7.70002 4.90001 7.70002 5.00001 7.60002 4.90001L7.40002 4.70001L7.20002 4.90001H7.10002L7.20002 4.60001L7.00002 4.40001C7.00002 4.40001 7.00002 4.40001 7.00002 4.30001H7.30003L7.40002 4.00001ZM7.40002 5.40001L7.50002 5.70001H7.80003C7.80003 5.70001 7.90003 5.70001 7.80003 5.80001L7.60002 6.00001L7.70002 6.30001C7.70002 6.30001 7.70002 6.40001 7.60002 6.30001L7.40002 6.10001L7.20002 6.30001H7.10002L7.20002 6.00001L7.00002 5.80001C7.00002 5.80001 7.00002 5.80001 7.00002 5.70001H7.30003L7.40002 5.40001ZM7.40002 6.80001L7.50002 7.10001H7.80003C7.80003 7.10001 7.90003 7.10001 7.80003 7.20001L7.60002 7.40001L7.70002 7.70001C7.70002 7.70001 7.70002 7.80001 7.60002 7.70001L7.40002 7.50001L7.20002 7.70001H7.10002L7.20002 7.40001L7.00002 7.20001C7.00002 7.20001 7.00002 7.20001 7.00002 7.10001H7.30003L7.40002 6.80001ZM8.50002 1.90001L8.60002 2.20001H8.90002C8.90002 2.20001 9.00002 2.20001 8.90002 2.30001L8.70002 2.50001L8.80003 2.80001C8.80003 2.80001 8.80002 2.90001 8.70002 2.80001L8.50002 2.60001L8.30003 2.80001H8.20002L8.30003 2.50001L8.00002 2.20001C8.00002 2.20001 8.00002 2.20001 8.00002 2.10001H8.30003L8.50002 1.90001C8.50002 1.80001 8.40002 1.80001 8.50002 1.90001ZM8.50002 3.30001L8.60002 3.60001H8.90002C8.90002 3.60001 9.00002 3.60001 8.90002 3.70001L8.70002 3.90001L8.80003 4.20001C8.80003 4.20001 8.80002 4.30001 8.70002 4.20001L8.50002 4.00001L8.30003 4.20001H8.20002L8.30003 3.90001L8.00002 3.60001C8.00002 3.60001 8.00002 3.60001 8.00002 3.50001H8.30003L8.50002 3.30001ZM8.50002 4.70001L8.60002 5.00001H8.90002C8.90002 5.00001 9.00002 5.00001 8.90002 5.10001L8.70002 5.30001L8.80003 5.60001C8.80003 5.60001 8.80002 5.70001 8.70002 5.60001L8.50002 5.40001L8.30003 5.60001H8.20002L8.30003 5.30001L8.00002 5.10001C8.00002 5.10001 8.00002 5.10001 8.00002 5.00001H8.30003L8.50002 4.70001ZM8.50002 6.10001L8.60002 6.40001H8.90002C8.90002 6.40001 9.00002 6.40001 8.90002 6.50001L8.70002 6.70001L8.80003 7.00001C8.80003 7.00001 8.80002 7.10001 8.70002 7.00001L8.50002 6.80001L8.20002 7.00001H8.10002L8.20002 6.70001L8.00002 6.50001C8.00002 6.50001 8.00002 6.50001 8.00002 6.40001H8.30003L8.50002 6.10001ZM8.50002 7.60001L8.60002 7.90001H8.90002C8.90002 7.90001 9.00002 7.90001 8.90002 8.00001L8.70002 8.20001L8.80003 8.50001C8.80003 8.50001 8.80002 8.60001 8.70002 8.50001L8.50002 8.30001L8.30003 8.50001H8.20002L8.30003 8.20001L8.00002 7.90001C8.00002 7.90001 8.00002 7.90001 8.00002 7.80001H8.30003L8.50002 7.60001C8.50002 7.50001 8.40002 7.50001 8.50002 7.60001ZM9.60002 2.60001L9.70002 2.90001H10C10 2.90001 10.1 2.90001 10 3.00001L9.80003 3.20001L9.90002 3.50001C9.90002 3.50001 9.90003 3.60001 9.80003 3.50001L9.60002 3.30001L9.40002 3.50001H9.30003L9.40002 3.20001L9.20002 3.00001C9.20002 3.00001 9.20002 3.00001 9.20002 2.90001H9.50002L9.60002 2.60001C9.60002 2.50001 9.50002 2.50001 9.60002 2.60001ZM9.60002 4.00001L9.70002 4.30001H10C10 4.30001 10.1 4.30001 10 4.40001L9.80003 4.60001L9.90002 4.90001C9.90002 4.90001 9.90003 5.00001 9.80003 4.90001L9.60002 4.70001L9.40002 4.90001H9.30003L9.40002 4.60001L9.20002 4.40001C9.20002 4.40001 9.20002 4.40001 9.20002 4.30001H9.50002L9.60002 4.00001ZM9.60002 5.40001L9.70002 5.70001H10C10 5.70001 10.1 5.70001 10 5.80001L9.80003 6.00001L9.90002 6.30001C9.90002 6.30001 9.90003 6.40001 9.80003 6.30001L9.60002 6.10001L9.40002 6.30001H9.30003L9.40002 6.00001L9.20002 5.80001C9.20002 5.80001 9.20002 5.80001 9.20002 5.70001H9.50002L9.60002 5.40001ZM9.60002 6.80001L9.70002 7.10001H10C10 7.10001 10.1 7.10001 10 7.20001L9.80003 7.40001L9.90002 7.70001C9.90002 7.70001 9.90003 7.80001 9.80003 7.70001L9.60002 7.50001L9.40002 7.70001H9.30003L9.40002 7.40001L9.20002 7.20001C9.20002 7.20001 9.20002 7.20001 9.20002 7.10001H9.50002L9.60002 6.80001ZM10.7 1.90001L10.8 2.20001H11.1C11.1 2.20001 11.2 2.20001 11.1 2.30001L10.9 2.50001L11 2.80001C11 2.80001 11 2.90001 10.9 2.80001L10.7 2.60001L10.5 2.80001H10.4L10.5 2.50001L10.3 2.30001C10.3 2.30001 10.3 2.30001 10.3 2.20001H10.6L10.7 1.90001C10.7 1.80001 10.7 1.80001 10.7 1.90001ZM10.7 3.30001L10.8 3.60001H11.1C11.1 3.60001 11.2 3.60001 11.1 3.70001L10.9 3.90001L11 4.20001C11 4.20001 11 4.30001 10.9 4.20001L10.7 4.00001L10.5 4.20001H10.4L10.5 3.90001L10.3 3.70001C10.3 3.70001 10.3 3.70001 10.3 3.60001H10.6L10.7 3.30001ZM10.7 4.70001L10.8 5.00001H11.1C11.1 5.00001 11.2 5.00001 11.1 5.10001L10.9 5.30001L11 5.60001C11 5.60001 11 5.70001 10.9 5.60001L10.7 5.40001L10.5 5.60001H10.4L10.5 5.30001L10.3 5.10001C10.3 5.10001 10.3 5.10001 10.3 5.00001H10.6L10.7 4.70001ZM10.7 6.10001L10.8 6.40001H11.1C11.1 6.40001 11.2 6.40001 11.1 6.50001L10.9 6.70001L11 7.00001C11 7.00001 11 7.10001 10.9 7.00001L10.7 6.80001L10.4 7.00001H10.3L10.4 6.70001L10.2 6.50001C10.2 6.50001 10.2 6.50001 10.2 6.40001H10.5L10.7 6.10001ZM10.7 7.60001L10.8 7.90001H11.1C11.1 7.90001 11.2 7.90001 11.1 8.00001L10.9 8.20001L11 8.50001C11 8.50001 11 8.60001 10.9 8.50001L10.7 8.30001L10.5 8.50001H10.4L10.5 8.20001L10.3 8.00001C10.3 8.00001 10.3 8.00001 10.3 7.90001H10.6L10.7 7.60001C10.7 7.50001 10.7 7.50001 10.7 7.60001Z" fill="#F5F5F5"/>
</g>
<defs>
<clipPath id="clip0_6_143">
<rect width="23.8" height="15.6" fill="white" transform="translate(0.700012 0.899994)"/>
</clipPath>
</defs>
</svg>
