<svg width="23" height="21" viewBox="0 0 23 21" fill="none" xmlns="http://www.w3.org/2000/svg">
<path d="M8.9 0.600006H1.2C0.8 0.600006 0.5 0.899997 0.5 1.2V20C0.5 20.3 0.8 20.6 1.2 20.6H8.9C9.3 20.6 9.6 20.3 9.6 20V1.2C9.6 0.899997 9.3 0.600006 8.9 0.600006ZM7.6 18.6H2.6V17.6H5.6V15.6H2.6V14.6H4.6V12.6H2.6V11.6H5.6V9.60001H2.6V8.60001H4.6V6.60001H2.6V5.60001H5.6V3.60001H2.6V2.60001H7.6V18.6Z" fill="#7C7C7C"/>
<path d="M22.5 5.60001L17.6 0.600006C17.8 0.600006 12.6 5.60001 12.6 5.60001L12.7 6.60001C12.6 6.70001 12.6 6.79999 12.6 6.89999V19.9C12.6 20.2 12.9 20.5 13.2 20.5H17.1H22C22.2 20.5 22.3 20.4 22.4 20.3C22.5 20.2 22.6 20 22.6 19.9V6.89999C22.6 6.89999 22.5 5.70001 22.5 5.60001ZM20.6 18.6H18.6V12.6H16.6V18.6H14.6V8.60001H20.6V18.6ZM14.6 6.60001L17.6 3.60001L20.6 6.60001H14.6Z" fill="#7C7C7C"/>
</svg>
